<svg width="360" height="414" viewBox="0 0 360 414" fill="none" xmlns="http://www.w3.org/2000/svg">
<path d="M29.0951 235.637C21.1791 190.389 41.293 146.236 71.7221 111.85C100.635 79.1779 141.09 60.7821 184.749 59.7437C230.886 58.6463 278.515 70.6412 307.899 106.233C338.256 143.003 345.392 193.633 333.325 239.708C321.521 284.78 288.743 320.449 246.589 340.343C204.017 360.433 154.787 364.436 112.336 343.999C69.1471 323.208 37.348 282.811 29.0951 235.637Z" fill="#F2F2F2"/>
<path d="M123.592 254.397L123.047 284.871L75.2262 284.985L75.157 254.1L123.592 254.397Z" fill="#EBEBEB"/>
<path d="M95.4213 284.899C95.3561 284.899 95.4213 278.095 95.5801 269.703C95.7389 261.311 95.9017 254.511 95.9628 254.515C96.0239 254.519 95.9628 261.315 95.804 269.707C95.6452 278.099 95.4823 284.899 95.4213 284.899Z" fill="#E0E0E0"/>
<path d="M75.2262 284.985C75.2842 284.873 75.3495 284.766 75.4216 284.663L76.012 283.771L78.231 280.514L85.6127 269.784C88.4954 265.603 91.089 261.808 92.9415 259.039C93.8698 257.658 94.6027 256.526 95.1076 255.749C95.3478 255.37 95.5392 255.065 95.6817 254.845C95.744 254.735 95.8162 254.632 95.8975 254.535C95.8452 254.648 95.7868 254.759 95.7224 254.865L95.1809 255.794C94.7004 256.608 93.9838 257.732 93.0759 259.128C91.26 261.918 88.6867 265.729 85.8 269.915C82.9133 274.101 80.2831 277.863 78.3654 280.583L76.0894 283.804L75.4623 284.671C75.393 284.782 75.314 284.887 75.2262 284.985Z" fill="#E0E0E0"/>
<path d="M95.4212 284.899C95.3386 284.806 95.265 284.705 95.2014 284.598L94.6069 283.714L92.4449 280.457L85.2709 269.74C82.4574 265.558 79.9331 261.759 78.1416 258.986C77.2499 257.597 76.513 256.469 76.0447 255.688L75.4869 254.78C75.4168 254.678 75.3555 254.57 75.3037 254.458C75.3855 254.55 75.459 254.65 75.5236 254.755L76.118 255.639C76.6392 256.425 77.3721 257.536 78.2759 258.896L85.4541 269.613C88.2675 273.795 90.7878 277.594 92.5793 280.371C93.475 281.756 94.2079 282.884 94.6802 283.669L95.238 284.573C95.3068 284.677 95.3681 284.786 95.4212 284.899Z" fill="#E0E0E0"/>
<path d="M100.358 281.44L108.036 281.578L108.064 280.007L100.386 279.869L100.358 281.44Z" fill="#E0E0E0"/>
<path d="M100.746 278.6C101.994 278.479 103.248 278.434 104.5 278.466C105.754 278.421 107.009 278.451 108.258 278.555C107.011 278.674 105.757 278.719 104.505 278.69C103.251 278.734 101.996 278.704 100.746 278.6Z" fill="#E0E0E0"/>
<path d="M110.954 254.222L110.742 265.985L109.085 264.67L106.935 265.916L107.147 254.153L110.954 254.222Z" fill="#E0E0E0"/>
<path d="M117.855 231.314L117.44 254.572L80.9468 254.657L80.8898 231.086L117.855 231.314Z" fill="#F5F5F5"/>
<path d="M96.3577 254.592C96.3089 254.592 96.3577 249.401 96.4799 242.996C96.602 236.591 96.7242 231.403 96.773 231.403C96.8219 231.403 96.773 236.595 96.6509 243C96.5287 249.405 96.4025 254.592 96.3577 254.592Z" fill="#E0E0E0"/>
<path d="M80.9467 254.657C80.9891 254.572 81.0381 254.491 81.0932 254.413C81.2072 254.245 81.3579 254.017 81.5452 253.729C81.9523 253.131 82.5305 252.284 83.2389 251.245C84.6884 249.14 86.6753 246.257 88.874 243.073C91.0726 239.889 93.0514 236.965 94.4642 234.872C95.1686 233.814 95.7305 232.954 96.1173 232.36L96.5529 231.668C96.6032 231.586 96.6576 231.508 96.7158 231.432C96.6775 231.52 96.6325 231.606 96.5814 231.688L96.1743 232.393C95.8078 232.999 95.2622 233.875 94.5701 234.937C93.1817 237.067 91.2192 239.978 89.0165 243.171C86.8138 246.363 84.8024 249.234 83.3407 251.314L81.6062 253.758C81.4027 254.034 81.2439 254.258 81.1258 254.421C81.073 254.505 81.0131 254.584 80.9467 254.657Z" fill="#E0E0E0"/>
<path d="M96.3577 254.592C96.2933 254.522 96.236 254.446 96.1867 254.364L95.7348 253.688C95.3276 253.09 94.778 252.243 94.0858 251.205L88.5974 243.024C86.4517 239.836 84.5258 236.916 83.1578 234.815C82.4778 233.757 81.9363 232.897 81.5577 232.299L81.1505 231.607C81.0569 231.448 81.008 231.362 81.0121 231.362C81.0755 231.432 81.1315 231.509 81.179 231.59L81.635 232.262C82.0422 232.865 82.5918 233.708 83.2636 234.75L88.7439 242.931C90.8897 246.119 92.8155 249.018 94.1795 251.135C94.8635 252.194 95.4009 253.057 95.7837 253.656L96.2112 254.344C96.2658 254.423 96.3147 254.506 96.3577 254.592Z" fill="#E0E0E0"/>
<path d="M100.396 251.785L106.255 251.902L106.279 250.701L100.42 250.584L100.396 251.785Z" fill="#E0E0E0"/>
<path d="M100.405 249.783C101.352 249.694 102.304 249.66 103.255 249.682C104.205 249.65 105.157 249.673 106.105 249.751C105.158 249.843 104.206 249.877 103.255 249.853C102.304 249.889 101.352 249.866 100.405 249.783Z" fill="#EBEBEB"/>
<path d="M110.478 231.183L110.315 240.162L109.053 239.156L107.412 240.109L107.571 231.13L110.478 231.183Z" fill="#E0E0E0"/>
<path d="M121.813 282.786C121.385 281.518 120.585 280.409 119.516 279.604C118.447 278.799 117.16 278.335 115.824 278.274L114.704 216.647H120.095V217.567H121.109V215.36H112.734C112.734 215.36 113.731 260.826 114.456 278.335C114.096 278.394 113.74 278.48 113.393 278.592C112.054 279.043 110.893 279.909 110.08 281.064C109.266 282.22 108.843 283.604 108.87 285.017L89.774 284.765L90.3196 287.273L109.142 286.756C109.167 286.841 109.187 286.927 109.216 287.017C109.479 287.863 109.908 288.649 110.48 289.327C111.051 290.005 111.751 290.562 112.541 290.965C113.33 291.368 114.193 291.61 115.077 291.675C115.961 291.74 116.849 291.628 117.689 291.344C118.529 291.061 119.304 290.613 119.968 290.026C120.632 289.439 121.173 288.725 121.557 287.926C121.941 287.127 122.162 286.259 122.206 285.373C122.25 284.488 122.116 283.603 121.813 282.77V282.786Z" fill="#E0E0E0"/>
<path d="M93.4341 290.942H94.4438L96.39 287.122L94.7818 287.167L93.4341 290.942Z" fill="#E0E0E0"/>
<path d="M250.026 129.798H230.906V135.083H250.026V129.798Z" fill="#EBEBEB"/>
<path d="M266.373 241.676H247.253V246.962H266.373V241.676Z" fill="#EBEBEB"/>
<path d="M245.173 135.079H226.053V140.365H245.173V135.079Z" fill="#F5F5F5"/>
<path d="M254.203 247.129H240.466V252.414H254.203V247.129Z" fill="#F5F5F5"/>
<path d="M173.538 147.384H132.35V231.619H173.538V147.384Z" fill="#EBEBEB"/>
<path d="M152.928 147.384C152.928 147.384 144.483 185.595 132.334 188.205C132.334 188.205 137.219 215.01 137.688 231.619H132.35V147.384H152.928Z" fill="#E0E0E0"/>
<path d="M153.082 147.384C153.082 147.384 161.527 185.595 173.692 188.205C173.692 188.205 168.807 215.01 168.342 231.619H173.692V147.384H153.082Z" fill="#E0E0E0"/>
<path d="M153.697 147.222H152.195V231.619H153.697V147.222Z" fill="#FAFAFA"/>
<path d="M142.248 147.222H141.877V231.619H142.248V147.222Z" fill="#FAFAFA"/>
<path d="M164.483 147.222H164.112V231.619H164.483V147.222Z" fill="#FAFAFA"/>
<path d="M173.538 168.151V168.489L132.35 168.656V168.318L173.538 168.151Z" fill="#FAFAFA"/>
<path d="M173.538 210.058V210.388L132.35 210.555V210.225L173.538 210.058Z" fill="#FAFAFA"/>
<path d="M173.538 188.657H132.35V190.062H173.538V188.657Z" fill="#FAFAFA"/>
<path d="M174.148 232.23H131.755V146.774H174.148V232.23ZM132.961 231.008H172.927V147.995H132.977L132.961 231.008Z" fill="#F5F5F5"/>
<path d="M294.068 147.384H252.88V231.619H294.068V147.384Z" fill="#EBEBEB"/>
<path d="M273.474 147.384C273.474 147.384 265.03 185.595 252.88 188.205C252.88 188.205 257.766 215.01 258.23 231.619H252.88V147.384H273.474Z" fill="#E0E0E0"/>
<path d="M273.613 147.384C273.613 147.384 282.057 185.595 294.211 188.205C294.211 188.205 289.325 215.01 288.856 231.619H294.211V147.384H273.613Z" fill="#E0E0E0"/>
<path d="M274.223 147.222H272.721V231.619H274.223V147.222Z" fill="#FAFAFA"/>
<path d="M262.774 147.222H262.403V231.619H262.774V147.222Z" fill="#FAFAFA"/>
<path d="M285.009 147.222H284.638V231.619H285.009V147.222Z" fill="#FAFAFA"/>
<path d="M294.068 168.151V168.489L252.88 168.656V168.318L294.068 168.151Z" fill="#FAFAFA"/>
<path d="M294.068 210.058V210.388L252.88 210.555V210.225L294.068 210.058Z" fill="#FAFAFA"/>
<path d="M294.068 188.657H252.88V190.062H294.068V188.657Z" fill="#FAFAFA"/>
<path d="M294.679 232.23H252.273V146.774H294.679V232.23ZM253.491 231.008H293.457V147.995H253.495L253.491 231.008Z" fill="#F5F5F5"/>
<path d="M165.993 278.873C164.519 278.181 162.863 277.98 161.266 278.299C160.407 278.441 159.511 278.706 158.929 279.341C158.347 279.976 158.233 281.12 158.905 281.674C159.337 281.969 159.859 282.101 160.379 282.049C161.629 282.049 163.013 281.813 164.014 282.566C164.584 282.998 164.963 283.71 165.643 283.922C165.985 283.998 166.342 283.963 166.661 283.821C166.981 283.678 167.247 283.437 167.418 283.132C167.741 282.503 167.812 281.775 167.618 281.096C167.536 280.626 167.347 280.18 167.065 279.795C166.783 279.409 166.416 279.094 165.993 278.873Z" fill="#EBEBEB"/>
<path d="M169.291 272.508C168.412 273.767 166.702 273.351 165.908 272.582C165.114 271.812 164.78 270.705 164.475 269.646C163.778 267.203 163.074 264.682 163.595 262.215C163.715 261.461 164.044 260.756 164.544 260.179C164.795 259.898 165.114 259.688 165.471 259.568C165.828 259.449 166.21 259.425 166.58 259.499C167.439 259.727 167.976 260.57 168.363 261.376C169.505 263.747 170.104 266.343 170.114 268.974C170.114 270.196 169.975 271.482 169.299 272.492" fill="#EBEBEB"/>
<path d="M171.706 274.312C171.254 273.722 170.954 273.03 170.83 272.297C170.707 271.564 170.764 270.812 170.997 270.106C171.478 268.694 172.341 267.442 173.489 266.49C174.796 265.329 176.317 264.434 177.968 263.856C178.605 263.601 179.289 263.485 179.975 263.518C180.317 263.538 180.649 263.641 180.942 263.818C181.235 263.995 181.48 264.242 181.656 264.536C182.129 265.432 181.677 266.519 181.188 267.386C180.333 268.955 179.352 270.453 178.257 271.865C177.381 272.997 176.376 274.113 175.036 274.626C173.696 275.139 172.304 275.078 171.596 274.149" fill="#EBEBEB"/>
<path d="M169.352 291.467C169.302 291.281 169.275 291.09 169.271 290.897C169.23 290.49 169.181 289.956 169.12 289.337C169.059 288.719 168.949 287.9 168.77 287.049C168.569 286.131 168.296 285.23 167.956 284.354C167.614 283.478 167.149 282.655 166.575 281.91C166.111 281.305 165.517 280.811 164.837 280.465C164.375 280.235 163.878 280.08 163.367 280.009C163.176 280.002 162.986 279.973 162.801 279.923C162.993 279.904 163.187 279.904 163.379 279.923C163.909 279.965 164.426 280.103 164.906 280.331C165.625 280.668 166.255 281.169 166.746 281.792C167.342 282.546 167.823 283.385 168.171 284.28C168.521 285.17 168.793 286.088 168.986 287.025C169.132 287.789 169.234 288.561 169.291 289.337C169.34 290.001 169.356 290.535 169.364 290.905C169.378 291.092 169.374 291.281 169.352 291.467Z" fill="#E0E0E0"/>
<path d="M169.242 290.266C169.233 290.178 169.233 290.089 169.242 290.001C169.242 289.802 169.242 289.553 169.242 289.244C169.242 288.588 169.242 287.615 169.21 286.459C169.149 284.109 168.949 280.868 168.558 277.301C168.167 273.734 167.642 270.526 167.166 268.225C167.052 267.647 166.942 267.126 166.832 266.674C166.722 266.222 166.645 265.823 166.563 265.505C166.482 265.187 166.433 264.963 166.384 264.768C166.359 264.683 166.344 264.596 166.339 264.507C166.377 264.587 166.407 264.67 166.429 264.756C166.49 264.947 166.559 265.187 166.649 265.485C166.738 265.782 166.848 266.189 166.962 266.641C167.076 267.093 167.207 267.614 167.329 268.188C167.976 271.188 168.464 274.221 168.79 277.273C169.198 280.848 169.36 284.101 169.377 286.459C169.377 287.635 169.377 288.588 169.332 289.248C169.332 289.553 169.299 289.806 169.287 290.005C169.284 290.094 169.268 290.181 169.242 290.266Z" fill="#E0E0E0"/>
<path d="M169.214 283.991C169.193 283.728 169.193 283.464 169.214 283.201C169.242 282.692 169.312 281.955 169.454 281.055C169.629 280.002 169.861 278.96 170.15 277.932C170.498 276.671 170.935 275.435 171.457 274.235C172.372 272.026 173.681 270.001 175.321 268.262C175.603 267.963 175.904 267.683 176.221 267.423C176.36 267.305 176.482 267.187 176.608 267.097L176.958 266.853C177.168 266.697 177.392 266.561 177.626 266.445C176.856 267.047 176.126 267.697 175.439 268.392C173.863 270.149 172.597 272.162 171.698 274.345C171.182 275.537 170.744 276.761 170.387 278.01C170.088 279.027 169.841 280.058 169.646 281.1C169.479 281.992 169.385 282.729 169.328 283.226C169.311 283.484 169.273 283.74 169.214 283.991Z" fill="#E0E0E0"/>
<path d="M288.311 291.772C288.311 291.829 242.278 291.878 185.504 291.878C128.73 291.878 82.6893 291.829 82.6893 291.772C82.6893 291.715 128.698 291.667 185.504 291.667C242.31 291.667 288.311 291.715 288.311 291.772Z" fill="#263238"/>
<path d="M259.521 278.478C253.601 274.601 252.098 267.183 252.163 260.48C252.163 259.36 252.025 258.188 252.538 257.194C253.051 256.201 254.293 255.5 255.319 255.944C256.17 256.315 256.54 257.272 257.049 258.062C257.707 259.116 258.65 259.963 259.769 260.505C260.498 260.859 261.398 261.063 262.098 260.659C263.063 260.102 263.144 258.766 263.112 257.654C263.047 255.583 262.983 253.512 262.921 251.441C262.823 250.331 262.91 249.212 263.177 248.13C263.503 247.068 264.252 246.066 265.319 245.744C266.385 245.423 267.721 246.001 267.973 247.084C268.027 247.543 268.05 248.006 268.043 248.468C268.041 248.699 268.109 248.926 268.237 249.119C268.364 249.311 268.546 249.462 268.759 249.551C269.215 249.674 269.655 249.348 269.981 249.014C271.117 247.862 271.87 246.396 272.574 244.942C273.279 243.488 273.954 241.994 274.98 240.748C276.007 239.502 277.423 238.492 279.052 238.362C280.681 238.232 282.407 239.176 282.851 240.728C283.295 242.279 282.411 243.9 281.434 245.207C279.981 247.121 278.26 248.816 276.324 250.24C275.945 250.456 275.645 250.788 275.469 251.188C275.245 251.937 275.974 252.658 276.719 252.882C277.566 253.139 278.474 253.029 279.357 253.11C280.241 253.192 281.198 253.55 281.552 254.364C282.041 255.488 281.108 256.702 280.18 257.508C278.314 259.116 276.188 260.395 273.893 261.291C273.079 261.608 272.204 261.893 271.552 262.484C270.901 263.074 270.518 264.084 270.941 264.857C271.365 265.631 272.407 265.855 273.27 265.672C274.134 265.489 274.899 265.008 275.713 264.682C277.244 264.068 279.247 264.125 280.269 265.423C280.584 265.869 280.789 266.381 280.868 266.92C280.947 267.459 280.898 268.01 280.725 268.526C280.376 269.556 279.822 270.505 279.097 271.315C276.702 274.288 273.566 276.576 270.005 277.949C266.442 279.264 263.124 279.679 259.521 278.474" fill="#00AB00"/>
<path d="M281.181 239.246C281.181 239.246 281.149 239.286 281.075 239.355L280.75 239.657C280.461 239.921 280.033 240.312 279.5 240.829C277.987 242.283 276.586 243.85 275.31 245.516C274.496 246.567 273.653 247.756 272.774 249.046C271.894 250.337 270.962 251.726 270.042 253.22C269.065 254.776 268.176 256.386 267.379 258.041C266.972 258.9 266.601 259.8 266.227 260.716C265.852 261.633 265.477 262.561 265.099 263.502C263.645 267.026 262.391 270.63 261.345 274.296C260.505 277.293 259.952 280.364 259.692 283.466C259.525 285.558 259.541 287.66 259.741 289.749C259.818 290.486 259.891 291.06 259.952 291.447C259.977 291.631 259.997 291.778 260.013 291.886C260.02 291.936 260.02 291.987 260.013 292.037C259.996 291.99 259.984 291.941 259.977 291.891C259.956 291.781 259.928 291.638 259.895 291.451C259.818 291.068 259.732 290.494 259.643 289.757C259.411 287.664 259.373 285.554 259.529 283.454C259.775 280.34 260.32 277.257 261.157 274.247C262.196 270.57 263.447 266.956 264.903 263.424C265.282 262.484 265.661 261.555 266.031 260.635C266.402 259.715 266.772 258.815 267.192 257.952C267.996 256.292 268.892 254.679 269.875 253.118C270.803 251.624 271.739 250.24 272.627 248.949C273.515 247.658 274.366 246.473 275.188 245.427C276.48 243.765 277.901 242.209 279.439 240.772C279.984 240.263 280.42 239.881 280.717 239.628L281.059 239.339L281.181 239.246Z" fill="#263238"/>
<path d="M267.261 257.935C267.204 257.782 267.163 257.624 267.139 257.463C267.073 257.158 266.992 256.71 266.898 256.16C266.711 255.057 266.491 253.526 266.288 251.836C266.084 250.146 265.844 248.619 265.64 247.52C265.538 246.97 265.453 246.53 265.392 246.221C265.344 246.071 265.314 245.917 265.302 245.76C265.368 245.91 265.418 246.065 265.453 246.225C265.542 246.526 265.648 246.966 265.766 247.511C266.007 248.607 266.259 250.134 266.479 251.828L267.029 256.16C267.098 256.677 267.155 257.117 267.204 257.471C267.241 257.623 267.26 257.779 267.261 257.935Z" fill="#263238"/>
<path d="M281.678 254.918C281.49 254.961 281.298 254.988 281.104 255C280.734 255.04 280.196 255.097 279.537 255.191C278.213 255.362 276.393 255.663 274.402 256.087C272.411 256.51 270.624 256.966 269.342 257.337C268.698 257.516 268.181 257.675 267.823 257.785C267.641 257.852 267.452 257.902 267.261 257.935C267.432 257.842 267.612 257.765 267.798 257.707C268.149 257.577 268.658 257.394 269.297 257.194C270.571 256.787 272.359 256.307 274.358 255.883C276.062 255.515 277.783 255.235 279.516 255.044C280.184 254.971 280.738 254.934 281.096 254.918C281.29 254.897 281.485 254.897 281.678 254.918Z" fill="#263238"/>
<path d="M261.341 273.97C261.3 273.917 261.266 273.86 261.239 273.799L260.978 273.286C260.754 272.842 260.445 272.191 260.079 271.381C259.338 269.752 258.389 267.488 257.375 264.967C256.361 262.447 255.437 260.171 254.733 258.538L253.902 256.604L253.678 256.079C253.647 256.018 253.624 255.954 253.609 255.887C253.609 255.887 253.654 255.944 253.715 256.058C253.776 256.172 253.869 256.368 253.975 256.571C254.199 257.015 254.505 257.667 254.875 258.477C255.612 260.106 256.565 262.37 257.579 264.89C258.592 267.411 259.517 269.687 260.221 271.32L261.06 273.254C261.149 273.465 261.223 273.661 261.284 273.779C261.312 273.839 261.332 273.904 261.341 273.97Z" fill="#263238"/>
<path d="M280.44 267.39C280.379 267.422 280.315 267.449 280.249 267.472L279.695 267.671L277.66 268.376C275.933 268.974 273.555 269.829 270.933 270.778C268.311 271.727 265.925 272.557 264.187 273.119C263.315 273.404 262.611 273.624 262.118 273.767L261.552 273.93C261.487 273.953 261.418 273.966 261.349 273.97C261.408 273.934 261.473 273.907 261.54 273.889L262.094 273.689L264.13 272.981C265.856 272.382 268.234 271.531 270.856 270.583C273.478 269.634 275.864 268.803 277.603 268.237C278.474 267.956 279.178 267.736 279.671 267.594L280.237 267.431C280.302 267.408 280.371 267.394 280.44 267.39Z" fill="#263238"/>
<path d="M96.3374 181.458C109.013 181.458 119.289 171.181 119.289 158.505C119.289 145.828 109.013 135.552 96.3374 135.552C83.6618 135.552 73.3861 145.828 73.3861 158.505C73.3861 171.181 83.6618 181.458 96.3374 181.458Z" fill="#FAFAFA"/>
<path d="M96.3332 181.804C91.7254 181.804 87.2211 180.437 83.3898 177.877C79.5586 175.317 76.5725 171.678 74.8092 167.421C73.0459 163.164 72.5845 158.479 73.4834 153.959C74.3824 149.44 76.6012 145.288 79.8594 142.03C83.1176 138.771 87.2688 136.552 91.7881 135.653C96.3073 134.754 100.992 135.216 105.249 136.979C109.506 138.743 113.144 141.729 115.704 145.56C118.264 149.392 119.631 153.897 119.631 158.505C119.623 164.682 117.166 170.604 112.799 174.971C108.431 179.339 102.51 181.796 96.3332 181.804ZM96.3332 135.898C91.8613 135.898 87.4899 137.224 83.7717 139.709C80.0535 142.193 77.1556 145.725 75.4445 149.857C73.7334 153.989 73.2859 158.535 74.1586 162.921C75.0313 167.308 77.185 171.337 80.3474 174.499C83.5098 177.661 87.5388 179.814 91.9248 180.686C96.3109 181.558 100.857 181.109 104.988 179.397C109.119 177.685 112.65 174.787 115.134 171.068C117.618 167.349 118.943 162.977 118.943 158.505C118.936 152.51 116.552 146.763 112.313 142.525C108.074 138.287 102.327 135.903 96.3332 135.898Z" fill="#263238"/>
<path d="M96.5815 142.567C96.4926 141.838 96.4626 141.103 96.4919 140.369C96.4625 139.634 96.4924 138.899 96.5815 138.17C96.6706 138.899 96.7005 139.634 96.6711 140.369C96.7004 141.103 96.6704 141.838 96.5815 142.567Z" fill="#263238"/>
<path d="M84.713 146.904C84.1865 146.49 83.6986 146.03 83.2554 145.528C82.7698 145.067 82.3257 144.564 81.9281 144.025C82.4547 144.439 82.9425 144.899 83.3857 145.401C83.8713 145.862 84.3155 146.365 84.713 146.904Z" fill="#263238"/>
<path d="M81.6756 158.985C80.7583 159.074 79.8362 159.104 78.9151 159.075C77.9939 159.104 77.0718 159.074 76.1545 158.985C77.0718 158.896 77.9939 158.866 78.9151 158.896C79.8362 158.866 80.7583 158.896 81.6756 158.985Z" fill="#263238"/>
<path d="M84.6603 170.252C84.3084 170.739 83.9176 171.196 83.4917 171.62C83.1089 172.086 82.6715 172.504 82.1888 172.866C82.5445 172.381 82.9365 171.924 83.3614 171.498C83.7422 171.031 84.1783 170.613 84.6603 170.252Z" fill="#263238"/>
<path d="M95.7755 161.445C95.2538 161.342 94.7745 161.086 94.3979 160.711C94.0214 160.336 93.7647 159.857 93.6603 159.336C93.5558 158.814 93.6084 158.274 93.8112 157.782C94.0141 157.291 94.3581 156.871 94.7999 156.575C95.2416 156.279 95.7612 156.121 96.2928 156.12C96.8245 156.12 97.3443 156.277 97.7865 156.572C98.2288 156.867 98.5736 157.287 98.7773 157.778C98.981 158.269 99.0344 158.81 98.9309 159.331C98.8627 159.677 98.727 160.007 98.5315 160.3C98.3359 160.594 98.0844 160.846 97.7913 161.042C97.4983 161.239 97.1693 161.375 96.8234 161.444C96.4775 161.513 96.1214 161.513 95.7755 161.445Z" fill="#263238"/>
<path d="M105.857 165.154L90.2788 153.219L88.7968 155.479L105.857 165.154Z" fill="#263238"/>
<path d="M116.634 158.313C116.634 158.313 116.634 158.203 116.634 157.983C116.634 157.764 116.634 157.442 116.589 157.018C116.394 154.124 115.581 151.306 114.204 148.752C112.828 146.199 110.92 143.971 108.609 142.217C106.101 140.312 103.183 139.018 100.087 138.439C98.3697 138.119 96.6179 138.023 94.8757 138.154C93.9644 138.222 93.0586 138.35 92.164 138.536C91.2469 138.733 90.3438 138.99 89.4605 139.306C85.5609 140.726 82.1925 143.312 79.8124 146.712C77.4323 150.113 76.1557 154.163 76.1557 158.313C76.1557 162.464 77.4323 166.514 79.8124 169.914C82.1925 173.314 85.5609 175.9 89.4605 177.321C90.3443 177.636 91.2473 177.894 92.164 178.094C94.7756 178.638 97.4677 178.67 100.091 178.188C103.185 177.607 106.102 176.313 108.609 174.409C110.919 172.655 112.826 170.427 114.203 167.873C115.579 165.32 116.393 162.502 116.589 159.608C116.626 159.201 116.618 158.859 116.634 158.643C116.65 158.427 116.634 158.313 116.634 158.313C116.634 158.313 116.634 158.761 116.606 159.608C116.537 160.844 116.353 162.071 116.056 163.273C115.588 165.185 114.842 167.018 113.841 168.713C112.502 170.954 110.747 172.92 108.67 174.503C106.15 176.427 103.215 177.736 100.1 178.326C98.369 178.653 96.6033 178.751 94.8472 178.62C93.9287 178.559 93.0157 178.432 92.1152 178.241C91.1907 178.045 90.2806 177.787 89.3913 177.467C85.4555 176.04 82.0548 173.434 79.6516 170.006C77.2483 166.578 75.959 162.492 75.959 158.305C75.959 154.118 77.2483 150.033 79.6516 146.604C82.0548 143.176 85.4555 140.571 89.3913 139.143C90.2806 138.824 91.1907 138.565 92.1152 138.369C93.0163 138.182 93.9291 138.055 94.8472 137.991C96.6034 137.86 98.3692 137.96 100.1 138.288C101.716 138.586 103.289 139.085 104.782 139.774C106.162 140.402 107.467 141.184 108.67 142.107C110.748 143.695 112.503 145.666 113.841 147.914C114.838 149.602 115.584 151.426 116.056 153.329C116.353 154.531 116.537 155.758 116.606 156.994C116.65 157.865 116.634 158.313 116.634 158.313Z" fill="#263238"/>
<path d="M116.642 158.183C115.924 158.274 115.199 158.304 114.476 158.273C113.751 158.304 113.025 158.274 112.306 158.183C113.026 158.094 113.751 158.064 114.476 158.093C115.199 158.064 115.924 158.094 116.642 158.183Z" fill="#263238"/>
<path d="M110.726 172.634C110.116 172.175 109.544 171.667 109.016 171.115C108.446 170.606 107.915 170.055 107.428 169.466C108.038 169.925 108.61 170.433 109.138 170.985C109.709 171.493 110.24 172.044 110.726 172.634Z" fill="#263238"/>
<path d="M110.783 144.054C110.84 144.107 110.172 144.791 109.313 145.577C108.811 146.074 108.266 146.526 107.684 146.928C108.145 146.393 108.649 145.896 109.191 145.442C109.623 145.035 110.005 144.697 110.307 144.449C110.458 144.309 110.617 144.177 110.783 144.054Z" fill="#263238"/>
<path d="M107.155 165.952C106.814 166.312 106.382 166.574 105.906 166.713C105.43 166.852 104.925 166.862 104.444 166.742C104.919 166.714 105.392 166.647 105.856 166.543C106.304 166.38 106.738 166.183 107.155 165.952Z" fill="#263238"/>
<path d="M107.86 166.579C107.725 166.757 107.555 166.904 107.359 167.011C106.908 167.3 106.404 167.496 105.877 167.589C105.349 167.68 104.808 167.668 104.285 167.552C104.066 167.518 103.856 167.438 103.67 167.316C104.38 167.505 105.123 167.537 105.846 167.41C106.57 167.282 107.257 166.999 107.86 166.579Z" fill="#263238"/>
<path d="M91.3048 151.578C90.838 151.489 90.3632 151.448 89.8879 151.456C89.4167 151.526 88.954 151.644 88.5077 151.811C88.8871 151.483 89.3702 151.299 89.8717 151.293C90.368 151.219 90.8749 151.319 91.3048 151.578Z" fill="#263238"/>
<path d="M91.6143 150.976C90.9428 150.856 90.2599 150.812 89.5785 150.846C88.9044 150.942 88.2433 151.114 87.6079 151.359C88.1803 150.947 88.8583 150.707 89.5622 150.666C90.2618 150.57 90.9744 150.677 91.6143 150.976Z" fill="#263238"/>
<path d="M124.52 290.364L125.184 286.218L117.762 284.997L116.711 291.186L117.163 291.292C119.199 291.752 127.529 293.352 128.97 293.145C130.579 292.9 124.52 290.364 124.52 290.364Z" fill="#FF725E"/>
<path d="M129.207 292.778C129.207 292.847 126.41 292.461 122.981 291.911C119.553 291.361 116.784 290.86 116.797 290.791C116.809 290.722 119.594 291.109 123.022 291.658C126.45 292.208 129.219 292.709 129.207 292.778Z" fill="#263238"/>
<path d="M124.516 291.231C124.459 291.19 124.545 290.978 124.74 290.787C124.936 290.596 125.147 290.514 125.188 290.571C125.229 290.628 125.098 290.795 124.919 290.978C124.74 291.162 124.573 291.276 124.516 291.231Z" fill="#263238"/>
<path d="M124.944 291.581C124.883 291.544 124.944 291.304 125.143 291.072C125.343 290.84 125.55 290.71 125.595 290.763C125.64 290.816 125.518 291.011 125.343 291.231C125.168 291.451 125.009 291.618 124.944 291.581Z" fill="#263238"/>
<path d="M119.04 291.121C119.007 291.121 118.914 291.011 118.779 290.803C118.623 290.533 118.44 290.28 118.234 290.046C118.031 289.823 117.772 289.657 117.485 289.566C117.265 289.5 117.11 289.513 117.106 289.472C117.102 289.431 117.253 289.362 117.513 289.39C117.86 289.441 118.178 289.611 118.413 289.871C118.637 290.12 118.814 290.409 118.934 290.722C119.036 290.958 119.069 291.109 119.04 291.121Z" fill="#263238"/>
<path d="M124.663 290.457C124.687 290.518 124.541 290.645 124.313 290.685C124.085 290.726 123.906 290.685 123.906 290.604C123.906 290.522 124.068 290.478 124.264 290.437C124.459 290.396 124.634 290.388 124.663 290.457Z" fill="#263238"/>
<path d="M124.61 290.034C124.61 290.107 124.398 290.136 124.146 290.099C123.893 290.062 123.706 289.977 123.739 289.908C123.771 289.838 123.958 289.81 124.199 289.846C124.439 289.883 124.614 289.965 124.61 290.034Z" fill="#263238"/>
<path d="M150.778 289.468L150.623 285.274L143.103 285.502L143.27 291.777H143.738C145.819 291.834 154.324 291.777 155.68 291.3C157.211 290.779 150.778 289.468 150.778 289.468Z" fill="#FF725E"/>
<path d="M155.843 290.926C155.843 290.999 153.037 291.158 149.568 291.288C146.1 291.418 143.286 291.459 143.282 291.39C143.278 291.32 146.091 291.158 149.56 291.031C153.029 290.905 155.839 290.856 155.843 290.926Z" fill="#263238"/>
<path d="M150.941 290.319C150.875 290.29 150.92 290.066 151.075 289.842C151.23 289.618 151.421 289.492 151.482 289.541C151.543 289.59 151.441 289.777 151.299 289.985C151.156 290.193 151.006 290.351 150.941 290.319Z" fill="#263238"/>
<path d="M151.429 290.579C151.364 290.559 151.388 290.307 151.527 290.042C151.665 289.777 151.853 289.61 151.91 289.635C151.967 289.659 151.881 289.891 151.755 290.14C151.629 290.388 151.498 290.604 151.429 290.579Z" fill="#263238"/>
<path d="M145.546 291.28C145.517 291.28 145.403 291.194 145.232 291.015C145.024 290.783 144.795 290.57 144.548 290.38C144.309 290.203 144.029 290.091 143.734 290.054C143.506 290.054 143.355 290.074 143.327 290.054C143.298 290.034 143.449 289.916 143.734 289.891C144.085 289.872 144.431 289.977 144.711 290.188C144.98 290.389 145.209 290.638 145.387 290.921C145.509 291.113 145.574 291.259 145.546 291.28Z" fill="#263238"/>
<path d="M150.932 289.533C150.973 289.59 150.851 289.741 150.639 289.826C150.428 289.912 150.232 289.891 150.232 289.826C150.232 289.761 150.367 289.667 150.554 289.59C150.741 289.513 150.892 289.472 150.932 289.533Z" fill="#263238"/>
<path d="M150.802 289.13C150.802 289.199 150.611 289.268 150.358 289.28C150.106 289.293 149.902 289.248 149.902 289.175C149.902 289.101 150.102 289.036 150.346 289.024C150.59 289.012 150.79 289.061 150.802 289.13Z" fill="#263238"/>
<path d="M160.973 185.061L160.566 183.693C160.421 182.904 160.198 182.13 159.902 181.384C159.761 181.008 159.557 180.659 159.299 180.35C158.997 179.956 158.642 179.604 158.245 179.304C157.838 179.063 157.94 178.489 158.347 178.445C158.754 178.4 159.849 179.039 160.688 180.257C161.527 181.474 161.681 179.182 161.755 178.347C161.828 177.512 162.162 174.943 162.443 174.772C162.85 174.515 163.2 174.906 163.11 175.737C163.021 176.567 162.919 179.084 163.359 179.112C163.799 179.141 164.104 174.886 164.104 174.886C164.104 174.886 164.022 173.961 164.535 173.978C165.456 174.006 164.792 178.497 164.719 178.921C164.67 179.218 165.146 179.263 165.187 178.945C165.228 178.628 165.395 174.69 166.331 174.711C167.052 174.711 165.822 178.408 166.237 179.255C166.653 180.102 166.885 176.356 167.573 176.405C167.825 176.405 168.017 176.466 167.573 178.587C167.129 180.708 164.939 186.421 164.939 186.421L160.94 184.992" fill="#FFBE9D"/>
<path d="M133.465 183.937L140.232 184.438C140.322 183.657 140.456 180.615 140.456 180.615C140.456 180.615 143.282 180.35 143.486 177.553C143.689 174.755 143.608 168.302 143.608 168.302C142.059 167.52 140.329 167.165 138.598 167.276C136.866 167.386 135.196 167.957 133.759 168.929L133.323 169.222L133.465 183.937Z" fill="#FFBE9D"/>
<path d="M142.663 173.074C142.588 172.996 142.546 172.891 142.548 172.783C142.549 172.675 142.594 172.571 142.671 172.496C142.749 172.42 142.854 172.378 142.962 172.38C143.071 172.381 143.174 172.426 143.25 172.504C143.287 172.542 143.317 172.588 143.336 172.638C143.356 172.688 143.366 172.741 143.365 172.795C143.365 172.848 143.353 172.901 143.332 172.951C143.311 173 143.28 173.044 143.241 173.082C143.203 173.119 143.157 173.149 143.108 173.169C143.058 173.189 143.004 173.198 142.951 173.198C142.897 173.197 142.844 173.186 142.795 173.164C142.745 173.143 142.701 173.112 142.663 173.074Z" fill="#263238"/>
<path d="M143.384 172.467C143.335 172.512 143.075 172.284 142.688 172.259C142.301 172.235 142.012 172.414 141.971 172.361C141.931 172.308 142.004 172.255 142.13 172.17C142.302 172.06 142.505 172.01 142.708 172.027C142.911 172.041 143.104 172.119 143.258 172.251C143.368 172.365 143.404 172.467 143.384 172.467Z" fill="#263238"/>
<path d="M138.921 172.536C139.01 172.598 139.07 172.693 139.089 172.8C139.108 172.906 139.083 173.016 139.021 173.104C138.959 173.193 138.864 173.253 138.758 173.272C138.651 173.291 138.542 173.266 138.453 173.204C138.409 173.173 138.372 173.134 138.343 173.089C138.314 173.043 138.295 172.992 138.286 172.939C138.276 172.886 138.278 172.832 138.29 172.78C138.302 172.727 138.324 172.678 138.355 172.634C138.418 172.546 138.512 172.487 138.618 172.468C138.724 172.45 138.833 172.474 138.921 172.536Z" fill="#263238"/>
<path d="M139.174 172.557C139.129 172.601 138.869 172.373 138.482 172.349C138.095 172.325 137.806 172.504 137.765 172.451C137.724 172.398 137.794 172.345 137.924 172.259C138.094 172.149 138.296 172.099 138.498 172.117C138.701 172.129 138.894 172.208 139.048 172.341C139.162 172.467 139.198 172.536 139.174 172.557Z" fill="#263238"/>
<path d="M140.526 175.83C140.73 175.767 140.943 175.736 141.157 175.741C141.259 175.741 141.34 175.716 141.352 175.663C141.362 175.561 141.344 175.459 141.299 175.366C141.214 175.106 141.133 174.841 141.043 174.552C140.795 173.872 140.615 173.17 140.505 172.455C140.818 173.108 141.067 173.79 141.247 174.491C141.328 174.768 141.405 175.036 141.487 175.305C141.539 175.434 141.549 175.577 141.515 175.712C141.498 175.75 141.473 175.783 141.441 175.809C141.409 175.835 141.372 175.854 141.332 175.863C141.275 175.871 141.218 175.871 141.161 175.863C140.949 175.885 140.735 175.874 140.526 175.83Z" fill="#263238"/>
<path d="M139.247 176.181C138.86 175.916 140.318 176.836 141.104 176.844C140.961 177.039 140.756 177.179 140.523 177.241C140.29 177.304 140.043 177.286 139.821 177.19C139.003 176.832 139.247 176.181 139.247 176.181Z" fill="white"/>
<path d="M140.461 180.574C139.168 180.517 137.921 180.078 136.878 179.312C136.878 179.312 137.615 181.38 140.424 181.299L140.461 180.574Z" fill="#EB996E"/>
<path d="M133.384 172.06L133.722 174.067L134.968 174.043L134.887 169.861C134.887 169.861 139.83 170.244 140.395 168.265C140.395 168.265 141.849 170.451 143.653 170.443C143.653 170.443 145.232 170.28 143.73 168.078C141.409 164.69 133.144 167.414 133.144 167.414C132.936 168.033 132.835 168.683 132.847 169.336C132.814 171.502 133.384 172.06 133.384 172.06Z" fill="#263238"/>
<path d="M132.704 170.024L143.697 167.841C143.697 167.841 142.916 163.436 136.975 164.718C131.21 165.977 132.704 170.024 132.704 170.024Z" fill="#00AB00"/>
<path d="M132.704 170.024C132.859 169.995 146.165 170.309 147.113 168.469C147.565 167.589 143.628 167.565 143.628 167.565L143.718 167.841L132.704 170.024Z" fill="#00AB00"/>
<path d="M133.86 171.706C133.799 171.681 131.784 171.421 131.975 173.799C132.166 176.177 134.504 175.199 134.504 175.13C134.504 175.061 133.86 171.706 133.86 171.706Z" fill="#FFBE9D"/>
<path d="M133.71 174.352C133.71 174.352 133.669 174.385 133.6 174.426C133.504 174.476 133.393 174.486 133.29 174.454C133.129 174.369 132.994 174.243 132.898 174.089C132.802 173.934 132.749 173.757 132.745 173.575C132.721 173.371 132.745 173.165 132.814 172.972C132.829 172.895 132.863 172.823 132.913 172.763C132.962 172.703 133.026 172.655 133.099 172.626C133.145 172.61 133.196 172.61 133.242 172.627C133.288 172.644 133.327 172.677 133.351 172.72C133.388 172.785 133.38 172.834 133.392 172.838C133.404 172.842 133.441 172.793 133.392 172.695C133.374 172.637 133.336 172.587 133.286 172.553C133.217 172.51 133.134 172.495 133.054 172.512C132.957 172.54 132.869 172.592 132.798 172.663C132.727 172.734 132.675 172.822 132.647 172.919C132.564 173.134 132.534 173.366 132.557 173.595C132.563 173.808 132.631 174.015 132.753 174.189C132.876 174.364 133.047 174.499 133.245 174.576C133.311 174.589 133.378 174.587 133.443 174.571C133.508 174.555 133.568 174.525 133.62 174.483C133.71 174.413 133.718 174.356 133.71 174.352Z" fill="#EB996E"/>
<path d="M140.346 166.646L138.999 166.672L139.024 168.02L140.372 167.994L140.346 166.646Z" fill="#263238"/>
<path d="M140.332 165.915L139.656 165.928L139.67 166.604L140.345 166.591L140.332 165.915Z" fill="#263238"/>
<path d="M160.476 183.31C160.476 183.31 158.396 196.552 156.93 196.621C155.256 196.703 150.11 189.402 150.11 189.402C146.816 184.32 142.472 183.498 140.888 183.371V182.744L133.103 182.105C133.103 182.105 133.103 182.777 133.103 183.363H129.655C129.655 183.363 123.482 183.078 122.554 191.373L126.996 194.883L128.816 201.654C129.37 203.723 128.523 206.361 127.594 210.995L127.037 210.865L126.8 215.535C126.768 215.755 126.735 215.979 126.707 216.203H126.768L124.887 253.497L115.27 289.618L126.096 290.026L136.079 254.784C136.079 254.784 136.947 226.606 137.826 226.59C139.304 226.562 140.249 289.272 140.815 289.13C141.381 288.987 152.5 289.101 152.5 289.101C152.5 289.101 148.819 216.036 148.856 216.036L147.903 202.192L147.541 198.193C149.654 201.166 153.648 205.807 157.915 205.726C164.865 205.592 165.843 184.043 165.843 184.043L160.476 183.31Z" fill="#00AB00"/>
<path d="M137.427 226.309C137.671 225.918 137.886 225.51 138.07 225.088C138.44 224.052 138.617 222.958 138.596 221.859C138.596 220.588 138.596 219.444 138.596 218.532C138.574 218.073 138.592 217.612 138.649 217.156C138.714 217.612 138.747 218.071 138.746 218.532C138.771 219.383 138.824 220.568 138.811 221.863C138.806 222.478 138.751 223.092 138.649 223.699C138.563 224.198 138.416 224.685 138.213 225.149C138.072 225.459 137.897 225.753 137.692 226.024C137.529 226.216 137.456 226.321 137.427 226.309Z" fill="#263238"/>
<path d="M131.039 220.393C131.078 220.516 131.098 220.646 131.096 220.776C131.116 221.024 131.141 221.378 131.153 221.826C131.215 222.999 130.981 224.168 130.473 225.226C130.172 225.81 129.726 226.306 129.178 226.668C128.725 226.953 128.206 227.116 127.672 227.14C127.312 227.158 126.954 227.097 126.621 226.961C126.497 226.917 126.383 226.848 126.287 226.757C126.723 226.938 127.193 227.018 127.663 226.993C128.166 226.947 128.65 226.777 129.072 226.501C129.587 226.15 130.007 225.677 130.294 225.124C130.783 224.095 131.029 222.966 131.01 221.826C130.995 221.348 131.005 220.87 131.039 220.393Z" fill="#263238"/>
<path d="M149.626 226.879C149.626 226.879 149.56 226.997 149.361 227.132C149.069 227.311 148.73 227.399 148.388 227.384C147.878 227.363 147.387 227.18 146.987 226.863C146.507 226.488 146.093 226.033 145.766 225.519C145.151 224.602 144.764 223.551 144.638 222.453C144.602 222.122 144.593 221.788 144.609 221.456C144.607 221.334 144.626 221.212 144.666 221.097C144.703 221.097 144.666 221.614 144.789 222.433C144.952 223.494 145.345 224.507 145.941 225.401C146.256 225.897 146.649 226.338 147.105 226.708C147.47 227.011 147.919 227.194 148.392 227.234C148.711 227.259 149.032 227.198 149.32 227.058C149.52 226.957 149.613 226.863 149.626 226.879Z" fill="#263238"/>
<path d="M126.593 287.627C126.593 287.688 124.191 287.648 121.235 287.542C118.279 287.436 115.876 287.293 115.876 287.24C115.876 287.188 118.279 287.22 121.239 287.33C124.199 287.44 126.597 287.57 126.593 287.627Z" fill="#263238"/>
<path d="M152.113 285.999C151.966 286.039 151.814 286.059 151.661 286.06L150.44 286.153C149.398 286.218 147.96 286.296 146.368 286.369C144.776 286.442 143.335 286.495 142.297 286.528L141.075 286.548C140.923 286.561 140.77 286.554 140.619 286.528C140.767 286.49 140.919 286.47 141.071 286.467L142.293 286.377C143.335 286.308 144.772 286.231 146.364 286.157C147.956 286.084 149.398 286.031 150.436 286.003L151.657 285.978C151.81 285.969 151.962 285.976 152.113 285.999Z" fill="#263238"/>
<path d="M132.138 227.172C132.144 227.225 132.144 227.279 132.138 227.331V227.8C132.138 228.207 132.118 228.826 132.106 229.599C132.069 231.159 132 233.419 131.886 236.212C131.772 239.005 131.617 242.32 131.397 246.013C131.287 247.857 131.165 249.792 130.99 251.795C130.905 252.797 130.827 253.831 130.652 254.849C130.477 255.867 130.245 256.905 130.033 257.952C128.177 266.279 126.092 273.714 124.463 279.06C123.649 281.735 122.916 283.873 122.403 285.351L121.78 287.037C121.707 287.22 121.654 287.367 121.609 287.473C121.596 287.524 121.575 287.573 121.548 287.619C121.555 287.567 121.569 287.517 121.589 287.468C121.625 287.359 121.674 287.212 121.739 287.025L122.326 285.323C122.814 283.84 123.547 281.695 124.321 279.019C125.909 273.665 127.985 266.222 129.826 257.903C130.049 256.864 130.273 255.834 130.444 254.816C130.615 253.798 130.697 252.78 130.782 251.779C130.949 249.775 131.076 247.841 131.19 246.001C131.418 242.336 131.597 238.993 131.723 236.204C131.849 233.415 131.943 231.167 132.012 229.595C132.04 228.822 132.065 228.219 132.081 227.795C132.081 227.6 132.089 227.445 132.106 227.331C132.114 227.278 132.125 227.225 132.138 227.172Z" fill="#263238"/>
<path d="M147.081 286.271C147.068 286.224 147.061 286.174 147.06 286.125C147.06 286.019 147.06 285.876 147.028 285.693C146.999 285.286 146.963 284.744 146.914 284.032C146.828 282.578 146.706 280.493 146.551 277.924C146.262 272.765 145.9 265.631 145.566 257.756C145.232 249.881 144.988 242.735 144.829 237.572C144.76 234.999 144.699 232.91 144.662 231.464C144.662 230.752 144.634 230.194 144.626 229.803V229.367C144.621 229.318 144.621 229.269 144.626 229.221C144.63 229.269 144.63 229.318 144.626 229.367C144.626 229.477 144.626 229.62 144.65 229.799C144.65 230.206 144.691 230.752 144.723 231.464C144.78 232.918 144.858 235.007 144.959 237.572C145.163 242.743 145.448 249.873 145.774 257.748C146.1 265.623 146.446 272.757 146.698 277.92C146.824 280.493 146.922 282.578 146.995 284.028C147.024 284.74 147.048 285.298 147.064 285.693C147.064 285.872 147.064 286.015 147.064 286.125C147.074 286.173 147.08 286.222 147.081 286.271Z" fill="#263238"/>
<path d="M138.14 182.516C138.17 182.881 138.17 183.247 138.14 183.612C138.129 184.526 138.039 185.437 137.871 186.336L137.846 186.47L137.724 186.405C137.464 186.271 137.195 186.128 136.93 185.969C135.799 185.31 134.838 184.622 134.125 184.149C133.413 183.677 132.977 183.388 132.989 183.363C133.418 183.54 133.828 183.761 134.211 184.023C134.943 184.467 135.921 185.135 137.04 185.786C137.305 185.941 137.57 186.087 137.822 186.222L137.671 186.291C137.843 185.404 137.954 184.506 138.005 183.604C138.021 183.238 138.066 182.875 138.14 182.516Z" fill="#263238"/>
<path d="M140.908 183.424C140.858 183.767 140.785 184.106 140.689 184.438C140.611 184.748 140.53 185.122 140.395 185.534C140.326 185.749 140.243 185.96 140.147 186.165C140.116 186.236 140.065 186.297 140 186.34C139.956 186.37 139.903 186.383 139.85 186.377C139.797 186.371 139.748 186.346 139.711 186.307C139.632 186.198 139.57 186.077 139.528 185.949C139.149 185.045 138.816 184.227 138.588 183.628C138.448 183.313 138.341 182.984 138.27 182.647C138.458 182.939 138.617 183.25 138.742 183.575C139.007 184.161 139.361 184.972 139.74 185.876C139.776 185.977 139.821 186.075 139.874 186.169C139.895 186.169 139.874 186.169 139.907 186.169C139.937 186.145 139.96 186.114 139.976 186.079C140.072 185.882 140.156 185.679 140.228 185.473C140.367 185.065 140.465 184.711 140.558 184.402C140.631 184.062 140.749 183.733 140.908 183.424Z" fill="#263238"/>
<path d="M139.446 211.247C139.425 211.151 139.414 211.053 139.414 210.954C139.414 210.743 139.381 210.466 139.357 210.12C139.32 209.37 139.263 208.324 139.198 207.041C139.08 204.423 138.921 200.844 138.742 196.89C138.563 192.936 138.453 189.357 138.335 186.735C138.294 185.452 138.266 184.41 138.241 183.657C138.241 183.31 138.241 183.034 138.241 182.842C138.235 182.745 138.235 182.647 138.241 182.549C138.264 182.644 138.276 182.741 138.278 182.838C138.278 183.05 138.311 183.327 138.331 183.673C138.372 184.426 138.425 185.469 138.494 186.751C138.612 189.369 138.771 192.949 138.946 196.902C139.121 200.856 139.239 204.439 139.353 207.057C139.394 208.34 139.426 209.387 139.451 210.136C139.451 210.482 139.451 210.763 139.451 210.975C139.459 211.065 139.458 211.157 139.446 211.247Z" fill="#263238"/>
<path d="M144.409 190.951L140.668 191.023L140.683 191.797L144.424 191.724L144.409 190.951Z" fill="white"/>
<path d="M147.964 203.592C147.903 203.592 147.667 200.766 147.435 197.269C147.203 193.771 147.061 190.941 147.118 190.937C147.175 190.933 147.411 193.763 147.647 197.257C147.883 200.75 148.042 203.588 147.964 203.592Z" fill="#263238"/>
<path d="M165.721 186.755C164.772 186.646 163.833 186.468 162.911 186.222C161.974 186.041 161.052 185.794 160.151 185.481C161.099 185.59 162.038 185.768 162.96 186.014C163.897 186.192 164.82 186.44 165.721 186.755Z" fill="#263238"/>
<path d="M161.286 184.251C161.362 184.249 161.437 184.27 161.501 184.311C161.565 184.352 161.615 184.411 161.645 184.481C161.676 184.55 161.685 184.627 161.671 184.702C161.658 184.776 161.622 184.845 161.569 184.9C161.517 184.954 161.449 184.992 161.375 185.008C161.301 185.024 161.223 185.017 161.153 184.989C161.082 184.961 161.022 184.913 160.979 184.85C160.936 184.788 160.913 184.714 160.912 184.638C160.911 184.588 160.92 184.538 160.938 184.491C160.956 184.445 160.984 184.402 161.018 184.366C161.053 184.33 161.095 184.302 161.141 184.282C161.187 184.262 161.236 184.252 161.286 184.251Z" fill="#263238"/>
<path d="M144.37 189.225L143.022 189.251L143.048 190.598L144.396 190.572L144.37 189.225Z" fill="#FF725E"/>
<path d="M144.352 188.489L143.676 188.502L143.689 189.178L144.365 189.165L144.352 188.489Z" fill="#FF725E"/>
<path d="M164.544 196.133L163.99 217.876L129.874 217.701L129.984 195.669L164.544 196.133Z" fill="#FF725E"/>
<path d="M144.279 217.75C144.222 217.75 144.279 212.892 144.45 206.907C144.621 200.921 144.784 196.084 144.829 196.084C144.874 196.084 144.829 200.937 144.662 206.927C144.495 212.917 144.336 217.75 144.279 217.75Z" fill="#263238"/>
<path d="M129.874 217.701C129.91 217.62 129.955 217.544 130.009 217.473L130.416 216.834L132.008 214.517L137.325 206.911C139.406 203.943 141.279 201.251 142.618 199.288C143.29 198.307 143.84 197.509 144.19 196.955L144.597 196.316C144.65 196.232 144.713 196.154 144.784 196.084C144.755 196.168 144.714 196.248 144.662 196.32L144.28 196.984C143.933 197.55 143.416 198.364 142.765 199.354C141.458 201.341 139.601 204.048 137.525 207.017C135.448 209.985 133.539 212.656 132.154 214.586L130.526 216.867C130.339 217.119 130.184 217.323 130.07 217.481C130.015 217.563 129.949 217.637 129.874 217.701Z" fill="#263238"/>
<path d="M143.942 217.921C143.893 217.954 140.75 213.055 136.926 206.98C133.103 200.905 130.037 195.954 130.09 195.925C130.143 195.897 133.278 200.791 137.106 206.866C140.933 212.941 143.991 217.893 143.942 217.921Z" fill="#263238"/>
<path d="M148.253 214.713L153.729 214.878L153.763 213.754L148.287 213.59L148.253 214.713Z" fill="#263238"/>
<path d="M148.115 213.283C149.004 213.177 149.9 213.142 150.794 213.182C151.689 213.145 152.585 213.182 153.473 213.292C152.584 213.394 151.688 213.428 150.794 213.393C149.9 213.425 149.004 213.388 148.115 213.283Z" fill="#263238"/>
<path d="M157.642 195.958L157.431 204.354L156.258 203.405L154.715 204.285L154.931 195.892L157.642 195.958Z" fill="#263238"/>
<path d="M129.312 193.743C129.312 193.743 127.659 205.282 128.441 205.958C132.773 209.602 138.795 211.512 140.949 212.115C141.262 212.037 141.633 211.94 142.052 211.805C142.418 211.689 142.761 211.51 143.066 211.276C143.458 211.003 143.81 210.677 144.113 210.307C144.159 210.23 144.228 210.17 144.31 210.134C144.392 210.097 144.483 210.086 144.571 210.103C144.659 210.119 144.741 210.162 144.804 210.225C144.868 210.288 144.91 210.369 144.927 210.457C144.947 210.865 144.308 211.883 143.107 212.628C143.107 212.628 145.867 217.07 146.747 217.469C147.626 217.868 150.147 219.004 149.719 219.224C149.292 219.444 146.23 218.548 146.23 218.548L140.017 216.887C140.017 216.887 119.459 213.666 120.831 204.236C121.67 198.458 122.586 193.242 122.916 191.931L129.312 193.743Z" fill="#FFBE9D"/>
<path d="M122.562 191.377L120.718 203.967C120.31 207.847 122.888 210.922 126.381 212.656C131.699 215.291 139.593 217.168 139.528 217.156C139.463 217.143 140.062 211.557 140.062 211.557C140.062 211.557 128.995 206.764 128.661 204.704C128.327 202.644 130.066 194.032 130.066 194.032L122.562 191.377Z" fill="#00AB00"/>
<path d="M139.528 217.156C139.523 217.123 139.523 217.09 139.528 217.058C139.528 216.981 139.528 216.883 139.528 216.765C139.549 216.492 139.577 216.117 139.614 215.645C139.699 214.656 139.821 213.255 139.972 211.532L140.017 211.606L134.447 208.91L132.818 208.124C132.277 207.835 131.735 207.522 131.19 207.176C130.642 206.825 130.117 206.44 129.618 206.023C129.366 205.811 129.117 205.592 128.877 205.355C128.746 205.241 128.637 205.103 128.555 204.948C128.515 204.868 128.485 204.783 128.466 204.696C128.441 204.61 128.422 204.523 128.409 204.435C128.23 203.063 128.6 201.76 128.787 200.522C128.975 199.284 129.195 198.079 129.41 196.931C129.818 194.646 130.168 192.59 130.473 190.856C130.637 190.087 130.731 189.304 130.754 188.518C130.76 187.926 130.638 187.34 130.396 186.8C130.239 186.461 130.018 186.155 129.744 185.9C129.553 185.725 129.435 185.66 129.439 185.648C129.56 185.706 129.672 185.78 129.773 185.868C130.065 186.114 130.303 186.419 130.469 186.763C130.733 187.309 130.873 187.908 130.876 188.514C130.867 189.309 130.782 190.101 130.624 190.88C130.335 192.619 129.989 194.679 129.606 196.967L128.995 200.563C128.942 200.872 128.889 201.19 128.832 201.508C128.775 201.825 128.718 202.135 128.673 202.456C128.568 203.1 128.551 203.755 128.625 204.403C128.635 204.483 128.651 204.561 128.673 204.639C128.691 204.715 128.717 204.789 128.751 204.859C128.818 204.998 128.914 205.121 129.032 205.221C129.264 205.453 129.508 205.669 129.757 205.881C130.249 206.29 130.766 206.669 131.304 207.017C131.833 207.363 132.37 207.676 132.904 207.961L134.508 208.751L140.049 211.488L140.098 211.512V211.557C139.919 213.279 139.773 214.68 139.691 215.665C139.638 216.138 139.597 216.508 139.569 216.781C139.569 216.899 139.54 216.993 139.528 217.07C139.516 217.148 139.532 217.16 139.528 217.156Z" fill="#263238"/>
<path d="M138.502 210.767C138.517 211.055 138.495 211.344 138.437 211.626C138.368 212.155 138.258 212.88 138.111 213.662C137.965 214.444 137.798 215.177 137.659 215.698C137.602 215.98 137.511 216.253 137.386 216.512C137.329 216.512 137.606 215.217 137.904 213.629C138.045 212.664 138.245 211.708 138.502 210.767Z" fill="#263238"/>
<path d="M139.528 217.156C139.463 217.155 139.399 217.146 139.337 217.127L138.787 216.993L136.784 216.472C135.102 216.016 132.757 215.421 130.269 214.497C129.088 214.066 127.937 213.554 126.825 212.966C125.92 212.479 125.054 211.922 124.235 211.3C123.686 210.877 123.168 210.416 122.684 209.92C122.517 209.745 122.387 209.602 122.305 209.513C122.259 209.466 122.219 209.412 122.187 209.354C122.187 209.354 122.387 209.537 122.745 209.871C123.246 210.342 123.775 210.781 124.329 211.186C125.149 211.795 126.015 212.34 126.919 212.815C128.026 213.392 129.169 213.895 130.343 214.322C132.834 215.238 135.172 215.857 136.857 216.358L138.84 216.948L139.377 217.115C139.429 217.125 139.479 217.138 139.528 217.156Z" fill="#263238"/>
<path d="M139.666 212.115C139.668 212.162 139.659 212.209 139.642 212.252C139.625 212.296 139.6 212.336 139.567 212.371C139.535 212.405 139.496 212.432 139.453 212.451C139.41 212.47 139.363 212.48 139.316 212.481C139.222 212.481 139.132 212.445 139.064 212.379C138.997 212.314 138.957 212.225 138.954 212.131C138.953 212.084 138.961 212.037 138.978 211.993C138.995 211.949 139.021 211.909 139.053 211.875C139.086 211.841 139.125 211.814 139.168 211.795C139.211 211.776 139.257 211.766 139.304 211.765C139.398 211.765 139.489 211.801 139.556 211.866C139.624 211.932 139.663 212.021 139.666 212.115Z" fill="#263238"/>
<path d="M235.613 152.967H190.679V291.772H235.613V152.967Z" fill="#E0E0E0"/>
<path d="M220.161 154.03V285.567L241.659 291.777L241.728 154.03H220.161Z" fill="#455A64"/>
<path d="M222.812 217.799C222.852 218.829 222.457 219.68 221.928 219.705C221.399 219.729 220.935 218.89 220.894 217.876C220.853 216.863 221.248 215.995 221.778 215.975C222.307 215.955 222.771 216.769 222.812 217.799Z" fill="white"/>
<path d="M221.818 217.034L226.053 217.6C226.163 217.614 226.264 217.667 226.338 217.749C226.413 217.831 226.456 217.937 226.46 218.047C226.463 218.117 226.45 218.187 226.422 218.252C226.395 218.316 226.353 218.373 226.3 218.419C226.247 218.466 226.185 218.499 226.118 218.518C226.05 218.537 225.979 218.54 225.91 218.528L221.839 217.84L221.818 217.034Z" fill="white"/>
<path d="M185.431 148.06V152.6V154.03V291.777H192.487V154.03H233.894V291.777H241.659V154.03V152.6V148.06H185.431Z" fill="#263238"/>
<path d="M192.487 154.03H188.961V291.772H192.487V154.03Z" fill="#263238"/>
<path opacity="0.5" d="M192.487 154.03H188.961V291.772H192.487V154.03Z" fill="black"/>
<path d="M241.728 148.06H238.202V291.777H241.728V148.06Z" fill="#263238"/>
<path opacity="0.5" d="M241.728 148.06H238.202V291.777H241.728V148.06Z" fill="black"/>
<path d="M218.382 139.672H206.794V142.258H218.382V139.672Z" fill="#455A64"/>
<path d="M213.923 175.643C213.99 176.896 214.457 178.095 215.256 179.062C216.055 180.03 217.144 180.715 218.361 181.018C219.619 181.323 221.069 181.181 222.066 182.024C223.777 183.477 222.775 186.503 223.931 188.429C224.64 189.626 226.048 190.212 226.846 191.348C228.174 193.234 227.282 196.088 225.474 197.493C223.667 198.897 221.252 199.166 218.988 199.121C214.001 198.991 208.891 197.407 205.288 193.873C203.594 192.211 198.101 185.896 200.597 176.795" fill="#263238"/>
<path d="M195.911 189.031C195.911 189.031 187.186 196.617 186.954 195.693C185.732 190.672 186.074 184.259 186.274 181.804C186.408 181.596 186.567 181.364 186.754 181.108C186.967 180.81 187.23 180.553 187.532 180.346C187.896 180.071 188.296 179.846 188.721 179.678C188.809 179.668 188.892 179.628 188.956 179.566C189.02 179.503 189.062 179.422 189.075 179.333C189.088 179.245 189.072 179.154 189.028 179.076C188.985 178.998 188.917 178.936 188.835 178.901C188.484 178.77 187.369 179.059 186.335 179.923C185.301 180.786 185.724 178.734 185.862 177.984C186.001 177.235 186.327 174.89 186.127 174.67C185.838 174.344 185.431 174.605 185.313 175.358C185.195 176.111 184.661 178.347 184.266 178.265C183.871 178.184 184.645 174.365 184.645 174.365C184.645 174.365 184.938 173.571 184.486 173.461C183.672 173.261 183.159 177.374 183.118 177.765C183.09 178.037 182.658 177.964 182.711 177.671C182.764 177.378 183.562 173.88 182.735 173.668C182.1 173.505 182.279 177.044 181.709 177.687C181.139 178.331 181.848 174.983 181.233 174.837C181.005 174.788 180.826 174.784 180.7 176.759C180.669 178.349 180.727 179.939 180.871 181.523C180.329 186.938 179.267 203.531 186.762 202.961C195.606 202.285 197.641 195.314 197.641 195.314L195.911 189.031Z" fill="#B78876"/>
<path d="M202.882 186.564C203.008 185.863 202.784 182.924 202.784 182.924C202.784 182.924 200.174 182.594 200.064 179.935C199.954 177.276 200.215 171.144 200.215 171.144L205.015 168.839L210.178 173L209.282 186.519L202.882 186.564Z" fill="#B78876"/>
<path d="M200.659 175.623C200.659 175.689 200.678 175.753 200.715 175.808C200.751 175.863 200.803 175.905 200.864 175.931C200.925 175.956 200.991 175.963 201.056 175.95C201.121 175.938 201.18 175.907 201.227 175.86C201.274 175.814 201.306 175.755 201.319 175.69C201.333 175.626 201.327 175.559 201.302 175.498C201.277 175.437 201.235 175.384 201.181 175.347C201.127 175.31 201.062 175.29 200.997 175.289C200.908 175.289 200.822 175.324 200.759 175.386C200.696 175.449 200.66 175.534 200.659 175.623Z" fill="#263238"/>
<path d="M200.345 175.244C200.386 175.289 200.634 175.081 200.992 175.069C201.351 175.057 201.615 175.236 201.652 175.187C201.689 175.138 201.627 175.081 201.509 175C201.355 174.89 201.169 174.836 200.98 174.845C200.792 174.855 200.612 174.925 200.467 175.045C200.357 175.138 200.325 175.224 200.345 175.244Z" fill="#263238"/>
<path d="M204.498 175.688C204.498 175.754 204.517 175.818 204.554 175.873C204.59 175.928 204.642 175.971 204.703 175.996C204.764 176.021 204.831 176.028 204.895 176.016C204.96 176.003 205.02 175.972 205.066 175.925C205.113 175.879 205.145 175.82 205.159 175.755C205.172 175.691 205.166 175.624 205.141 175.563C205.117 175.502 205.075 175.449 205.02 175.412C204.966 175.375 204.902 175.355 204.836 175.354C204.747 175.354 204.662 175.389 204.598 175.452C204.535 175.514 204.499 175.599 204.498 175.688Z" fill="#263238"/>
<path d="M204.298 175.317C204.343 175.362 204.592 175.154 204.95 175.138C205.308 175.122 205.569 175.309 205.609 175.26C205.65 175.211 205.585 175.154 205.467 175.069C205.312 174.962 205.126 174.909 204.938 174.918C204.749 174.927 204.569 174.997 204.425 175.118C204.315 175.207 204.278 175.293 204.298 175.317Z" fill="#263238"/>
<path d="M202.959 178.388C202.77 178.328 202.574 178.298 202.377 178.298C202.287 178.298 202.198 178.274 202.181 178.208C202.174 178.107 202.194 178.006 202.238 177.915L202.495 177.162C202.736 176.52 202.93 175.862 203.073 175.191C202.786 175.812 202.545 176.453 202.352 177.109C202.267 177.378 202.181 177.626 202.104 177.87C202.049 177.99 202.034 178.125 202.063 178.253C202.075 178.287 202.095 178.317 202.121 178.341C202.148 178.365 202.179 178.382 202.214 178.392C202.265 178.399 202.317 178.399 202.369 178.392C202.565 178.416 202.763 178.415 202.959 178.388Z" fill="#263238"/>
<path d="M204.131 178.754C204.498 178.514 203.122 179.344 202.397 179.332C202.521 179.52 202.705 179.659 202.92 179.725C203.134 179.792 203.365 179.783 203.574 179.699C203.672 179.674 203.765 179.629 203.847 179.568C203.928 179.507 203.997 179.43 204.049 179.342C204.101 179.255 204.135 179.157 204.149 179.056C204.163 178.955 204.157 178.853 204.131 178.754Z" fill="white"/>
<path d="M202.784 182.924C204.02 182.89 205.22 182.497 206.236 181.792C206.236 181.792 205.422 183.734 202.829 183.575L202.784 182.924Z" fill="#A36957"/>
<path d="M213.924 175.684C213.899 175.497 213.871 175.211 213.842 174.914C213.801 174.507 213.757 174.067 213.704 173.831C212.385 168.265 207.653 167.149 206.717 167.133C205.707 167.113 203.956 166.514 201.338 169.21C200.594 169.925 200.077 170.844 199.853 171.851C199.629 172.859 199.708 173.911 200.08 174.874L200.52 174.466L204.327 173.53C204.042 172.475 204.506 171.18 204.767 170.578L204.791 170.553C205.479 174.548 209.742 175.032 209.742 175.032L209.335 185.619C213.533 184.772 213.867 177.964 213.858 175.659L213.924 175.684Z" fill="#263238"/>
<path d="M215.573 223.202C215.573 223.149 215.573 223.097 215.573 223.064C215.573 223.031 215.581 223.129 215.573 223.202Z" fill="#B78876"/>
<path d="M220.516 287.754C220.516 287.754 210.687 254.621 210.5 253.55C210.329 252.593 214.881 229.347 215.54 223.316L201.721 223.447C201.721 223.447 201.721 223.483 201.721 223.549L195.044 223.732L198.387 289.94L205.715 290.132L205.606 268.367C209.229 278.995 213.814 291.003 213.814 291.003L220.516 287.754Z" fill="#B78876"/>
<path d="M201.212 252.068C201.233 252.068 201.212 252.328 201.168 252.793C201.135 253.447 201.148 254.103 201.204 254.755C201.289 255.724 201.452 256.684 201.693 257.626C202.011 258.776 202.403 259.905 202.865 261.006C203.773 263.383 204.588 265.537 205.166 267.113L205.858 268.97C205.949 269.195 206.022 269.426 206.078 269.662C205.964 269.448 205.864 269.226 205.781 268.999L205.044 267.166C204.429 265.615 203.594 263.465 202.682 261.087C202.458 260.492 202.238 259.91 202.023 259.348C201.824 258.803 201.657 258.247 201.522 257.683C201.286 256.729 201.135 255.756 201.07 254.776C201.028 254.115 201.039 253.452 201.102 252.793C201.127 252.56 201.155 252.385 201.18 252.259C201.18 252.194 201.191 252.129 201.212 252.068Z" fill="#A36957"/>
<path d="M205.642 276.275C205.642 276.075 205.772 268.897 205.772 268.897C205.772 268.897 203.362 262.243 203.301 262.443C203.24 262.642 205.642 276.275 205.642 276.275Z" fill="#A36957"/>
<path d="M214.066 290.889L220.532 287.754L221.277 289.142L218.993 290.433C217.433 291.284 212.132 294.061 210.878 294.285C209.481 294.537 214.066 290.889 214.066 290.889Z" fill="#FF725E"/>
<path d="M210.589 294.097C210.556 294.049 212.918 292.876 215.862 291.487C218.805 290.099 221.212 289.012 221.24 289.044C221.269 289.077 218.911 290.266 215.967 291.65C213.024 293.035 210.617 294.146 210.589 294.097Z" fill="#263238"/>
<path d="M219.595 289.887C219.563 289.887 219.55 289.765 219.563 289.57C219.579 289.309 219.65 289.056 219.77 288.824C219.905 288.571 220.122 288.372 220.385 288.258C220.601 288.173 220.751 288.193 220.751 288.214C220.751 288.234 220.629 288.279 220.466 288.381C220.261 288.514 220.092 288.696 219.974 288.91C219.868 289.129 219.783 289.358 219.721 289.594C219.668 289.777 219.624 289.891 219.595 289.887Z" fill="#263238"/>
<path d="M213.716 291.186C213.716 291.243 213.915 291.32 214.172 291.406C214.428 291.492 214.644 291.548 214.681 291.5C214.717 291.451 214.534 291.296 214.253 291.202C213.972 291.109 213.724 291.125 213.716 291.186Z" fill="#263238"/>
<path d="M213.272 291.532C213.272 291.593 213.443 291.703 213.679 291.781C213.915 291.858 214.151 291.882 214.18 291.825C214.208 291.768 214.017 291.663 213.773 291.581C213.528 291.5 213.288 291.475 213.272 291.532Z" fill="#263238"/>
<path d="M212.905 291.854C212.881 291.907 213.019 292.009 213.199 292.102C213.378 292.196 213.553 292.249 213.606 292.204C213.659 292.159 213.528 292.021 213.333 291.919C213.137 291.817 212.934 291.797 212.905 291.854Z" fill="#263238"/>
<path d="M213.745 291.239C213.78 291.01 213.756 290.776 213.675 290.559C213.611 290.308 213.498 290.073 213.341 289.867C213.241 289.738 213.123 289.625 212.991 289.529C212.915 289.474 212.831 289.428 212.743 289.394C212.629 289.35 212.503 289.35 212.389 289.394C212.341 289.419 212.299 289.454 212.266 289.496C212.234 289.539 212.211 289.588 212.199 289.641C212.187 289.693 212.187 289.748 212.199 289.8C212.211 289.852 212.234 289.902 212.267 289.944C212.356 290.075 212.456 290.198 212.568 290.311C212.753 290.499 212.955 290.671 213.17 290.824C213.361 290.984 213.579 291.108 213.814 291.19C213.838 291.166 213.614 290.999 213.284 290.714C213.092 290.548 212.91 290.371 212.739 290.184C212.643 290.081 212.555 289.969 212.478 289.851C212.405 289.745 212.425 289.614 212.499 289.586C212.572 289.557 212.723 289.586 212.845 289.688C212.962 289.768 213.068 289.863 213.158 289.973C213.311 290.159 213.43 290.37 213.512 290.596C213.57 290.817 213.647 291.032 213.745 291.239Z" fill="#263238"/>
<path d="M213.744 291.113C213.563 290.933 213.345 290.794 213.105 290.706C212.845 290.591 212.571 290.507 212.291 290.457C212.123 290.427 211.952 290.412 211.782 290.412C211.684 290.413 211.587 290.426 211.493 290.449C211.433 290.462 211.378 290.489 211.33 290.526C211.301 290.549 211.278 290.578 211.263 290.612C211.248 290.645 211.242 290.681 211.244 290.718C211.274 290.816 211.326 290.907 211.397 290.982C211.468 291.057 211.555 291.114 211.652 291.149C211.809 291.226 211.976 291.28 212.148 291.308C212.43 291.348 212.716 291.356 212.999 291.333C213.492 291.304 213.761 291.133 213.736 291.113C213.489 291.149 213.24 291.172 212.991 291.182C212.718 291.184 212.446 291.161 212.177 291.113C212.035 291.084 211.898 291.036 211.77 290.97C211.647 290.905 211.509 290.783 211.501 290.706C211.493 290.628 211.652 290.616 211.806 290.624C211.961 290.618 212.117 290.626 212.27 290.649C212.534 290.69 212.793 290.756 213.044 290.844C213.27 290.951 213.504 291.041 213.744 291.113Z" fill="#263238"/>
<path d="M214.192 290.82C214.229 290.881 215.731 290.307 217.478 289.447C219.225 288.588 220.572 287.819 220.528 287.754C220.483 287.688 219.058 288.377 217.315 289.232C215.573 290.087 214.152 290.759 214.192 290.82Z" fill="#263238"/>
<path d="M199.225 289.867L205.711 289.916L205.601 291.793H205.194C203.313 291.793 195.622 291.654 194.388 291.259C192.996 290.828 199.225 289.867 199.225 289.867Z" fill="#FF725E"/>
<path d="M194.23 290.958C194.23 290.905 196.782 291.003 199.93 291.178C203.077 291.353 205.61 291.544 205.606 291.585C205.601 291.626 203.057 291.544 199.905 291.369C196.754 291.194 194.226 291.023 194.23 290.958Z" fill="#263238"/>
<path d="M203.545 291.471C203.521 291.451 203.582 291.345 203.712 291.186C203.889 290.969 204.104 290.787 204.347 290.649C204.616 290.499 204.924 290.433 205.231 290.457C205.467 290.486 205.589 290.571 205.577 290.592C205.564 290.612 205.43 290.592 205.222 290.592C204.959 290.608 204.703 290.683 204.473 290.812C204.247 290.944 204.034 291.098 203.838 291.272C203.679 291.41 203.569 291.487 203.545 291.471Z" fill="#263238"/>
<path d="M198.737 289.956C198.692 290.001 198.83 290.168 199.005 290.364C199.18 290.559 199.331 290.71 199.392 290.681C199.453 290.653 199.392 290.441 199.197 290.233C199.001 290.026 198.781 289.912 198.737 289.956Z" fill="#263238"/>
<path d="M198.122 290.046C198.073 290.087 198.171 290.27 198.342 290.453C198.513 290.636 198.696 290.759 198.749 290.726C198.802 290.693 198.708 290.51 198.529 290.319C198.35 290.127 198.187 290.005 198.122 290.046Z" fill="#263238"/>
<path d="M197.625 290.144C197.568 290.176 197.625 290.327 197.731 290.49C197.837 290.653 197.947 290.779 198.012 290.759C198.077 290.738 198.057 290.567 197.947 290.392C197.837 290.217 197.678 290.111 197.625 290.144Z" fill="#263238"/>
<path d="M198.733 290.017C198.895 289.845 199.015 289.637 199.083 289.411C199.177 289.174 199.22 288.92 199.209 288.666C199.202 288.51 199.168 288.357 199.107 288.214C199.074 288.131 199.029 288.055 198.973 287.986C198.893 287.894 198.781 287.835 198.66 287.823C198.603 287.818 198.546 287.824 198.492 287.843C198.439 287.861 198.389 287.89 198.348 287.928C198.306 287.967 198.273 288.013 198.25 288.065C198.227 288.117 198.215 288.173 198.216 288.23C198.215 288.38 198.23 288.531 198.261 288.678C198.306 288.923 198.377 289.163 198.472 289.395C198.541 289.621 198.659 289.83 198.818 290.005C198.785 289.782 198.725 289.563 198.639 289.354C198.571 289.123 198.519 288.888 198.484 288.649C198.464 288.515 198.456 288.378 198.46 288.242C198.46 288.12 198.554 288.022 198.639 288.03C198.725 288.039 198.826 288.144 198.879 288.279C198.937 288.408 198.971 288.545 198.981 288.686C199.001 288.919 198.979 289.153 198.916 289.378C198.833 289.584 198.771 289.799 198.733 290.017Z" fill="#263238"/>
<path d="M198.81 289.912C198.755 289.677 198.645 289.459 198.489 289.276C198.331 289.057 198.145 288.86 197.935 288.69C197.808 288.585 197.672 288.492 197.528 288.413C197.441 288.367 197.35 288.331 197.255 288.307C197.192 288.295 197.127 288.295 197.063 288.307C197.025 288.312 196.987 288.326 196.954 288.347C196.921 288.368 196.893 288.396 196.872 288.429C196.837 288.52 196.826 288.617 196.84 288.713C196.854 288.809 196.893 288.899 196.954 288.975C197.042 289.117 197.157 289.242 197.291 289.342C197.519 289.505 197.765 289.642 198.024 289.749C198.26 289.886 198.536 289.941 198.806 289.903C198.568 289.823 198.335 289.726 198.11 289.614C197.875 289.492 197.653 289.347 197.446 289.183C197.337 289.092 197.242 288.985 197.165 288.865C197.129 288.815 197.104 288.758 197.092 288.698C197.079 288.637 197.079 288.575 197.092 288.515C197.092 288.478 197.275 288.515 197.405 288.588C197.55 288.652 197.687 288.733 197.813 288.829C198.018 288.983 198.207 289.159 198.375 289.354C198.627 289.696 198.774 289.924 198.81 289.912Z" fill="#263238"/>
<path d="M199.376 289.867C200.405 290.032 201.448 290.102 202.491 290.074C203.531 290.121 204.574 290.084 205.609 289.965C204.574 289.87 203.534 289.834 202.495 289.859C200.776 289.842 199.38 289.81 199.376 289.867Z" fill="#263238"/>
<path d="M219.062 200.461C219.062 200.461 219.327 199.468 218.573 193.38C218.248 190.729 216.444 189.084 214.502 188.087V188.054L214.335 188.005C212.742 187.235 211.031 186.737 209.274 186.531L202.438 186.421C202.438 186.421 197.434 185.798 194.246 189.272C191.058 192.745 188.884 194.785 188.884 194.785L193.977 200.893L195.341 199.545C195.341 199.545 195.199 202.359 196.127 204L198.33 207.876L196.901 214.704C195.997 217.306 193.016 226.822 194.185 236.249C195.63 247.923 195.862 251.335 195.862 251.335L212.368 253.591C212.368 253.591 218.964 228.874 216.705 219.057C215.153 212.31 213.968 212.624 213.586 211.162L214.001 200.661L219.062 200.461Z" fill="#FFA564"/>
<path d="M196.648 197.273C196.516 197.709 196.315 198.121 196.053 198.494C195.856 198.901 195.593 199.272 195.276 199.594C195.41 199.158 195.611 198.746 195.87 198.372C196.069 197.967 196.332 197.596 196.648 197.273Z" fill="#263238"/>
<path d="M211.444 210.038C211.272 210.088 211.097 210.122 210.919 210.14C210.577 210.197 210.08 210.262 209.469 210.323C207.869 210.485 206.261 210.552 204.653 210.523C203.044 210.492 201.439 210.369 199.844 210.152C199.234 210.067 198.741 209.985 198.403 209.92C198.224 209.896 198.048 209.854 197.878 209.794C198.058 209.793 198.238 209.808 198.415 209.839L199.861 210.006C201.082 210.136 202.78 210.274 204.657 210.311C206.534 210.348 208.228 210.262 209.453 210.172L210.907 210.058C211.084 210.031 211.265 210.024 211.444 210.038Z" fill="#263238"/>
<path d="M217.006 228.537C216.997 228.646 216.976 228.753 216.945 228.858C216.888 229.09 216.814 229.4 216.721 229.787C216.668 229.986 216.615 230.194 216.554 230.45C216.493 230.707 216.391 230.951 216.301 231.232C216.114 231.786 215.931 232.433 215.634 233.109L215.194 234.184C215.039 234.555 214.84 234.925 214.652 235.32C214.29 236.11 213.81 236.908 213.325 237.763C211.122 241.403 208.215 244.568 204.775 247.072C203.961 247.625 203.215 248.171 202.454 248.594C202.08 248.814 201.725 249.042 201.367 249.23L200.333 249.755C199.685 250.109 199.054 250.341 198.517 250.569C198.248 250.683 197.996 250.793 197.764 250.883L197.112 251.103L196.208 251.404C196.105 251.443 195.999 251.473 195.891 251.494C195.988 251.44 196.09 251.396 196.196 251.363L197.084 251.025L197.727 250.789C197.959 250.696 198.203 250.577 198.472 250.459C199.001 250.215 199.624 249.975 200.268 249.612L201.29 249.075C201.644 248.888 201.994 248.668 202.365 248.436C203.118 248.008 203.863 247.458 204.661 246.905C208.073 244.403 210.964 241.261 213.174 237.653C213.663 236.815 214.148 236.025 214.51 235.239C214.701 234.832 214.917 234.486 215.06 234.115C215.202 233.744 215.369 233.39 215.512 233.052C215.817 232.38 216.008 231.745 216.208 231.195C216.301 230.919 216.399 230.662 216.472 230.422C216.546 230.182 216.603 229.962 216.656 229.762L216.92 228.85C216.942 228.744 216.97 228.639 217.006 228.537Z" fill="#263238"/>
<path d="M218.801 196.898C218.721 196.959 218.634 197.01 218.541 197.049C218.37 197.138 218.134 197.273 217.779 197.432C216.84 197.91 215.834 198.242 214.795 198.417C214.068 198.522 213.328 198.481 212.617 198.299C212.218 198.193 211.838 198.027 211.489 197.806C211.125 197.565 210.8 197.269 210.524 196.931C209.981 196.188 209.492 195.407 209.062 194.594C208.586 193.779 207.967 192.965 207.026 192.655C206.086 192.346 205.097 192.578 204.197 192.834C203.323 193.14 202.415 193.336 201.493 193.417C200.943 193.437 200.396 193.341 199.885 193.136C199.374 192.931 198.912 192.622 198.529 192.227C198.145 191.833 197.848 191.363 197.658 190.846C197.467 190.33 197.387 189.78 197.422 189.231C197.45 188.776 197.553 188.329 197.727 187.908C197.865 187.545 198.074 187.214 198.342 186.934C198.129 187.25 197.949 187.587 197.804 187.94C197.646 188.356 197.556 188.795 197.54 189.239C197.523 189.765 197.614 190.289 197.807 190.778C197.999 191.267 198.29 191.712 198.661 192.085C199.032 192.458 199.476 192.751 199.964 192.947C200.452 193.142 200.976 193.235 201.501 193.221C202.406 193.136 203.296 192.937 204.152 192.631C204.62 192.487 205.1 192.383 205.585 192.317C206.097 192.25 206.617 192.297 207.108 192.456C207.596 192.63 208.034 192.919 208.386 193.299C208.718 193.662 209.009 194.061 209.254 194.488C209.678 195.293 210.157 196.069 210.687 196.809C211.192 197.451 211.89 197.913 212.678 198.128C213.366 198.314 214.084 198.363 214.791 198.27C215.819 198.109 216.819 197.8 217.759 197.354L218.537 197.008C218.622 196.965 218.711 196.929 218.801 196.898Z" fill="white"/>
<path d="M209.115 211.325C209.255 211.116 209.353 210.882 209.404 210.637C209.445 210.3 209.408 209.958 209.298 209.638C209.188 209.317 209.007 209.025 208.769 208.784C208.441 208.448 208.037 208.196 207.592 208.047C207.077 207.874 206.545 207.757 206.004 207.701C205.43 207.623 204.815 207.579 204.188 207.444C203.527 207.325 202.902 207.056 202.36 206.658C202.091 206.444 201.863 206.181 201.688 205.885C201.524 205.599 201.388 205.297 201.281 204.985C201.114 204.407 200.891 203.847 200.618 203.311C200.361 202.879 200 202.519 199.567 202.262C199.134 202.006 198.645 201.863 198.142 201.846C197.454 201.833 196.782 202.051 196.233 202.464C196.036 202.622 195.85 202.792 195.675 202.973C195.675 202.973 195.703 202.912 195.781 202.806C195.902 202.657 196.039 202.521 196.188 202.399C196.74 201.943 197.434 201.693 198.15 201.695C198.682 201.704 199.203 201.847 199.665 202.112C200.126 202.377 200.513 202.755 200.789 203.21C201.074 203.755 201.305 204.326 201.481 204.916C201.657 205.529 202.01 206.077 202.495 206.491C203.01 206.867 203.603 207.123 204.229 207.241C204.84 207.375 205.451 207.424 206.025 207.509C207.173 207.652 208.264 207.982 208.875 208.682C209.123 208.941 209.306 209.253 209.412 209.596C209.517 209.938 209.541 210.3 209.481 210.653C209.44 210.842 209.359 211.021 209.245 211.178C209.208 211.232 209.164 211.281 209.115 211.325Z" fill="white"/>
<path d="M215.503 240.243C214.96 240.189 214.412 240.212 213.875 240.312C213.247 240.442 212.625 240.603 212.014 240.797C211.2 241.069 210.351 241.222 209.494 241.253C208.447 241.273 207.409 241.069 206.448 240.654C205.332 240.188 204.374 239.41 203.688 238.415C202.954 237.286 202.641 235.936 202.804 234.6C202.884 233.896 203.098 233.215 203.435 232.592C203.785 231.948 204.277 231.391 204.873 230.963C205.451 230.532 206.094 230.149 206.383 229.55C206.53 229.256 206.578 228.922 206.522 228.598C206.457 228.269 206.347 227.951 206.196 227.653C205.852 227.065 205.62 226.419 205.512 225.747C205.449 225.09 205.547 224.428 205.797 223.817C206.276 222.694 207.175 221.802 208.301 221.329C209.264 220.919 210.308 220.731 211.354 220.78C212.201 220.824 213.049 220.799 213.891 220.706C214.522 220.618 215.125 220.384 215.65 220.022C215.986 219.795 216.265 219.492 216.464 219.139C216.595 218.894 216.623 218.752 216.639 218.756C216.614 218.898 216.567 219.035 216.501 219.163C216.316 219.531 216.045 219.85 215.711 220.091C215.181 220.473 214.569 220.726 213.924 220.828C213.076 220.935 212.22 220.97 211.367 220.934C210.343 220.895 209.323 221.086 208.382 221.492C207.305 221.957 206.45 222.821 205.996 223.903C205.759 224.484 205.668 225.115 205.732 225.739C205.839 226.388 206.066 227.012 206.399 227.58C206.561 227.894 206.676 228.23 206.741 228.577C206.808 228.944 206.754 229.323 206.587 229.656C206.241 230.332 205.581 230.719 205.015 231.143C204.457 231.549 203.991 232.069 203.649 232.668C203.306 233.268 203.095 233.933 203.028 234.62C202.873 235.902 203.169 237.198 203.867 238.285C204.531 239.252 205.456 240.012 206.534 240.475C207.472 240.884 208.486 241.09 209.51 241.082C210.356 241.066 211.195 240.929 212.002 240.675C212.618 240.488 213.245 240.337 213.879 240.223C214.282 240.151 214.692 240.132 215.1 240.166C215.237 240.179 215.372 240.205 215.503 240.243Z" fill="white"/>
<path d="M209.742 253.228C209.722 253.228 209.742 252.943 209.771 252.434C209.81 251.72 209.683 251.006 209.4 250.349C209.2 249.909 208.849 249.553 208.411 249.348C207.893 249.147 207.337 249.062 206.782 249.099C206.136 249.151 205.486 249.071 204.873 248.863C204.555 248.716 204.277 248.497 204.058 248.224C203.841 247.946 203.653 247.648 203.496 247.332C203.229 246.716 202.878 246.139 202.454 245.618C202.045 245.148 201.554 244.757 201.005 244.462C200.07 243.957 198.998 243.766 197.947 243.916C197.238 244.017 196.555 244.258 195.94 244.624C195.508 244.889 195.296 245.08 195.284 245.068C195.272 245.056 195.329 245.011 195.427 244.918C196.131 244.3 196.999 243.901 197.927 243.769C199.011 243.591 200.124 243.774 201.094 244.291C201.668 244.59 202.182 244.993 202.609 245.48C202.834 245.731 203.034 246.004 203.207 246.294C203.378 246.595 203.525 246.909 203.684 247.218C203.931 247.832 204.385 248.34 204.966 248.656C205.554 248.853 206.176 248.932 206.794 248.888C207.382 248.854 207.97 248.95 208.517 249.169C208.986 249.399 209.358 249.789 209.567 250.268C209.844 250.95 209.953 251.689 209.885 252.422C209.864 252.679 209.84 252.878 209.815 253.008C209.798 253.084 209.774 253.157 209.742 253.228Z" fill="white"/>
<path d="M199.974 219.554C199.877 219.794 199.766 220.028 199.641 220.254C199.312 220.869 199.106 221.541 199.034 222.233C199.007 222.707 199.11 223.178 199.331 223.597C199.606 224.077 199.916 224.536 200.259 224.97C200.649 225.493 200.931 226.089 201.088 226.722C201.245 227.355 201.275 228.014 201.176 228.659C201.071 229.308 200.813 229.923 200.424 230.454C200.034 230.984 199.524 231.414 198.936 231.708C198.425 231.969 197.861 232.109 197.287 232.116C196.678 232.109 196.08 231.947 195.551 231.645C195.021 231.343 194.578 230.911 194.262 230.389C194.167 230.222 194.088 230.046 194.026 229.864C194.001 229.8 193.986 229.733 193.981 229.664C194.087 229.898 194.206 230.127 194.335 230.348C194.716 230.931 195.262 231.386 195.903 231.656C196.337 231.847 196.808 231.943 197.283 231.937C197.83 231.923 198.366 231.784 198.851 231.529C199.407 231.245 199.888 230.833 200.256 230.328C200.624 229.823 200.867 229.239 200.968 228.622C201.158 227.37 200.845 226.093 200.097 225.071C199.753 224.627 199.444 224.158 199.172 223.667C198.945 223.218 198.845 222.715 198.883 222.213C198.969 221.505 199.202 220.822 199.567 220.21C199.689 219.99 199.787 219.823 199.86 219.713C199.893 219.656 199.931 219.603 199.974 219.554Z" fill="white"/>
<path d="M212.242 205.893C212.208 205.734 212.192 205.571 212.193 205.408C212.193 205.05 212.152 204.594 212.128 204.081C212.071 202.916 211.998 201.398 211.916 199.716C211.835 198.034 211.778 196.458 211.766 195.343C211.766 194.781 211.766 194.329 211.766 194.015C211.758 193.852 211.769 193.688 211.798 193.527C211.835 193.687 211.851 193.851 211.847 194.015C211.867 194.37 211.888 194.83 211.916 195.339C211.969 196.503 212.043 198.022 212.128 199.704C212.214 201.385 212.262 202.961 212.275 204.077C212.275 204.639 212.275 205.091 212.275 205.404C212.283 205.568 212.272 205.732 212.242 205.893Z" fill="#263238"/>
<path d="M212.099 200.734C212.099 200.734 212.779 208.951 211.998 209.521C207.645 212.563 201.859 213.784 199.783 214.147C199.494 214.041 199.16 213.915 198.773 213.739C198.438 213.59 198.131 213.385 197.865 213.133C197.523 212.832 197.221 212.487 196.969 212.107C196.939 212.023 196.883 211.952 196.808 211.904C196.734 211.855 196.646 211.833 196.557 211.839C196.469 211.846 196.385 211.881 196.318 211.939C196.251 211.998 196.206 212.077 196.188 212.164C196.135 212.542 196.648 213.585 197.71 214.415C198.773 215.246 196.684 215.295 195.923 215.323C195.162 215.352 192.816 215.56 192.645 215.808C192.393 216.166 192.727 216.516 193.488 216.468C194.25 216.419 196.53 216.439 196.534 216.85C196.538 217.262 192.662 217.355 192.662 217.355C192.662 217.355 191.847 217.241 191.819 217.714C191.795 218.569 195.891 218.153 196.298 218.121C196.57 218.088 196.587 218.528 196.298 218.556C196.009 218.585 192.434 218.556 192.401 219.432C192.377 220.1 195.781 219.122 196.526 219.546C197.271 219.969 193.867 220.018 193.871 220.657C193.871 220.898 193.904 221.065 195.85 220.759C197.242 220.469 198.618 220.102 199.97 219.66V219.68C199.97 219.68 220.21 217.946 219.701 208.821C219.359 202.644 219.473 203.784 219.094 200.538" fill="#B78876"/>
</svg>
