<svg width="134" height="90" viewBox="0 0 134 90" fill="none" xmlns="http://www.w3.org/2000/svg">
<path d="M119.587 11.2898C119.692 10.5295 118.622 9.90375 117.82 9.8392C117.436 9.80692 117.037 9.86609 116.675 9.73878C115.889 9.46444 115.574 8.44417 114.808 8.125C114.234 7.88114 113.573 8.0981 113.021 8.37962C112.469 8.66113 111.915 9.01437 111.293 9.05382C110.757 9.08789 110.166 8.88706 109.685 9.15244C109.328 9.34968 109.149 9.75671 108.824 9.99699C108.499 10.2373 108.092 10.2821 107.697 10.3036C107.302 10.3251 106.894 10.3287 106.535 10.4937C106.176 10.6586 105.88 11.0316 105.955 11.4297L119.587 11.2898Z" fill="#F5F5F5"/>
<path d="M33.525 24.8295H18.4241V72.8593H33.525V24.8295Z" fill="#F5F5F5"/>
<path d="M33.5251 24.8295H25.9746V72.7266H33.5251V24.8295Z" fill="#EBEBEB"/>
<path d="M25.4815 20.1154H20.1483V24.8313H25.4815V20.1154Z" fill="#F5F5F5"/>
<path d="M25.4797 20.1154H24.2094V24.8313H25.4797V20.1154Z" fill="#EBEBEB"/>
<path d="M17.1663 24.8295V24.5551H33.9663V24.8295" fill="#E0E0E0"/>
<path d="M22.6818 26.8862H21.4043V29.5902H22.6818V26.8862Z" fill="#FAFAFA"/>
<path d="M25.9746 30.6553C25.9746 30.6822 24.2844 30.7055 22.1994 30.7055C20.1143 30.7055 18.4241 30.6822 18.4241 30.6553C18.4241 30.6284 20.1143 30.6033 22.1994 30.6033C24.2844 30.6033 25.9746 30.6248 25.9746 30.6553Z" fill="#E0E0E0"/>
<path d="M30.2983 26.8862H29.0209V29.5902H30.2983V26.8862Z" fill="#E0E0E0"/>
<path d="M33.5894 30.6553C33.5894 30.6822 31.8992 30.7055 29.8142 30.7055C27.7291 30.7055 26.0389 30.6822 26.0389 30.6553C26.0389 30.6284 27.7291 30.6033 29.8142 30.6033C31.8992 30.6033 33.5894 30.6248 33.5894 30.6553Z" fill="#E0E0E0"/>
<path d="M30.2983 32.2565H29.0209V34.9622H30.2983V32.2565Z" fill="#E0E0E0"/>
<path d="M33.5894 36.0237C33.5894 36.0506 31.8992 36.0739 29.8142 36.0739C27.7291 36.0739 26.0389 36.0506 26.0389 36.0237C26.0389 35.9968 27.7291 35.9717 29.8142 35.9717C31.8992 35.9717 33.5894 35.9951 33.5894 36.0237Z" fill="#E0E0E0"/>
<path d="M30.2983 37.7881H29.0209V40.4921H30.2983V37.7881Z" fill="#E0E0E0"/>
<path d="M33.5894 41.5555C33.5894 41.5842 31.8992 41.6075 29.8142 41.6075C27.7291 41.6075 26.0389 41.5842 26.0389 41.5555C26.0389 41.5268 27.7291 41.5035 29.8142 41.5035C31.8992 41.5035 33.5894 41.5268 33.5894 41.5555Z" fill="#E0E0E0"/>
<path d="M30.2983 43.3217H29.0209V46.0256H30.2983V43.3217Z" fill="#E0E0E0"/>
<path d="M33.5894 47.0872C33.5894 47.1158 31.8992 47.1392 29.8142 47.1392C27.7291 47.1392 26.0389 47.1158 26.0389 47.0872C26.0389 47.0585 27.7291 47.0352 29.8142 47.0352C31.8992 47.0352 33.5894 47.0585 33.5894 47.0872Z" fill="#E0E0E0"/>
<path d="M30.2983 48.6956H29.0209V51.3995H30.2983V48.6956Z" fill="#E0E0E0"/>
<path d="M33.5894 52.4611C33.5894 52.4897 31.8992 52.5131 29.8142 52.5131C27.7291 52.5131 26.0389 52.4897 26.0389 52.4611C26.0389 52.4324 27.7291 52.4091 29.8142 52.4091C31.8992 52.4091 33.5894 52.4324 33.5894 52.4611Z" fill="#E0E0E0"/>
<path d="M30.2983 54.091H29.0209V56.795H30.2983V54.091Z" fill="#E0E0E0"/>
<path d="M30.2983 59.5563H29.0209V62.2603H30.2983V59.5563Z" fill="#E0E0E0"/>
<path d="M33.5894 57.8565C33.5894 57.8852 31.8992 57.9085 29.8142 57.9085C27.7291 57.9085 26.0389 57.8852 26.0389 57.8565C26.0389 57.8278 27.7291 57.8063 29.8142 57.8063C31.8992 57.8063 33.5894 57.8296 33.5894 57.8565Z" fill="#E0E0E0"/>
<path d="M22.6818 32.339H21.4043V35.043H22.6818V32.339Z" fill="#FAFAFA"/>
<path d="M25.9746 36.1044C25.9746 36.1331 24.2844 36.1564 22.1994 36.1564C20.1143 36.1564 18.4241 36.1331 18.4241 36.1044C18.4241 36.0757 20.1143 36.0524 22.1994 36.0524C24.2844 36.0524 25.9746 36.0757 25.9746 36.1044Z" fill="#E0E0E0"/>
<path d="M22.6818 37.79H21.4043V40.494H22.6818V37.79Z" fill="#FAFAFA"/>
<path d="M25.9746 41.5573C25.9746 41.5859 24.2844 41.6092 22.1994 41.6092C20.1143 41.6092 18.4241 41.5859 18.4241 41.5573C18.4241 41.5286 20.1143 41.5052 22.1994 41.5052C24.2844 41.5052 25.9746 41.5286 25.9746 41.5573Z" fill="#E0E0E0"/>
<path d="M22.6818 43.2427H21.4043V45.9467H22.6818V43.2427Z" fill="#FAFAFA"/>
<path d="M25.9746 47.0101C25.9746 47.037 24.2844 47.0603 22.1994 47.0603C20.1143 47.0603 18.4241 47.037 18.4241 47.0101C18.4241 46.9832 20.1143 46.9581 22.1994 46.9581C24.2844 46.9581 25.9746 46.9814 25.9746 47.0101Z" fill="#E0E0E0"/>
<path d="M22.6818 48.6956H21.4043V51.3995H22.6818V48.6956Z" fill="#FAFAFA"/>
<path d="M25.9746 52.4611C25.9746 52.4897 24.2844 52.5131 22.1994 52.5131C20.1143 52.5131 18.4241 52.4897 18.4241 52.4611C18.4241 52.4324 20.1143 52.4091 22.1994 52.4091C24.2844 52.4091 25.9746 52.4324 25.9746 52.4611Z" fill="#E0E0E0"/>
<path d="M22.6818 54.1465H21.4043V56.8505H22.6818V54.1465Z" fill="#FAFAFA"/>
<path d="M25.9746 57.9103C25.9746 57.939 24.2844 57.9623 22.1994 57.9623C20.1143 57.9623 18.4241 57.939 18.4241 57.9103C18.4241 57.8816 20.1143 57.8583 22.1994 57.8583C24.2844 57.8583 25.9746 57.8852 25.9746 57.9103Z" fill="#E0E0E0"/>
<path d="M22.6818 59.5994H21.4043V62.3033H22.6818V59.5994Z" fill="#FAFAFA"/>
<path d="M93.1103 13.8755H71.3434V83.1068H93.1103V13.8755Z" fill="#F5F5F5"/>
<path d="M93.1086 13.8755H82.226V82.9168H93.1086V13.8755Z" fill="#EBEBEB"/>
<path d="M81.5149 7.07965H73.8287V13.8773H81.5149V7.07965Z" fill="#F5F5F5"/>
<path d="M81.5149 7.07965H79.6836V13.8773H81.5149V7.07965Z" fill="#EBEBEB"/>
<path d="M69.53 13.8755V13.4792H93.7464V13.8755" fill="#E0E0E0"/>
<path d="M77.4824 16.8412H75.6404V20.7394H77.4824V16.8412Z" fill="#FAFAFA"/>
<path d="M82.226 22.269C82.226 22.3102 79.7907 22.3443 76.7856 22.3443C73.7804 22.3443 71.3434 22.3102 71.3434 22.269C71.3434 22.2277 73.7786 22.1954 76.7856 22.1954C79.7925 22.1954 82.226 22.2277 82.226 22.269Z" fill="#E0E0E0"/>
<path d="M88.4597 16.8412H86.6176V20.7394H88.4597V16.8412Z" fill="#E0E0E0"/>
<path d="M93.205 22.269C93.205 22.3102 90.768 22.3443 87.7629 22.3443C84.7577 22.3443 82.3207 22.3102 82.3207 22.269C82.3207 22.2277 84.7577 22.1954 87.7629 22.1954C90.768 22.1954 93.205 22.2277 93.205 22.269Z" fill="#E0E0E0"/>
<path d="M88.4597 24.582H86.6176V28.4802H88.4597V24.582Z" fill="#E0E0E0"/>
<path d="M93.205 30.0115C93.205 30.0528 90.768 30.085 87.7629 30.085C84.7577 30.085 82.3207 30.0528 82.3207 30.0115C82.3207 29.9703 84.7577 29.9362 87.7629 29.9362C90.768 29.9362 93.205 29.9703 93.205 30.0115Z" fill="#E0E0E0"/>
<path d="M88.4597 32.5559H86.6176V36.4541H88.4597V32.5559Z" fill="#E0E0E0"/>
<path d="M93.205 37.9854C93.205 38.0266 90.768 38.0607 87.7629 38.0607C84.7577 38.0607 82.3207 38.0266 82.3207 37.9854C82.3207 37.9442 84.7577 37.9101 87.7629 37.9101C90.768 37.9101 93.205 37.9442 93.205 37.9854Z" fill="#E0E0E0"/>
<path d="M88.4597 40.5316H86.6176V44.4298H88.4597V40.5316Z" fill="#E0E0E0"/>
<path d="M93.205 45.9593C93.205 46.0006 90.768 46.0346 87.7629 46.0346C84.7577 46.0346 82.3207 46.0006 82.3207 45.9593C82.3207 45.9181 84.7577 45.8858 87.7629 45.8858C90.768 45.8858 93.205 45.9181 93.205 45.9593Z" fill="#E0E0E0"/>
<path d="M88.4597 48.2778H86.6176V52.176H88.4597V48.2778Z" fill="#E0E0E0"/>
<path d="M93.205 53.7073C93.205 53.7467 90.768 53.7808 87.7629 53.7808C84.7577 53.7808 82.3207 53.7467 82.3207 53.7073C82.3207 53.6678 84.7577 53.632 87.7629 53.632C90.768 53.632 93.205 53.666 93.205 53.7073Z" fill="#E0E0E0"/>
<path d="M88.4597 56.0544H86.6176V59.9526H88.4597V56.0544Z" fill="#E0E0E0"/>
<path d="M88.4597 63.9351H86.6176V67.8332H88.4597V63.9351Z" fill="#E0E0E0"/>
<path d="M93.205 61.4839C93.205 61.5252 90.768 61.5592 87.7629 61.5592C84.7577 61.5592 82.3207 61.5252 82.3207 61.4839C82.3207 61.4427 84.7577 61.4104 87.7629 61.4104C90.768 61.4104 93.205 61.4427 93.205 61.4839Z" fill="#E0E0E0"/>
<path d="M77.4824 24.7004H75.6404V28.5986H77.4824V24.7004Z" fill="#FAFAFA"/>
<path d="M82.226 30.1299C82.226 30.1693 79.7907 30.2034 76.7856 30.2034C73.7804 30.2034 71.3434 30.1693 71.3434 30.1299C71.3434 30.0904 73.7786 30.0546 76.7856 30.0546C79.7925 30.0546 82.226 30.0886 82.226 30.1299Z" fill="#E0E0E0"/>
<path d="M77.4824 32.5595H75.6404V36.4577H77.4824V32.5595Z" fill="#FAFAFA"/>
<path d="M82.226 37.989C82.226 38.0285 79.7907 38.0625 76.7856 38.0625C73.7804 38.0625 71.3434 38.0285 71.3434 37.989C71.3434 37.9496 73.7786 37.9137 76.7856 37.9137C79.7925 37.9137 82.226 37.9478 82.226 37.989Z" fill="#E0E0E0"/>
<path d="M77.4824 40.4186H75.6404V44.3168H77.4824V40.4186Z" fill="#FAFAFA"/>
<path d="M82.226 45.8481C82.226 45.8876 79.7907 45.9217 76.7856 45.9217C73.7804 45.9217 71.3434 45.8876 71.3434 45.8481C71.3434 45.8087 73.7786 45.7728 76.7856 45.7728C79.7925 45.7728 82.226 45.8069 82.226 45.8481Z" fill="#E0E0E0"/>
<path d="M77.4824 48.2778H75.6404V52.176H77.4824V48.2778Z" fill="#FAFAFA"/>
<path d="M82.226 53.7073C82.226 53.7467 79.7907 53.7808 76.7856 53.7808C73.7804 53.7808 71.3434 53.7467 71.3434 53.7073C71.3434 53.6678 73.7786 53.632 76.7856 53.632C79.7925 53.632 82.226 53.666 82.226 53.7073Z" fill="#E0E0E0"/>
<path d="M77.4824 56.1369H75.6404V60.0351H77.4824V56.1369Z" fill="#FAFAFA"/>
<path d="M82.226 61.5664C82.226 61.6076 79.7907 61.6399 76.7856 61.6399C73.7804 61.6399 71.3434 61.6076 71.3434 61.5664C71.3434 61.5252 73.7786 61.4911 76.7856 61.4911C79.7925 61.4911 82.226 61.5252 82.226 61.5664Z" fill="#E0E0E0"/>
<path d="M77.4824 63.996H75.6404V67.8942H77.4824V63.996Z" fill="#FAFAFA"/>
<path d="M100.791 45.2815H88.8992V83.105H100.791V45.2815Z" fill="#F5F5F5"/>
<path d="M100.791 45.2815H94.8452V83.001H100.791V45.2815Z" fill="#EBEBEB"/>
<path d="M94.4557 41.568H90.2571V45.2815H94.4557V41.568Z" fill="#F5F5F5"/>
<path d="M94.4557 41.568H93.4552V45.2815H94.4557V41.568Z" fill="#EBEBEB"/>
<path d="M87.9076 45.2815V45.0646H101.14V45.2815" fill="#E0E0E0"/>
<path d="M92.2528 46.9007H91.2469V49.0309H92.2528V46.9007Z" fill="#FAFAFA"/>
<path d="M94.8453 49.8683C94.8453 49.8898 93.5142 49.9077 91.8722 49.9077C90.2303 49.9077 88.8992 49.8898 88.8992 49.8683C88.8992 49.8467 90.2303 49.827 91.8722 49.827C93.5142 49.827 94.8453 49.8414 94.8453 49.8683Z" fill="#E0E0E0"/>
<path d="M98.2506 46.9007H97.2448V49.0309H98.2506V46.9007Z" fill="#E0E0E0"/>
<path d="M100.843 49.8683C100.843 49.8898 99.512 49.9077 97.87 49.9077C96.2281 49.9077 94.897 49.8898 94.897 49.8683C94.897 49.8467 96.2281 49.827 97.87 49.827C99.512 49.827 100.843 49.8414 100.843 49.8683Z" fill="#E0E0E0"/>
<path d="M98.2506 51.1306H97.2448V53.2608H98.2506V51.1306Z" fill="#E0E0E0"/>
<path d="M100.843 54.0964C100.843 54.1197 99.512 54.1376 97.87 54.1376C96.2281 54.1376 94.897 54.1197 94.897 54.0964C94.897 54.073 96.2281 54.0551 97.87 54.0551C99.512 54.0551 100.843 54.0748 100.843 54.0964Z" fill="#E0E0E0"/>
<path d="M98.2506 55.4878H97.2448V57.618H98.2506V55.4878Z" fill="#E0E0E0"/>
<path d="M100.843 58.4482C100.843 58.4697 99.512 58.4895 97.87 58.4895C96.2281 58.4895 94.897 58.4697 94.897 58.4482C94.897 58.4267 96.2281 58.407 97.87 58.407C99.512 58.407 100.843 58.4303 100.843 58.4482Z" fill="#E0E0E0"/>
<path d="M98.2506 59.8432H97.2448V61.9734H98.2506V59.8432Z" fill="#E0E0E0"/>
<path d="M100.843 62.8108C100.843 62.8323 99.512 62.8502 97.87 62.8502C96.2281 62.8502 94.897 62.8323 94.897 62.8108C94.897 62.7893 96.2281 62.7695 97.87 62.7695C99.512 62.7695 100.843 62.7875 100.843 62.8108Z" fill="#E0E0E0"/>
<path d="M98.2506 64.0767H97.2448V66.2069H98.2506V64.0767Z" fill="#E0E0E0"/>
<path d="M100.843 67.0425C100.843 67.0658 99.512 67.0838 97.87 67.0838C96.2281 67.0838 94.897 67.0658 94.897 67.0425C94.897 67.0192 96.2281 67.0013 97.87 67.0013C99.512 67.0013 100.843 67.0192 100.843 67.0425Z" fill="#E0E0E0"/>
<path d="M98.2506 68.3264H97.2448V70.4566H98.2506V68.3264Z" fill="#E0E0E0"/>
<path d="M98.2506 72.6298H97.2448V74.76H98.2506V72.6298Z" fill="#E0E0E0"/>
<path d="M100.843 71.2921C100.843 71.3136 99.512 71.3315 97.87 71.3315C96.2281 71.3315 94.897 71.3136 94.897 71.2921C94.897 71.2706 96.2281 71.2509 97.87 71.2509C99.512 71.2509 100.843 71.2688 100.843 71.2921Z" fill="#E0E0E0"/>
<path d="M92.2528 51.1951H91.2469V53.3253H92.2528V51.1951Z" fill="#FAFAFA"/>
<path d="M94.8453 54.1609C94.8453 54.1842 93.5142 54.2022 91.8722 54.2022C90.2303 54.2022 88.8992 54.1842 88.8992 54.1609C88.8992 54.1376 90.2303 54.1197 91.8722 54.1197C93.5142 54.1197 94.8453 54.1448 94.8453 54.1609Z" fill="#E0E0E0"/>
<path d="M92.2528 55.4896H91.2469V57.6198H92.2528V55.4896Z" fill="#FAFAFA"/>
<path d="M94.8453 58.4482C94.8453 58.4697 93.5142 58.4877 91.8722 58.4877C90.2303 58.4877 88.8992 58.4697 88.8992 58.4482C88.8992 58.4267 90.2303 58.407 91.8722 58.407C93.5142 58.407 94.8453 58.4321 94.8453 58.4482Z" fill="#E0E0E0"/>
<path d="M92.2528 59.7823H91.2469V61.9125H92.2528V59.7823Z" fill="#FAFAFA"/>
<path d="M94.8453 62.7516C94.8453 62.7749 93.5142 62.7928 91.8722 62.7928C90.2303 62.7928 88.8992 62.7749 88.8992 62.7516C88.8992 62.7283 90.2303 62.7122 91.8722 62.7122C93.5142 62.7122 94.8453 62.7265 94.8453 62.7516Z" fill="#E0E0E0"/>
<path d="M92.2528 64.0767H91.2469V66.2069H92.2528V64.0767Z" fill="#FAFAFA"/>
<path d="M94.8453 67.0425C94.8453 67.0658 93.5142 67.0838 91.8722 67.0838C90.2303 67.0838 88.8992 67.0658 88.8992 67.0425C88.8992 67.0192 90.2303 67.0013 91.8722 67.0013C93.5142 67.0013 94.8453 67.0192 94.8453 67.0425Z" fill="#E0E0E0"/>
<path d="M92.2528 68.3694H91.2469V70.4996H92.2528V68.3694Z" fill="#FAFAFA"/>
<path d="M94.8453 71.337C94.8453 71.3585 93.5142 71.3764 91.8722 71.3764C90.2303 71.3764 88.8992 71.3585 88.8992 71.337C88.8992 71.3154 90.2303 71.2957 91.8722 71.2957C93.5142 71.2957 94.8453 71.3136 94.8453 71.337Z" fill="#E0E0E0"/>
<path d="M92.2528 72.6638H91.2469V74.794H92.2528V72.6638Z" fill="#FAFAFA"/>
<path d="M41.1523 58.7208H28.3491V83.1068H41.1523V58.7208Z" fill="#E0E0E0"/>
<path d="M41.1523 58.7208H35.1491V83.1068H41.1523V58.7208Z" fill="#EBEBEB"/>
<path d="M32.185 61.0141H31.0344V63.8203H32.185V61.0141Z" fill="#F5F5F5"/>
<path d="M32.185 72.0004H31.0344V74.8066H32.185V72.0004Z" fill="#F5F5F5"/>
<path d="M35.1491 64.923C35.1491 64.9481 33.6269 64.9661 31.7545 64.9661C29.882 64.9661 28.3598 64.9481 28.3598 64.923C28.3598 64.8979 29.882 64.88 31.7545 64.88C33.6269 64.88 35.1491 64.9033 35.1491 64.923Z" fill="#F5F5F5"/>
<path d="M32.185 66.5494H31.0344V69.3556H32.185V66.5494Z" fill="#F5F5F5"/>
<path d="M35.1491 70.4619C35.1491 70.4853 33.6269 70.505 31.7545 70.505C29.882 70.505 28.3598 70.4853 28.3598 70.4619C28.3598 70.4386 29.882 70.4171 31.7545 70.4171C33.6269 70.4171 35.1491 70.4333 35.1491 70.4619Z" fill="#F5F5F5"/>
<path d="M37.5754 61.0141H36.4248V63.8203H37.5754V61.0141Z" fill="#E0E0E0"/>
<path d="M40.0732 61.0141H38.9225V63.8203H40.0732V61.0141Z" fill="#E0E0E0"/>
<path d="M37.5754 66.3414H36.4248V69.1476H37.5754V66.3414Z" fill="#E0E0E0"/>
<path d="M40.0732 66.3414H38.9225V69.1476H40.0732V66.3414Z" fill="#E0E0E0"/>
<path d="M37.5754 71.6669H36.4248V74.4731H37.5754V71.6669Z" fill="#E0E0E0"/>
<path d="M40.0732 71.6669H38.9225V74.4731H40.0732V71.6669Z" fill="#E0E0E0"/>
<path d="M42.1153 58.1308H27.3878V58.7422H42.1153V58.1308Z" fill="#E0E0E0"/>
<path d="M41.2417 58.8068C41.2417 58.8301 38.383 58.8498 34.8507 58.8498C31.3185 58.8498 28.4598 58.8301 28.4598 58.8068C28.4598 58.7835 31.3185 58.762 34.8507 58.762C38.383 58.762 41.2417 58.7745 41.2417 58.8068Z" fill="#EBEBEB"/>
<path d="M28.4956 83.0889H7.87744L7.78632 50.3846H28.4062L28.4956 83.0889Z" fill="#EBEBEB"/>
<path d="M28.4062 50.3846H18.0972V83.0889H28.4062V50.3846Z" fill="#E0E0E0"/>
<path d="M17.4218 43.9457H10.1412V50.3847H17.4218V43.9457Z" fill="#EBEBEB"/>
<path d="M17.4218 43.9457H15.687V50.3847H17.4218V43.9457Z" fill="#E0E0E0"/>
<path d="M29.0101 50.0081H6.06934V50.3829H29.0101V50.0081Z" fill="#E0E0E0"/>
<path d="M13.6019 53.1926H11.8563V56.8864H13.6019V53.1926Z" fill="white"/>
<path d="M18.0972 58.3353C18.0972 58.3747 15.7888 58.4052 12.9426 58.4052C10.0965 58.4052 7.78632 58.3747 7.78632 58.3353C7.78632 58.2958 10.0947 58.2689 12.9426 58.2689C15.7906 58.2689 18.0972 58.2958 18.0972 58.3353Z" fill="#E0E0E0"/>
<path d="M24.0021 53.1926H22.2565V56.8864H24.0021V53.1926Z" fill="#F5F5F5"/>
<path d="M28.4956 58.3352C28.4956 58.3747 26.1872 58.4052 23.3411 58.4052C20.4949 58.4052 18.1865 58.3747 18.1865 58.3352C18.1865 58.2958 20.4931 58.2653 23.3411 58.2653C26.189 58.2653 28.4956 58.2958 28.4956 58.3352Z" fill="#EBEBEB"/>
<path d="M24.0021 60.5246H22.2565V64.2184H24.0021V60.5246Z" fill="#F5F5F5"/>
<path d="M28.4956 65.669C28.4956 65.7067 26.1872 65.7389 23.3411 65.7389C20.4949 65.7389 18.1865 65.7067 18.1865 65.669C18.1865 65.6314 20.4931 65.5973 23.3411 65.5973C26.189 65.5973 28.4956 65.6296 28.4956 65.669Z" fill="#EBEBEB"/>
<path d="M24.0021 68.0789H22.2565V71.7727H24.0021V68.0789Z" fill="#F5F5F5"/>
<path d="M28.4956 73.2233C28.4956 73.2609 26.1872 73.2932 23.3411 73.2932C20.4949 73.2932 18.1865 73.2609 18.1865 73.2233C18.1865 73.1856 20.4931 73.1516 23.3411 73.1516C26.189 73.1516 28.4956 73.1838 28.4956 73.2233Z" fill="#EBEBEB"/>
<path d="M24.0021 75.6332H22.2565V79.327H24.0021V75.6332Z" fill="#F5F5F5"/>
<path d="M28.4956 80.7758C28.4956 80.8152 26.1872 80.8475 23.3411 80.8475C20.4949 80.8475 18.1865 80.8152 18.1865 80.7758C18.1865 80.7364 20.4931 80.7059 23.3411 80.7059C26.189 80.7059 28.4956 80.7381 28.4956 80.7758Z" fill="#EBEBEB"/>
<path d="M13.6019 60.6376H11.8563V64.3313H13.6019V60.6376Z" fill="white"/>
<path d="M18.0972 65.7801C18.0972 65.8196 15.7888 65.8501 12.9426 65.8501C10.0965 65.8501 7.78632 65.8196 7.78632 65.7801C7.78632 65.7407 10.0947 65.7102 12.9426 65.7102C15.7906 65.7102 18.0972 65.7407 18.0972 65.7801Z" fill="#E0E0E0"/>
<path d="M13.6019 68.0825H11.8563V71.7763H13.6019V68.0825Z" fill="white"/>
<path d="M18.0972 73.2251C18.0972 73.2645 15.7888 73.295 12.9426 73.295C10.0965 73.295 7.78632 73.2645 7.78632 73.2251C7.78632 73.1856 10.0947 73.1516 12.9426 73.1516C15.7906 73.1516 18.0972 73.1856 18.0972 73.2251Z" fill="#E0E0E0"/>
<path d="M13.6019 75.5274H11.8563V79.2212H13.6019V75.5274Z" fill="white"/>
<path d="M18.0972 80.67C18.0972 80.7095 15.7888 80.74 12.9426 80.74C10.0965 80.74 7.78632 80.7095 7.78632 80.67C7.78632 80.6306 10.0947 80.6001 12.9426 80.6001C15.7906 80.6001 18.0972 80.6306 18.0972 80.67Z" fill="#E0E0E0"/>
<path d="M126.237 32.4484C126.385 31.3617 124.858 30.476 123.709 30.3755C123.162 30.3307 122.592 30.415 122.074 30.2339C120.95 29.8412 120.502 28.3834 119.405 27.919C118.585 27.5711 117.64 27.8813 116.846 28.2776C116.053 28.6739 115.265 29.1831 114.377 29.2405C113.605 29.2907 112.769 29.002 112.09 29.3822C111.586 29.6637 111.322 30.2464 110.857 30.5907C110.393 30.935 109.812 30.9977 109.249 31.0282C108.687 31.0587 108.102 31.0641 107.59 31.3008C107.077 31.5375 106.652 32.0808 106.759 32.6366L126.237 32.4484Z" fill="#F5F5F5"/>
<path d="M130.805 71.1379H114.218V83.1051H130.805V71.1379Z" fill="#EBEBEB"/>
<path d="M118.667 71.1379C118.692 71.1379 118.667 73.6644 118.667 73.6644H117.439V71.1379H118.667Z" fill="#F5F5F5"/>
<path d="M122.512 83.105H130.805V71.1379H122.512V83.105Z" fill="#E0E0E0"/>
<path d="M116.945 80.7632H114.724V82.3394H116.945V80.7632Z" fill="white"/>
<path d="M118.465 80.7632H117.355V82.3394H118.465V80.7632Z" fill="white"/>
<path d="M129.23 63.3452H118.429V71.1379H129.23V63.3452Z" fill="#EBEBEB"/>
<path d="M121.327 63.3452C121.342 63.3452 121.327 64.9912 121.327 64.9912H120.527V63.3452H121.327Z" fill="#F5F5F5"/>
<path d="M123.83 71.1379H129.23V63.3452H123.83V71.1379Z" fill="#E0E0E0"/>
<path d="M120.205 69.612H118.76V70.6394H120.205V69.612Z" fill="white"/>
<path d="M121.195 69.612H120.471V70.6394H121.195V69.612Z" fill="white"/>
<path d="M18.8333 11.5588C18.9173 10.9438 18.0525 10.4363 17.404 10.3843C17.0931 10.3592 16.7715 10.4059 16.4767 10.3037C15.8406 10.0813 15.5834 9.25649 14.9652 8.99291C14.5006 8.79567 13.9664 8.97139 13.5162 9.19911C13.0659 9.42684 12.6229 9.71194 12.119 9.73704C11.6813 9.76573 11.206 9.60256 10.8237 9.81773C10.5378 9.97732 10.3877 10.3072 10.1251 10.5009C9.85129 10.6713 9.5342 10.7585 9.21211 10.7519C8.89192 10.7428 8.57294 10.7952 8.27232 10.9061C7.98109 11.0388 7.73632 11.3472 7.80064 11.6628L18.8333 11.5588Z" fill="#EBEBEB"/>
<path d="M129.249 24.0513C129.331 23.4506 128.488 22.9575 127.854 22.9055C127.552 22.8822 127.237 22.927 126.95 22.8284C126.33 22.6096 126.082 21.8045 125.476 21.5481C125.024 21.3581 124.502 21.5284 124.063 21.749C123.623 21.9695 123.189 22.251 122.699 22.2869C122.272 22.3156 121.806 22.156 121.436 22.3658C121.157 22.5218 121.013 22.8428 120.755 23.0328C120.487 23.1979 120.177 23.2819 119.862 23.2749C119.55 23.2666 119.239 23.3177 118.946 23.4255C118.661 23.5546 118.427 23.8558 118.486 24.1625L129.249 24.0513Z" fill="#EBEBEB"/>
<path d="M37.8273 15.3691C37.981 14.2448 36.398 13.3196 35.2134 13.2174C34.6453 13.1726 34.0575 13.2586 33.5215 13.0722C32.3583 12.6651 31.8938 11.1571 30.7593 10.6766C29.9106 10.318 28.9351 10.6371 28.1132 11.0531C27.2914 11.4691 26.4784 11.9909 25.5601 12.0501C24.7596 12.1021 23.8931 11.8044 23.1927 12.1953C22.6728 12.4876 22.3995 13.0919 21.9188 13.4505C21.4382 13.8091 20.8379 13.8719 20.2537 13.9042C19.6694 13.9364 19.0673 13.9418 18.5367 14.1857C18.006 14.4295 17.5683 14.9926 17.6773 15.5681L37.8273 15.3691Z" fill="#F5F5F5"/>
<path d="M130.745 83.105C130.745 83.1319 103.462 83.1516 69.8194 83.1516C36.1764 83.1516 8.89404 83.1319 8.89404 83.105C8.89404 83.0781 36.1711 83.0584 69.8283 83.0584C103.486 83.0584 130.745 83.0799 130.745 83.105Z" fill="#263238"/>
<path d="M57.629 75.5974C57.8187 75.6419 57.9975 75.7244 58.1547 75.8399C58.3119 75.9554 58.4442 76.1017 58.5438 76.2698C58.7418 76.6071 58.8598 76.9856 58.8886 77.3761C58.9672 78.1274 58.7099 78.9594 58.3955 79.6426C57.6629 79.2391 57.3235 78.3318 57.168 77.8602C56.9358 77.1143 56.9661 75.6242 57.629 75.5974Z" fill="#1AC817"/>
<path d="M59.3746 80.6951C59.2869 80.4947 59.2534 80.2746 59.2776 80.0571C59.3017 79.8395 59.3826 79.6322 59.5121 79.4561C59.645 79.2828 59.8109 79.1378 60.0002 79.0294C60.1894 78.9211 60.3982 78.8516 60.6145 78.8249C60.7125 78.8018 60.8143 78.8005 60.9128 78.8213C61.0113 78.842 61.104 78.8843 61.1844 78.9451C61.249 79.0138 61.2944 79.0984 61.316 79.1903C61.3376 79.2822 61.3348 79.3782 61.3077 79.4686C61.2487 79.6485 61.144 79.8098 61.004 79.9366C60.5448 80.3885 60.0178 80.7435 59.3746 80.6951Z" fill="#1AC817"/>
<path d="M59.0797 83.114C59.0703 83.0632 59.0661 83.0115 59.0672 82.9598C59.0672 82.8486 59.0583 82.707 59.0529 82.5366C59.0226 82.068 59.0678 81.5976 59.1869 81.1434C59.3142 80.6878 59.561 80.2747 59.9016 79.9474C60.0051 79.8505 60.1196 79.7663 60.2428 79.6964C60.276 79.6765 60.3107 79.6591 60.3465 79.6444C60.3697 79.6336 60.3822 79.6282 60.384 79.63C60.2204 79.7297 60.0671 79.8457 59.9266 79.9761C59.6023 80.3063 59.3663 80.7134 59.2405 81.1595C59.1231 81.6086 59.0737 82.0728 59.094 82.5366C59.094 82.716 59.094 82.8594 59.094 82.9598C59.0942 83.0116 59.0894 83.0632 59.0797 83.114Z" fill="#263238"/>
<path d="M57.7093 76.7378C57.7188 76.7578 57.726 76.7789 57.7308 76.8006C57.7451 76.849 57.7611 76.9117 57.7826 76.9799C57.8273 77.143 57.8898 77.3779 57.9613 77.6702C58.1095 78.253 58.3025 79.0598 58.4973 79.9582C58.692 80.8565 58.8457 81.6706 58.9511 82.2641C59.0029 82.56 59.044 82.802 59.069 82.9652C59.0815 83.0441 59.0904 83.1087 59.0976 83.1571C59.0992 83.1798 59.0992 83.2025 59.0976 83.2252C59.089 83.2039 59.083 83.1816 59.0797 83.1589C59.069 83.1104 59.0565 83.0477 59.0404 82.9688C59.0082 82.7984 58.9618 82.56 58.9064 82.2713C58.7921 81.6813 58.6295 80.8655 58.4383 79.9689C58.2471 79.0724 58.0577 78.2637 57.9202 77.6792C57.8523 77.3905 57.7969 77.1556 57.7576 76.9852L57.7147 76.8059C57.7104 76.7835 57.7086 76.7606 57.7093 76.7378Z" fill="#263238"/>
<path d="M58.4097 81.3747C58.238 80.9471 57.9672 80.5666 57.6198 80.2648C57.2725 79.963 56.8586 79.7485 56.4122 79.639C56.1853 79.5852 55.903 79.5799 55.7673 79.7717C55.6315 79.9636 55.7315 80.2289 55.8602 80.4244C56.1376 80.8271 56.5276 81.1383 56.981 81.3189C57.4344 81.4995 57.9309 81.5414 58.4079 81.4393" fill="#1AC817"/>
<path d="M56.6642 80.3132C56.7126 80.317 56.7606 80.326 56.8071 80.3401C56.8627 80.3528 56.9175 80.3683 56.9715 80.3867C57.0358 80.4101 57.1091 80.428 57.1859 80.4639C57.2713 80.4974 57.3548 80.5357 57.436 80.5786C57.5301 80.6259 57.6214 80.6786 57.7094 80.7364C57.9122 80.8694 58.0993 81.0252 58.2668 81.2008C58.4319 81.3789 58.5758 81.5757 58.6956 81.7872C58.7469 81.8795 58.7928 81.9746 58.8332 82.0723C58.8698 82.1566 58.902 82.2428 58.9297 82.3305C58.9526 82.4029 58.9717 82.4765 58.9868 82.551C59.002 82.6063 59.0127 82.6626 59.019 82.7196C59.0293 82.7673 59.0347 82.816 59.0351 82.8648C59.0226 82.8648 58.9993 82.6586 58.8921 82.343C58.8635 82.257 58.8301 82.1725 58.7921 82.0902C58.7507 81.9947 58.7036 81.9019 58.6509 81.8123C58.5317 81.6056 58.3897 81.4131 58.2275 81.2385C58.0657 81.0666 57.886 80.9128 57.6915 80.7794C57.6051 80.7209 57.5156 80.6671 57.4235 80.6181C57.3395 80.5696 57.2556 80.5338 57.1805 80.4997C56.8643 80.367 56.6606 80.324 56.6642 80.3132Z" fill="#263238"/>
<path d="M114.525 81.2205C114.593 80.9587 114.422 80.6952 114.229 80.5033C114.036 80.3114 113.805 80.1447 113.705 79.89C113.543 79.4812 113.761 78.9523 113.484 78.6116C113.321 78.4108 113.03 78.3426 112.885 78.1292C112.818 78.0106 112.774 77.8805 112.755 77.7455C112.6 77.0666 112.267 76.4418 111.79 75.9363C111.759 76.5414 111.89 77.1438 112.169 77.681C112.3 77.8872 112.396 78.1138 112.453 78.3516C112.514 78.7407 112.297 79.1405 112.392 79.5225C112.501 79.9582 112.989 80.2505 113.012 80.6987C113.032 81.0789 112.701 81.416 112.726 81.7925C112.747 81.9536 112.804 82.1077 112.894 82.2426C113.024 82.4936 113.222 82.7028 113.465 82.8465C113.708 82.9901 113.986 83.0623 114.268 83.0549L115.067 83.0836L114.525 81.2205Z" fill="#1AC817"/>
<g opacity="0.3">
<path d="M114.525 81.2205C114.593 80.9587 114.422 80.6952 114.229 80.5033C114.036 80.3114 113.805 80.1447 113.705 79.89C113.543 79.4812 113.761 78.9523 113.484 78.6116C113.321 78.4108 113.03 78.3426 112.885 78.1292C112.818 78.0106 112.774 77.8805 112.755 77.7455C112.6 77.0666 112.267 76.4418 111.79 75.9363C111.759 76.5414 111.89 77.1438 112.169 77.681C112.3 77.8872 112.396 78.1138 112.453 78.3516C112.514 78.7407 112.297 79.1405 112.392 79.5225C112.501 79.9582 112.989 80.2505 113.012 80.6987C113.032 81.0789 112.701 81.416 112.726 81.7925C112.747 81.9536 112.804 82.1077 112.894 82.2426C113.024 82.4936 113.222 82.7028 113.465 82.8465C113.708 82.9901 113.986 83.0623 114.268 83.0549L115.067 83.0836L114.525 81.2205Z" fill="black"/>
</g>
<path d="M115.227 83.1015C115.3 83.1145 115.375 83.1145 115.447 83.1015C115.536 83.0886 115.622 83.067 115.706 83.0369C115.822 82.9954 115.93 82.9348 116.026 82.8576C116.085 82.8102 116.13 82.7484 116.158 82.6783C116.182 82.601 116.195 82.5207 116.196 82.4398C116.197 82.3529 116.204 82.266 116.216 82.1798C116.23 82.0887 116.263 82.0015 116.312 81.9234C116.441 81.7581 116.542 81.5728 116.612 81.3747C116.651 81.1419 116.644 80.9037 116.591 80.6736C116.533 80.4251 116.54 80.1658 116.61 79.9205C116.696 79.6713 116.869 79.4436 116.957 79.1621C117.045 78.8805 117.003 78.5703 117.023 78.2655C117.028 78.1119 117.064 77.9608 117.127 77.8208C117.191 77.6792 117.28 77.5465 117.35 77.3977C117.472 77.0849 117.541 76.7541 117.556 76.4186C117.575 76.2501 117.595 76.0797 117.613 75.9076C117.624 75.734 117.654 75.5621 117.702 75.3948C117.755 75.2258 117.819 75.0605 117.893 74.8999C117.93 74.8155 117.961 74.7287 117.986 74.6399C118 74.5466 118.006 74.4606 118.011 74.3655C118.02 74.1806 118.013 73.9952 117.99 73.8115C117.968 73.6322 117.934 73.4421 117.915 73.2574V73.2251V73.1893L117.882 73.2054C117.713 73.2901 117.566 73.4128 117.452 73.564C117.342 73.7132 117.253 73.8774 117.189 74.0517C117.075 74.393 116.991 74.7441 116.941 75.1007C116.89 75.4406 116.778 75.7685 116.612 76.069C116.525 76.2106 116.419 76.3415 116.326 76.4796C116.227 76.6154 116.159 76.7716 116.128 76.9368C116.082 77.2757 116.267 77.5734 116.228 77.8728C116.211 78.0205 116.161 78.1625 116.083 78.2888C116.01 78.4161 115.926 78.5345 115.844 78.6474C115.761 78.7635 115.69 78.8872 115.631 79.0168C115.574 79.1436 115.541 79.2797 115.533 79.4185C115.513 79.6874 115.551 79.9439 115.533 80.1859C115.511 80.4161 115.444 80.6397 115.336 80.844C115.24 81.0412 115.133 81.2187 115.043 81.3819C114.999 81.4652 114.958 81.5508 114.922 81.6383C114.89 81.7199 114.867 81.8046 114.852 81.8912C114.83 82.0428 114.83 82.1968 114.852 82.3484C114.874 82.5599 114.953 82.7615 115.081 82.9312C115.101 82.9556 115.123 82.979 115.145 83.0011C115.162 83.0177 115.18 83.0328 115.199 83.0459L115.244 83.0782C115.187 83.0321 115.136 82.9805 115.09 82.924C114.966 82.7546 114.89 82.5543 114.872 82.3448C114.854 82.195 114.858 82.0435 114.883 81.8947C114.898 81.8101 114.922 81.7273 114.954 81.6473C114.99 81.5615 115.031 81.4778 115.076 81.3963C115.165 81.217 115.274 81.0484 115.372 80.8494C115.483 80.642 115.552 80.4147 115.576 80.1805C115.597 79.9331 115.56 79.6749 115.576 79.4113C115.584 79.2774 115.617 79.1462 115.672 79.024C115.731 78.898 115.802 78.7779 115.883 78.6654C115.964 78.547 116.049 78.4287 116.124 78.2978C116.206 78.1666 116.258 78.0191 116.276 77.8657C116.316 77.5447 116.132 77.2452 116.178 76.9315C116.21 76.7732 116.275 76.6238 116.371 76.4939C116.46 76.3577 116.567 76.2286 116.657 76.0815C116.828 75.7767 116.941 75.4431 116.993 75.0971C117.044 74.7438 117.127 74.3958 117.239 74.0571C117.303 73.8874 117.389 73.7275 117.497 73.582C117.605 73.4355 117.745 73.3164 117.907 73.2341L117.872 73.2126V73.2449C117.891 73.4331 117.925 73.616 117.947 73.7989C117.968 73.9774 117.975 74.1573 117.966 74.3368C117.964 74.4263 117.957 74.5155 117.943 74.604C117.92 74.6899 117.89 74.7739 117.854 74.8551C117.779 75.0174 117.714 75.1845 117.661 75.3553C117.613 75.525 117.583 75.6993 117.572 75.8753C117.552 76.0546 117.532 76.2196 117.514 76.3881C117.501 76.7179 117.433 77.0432 117.314 77.351C117.248 77.4963 117.159 77.6308 117.091 77.7778C117.026 77.9231 116.991 78.0796 116.986 78.2386C116.968 78.547 117.007 78.8501 116.925 79.1226C116.843 79.3952 116.668 79.6229 116.58 79.8811C116.508 80.1323 116.502 80.3978 116.562 80.6521C116.615 80.8778 116.624 81.1116 116.589 81.3407C116.52 81.5345 116.42 81.7161 116.294 81.8786C116.244 81.9602 116.211 82.051 116.196 82.1458C116.185 82.2326 116.179 82.32 116.178 82.4076C116.178 82.4865 116.167 82.5651 116.144 82.6407C116.117 82.7061 116.075 82.764 116.021 82.8092C115.927 82.8859 115.821 82.9464 115.708 82.9885C115.625 83.0196 115.54 83.0425 115.453 83.0567C115.399 83.0677 115.345 83.0731 115.29 83.0728L115.227 83.1015Z" fill="#263238"/>
<path d="M117.741 73.668C117.741 73.6764 117.741 73.6848 117.741 73.6931L117.723 73.7649C117.707 73.8276 117.69 73.9226 117.659 74.0428C117.629 74.1629 117.556 74.2938 117.493 74.4606C117.42 74.646 117.357 74.8351 117.304 75.0272C117.243 75.2424 117.189 75.4791 117.125 75.7319C117.077 76.0039 116.991 76.2677 116.869 76.5155C116.805 76.6446 116.73 76.7773 116.673 76.9207C116.615 77.0682 116.576 77.2224 116.557 77.3797C116.515 77.7055 116.455 78.0287 116.378 78.348C116.219 79.0043 116.065 79.6301 115.928 80.1985C115.79 80.7669 115.656 81.2743 115.549 81.7083C115.442 82.1422 115.358 82.4811 115.299 82.7267C115.27 82.8433 115.249 82.9365 115.233 83.0029L115.217 83.0764C115.216 83.0847 115.216 83.0931 115.217 83.1015C115.217 83.1015 115.217 83.0925 115.226 83.0764L115.247 83.0065C115.265 82.9383 115.29 82.8469 115.322 82.7303C115.385 82.4865 115.476 82.1422 115.588 81.7172C115.701 81.2923 115.83 80.7759 115.976 80.211C116.123 79.6462 116.271 79.0168 116.432 78.3606C116.508 78.0394 116.568 77.7144 116.61 77.3869C116.629 77.2336 116.667 77.0831 116.721 76.9386C116.778 76.7988 116.85 76.6679 116.916 76.5352C117.037 76.2842 117.122 76.0174 117.17 75.7426C117.225 75.488 117.277 75.2513 117.334 75.038C117.391 74.8246 117.455 74.6345 117.513 74.4695C117.57 74.3046 117.641 74.1701 117.67 74.0464C117.698 73.9226 117.713 73.8312 117.725 73.7666L117.741 73.6895C117.741 73.677 117.741 73.668 117.741 73.668Z" fill="#263238"/>
<path d="M115.369 83.1033C115.89 82.7931 116.039 81.8481 115.822 81.2815C115.606 80.7149 115.224 80.1949 115.165 79.5888C115.12 79.1226 115.272 78.6456 115.165 78.1902C115.02 77.5769 114.424 77.1018 114.429 76.4706C114.429 76.112 114.634 75.7821 114.618 75.4288C114.599 74.9949 114.261 74.6506 114.061 74.2687C113.746 73.6823 113.727 72.992 113.618 72.3357C113.509 71.6795 113.26 70.9766 112.681 70.6538C112.598 71.2115 112.451 71.5934 112.503 72.3465C112.521 72.619 112.833 73.1372 112.876 73.7308C112.901 74.0894 112.919 74.448 112.941 74.7959C112.945 75.1431 113.002 75.4877 113.109 75.8179C113.203 76.0654 113.355 76.2913 113.425 76.5459C113.557 77.0283 113.384 77.55 113.491 78.0378C113.58 78.4502 113.866 78.8052 113.923 79.2248C114.005 79.8129 113.627 80.4244 113.82 80.9856C113.916 81.2653 114.145 81.4895 114.209 81.7764C114.261 82.0005 114.209 82.2354 114.25 82.4595C114.323 82.8182 115.011 83.1015 115.378 83.0799" fill="#1AC817"/>
<path d="M112.824 71.2079C112.824 71.2079 112.824 71.2186 112.824 71.2384L112.837 71.3298C112.848 71.4105 112.862 71.5288 112.889 71.6884C112.916 71.848 112.996 72.0148 113.067 72.2264C113.139 72.4379 113.2 72.6746 113.259 72.9436C113.318 73.2126 113.368 73.5084 113.419 73.8276C113.461 74.1722 113.551 74.5091 113.687 74.8281C113.759 74.9967 113.841 75.1634 113.904 75.341C113.963 75.5246 114 75.7149 114.013 75.9076C114.042 76.3159 114.093 76.7223 114.166 77.1251C114.325 77.9499 114.477 78.7389 114.616 79.4561C114.756 80.1734 114.893 80.8099 115.004 81.3514C115.115 81.8929 115.206 82.3233 115.27 82.6281C115.301 82.7751 115.326 82.8917 115.344 82.9742L115.365 83.0638L115.374 83.0943C115.375 83.0842 115.375 83.074 115.374 83.0638L115.358 82.9724C115.342 82.8899 115.32 82.7715 115.294 82.6227C115.233 82.3179 115.147 81.8822 115.044 81.3442C114.94 80.8063 114.799 80.1447 114.658 79.4274C114.516 78.7102 114.37 77.9266 114.211 77.0964C114.139 76.6947 114.088 76.2895 114.057 75.8825C114.044 75.6861 114.006 75.4922 113.945 75.3051C113.88 75.1258 113.798 74.9555 113.725 74.7905C113.59 74.4746 113.499 74.1415 113.455 73.8007C113.402 73.4815 113.35 73.1839 113.287 72.9149C113.233 72.6726 113.167 72.4333 113.089 72.1977C113.023 71.9897 112.941 71.8175 112.91 71.6597C112.88 71.502 112.864 71.389 112.848 71.3101C112.848 71.2724 112.835 71.2437 112.832 71.2204C112.829 71.2161 112.827 71.2119 112.824 71.2079Z" fill="#263238"/>
<path d="M100.153 59.4398H20.8129V67.3976H100.153V59.4398Z" fill="#0037C5"/>
<g opacity="0.4">
<path d="M100.153 59.4398H20.8129V67.3976H100.153V59.4398Z" fill="black"/>
</g>
<path d="M82.9639 68.4017H59.5443V75.7713H82.9639V68.4017Z" fill="#455A64"/>
<path d="M43.1784 65.0683V74.8102H51.1755L54.3808 70.1481H112.771V65.0683H43.1784Z" fill="#263238"/>
<path d="M42.6799 34.22C42.6712 34.0633 42.6015 33.9164 42.4859 33.8108C42.3703 33.7051 42.218 33.6493 42.0617 33.6551C38.9011 33.786 23.8967 34.4764 20.8111 35.9647C18.4492 37.1051 15.8621 41.3619 14.0379 44.229C12.73 46.2839 9.841 50.8455 9.25676 53.1783C8.76186 55.1507 8.46348 59.2533 8.49743 61.2885L9.32287 72.0578H22.9212L24.2826 68.5003C24.7171 67.3671 25.4835 66.3927 26.4809 65.7054C27.4782 65.0182 28.6597 64.6504 29.8695 64.6506H43.3821V46.7788L42.6799 34.22Z" fill="#0037C5"/>
<path d="M19.1995 37.157C17.3271 38.9501 15.4475 41.9984 14.0378 44.229C12.8265 46.1315 10.2608 50.1821 9.42289 52.6243C9.40681 52.6691 9.3943 52.7121 9.38 52.757C9.79451 52.6422 10.4324 52.4073 10.6307 52.0128C10.929 51.4157 11.3114 49.3698 16.0389 41.647C17.4754 39.2926 18.8761 37.9155 19.1995 37.157Z" fill="#455A64"/>
<path d="M35.6941 36.3591C32.2172 36.5581 24.6793 37.0763 22.2708 37.8976C19.1334 38.9734 15.6119 47.3095 15.4458 47.6753L13.0731 53.7718C13.0598 53.8117 13.0561 53.8541 13.0623 53.8957C13.0686 53.9373 13.0846 53.9767 13.109 54.0109C13.1334 54.045 13.1656 54.0729 13.2028 54.0921C13.2401 54.1113 13.2813 54.1214 13.3232 54.1215H19.4568C19.6891 54.1215 19.9196 54.0803 20.1376 53.9996L36.2694 47.964C36.6256 47.8306 36.9326 47.5912 37.1494 47.2778C37.3663 46.9643 37.4825 46.5919 37.4825 46.2104V38.0572C37.4826 37.8259 37.4357 37.597 37.3446 37.3845C37.2535 37.172 37.1202 36.9804 36.9528 36.8215C36.7854 36.6625 36.5874 36.5395 36.3709 36.46C36.1545 36.3805 35.9242 36.3462 35.6941 36.3591Z" fill="#263238"/>
<path d="M13.7573 53.5226C13.7573 53.5226 16.03 48.4069 16.7947 46.7303C17.9488 44.1985 20.6449 39.02 22.4655 38.4624C24.1396 37.9585 28.9529 37.3453 35.728 36.9562H35.7923C36.0833 36.9571 36.362 37.0737 36.5676 37.2803C36.7732 37.487 36.8888 37.7669 36.8893 38.0589V46.3968C36.8886 46.6023 36.8258 46.8027 36.709 46.9715C36.5922 47.1403 36.427 47.2694 36.2354 47.3418L24.3165 48.8175C23.8388 48.8767 23.3795 49.0395 22.9707 49.2946C22.5619 49.5497 22.2134 49.8911 21.9492 50.295L19.8838 53.4562C19.7626 53.5013 19.6343 53.5243 19.505 53.5244L13.7573 53.5226Z" fill="#455A64"/>
<path d="M23.8842 48.909L19.832 53.4383L22.0743 38.3996L22.6353 38.206L21.5312 49.3465C21.5259 49.4024 21.5351 49.4588 21.5578 49.5101C21.5806 49.5615 21.616 49.6061 21.6609 49.6398C21.7057 49.6734 21.7584 49.695 21.8139 49.7023C21.8694 49.7097 21.9258 49.7026 21.9778 49.6818L23.8842 48.909Z" fill="#263238"/>
<path d="M8.23119 62.3339C8.21689 62.1384 8.283 61.9753 8.38305 61.9753L10.5556 61.7744C10.7343 61.7565 10.9005 62.0954 10.9219 62.4917L11.0202 64.1646C11.0363 64.4336 10.9559 64.6613 10.8415 64.681L8.62604 65.0648C8.52599 65.0827 8.42951 64.9339 8.41521 64.7366L8.23119 62.3339Z" fill="#EBEBEB"/>
<path d="M23.8842 70.15H8.22943V76.4491H23.8842V70.15Z" fill="#263238"/>
<path d="M34.3342 83.0284C39.0612 82.8461 42.746 78.8526 42.5644 74.1086C42.3828 69.3646 38.4036 65.6666 33.6766 65.8488C28.9497 66.0311 25.2649 70.0246 25.4465 74.7686C25.6281 79.5126 29.6073 83.2106 34.3342 83.0284Z" fill="#263238"/>
<path d="M25.4475 74.2902C25.4485 74.298 25.4485 74.3058 25.4475 74.3135C25.4176 76.5914 26.2898 78.788 27.8725 80.4209C29.4553 82.0538 31.6191 82.9894 33.8888 83.0222C36.1584 83.055 38.3482 82.1823 39.9772 80.5958C41.6061 79.0093 42.5409 76.8387 42.5763 74.561C42.5763 74.561 42.5763 74.5466 42.5763 74.5395L25.4475 74.2902Z" fill="#263238"/>
<path d="M27.9971 74.3494C27.9795 75.543 28.3151 76.7151 28.9613 77.7174C29.6076 78.7197 30.5355 79.5071 31.6277 79.9801C32.7199 80.453 33.9273 80.5903 35.0973 80.3745C36.2672 80.1588 37.3471 79.5996 38.2004 78.7679C39.0537 77.9361 39.6421 76.869 39.891 75.7016C40.14 74.5343 40.0384 73.319 39.5992 72.2096C39.1599 71.1001 38.4027 70.1464 37.4232 69.4689C36.4438 68.7914 35.2861 68.4206 34.0967 68.4035C32.5023 68.3805 30.964 68.9939 29.8202 70.1089C28.6764 71.2239 28.0206 72.7492 27.9971 74.3494Z" fill="#FAFAFA"/>
<path d="M34.0968 68.4035C32.5023 68.3805 30.9641 68.9939 29.8202 70.1089C28.6764 71.2239 28.0206 72.7492 27.9971 74.3494L40.0231 74.5287C40.0465 72.9277 39.4353 71.383 38.3239 70.2343C37.2125 69.0856 35.692 68.4271 34.0968 68.4035Z" fill="#E0E0E0"/>
<path d="M30.3483 74.3835C30.3378 75.1104 30.5423 75.8242 30.9361 76.4346C31.3298 77.0449 31.895 77.5243 32.5602 77.8122C33.2254 78.1001 33.9608 78.1836 34.6733 78.0521C35.3858 77.9205 36.0434 77.5799 36.563 77.0732C37.0826 76.5666 37.4408 75.9167 37.5923 75.2057C37.7438 74.4947 37.6818 73.7546 37.4142 73.079C37.1466 72.4034 36.6853 71.8226 36.0888 71.41C35.4923 70.9975 34.7872 70.7718 34.0628 70.7614C33.0917 70.7475 32.1548 71.1213 31.4583 71.8005C30.7617 72.4798 30.3625 73.4089 30.3483 74.3835Z" fill="#263238"/>
<path d="M17.3968 41.8191H16.6982C15.9108 41.8191 15.2725 42.4597 15.2725 43.25V48.9395C15.2725 49.7297 15.9108 50.3704 16.6982 50.3704H17.3968C18.1842 50.3704 18.8226 49.7297 18.8226 48.9395V43.25C18.8226 42.4597 18.1842 41.8191 17.3968 41.8191Z" fill="#263238"/>
<path d="M13.8038 55.6564H13.6251V46.6138C13.6256 46.1826 13.7965 45.7692 14.1003 45.4644C14.4041 45.1595 14.816 44.988 15.2456 44.9875H15.6744V45.1668H15.2456C14.8634 45.1673 14.4969 45.3199 14.2266 45.5911C13.9563 45.8624 13.8043 46.2302 13.8038 46.6138V55.6564Z" fill="#263238"/>
<path d="M15.0205 55.6671L14.5238 47.2127C14.5169 47.0681 14.539 46.9237 14.589 46.7879C14.6389 46.6522 14.7157 46.5279 14.8146 46.4226C14.9135 46.3173 15.0326 46.2331 15.1646 46.1751C15.2967 46.1171 15.4391 46.0864 15.5833 46.0848V46.2641C15.4631 46.2642 15.3441 46.2889 15.2337 46.3367C15.1233 46.3846 15.0238 46.4545 14.9413 46.5423C14.8589 46.6302 14.7951 46.734 14.7541 46.8474C14.713 46.9608 14.6954 47.0815 14.7025 47.2019L15.1992 55.6582L15.0205 55.6671Z" fill="#263238"/>
<path d="M15.5833 54.8423H13.1749V57.6413H15.5833V54.8423Z" fill="#263238"/>
<path d="M14.6936 49.5294H13.7145V49.7087H14.6936V49.5294Z" fill="#263238"/>
<path d="M22.8694 36.6012L23.082 36.5725L23.7091 36.499L26.139 36.2174L35.1974 35.1828C35.6798 35.1308 36.1711 35.0663 36.6803 35.0214C36.9404 35.0015 37.202 35.0184 37.4575 35.0717C37.7172 35.1326 37.9678 35.2279 38.2025 35.355C38.6868 35.6254 39.0794 36.0351 39.3299 36.5312C39.4595 36.7849 39.547 37.058 39.589 37.3399C39.6115 37.4823 39.624 37.6261 39.6265 37.7703V38.2024C39.6265 40.5173 39.6265 43.0025 39.6265 45.6366C39.6265 50.9047 39.6265 56.7645 39.6265 63.0296V63.0762H30.2161C29.6789 63.0585 29.1412 63.0842 28.6081 63.1533C27.5085 63.3121 26.4711 63.7626 25.603 64.4583C24.7348 65.154 24.0675 66.0696 23.6698 67.1106C23.5926 67.3018 23.5276 67.4976 23.475 67.697C23.417 67.8942 23.371 68.0948 23.3375 68.2977L23.291 68.6025L23.2696 68.7549L23.2606 68.9073L23.2463 69.214V69.3682V69.3861C23.2856 69.3466 23.191 69.4471 23.1981 69.4363H11.265V69.3861C11.265 66.6839 11.265 64.0785 11.265 61.5897C11.265 60.3453 11.265 59.1302 11.265 57.9444V56.1907C11.265 55.902 11.265 55.6169 11.265 55.3318C11.2708 55.0483 11.2911 54.7652 11.3257 54.4837C11.4619 53.3988 11.8053 52.3504 12.337 51.396C12.8289 50.4672 13.3053 49.5706 13.7663 48.7063L16.2998 43.9421L18.3562 40.0744C18.5063 39.7935 18.6504 39.5215 18.7886 39.2585C18.8601 39.1294 18.9226 38.9985 18.9976 38.8766C19.0716 38.7574 19.1522 38.6425 19.2388 38.5323C19.5487 38.1446 19.9135 37.8044 20.3216 37.5228C20.8836 37.1399 21.512 36.8656 22.1743 36.7141C22.4017 36.6594 22.6328 36.6216 22.8658 36.6012L22.6871 36.6281C22.571 36.646 22.3995 36.6765 22.1743 36.7285C21.5159 36.8847 20.892 37.1619 20.3341 37.5461C19.9294 37.8281 19.5682 38.1683 19.2621 38.5556C19.1756 38.6639 19.0962 38.7777 19.0244 38.8963C18.9512 39.0147 18.8887 39.1474 18.8172 39.2782L18.3866 40.0959L16.348 43.9672C15.5833 45.4124 14.74 47.0065 13.8288 48.735L12.3995 51.4247C11.8728 52.3719 11.5336 53.4125 11.4007 54.4891C11.3667 54.7682 11.347 55.0489 11.3418 55.33C11.3418 55.6115 11.3418 55.9002 11.3418 56.1871V57.9408C11.3418 59.1254 11.3418 60.3405 11.3418 61.5861C11.3418 64.0749 11.3418 66.6803 11.3418 69.3825L11.2971 69.3395H23.1838C23.1963 69.3305 23.098 69.4255 23.1391 69.3825V69.3628V69.2086L23.1552 68.8966V68.7424L23.1784 68.5882L23.2249 68.278C23.2588 68.0721 23.3054 67.8685 23.3643 67.6683C23.4177 67.4658 23.4839 67.267 23.5626 67.073C23.9666 66.0167 24.644 65.0877 25.5249 64.3817C26.4058 63.6757 27.4584 63.2182 28.5742 63.0565C29.1073 62.9884 29.645 62.9626 30.1822 62.9794H39.5497L39.5032 63.0242C39.5032 56.7663 39.5032 50.9065 39.5032 45.6312C39.5032 42.9971 39.5032 40.5119 39.5032 38.197C39.5149 37.9126 39.5029 37.6277 39.4675 37.3453C39.4268 37.0697 39.3418 36.8027 39.2156 36.5545C38.973 36.0695 38.59 35.6695 38.1168 35.407C37.8887 35.2816 37.6446 35.1881 37.3914 35.129C37.1419 35.0762 36.8863 35.0587 36.632 35.077C36.1264 35.1201 35.6315 35.1846 35.1509 35.2366L26.0943 36.2425L23.6626 36.5097L23.0355 36.5761L22.8694 36.6012Z" fill="#263238"/>
<path d="M36.775 56.4184C36.775 56.4184 36.825 56.4184 36.9143 56.3969C37.0457 56.3735 37.1709 56.3234 37.2824 56.2499C37.4581 56.1343 37.5897 55.9624 37.6558 55.7621C37.6962 55.6373 37.7125 55.5058 37.704 55.3748C37.7002 55.2296 37.6629 55.0872 37.595 54.9588C37.5173 54.8119 37.4017 54.6887 37.2603 54.6019C37.1188 54.5152 36.9568 54.4682 36.791 54.4657H35.6118H32.9104C32.6855 54.4661 32.4685 54.5494 32.3008 54.6998C32.1331 54.8502 32.0264 55.0573 32.001 55.2816C31.9729 55.4946 32.0123 55.711 32.1136 55.9002C32.214 56.0792 32.3712 56.2194 32.5602 56.2983C32.7471 56.3634 32.9457 56.3879 33.1427 56.37H33.7144H34.7417L36.23 56.3844H36.6356C36.6823 56.3834 36.729 56.387 36.775 56.3951C36.7287 56.4008 36.6822 56.4038 36.6356 56.4041H36.23L34.7417 56.4184H33.7144H33.1427C33.0426 56.4184 32.9461 56.4184 32.8407 56.4184C32.7335 56.4104 32.6281 56.3862 32.5281 56.3467C32.3214 56.2606 32.1492 56.1079 32.0385 55.9128C31.9276 55.7074 31.8838 55.4721 31.9134 55.2404C31.9411 54.9942 32.0579 54.7668 32.2418 54.6015C32.4256 54.4362 32.6636 54.3445 32.9104 54.3438H35.6118H36.791C37.0488 54.3489 37.2944 54.4546 37.4758 54.6383C37.6573 54.8221 37.7603 55.0695 37.763 55.3282C37.7687 55.4652 37.7487 55.6021 37.704 55.7317C37.6305 55.9399 37.4888 56.1169 37.302 56.2337C37.1855 56.3065 37.0543 56.3525 36.9179 56.3682C36.8725 56.3907 36.8245 56.4076 36.775 56.4184Z" fill="#263238"/>
<path d="M36.448 54.1663C35.939 54.2112 35.4277 54.2262 34.9169 54.2111C34.4054 54.2262 33.8936 54.2113 33.3839 54.1663C33.8935 54.1201 34.4054 54.1045 34.9169 54.1197C35.4277 54.1046 35.939 54.1201 36.448 54.1663Z" fill="white"/>
<path d="M24.5971 76.5011L23.1677 76.3971C23.5411 71.2599 24.0879 68.1865 24.84 67.0013C26.2837 64.724 27.7184 64.3116 29.3067 64.0409C30.7861 63.7881 32.2779 63.8472 33.7216 63.9064L34.0789 63.9207C37.0591 64.0373 43.3017 63.9333 43.3696 63.9333L43.3928 65.3678C43.3303 65.3678 37.0483 65.4736 34.0289 65.3552L33.6715 65.3409C32.3012 65.2871 30.8861 65.2279 29.5533 65.4574C28.1329 65.6995 27.1877 65.9774 26.0478 67.7741C25.703 68.3102 25.0562 70.1733 24.5971 76.5011Z" fill="#263238"/>
<path d="M114.522 17.9817H44.1307V65.0181H114.522V17.9817Z" fill="#0037C5"/>
<path d="M113.678 64.0875C113.678 63.7845 113.664 46.5331 113.641 19.045L113.678 19.0809L44.8918 19.0916L44.9382 19.045C44.9382 35.0555 44.9382 50.2951 44.9382 64.0875L44.8954 64.0445L113.682 64.0875L44.8954 64.1306H44.8453V64.0875C44.8453 50.2951 44.8453 35.0555 44.8453 19.045V19.0002H44.8971L113.684 19.0091H113.721V19.0468C113.693 46.5331 113.678 63.7863 113.678 64.0875Z" fill="#263238"/>
<path d="M34.1253 40.2555C34.1253 40.2555 34.1039 40.277 34.0592 40.3111L33.8627 40.4527C33.684 40.5765 33.4393 40.7486 33.1284 40.962C32.5048 41.3851 31.6365 41.9625 30.6681 42.5847C29.6998 43.2069 28.8154 43.7574 28.1668 44.1501C27.8452 44.3455 27.5826 44.5087 27.4003 44.6091L27.1895 44.7275C27.1655 44.7431 27.1397 44.7557 27.1127 44.7651C27.1127 44.7651 27.1341 44.7436 27.1788 44.7131L27.3807 44.5769L28.1329 44.0945L30.6145 42.5058L33.0873 40.9064L33.8395 40.424L34.0467 40.2949C34.0714 40.279 34.0978 40.2658 34.1253 40.2555Z" fill="#FAFAFA"/>
<path d="M31.0719 41.066C31.0719 41.066 31.0505 41.0875 31.0058 41.1216L30.8093 41.2632C30.6306 41.3852 30.3859 41.5591 30.0732 41.7707C29.4496 42.1956 28.5813 42.7712 27.6147 43.3845C26.6481 43.9977 25.762 44.5589 25.1134 44.9516C24.7918 45.1471 24.5292 45.3102 24.3469 45.4089L24.1361 45.529C24.1125 45.5449 24.0866 45.5569 24.0593 45.5649C24.0793 45.5451 24.1015 45.5276 24.1254 45.5129L24.3273 45.3784L25.0777 44.8942L27.5611 43.3073L30.0339 41.7079L30.7861 41.2238L30.9915 41.0965C31.0169 41.0828 31.0439 41.0725 31.0719 41.066Z" fill="#FAFAFA"/>
<path d="M16.03 46.2857C16.0026 46.2366 15.9839 46.1833 15.9746 46.1279C15.946 46.0257 15.9067 45.875 15.8621 45.6885C15.7446 45.2012 15.6846 44.7017 15.6834 44.2003C15.6809 43.6938 15.7971 43.1938 16.0229 42.7407C16.0935 42.6051 16.1785 42.4777 16.2766 42.3606C16.3096 42.3158 16.3494 42.2765 16.3945 42.244C16.2804 42.414 16.1755 42.59 16.08 42.7712C15.8764 43.2217 15.7722 43.711 15.7745 44.2057C15.7799 44.701 15.8332 45.1946 15.9335 45.6796C15.9782 45.8794 16.0104 46.0818 16.03 46.2857Z" fill="#FAFAFA"/>
<path d="M8.75466 58.9987C8.7482 58.9349 8.7482 58.8706 8.75466 58.8068C8.75466 58.6777 8.75466 58.4912 8.76538 58.2689C8.77968 57.8081 8.81362 57.1715 8.86901 56.4758C8.9244 55.7801 8.9905 55.1417 9.04768 54.6827C9.07626 54.4532 9.10128 54.2685 9.12093 54.1448C9.12765 54.0784 9.14143 54.0128 9.16202 53.9493C9.171 54.016 9.171 54.0835 9.16202 54.1502L9.11557 54.6881C9.07626 55.1686 9.02266 55.7908 8.9637 56.4812C8.90474 57.1715 8.86901 57.7919 8.83506 58.2743C8.81898 58.4895 8.80469 58.6706 8.79397 58.8122C8.78853 58.8758 8.77533 58.9384 8.75466 58.9987Z" fill="#FAFAFA"/>
<path d="M28.3347 62.4791C28.3347 62.4989 27.9899 62.5473 27.4557 62.7212C27.143 62.8231 26.8379 62.9471 26.5427 63.0924C25.8194 63.4529 25.165 63.9385 24.6095 64.5268C24.3827 64.7656 24.1731 65.0202 23.9824 65.2889C23.659 65.7497 23.5072 66.0671 23.4911 66.0581C23.5176 65.98 23.5511 65.9044 23.5911 65.8322C23.6311 65.7446 23.6765 65.6596 23.7269 65.5776C23.7841 65.4808 23.8466 65.3678 23.9288 65.2512C24.1138 64.974 24.3205 64.712 24.547 64.4677C24.8277 64.1691 25.1332 63.895 25.46 63.6482C25.7899 63.4079 26.1402 63.1973 26.507 63.0188C26.8066 62.8745 27.1173 62.7545 27.436 62.6602C27.57 62.6154 27.6969 62.5903 27.8059 62.5634C27.8996 62.5406 27.9944 62.5226 28.09 62.5096C28.1704 62.4916 28.2524 62.4814 28.3347 62.4791Z" fill="#FAFAFA"/>
<path d="M45.9299 51.6542C45.9276 51.6285 45.9276 51.6027 45.9299 51.5771C45.9299 51.5221 45.9299 51.4468 45.9299 51.3512C45.9299 51.1468 45.9299 50.8545 45.9174 50.4815C45.9067 49.7212 45.8924 48.6292 45.8727 47.2826C45.8245 44.5769 45.7584 40.849 45.6851 36.7303C45.6119 32.6115 45.5493 28.8765 45.5243 26.1761C45.5118 24.8259 45.5082 23.7321 45.51 22.9772C45.51 22.6025 45.51 22.3102 45.51 22.1076V21.8817C45.51 21.8297 45.51 21.8046 45.51 21.8046C45.5124 21.8302 45.5124 21.856 45.51 21.8817C45.51 21.9355 45.51 22.0108 45.51 22.1076C45.51 22.3102 45.51 22.6025 45.5225 22.9772C45.5332 23.7375 45.5475 24.8277 45.5672 26.1743C45.6154 28.8801 45.6815 32.608 45.7548 36.7285C45.828 40.849 45.8924 44.5804 45.9156 47.2808C45.9281 48.6328 45.9335 49.7248 45.9317 50.4797C45.9317 50.8545 45.9317 51.1468 45.9317 51.3512C45.9317 51.4462 45.9317 51.5215 45.9317 51.5771C45.9326 51.6028 45.932 51.6285 45.9299 51.6542Z" fill="#FAFAFA"/>
<path d="M97.6235 83.0183C102.35 82.8286 106.029 78.8293 105.84 74.0856C105.651 69.3419 101.666 65.6501 96.939 65.8398C92.2123 66.0295 88.5338 70.0288 88.7228 74.7725C88.9118 79.5162 92.8968 83.208 97.6235 83.0183Z" fill="#263238"/>
<path d="M88.7134 74.2902C88.7134 74.2902 88.7134 74.3064 88.7134 74.3135C88.6807 76.5929 89.5516 78.7919 91.1344 80.4269C92.7173 82.0618 94.8825 82.9987 97.1536 83.0316C99.4248 83.0644 101.616 82.1904 103.245 80.6018C104.874 79.0133 105.808 76.8403 105.84 74.561V74.5395L88.7134 74.2902Z" fill="#263238"/>
<path d="M91.263 74.3494C91.2458 75.5425 91.5815 76.714 92.2277 77.7157C92.8739 78.7174 93.8016 79.5043 94.8934 79.977C95.9852 80.4496 97.1921 80.5866 98.3616 80.3709C99.531 80.1551 100.61 79.5962 101.463 78.7647C102.316 77.9333 102.904 76.8668 103.153 75.6999C103.402 74.533 103.301 73.3183 102.862 72.2093C102.423 71.1002 101.666 70.1467 100.687 69.4693C99.7086 68.7919 98.5515 68.421 97.3626 68.4035C95.7682 68.3805 94.23 68.9939 93.0861 70.1089C91.9423 71.2239 91.2865 72.7492 91.263 74.3494Z" fill="#FAFAFA"/>
<path d="M97.3626 68.4035C96.5731 68.3919 95.789 68.5364 95.0551 68.829C94.3213 69.1215 93.652 69.5563 93.0856 70.1084C92.5191 70.6606 92.0667 71.3193 91.7539 72.047C91.4412 72.7746 91.2744 73.557 91.2629 74.3494L103.287 74.5287C103.299 73.736 103.156 72.9487 102.864 72.2118C102.573 71.4749 102.14 70.8028 101.59 70.2339C101.039 69.6651 100.383 69.2107 99.6576 68.8966C98.9323 68.5825 98.1525 68.4149 97.3626 68.4035Z" fill="#E0E0E0"/>
<path d="M93.6214 74.3835C93.6108 75.1104 93.8154 75.8242 94.2091 76.4346C94.6028 77.0449 95.168 77.5243 95.8332 77.8122C96.4984 78.1001 97.2338 78.1836 97.9463 78.0521C98.6588 77.9205 99.3164 77.5799 99.836 77.0732C100.356 76.5666 100.714 75.9167 100.865 75.2057C101.017 74.4947 100.955 73.7546 100.687 73.079C100.42 72.4034 99.9584 71.8226 99.3618 71.41C98.7653 70.9975 98.0602 70.7718 97.3358 70.7614C96.3647 70.7475 95.4279 71.1213 94.7313 71.8005C94.0347 72.4798 93.6355 73.4089 93.6214 74.3835Z" fill="#263238"/>
<path d="M86.0173 76.7915C86.0173 76.7915 84.713 64.5985 97.3019 64.5985C108.915 64.5985 108.658 75.0845 108.547 76.7073H106.727C106.727 76.7073 107.654 66.3719 97.3019 66.3719C86.9499 66.3719 87.8504 76.9171 87.8504 76.9171C87.8504 76.9171 87.0857 76.8794 86.0173 76.7915Z" fill="#455A64"/>
<path d="M92.7602 65.8609C92.7291 65.8769 92.6961 65.889 92.6619 65.8967C92.5958 65.92 92.4976 65.9434 92.3761 65.9864C92.0268 66.0979 91.6848 66.2315 91.3523 66.3862C90.2517 66.8929 89.2768 67.6381 88.4976 68.5682C87.7184 69.4984 87.1545 70.5904 86.8463 71.7655C86.752 72.1193 86.6798 72.4786 86.6301 72.8414C86.6105 72.9705 86.6033 73.0709 86.5926 73.139C86.5896 73.1741 86.5836 73.2089 86.5748 73.243C86.5705 73.2085 86.5705 73.1736 86.5748 73.139C86.5748 73.0691 86.5748 72.9597 86.5962 72.8378C86.6316 72.4689 86.6949 72.1033 86.7856 71.744C87.0784 70.5509 87.6402 69.4411 88.4276 68.5002C89.2149 67.5592 90.207 66.8121 91.3273 66.3163C91.6642 66.1654 92.0118 66.0395 92.3671 65.9398C92.4922 65.9039 92.5922 65.8842 92.6584 65.868C92.6919 65.8619 92.7261 65.8594 92.7602 65.8609Z" fill="#FAFAFA"/>
<path d="M123.682 78.269L125.204 80.5678L125.889 82.7338C125.9 82.771 125.919 82.8054 125.944 82.8349C125.969 82.8644 126 82.8883 126.035 82.9052C126.07 82.922 126.108 82.9314 126.147 82.9328C126.186 82.9342 126.224 82.9275 126.26 82.9132C126.304 82.8984 126.343 82.873 126.374 82.8391C126.405 82.8053 126.428 82.7642 126.439 82.7195C126.578 82.1529 127.08 80.0657 126.961 79.9026C126.841 79.7394 125.513 77.3725 125.513 77.3725L123.682 78.269Z" fill="#FF7A00"/>
<g opacity="0.6">
<path d="M126.26 82.9114L126.853 79.7448L126.916 79.8434C126.97 79.9284 126.992 80.0302 126.978 80.1303C126.941 80.3974 126.819 81.1344 126.442 82.7123C126.432 82.7579 126.41 82.7999 126.378 82.8347C126.347 82.8695 126.308 82.8958 126.264 82.9114H126.26Z" fill="white"/>
</g>
<g opacity="0.6">
<path d="M125.901 79.2947C125.888 79.3339 125.888 79.3766 125.902 79.4155C125.917 79.4544 125.944 79.4871 125.98 79.5081C126.018 79.5249 126.062 79.5264 126.101 79.512C126.141 79.4977 126.173 79.4687 126.192 79.431C126.209 79.3893 126.209 79.3431 126.193 79.3013C126.177 79.2595 126.146 79.2252 126.107 79.205C126.065 79.1913 126.019 79.1948 125.98 79.2146C125.94 79.2344 125.91 79.2689 125.896 79.3108" fill="white"/>
</g>
<path d="M126.148 81.5558C126.046 81.5174 125.938 81.4997 125.83 81.5038C125.723 81.5238 125.621 81.564 125.529 81.6221C125.529 81.6221 125.542 81.5809 125.592 81.5379C125.659 81.4844 125.739 81.4514 125.824 81.4428C125.909 81.4328 125.995 81.4484 126.071 81.4877C126.128 81.5181 126.153 81.5504 126.148 81.5558Z" fill="#263238"/>
<path d="M126.18 81.9736C126.089 81.9772 125.999 81.9874 125.91 82.0041C125.826 82.0362 125.744 82.0745 125.665 82.1189C125.651 82.1099 125.731 81.9898 125.894 81.9395C125.941 81.9217 125.991 81.9154 126.041 81.9214C126.091 81.9273 126.138 81.9452 126.18 81.9736Z" fill="#263238"/>
<path d="M126.205 80.9587C126.065 80.9545 125.924 80.9611 125.785 80.9785C125.65 81.0138 125.518 81.06 125.39 81.1165C125.49 81.0063 125.627 80.9363 125.774 80.9193C125.918 80.8817 126.07 80.8957 126.205 80.9587Z" fill="#263238"/>
<path d="M125.799 80.2217C125.799 80.2397 125.638 80.2666 125.469 80.367C125.299 80.4674 125.19 80.5911 125.176 80.5803C125.23 80.464 125.323 80.3702 125.438 80.315C125.544 80.2416 125.672 80.2085 125.799 80.2217Z" fill="#263238"/>
<path d="M125.369 79.535C125.244 79.5662 125.123 79.6144 125.011 79.6784C124.914 79.7576 124.826 79.8492 124.752 79.951C124.752 79.951 124.752 79.9044 124.786 79.838C124.833 79.7542 124.898 79.6823 124.977 79.6282C125.056 79.5741 125.147 79.5391 125.242 79.526C125.324 79.5188 125.369 79.5278 125.369 79.535Z" fill="#263238"/>
<path d="M124.942 79.5457C124.917 79.5209 124.898 79.4917 124.884 79.4596C124.84 79.3739 124.814 79.2799 124.808 79.1835C124.797 79.1141 124.809 79.043 124.842 78.9809C124.854 78.9613 124.873 78.9462 124.895 78.9375C124.916 78.9289 124.94 78.9271 124.963 78.9325C125.006 78.9467 125.043 78.976 125.067 79.015C125.111 79.0968 125.125 79.1915 125.107 79.2829C125.089 79.3742 125.04 79.4564 124.968 79.5152C124.896 79.5717 124.809 79.6054 124.718 79.6121C124.626 79.6188 124.535 79.5982 124.456 79.5529C124.436 79.5419 124.418 79.5265 124.405 79.5079C124.392 79.4893 124.383 79.4679 124.379 79.4453C124.376 79.4218 124.381 79.3982 124.393 79.3778C124.405 79.3574 124.423 79.3415 124.445 79.3323C124.51 79.3084 124.58 79.3022 124.649 79.3144C124.744 79.3251 124.836 79.3524 124.922 79.3951C124.954 79.4087 124.983 79.4281 125.008 79.4525C124.894 79.404 124.773 79.372 124.65 79.3574C124.59 79.3492 124.529 79.3559 124.472 79.3772C124.46 79.3818 124.45 79.3903 124.443 79.4013C124.436 79.4123 124.433 79.4252 124.434 79.4381C124.438 79.4527 124.445 79.4662 124.455 79.4779C124.464 79.4896 124.476 79.4993 124.49 79.5063C124.56 79.5433 124.639 79.5594 124.718 79.5527C124.796 79.546 124.872 79.5168 124.934 79.4686C124.993 79.4175 125.034 79.3484 125.05 79.2721C125.066 79.1957 125.057 79.1161 125.024 79.0454C125.009 79.0174 124.984 78.9957 124.954 78.9845C124.942 78.9811 124.928 78.9817 124.916 78.9862C124.904 78.9907 124.894 78.9989 124.886 79.0096C124.856 79.0641 124.845 79.1272 124.854 79.1889C124.864 79.3118 124.893 79.4323 124.942 79.5457Z" fill="#263238"/>
<path d="M122.235 79.5834L122.056 81.8911C122.056 81.8911 124.338 82.6747 124.347 83.1051L119.88 83.0943L120.005 79.4884L122.235 79.5834Z" fill="#FF7A00"/>
<g opacity="0.6">
<path d="M120.686 81.6419C120.642 81.6526 120.604 81.6794 120.579 81.7169C120.554 81.7545 120.545 81.8 120.552 81.8445C120.562 81.8883 120.588 81.9265 120.625 81.9518C120.662 81.977 120.708 81.9874 120.752 81.9808C120.798 81.9685 120.838 81.9395 120.864 81.8995C120.89 81.8594 120.9 81.8111 120.893 81.7638C120.879 81.7184 120.848 81.6804 120.806 81.6583C120.764 81.6361 120.715 81.6315 120.67 81.6455" fill="white"/>
</g>
<g opacity="0.6">
<path d="M119.885 83.0943L119.898 82.7357L124.216 82.897C124.262 82.9213 124.3 82.9563 124.329 82.9992C124.358 83.042 124.375 83.0913 124.381 83.1427L119.885 83.0943Z" fill="white"/>
</g>
<path d="M122.133 81.8714C122.133 81.8929 122.022 81.8983 121.911 81.9646C121.801 82.031 121.733 82.1206 121.722 82.1117C121.711 82.1027 121.74 81.9754 121.874 81.8983C122.008 81.8212 122.138 81.8517 122.133 81.8714Z" fill="#263238"/>
<path d="M122.594 82.0848C122.594 82.1063 122.503 82.1386 122.424 82.2282C122.346 82.3179 122.322 82.4076 122.299 82.4076C122.276 82.4076 122.269 82.282 122.369 82.1727C122.469 82.0633 122.594 82.0633 122.594 82.0848Z" fill="#263238"/>
<path d="M122.839 82.655C122.819 82.655 122.792 82.5474 122.853 82.429C122.914 82.3107 123.017 82.2677 123.032 82.2874C123.046 82.3071 122.975 82.3681 122.926 82.4667C122.878 82.5653 122.86 82.655 122.839 82.655Z" fill="#263238"/>
<path d="M122.115 81.3406C122.104 81.3604 122.006 81.3263 121.883 81.3299C121.76 81.3335 121.661 81.3675 121.651 81.3496C121.64 81.3317 121.735 81.2546 121.881 81.2528C122.028 81.251 122.126 81.3245 122.115 81.3406Z" fill="#263238"/>
<g opacity="0.3">
<path d="M122.199 80.0407L122.169 80.4513L119.973 80.3437L119.985 79.9725L122.199 80.0407Z" fill="black"/>
</g>
<path d="M122.142 80.8744C122.068 80.8918 121.991 80.8887 121.919 80.8654C121.838 80.847 121.76 80.8193 121.686 80.783C121.643 80.7618 121.601 80.7372 121.561 80.7094C121.536 80.6947 121.514 80.676 121.495 80.6538C121.483 80.6371 121.476 80.6166 121.476 80.5956C121.476 80.5745 121.483 80.5541 121.495 80.5373C121.507 80.5225 121.522 80.5106 121.539 80.5025C121.556 80.4945 121.575 80.4904 121.593 80.4907C121.621 80.492 121.649 80.4969 121.676 80.505C121.723 80.5191 121.769 80.5371 121.813 80.5588C121.888 80.5964 121.956 80.6454 122.015 80.7041C122.115 80.8045 122.147 80.8834 122.138 80.8834C122.129 80.8834 122.081 80.8206 121.979 80.7363C121.919 80.6885 121.853 80.6481 121.783 80.6162C121.742 80.597 121.7 80.582 121.656 80.5714C121.609 80.557 121.57 80.5552 121.556 80.5714C121.542 80.5875 121.556 80.5821 121.556 80.5965C121.569 80.6128 121.585 80.6268 121.602 80.6377C121.64 80.6638 121.678 80.6877 121.718 80.7094C121.786 80.7469 121.858 80.7781 121.931 80.8027C122.003 80.8219 122.073 80.8459 122.142 80.8744Z" fill="#263238"/>
<path d="M122.112 80.9049C122.072 80.8392 122.054 80.7626 122.062 80.6861C122.061 80.5532 122.097 80.4226 122.163 80.3078C122.176 80.2778 122.196 80.2517 122.222 80.2325C122.249 80.2132 122.279 80.2014 122.312 80.1984C122.331 80.2003 122.35 80.2074 122.366 80.2191C122.382 80.2308 122.395 80.2466 122.403 80.2648C122.412 80.2921 122.419 80.3204 122.422 80.349C122.43 80.4166 122.424 80.485 122.405 80.5503C122.386 80.6155 122.354 80.6764 122.312 80.7292C122.219 80.8404 122.133 80.8637 122.133 80.8565C122.133 80.8493 122.204 80.8063 122.276 80.6969C122.316 80.6337 122.343 80.5629 122.355 80.4889C122.361 80.4455 122.361 80.4014 122.355 80.358C122.355 80.3096 122.335 80.2719 122.315 80.2755C122.296 80.2791 122.254 80.3078 122.235 80.3455C122.211 80.3836 122.191 80.4238 122.174 80.4656C122.146 80.5369 122.129 80.6117 122.122 80.6879C122.104 80.8188 122.124 80.9013 122.112 80.9049Z" fill="#263238"/>
<path d="M123.868 60.5999C123.868 60.5999 124.688 62.2872 124.902 63.4904C124.963 63.8311 122.555 81.1273 122.555 81.1273L119.707 81.0197L121.041 64.9249L120.566 61.6973L123.868 60.5999Z" fill="#263238"/>
<path d="M116.95 61.6453C116.93 62.8135 116.99 63.9817 117.129 65.1418C117.339 66.8381 117.822 68.7692 117.979 69.8487C118.326 72.2371 119.008 72.6889 119.008 72.6889L124.472 79.7053L126.616 77.7706L121.792 70.0369C121.792 70.0369 120.509 61.4552 120.554 61.6865C120.598 61.9178 116.95 61.6453 116.95 61.6453Z" fill="#263238"/>
<path d="M119.122 72.793C119.138 72.8187 119.155 72.8433 119.174 72.8665L119.33 73.0673L119.903 73.8097C120.387 74.4426 121.047 75.3105 121.777 76.2698C122.508 77.2291 123.173 78.1005 123.666 78.7209C123.911 79.0311 124.113 79.2804 124.256 79.4507L124.42 79.6444C124.438 79.6682 124.459 79.6904 124.481 79.7107C124.466 79.6845 124.449 79.6598 124.429 79.6372L124.273 79.4346L123.7 78.694L121.826 76.2321C121.097 75.2692 120.43 74.4014 119.937 73.7828C119.692 73.4708 119.49 73.2233 119.349 73.053L119.183 72.8575C119.165 72.8339 119.145 72.8123 119.122 72.793Z" fill="#FF7A00"/>
<path d="M118.513 62.9597C118.51 63.056 118.484 63.1501 118.436 63.234C118.245 63.6575 117.894 63.9876 117.461 64.1521C117.374 64.1916 117.279 64.2118 117.184 64.2112C117.471 64.0893 117.738 63.9242 117.975 63.7217C118.193 63.4971 118.374 63.24 118.513 62.9597Z" fill="#FF7A00"/>
<path d="M124.409 61.9806C124.279 62.0403 124.134 62.0609 123.992 62.0399C123.85 62.019 123.717 61.9572 123.609 61.8622C123.621 61.8389 123.787 61.916 124.005 61.9465C124.223 61.977 124.404 61.9555 124.409 61.9806Z" fill="#FF7A00"/>
<path d="M121.334 64.3654C121.343 64.4032 121.35 64.4415 121.354 64.4802C121.365 64.5627 121.377 64.672 121.395 64.8101C121.427 65.106 121.474 65.5273 121.533 66.0402C121.643 67.0945 121.795 68.5505 121.97 70.2252V70.2055L122.762 71.475L125.512 75.9165C125.856 76.4814 126.137 76.9404 126.335 77.2685L126.55 77.6343C126.577 77.6761 126.6 77.7206 126.619 77.767C126.588 77.7279 126.559 77.6865 126.534 77.6433L126.298 77.2847L125.449 75.9488C124.734 74.8102 123.757 73.2484 122.676 71.5234L121.886 70.2521V70.2414C121.726 68.572 121.583 67.1089 121.481 66.0527L121.37 64.8191C121.359 64.681 121.35 64.5716 121.345 64.4873C121.337 64.4473 121.333 64.4063 121.334 64.3654Z" fill="#FF7A00"/>
<path d="M120.504 49.2927L122.208 49.8414L122.337 53.4688C122.337 53.4688 123.259 57.731 123.459 58.2689C123.693 58.9134 123.868 59.5785 123.979 60.2556C123.979 60.2556 123.65 62.662 121.254 62.9453C118.858 63.2286 116.628 61.8479 116.628 61.8479C116.628 61.8479 115.83 58.2617 115.097 55.0449C114.4 51.9841 114.967 50.1587 114.967 50.1587L117.591 49.212L120.504 49.2927Z" fill="#FF7A00"/>
<path d="M122.147 46.9724C122.132 46.884 122.085 46.8045 122.015 46.7494C121.944 46.6943 121.856 46.6677 121.767 46.6748C121.807 46.6446 121.838 46.6048 121.859 46.5592C121.879 46.5135 121.888 46.4634 121.884 46.4135C121.881 46.3635 121.864 46.3153 121.837 46.2732C121.81 46.2312 121.773 46.1966 121.729 46.1727C121.813 46.0449 121.846 45.8904 121.823 45.7394C121.799 45.5883 121.721 45.4513 121.602 45.355L119.803 47.8456C119.942 47.956 120.101 48.037 120.271 48.0838C120.442 48.1307 120.62 48.1424 120.795 48.1182C121.146 48.0664 121.483 47.9445 121.786 47.7596C121.87 47.7235 121.939 47.6604 121.983 47.5803C122.017 47.496 121.969 47.3741 121.876 47.3723C121.963 47.3517 122.039 47.2992 122.089 47.2252C122.139 47.1512 122.16 47.0611 122.147 46.9724Z" fill="#263238"/>
<path d="M117.679 45.6114C117.645 45.6033 117.61 45.6056 117.578 45.6181C117.546 45.6306 117.518 45.6526 117.499 45.6812C117.479 45.7099 117.469 45.7437 117.469 45.7784C117.47 45.813 117.48 45.8467 117.5 45.875C117.447 45.8678 117.392 45.8752 117.342 45.8965C117.292 45.9179 117.249 45.9523 117.217 45.9963C117.186 46.0402 117.166 46.0919 117.161 46.146C117.156 46.2001 117.166 46.2546 117.189 46.3036C117.063 46.2964 116.937 46.331 116.832 46.4022C116.779 46.4386 116.737 46.4895 116.712 46.5489C116.686 46.6083 116.679 46.6738 116.689 46.7375C116.704 46.7989 116.742 46.8521 116.796 46.8856C116.849 46.9191 116.913 46.9303 116.975 46.9168C116.943 46.9721 116.928 47.0352 116.932 47.0987C116.935 47.1623 116.956 47.2236 116.993 47.2754C117.012 47.2995 117.037 47.3191 117.064 47.3328C117.092 47.3465 117.122 47.354 117.153 47.3549C117.184 47.3557 117.215 47.3499 117.243 47.3377C117.272 47.3255 117.297 47.3074 117.318 47.2844C117.284 47.3309 117.266 47.3876 117.268 47.4454C117.269 47.5031 117.29 47.5587 117.327 47.6031C117.364 47.6476 117.415 47.6783 117.471 47.6904C117.527 47.7025 117.586 47.6953 117.638 47.6699C117.624 47.7275 117.628 47.7881 117.65 47.843C117.673 47.8979 117.712 47.9444 117.762 47.9758C117.812 48.0072 117.87 48.0219 117.929 48.0178C117.988 48.0138 118.044 47.9912 118.09 47.9532L117.679 45.6114Z" fill="#263238"/>
<path d="M117.79 45.1345L117.711 49.5437C117.705 49.8913 117.831 50.2281 118.063 50.486C118.295 50.744 118.617 50.9039 118.962 50.9334C119.148 50.9499 119.335 50.9278 119.513 50.8687C119.69 50.8095 119.854 50.7145 119.993 50.5895C120.132 50.4644 120.244 50.3121 120.323 50.1418C120.401 49.9714 120.444 49.7868 120.448 49.5993C120.448 49.1797 120.462 48.8355 120.462 48.8355C120.462 48.8355 121.534 48.7637 121.64 47.7058C121.702 47.0926 121.719 45.694 121.722 44.6199C121.723 44.2701 121.594 43.9326 121.359 43.6742C121.124 43.4158 120.801 43.2554 120.454 43.2249L119.816 43.1693C119.553 43.1611 119.292 43.2059 119.047 43.3009C118.802 43.3959 118.578 43.5393 118.389 43.7225C118.2 43.9057 118.05 44.125 117.947 44.3676C117.844 44.6101 117.79 44.8709 117.79 45.1345Z" fill="#FFBE9D"/>
<path d="M120.459 48.8354C119.97 48.7889 119.505 48.6021 119.119 48.2975C119.119 48.2975 119.39 49.099 120.454 49.0972L120.459 48.8354Z" fill="#EB996E"/>
<path d="M121.424 45.6975C121.404 45.7154 121.297 45.6204 121.134 45.6061C120.972 45.5917 120.847 45.6634 120.83 45.6419C120.814 45.6204 120.845 45.5971 120.9 45.5648C120.974 45.5216 121.06 45.5028 121.145 45.511C121.23 45.5187 121.31 45.5532 121.374 45.6097C121.42 45.6509 121.434 45.6885 121.424 45.6975Z" fill="#263238"/>
<path d="M119.707 45.7674C119.703 45.8069 119.685 45.8436 119.655 45.8697C119.626 45.8958 119.587 45.9093 119.548 45.9073C119.528 45.9073 119.509 45.9034 119.491 45.8959C119.474 45.8884 119.458 45.8774 119.444 45.8635C119.431 45.8496 119.42 45.8332 119.413 45.8151C119.406 45.7971 119.402 45.7778 119.403 45.7585C119.406 45.719 119.425 45.6823 119.454 45.6562C119.484 45.6301 119.523 45.6166 119.562 45.6186C119.581 45.6186 119.6 45.6225 119.618 45.63C119.636 45.6375 119.652 45.6485 119.666 45.6624C119.679 45.6763 119.69 45.6927 119.697 45.7107C119.704 45.7288 119.707 45.7481 119.707 45.7674Z" fill="#263238"/>
<path d="M121.279 45.9109C121.276 45.9504 121.257 45.9871 121.228 46.0132C121.198 46.0393 121.159 46.0528 121.12 46.0508C121.101 46.0503 121.082 46.046 121.064 46.0382C121.047 46.0304 121.031 46.0192 121.017 46.0052C121.004 45.9912 120.994 45.9747 120.987 45.9567C120.98 45.9387 120.977 45.9195 120.977 45.9002C120.98 45.8605 120.998 45.8236 121.028 45.7974C121.058 45.7712 121.097 45.7578 121.136 45.7603C121.155 45.7603 121.175 45.7642 121.192 45.7719C121.21 45.7795 121.226 45.7907 121.24 45.8048C121.253 45.8189 121.263 45.8356 121.27 45.8538C121.277 45.8721 121.28 45.8915 121.279 45.9109Z" fill="#263238"/>
<path d="M119.844 45.5576C119.825 45.5756 119.717 45.4805 119.555 45.4662C119.392 45.4518 119.265 45.5236 119.249 45.502C119.233 45.4805 119.264 45.4572 119.319 45.4249C119.393 45.3821 119.478 45.3632 119.563 45.3709C119.648 45.3786 119.729 45.4125 119.794 45.468C119.841 45.511 119.855 45.5487 119.844 45.5576Z" fill="#263238"/>
<path d="M120.327 46.8182C120.416 46.7987 120.508 46.7903 120.6 46.7931C120.643 46.7931 120.682 46.7931 120.691 46.7608C120.699 46.7183 120.693 46.6744 120.675 46.6353C120.645 46.5295 120.613 46.4219 120.58 46.3072C120.49 46.0288 120.422 45.7433 120.378 45.4537C120.49 45.7241 120.58 46.0028 120.648 46.2875C120.679 46.404 120.709 46.5134 120.738 46.6174C120.757 46.6707 120.757 46.729 120.738 46.7824C120.73 46.7965 120.72 46.8088 120.707 46.8184C120.695 46.828 120.68 46.8347 120.664 46.8379C120.641 46.8405 120.617 46.8405 120.593 46.8379C120.504 46.8425 120.414 46.8359 120.327 46.8182Z" fill="#263238"/>
<path d="M119.839 46.8881C119.866 46.8881 119.851 47.0674 119.991 47.2055C120.13 47.3436 120.32 47.3418 120.32 47.3651C120.32 47.3884 120.273 47.3974 120.194 47.392C120.091 47.3838 119.994 47.3394 119.919 47.2665C119.848 47.1972 119.806 47.1026 119.803 47.0029C119.803 46.9276 119.828 46.8863 119.839 46.8881Z" fill="#263238"/>
<path d="M119.934 45.0305C119.912 45.0735 119.755 45.0305 119.56 45.0448C119.365 45.0592 119.203 45.0897 119.187 45.0448C119.171 45 119.208 44.9857 119.274 44.948C119.361 44.902 119.458 44.8774 119.557 44.8763C119.655 44.8735 119.753 44.8938 119.842 44.9355C119.909 44.9731 119.941 45.0108 119.934 45.0305Z" fill="#263238"/>
<path d="M121.443 45.2277C121.411 45.2636 121.302 45.2152 121.168 45.2008C121.034 45.1865 120.918 45.2008 120.895 45.1632C120.872 45.1255 120.906 45.1076 120.959 45.0771C121.03 45.0411 121.109 45.0267 121.188 45.036C121.266 45.0453 121.34 45.0777 121.4 45.1291C121.445 45.1793 121.458 45.2116 121.443 45.2277Z" fill="#263238"/>
<path d="M118.075 45.9611C118.058 45.9521 117.361 45.6814 117.327 46.4094C117.293 47.1374 118.022 47.028 118.025 47.0065C118.029 46.985 118.075 45.9611 118.075 45.9611Z" fill="#FFBE9D"/>
<path d="M117.82 46.7178C117.82 46.7178 117.806 46.7268 117.784 46.7357C117.754 46.7473 117.72 46.7473 117.69 46.7357C117.645 46.7034 117.609 46.6596 117.586 46.6088C117.564 46.5581 117.555 46.5023 117.561 46.447C117.563 46.3848 117.578 46.3238 117.606 46.2677C117.614 46.2457 117.628 46.226 117.646 46.2102C117.664 46.1943 117.685 46.1827 117.707 46.1763C117.722 46.1732 117.737 46.1755 117.75 46.1827C117.764 46.19 117.774 46.2017 117.779 46.2157C117.779 46.2373 117.779 46.2516 117.779 46.2516C117.779 46.2516 117.795 46.2408 117.791 46.2104C117.788 46.1921 117.779 46.1756 117.765 46.1637C117.746 46.1473 117.722 46.139 117.697 46.1404C117.667 46.1449 117.638 46.157 117.614 46.1755C117.59 46.194 117.571 46.2183 117.559 46.2462C117.524 46.3075 117.505 46.3765 117.504 46.447C117.497 46.5115 117.508 46.5767 117.538 46.6345C117.568 46.6922 117.613 46.7399 117.67 46.7716C117.689 46.7779 117.709 46.7801 117.729 46.7779C117.749 46.7758 117.769 46.7693 117.786 46.759C117.816 46.7357 117.822 46.7196 117.82 46.7178Z" fill="#EB996E"/>
<path d="M117.675 45.8966C117.744 45.8979 117.812 45.9182 117.87 45.9551C117.929 45.9921 117.976 46.0444 118.008 46.1064C118.045 46.214 118.045 46.3323 118.083 46.4399C118.12 46.5475 118.218 46.6515 118.331 46.6335C118.369 46.6255 118.405 46.6073 118.434 46.5808C118.464 46.5544 118.485 46.5206 118.497 46.4829C118.519 46.4068 118.527 46.327 118.519 46.248C118.506 45.9055 118.465 45.5631 118.481 45.2224C118.485 44.8771 118.589 44.5406 118.781 44.2541C118.88 44.1124 119.015 44.0003 119.173 43.9295C119.33 43.8588 119.503 43.8322 119.675 43.8525C119.898 43.8901 120.093 44.0318 120.312 44.0784C120.444 44.1075 120.58 44.1065 120.711 44.0755C120.842 44.0444 120.964 43.9841 121.068 43.8991C121.095 43.8776 121.215 43.813 121.215 43.813C121.218 43.732 121.198 43.6519 121.157 43.5817C120.752 43.1316 119.964 42.9451 119.371 43.0438C119.067 43.0907 118.778 43.2033 118.522 43.374C118.266 43.5446 118.05 43.769 117.89 44.0318C117.59 44.5607 117.597 45.3318 117.686 45.9002" fill="#263238"/>
<path d="M121.851 44.4388C121.787 44.541 121.697 44.6247 121.591 44.6813C121.484 44.7379 121.365 44.7656 121.245 44.7615C121.004 44.7505 120.768 44.6939 120.548 44.5948C120.2 44.4746 119.841 44.3887 119.476 44.3384C119.44 44.3384 119.398 44.3384 119.381 44.3007C119.365 44.263 119.405 44.2128 119.444 44.1859C119.782 43.9672 120.555 43.8829 120.957 43.9008C121.159 43.9051 121.356 43.961 121.53 44.0634C121.704 44.1657 121.849 44.311 121.951 44.4854" fill="#263238"/>
<path d="M121.745 44.4621C121.536 44.1974 121.232 44.025 120.898 43.9815C120.258 43.9275 119.614 44.0519 119.039 44.3411C118.464 44.6302 117.98 45.0729 117.64 45.6204C117.575 45.3115 117.542 44.9965 117.543 44.6808C117.561 44.4639 117.804 43.1908 119.151 42.9039C119.156 42.9003 121.207 42.3104 121.745 44.4621Z" fill="#FF7A00"/>
<path d="M117.781 45.3461C118.256 44.7541 118.854 44.2732 119.533 43.9367C120.33 43.5719 121.171 43.3122 122.035 43.1639C122.256 43.1114 122.487 43.1071 122.71 43.1513C122.821 43.1758 122.923 43.2311 123.004 43.311C123.086 43.3909 123.143 43.4922 123.169 43.6032C123.214 43.8829 122.69 44.2648 122.455 44.4101C122.218 44.54 121.974 44.6567 121.724 44.7597C121.724 44.7597 121.776 44.2523 120.972 44.0748C119.873 43.8327 117.781 45.3461 117.781 45.3461Z" fill="#FF7A00"/>
<path d="M122.851 43.1872C122.775 43.171 122.698 43.1591 122.621 43.1513C122.407 43.1433 122.193 43.1577 121.983 43.1944C121.286 43.3123 120.603 43.5066 119.948 43.7735C119.288 44.0282 118.682 44.4054 118.161 44.8852C118.006 45.0316 117.869 45.1966 117.754 45.3766C117.675 45.5057 117.645 45.5846 117.638 45.581C117.631 45.5774 117.638 45.5595 117.652 45.5218C117.672 45.4656 117.695 45.4111 117.724 45.3586C117.828 45.1669 117.961 44.9917 118.117 44.8386C118.631 44.3358 119.243 43.944 119.914 43.6875C120.575 43.4166 121.267 43.2287 121.974 43.128C122.189 43.0976 122.408 43.0934 122.624 43.1155C122.686 43.1201 122.746 43.1347 122.803 43.1585C122.835 43.1746 122.853 43.1836 122.851 43.1872Z" fill="#263238"/>
<path d="M120.243 43.4687C120.505 43.3568 120.784 43.2883 121.068 43.2661C121.006 43.2077 120.937 43.1571 120.863 43.1155C120.641 43.133 120.424 43.1856 120.219 43.2715L120.243 43.4687Z" fill="#FAFAFA"/>
<path d="M121.867 44.8207C121.9 44.7743 121.92 44.7198 121.926 44.6628C121.931 44.6059 121.921 44.5486 121.896 44.4969C121.872 44.4452 121.835 44.4009 121.788 44.3686C121.741 44.3363 121.686 44.3172 121.629 44.3132C121.667 44.2982 121.701 44.2754 121.729 44.2465C121.757 44.2176 121.779 44.1831 121.794 44.1452C121.808 44.1073 121.815 44.0669 121.813 44.0263C121.811 43.9858 121.801 43.9461 121.783 43.9098C121.741 43.8393 121.676 43.7849 121.6 43.755C121.524 43.7252 121.44 43.7216 121.361 43.7448C121.283 43.7707 121.213 43.8147 121.155 43.8733C121.098 43.9319 121.055 44.0034 121.031 44.0819C120.997 44.0324 120.952 43.9922 120.899 43.9653C120.846 43.9383 120.787 43.9255 120.727 43.928C120.668 43.9305 120.61 43.9483 120.559 43.9796C120.508 44.011 120.466 44.0548 120.437 44.107C120.422 44.0622 120.389 44.025 120.347 44.003C120.305 43.9811 120.256 43.976 120.211 43.9887C120.12 44.0187 120.037 44.0683 119.968 44.1339C119.898 44.2003 119.808 44.2414 119.712 44.2505L119.65 44.2774C119.701 44.3599 119.78 44.4207 119.873 44.4485C119.966 44.4762 120.066 44.4689 120.153 44.428C120.153 44.4891 120.172 44.5488 120.208 44.5981C120.244 44.6474 120.295 44.6836 120.353 44.7012C120.411 44.7188 120.474 44.7169 120.531 44.6958C120.588 44.6746 120.637 44.6354 120.67 44.584C120.681 44.6292 120.703 44.671 120.734 44.7054C120.766 44.7398 120.805 44.7659 120.849 44.7812C120.893 44.7965 120.939 44.8006 120.985 44.7931C121.031 44.7856 121.074 44.7667 121.111 44.7382C121.131 44.7906 121.163 44.8376 121.204 44.8753C121.246 44.913 121.295 44.9405 121.349 44.9555C121.403 44.9705 121.46 44.9726 121.515 44.9617C121.569 44.9507 121.621 44.927 121.665 44.8924C121.71 44.965 121.74 45.0466 121.752 45.1316C121.763 45.2166 121.757 45.3032 121.733 45.3855C121.792 45.3724 121.846 45.3429 121.889 45.3004C121.932 45.2579 121.962 45.2041 121.976 45.1452C121.99 45.0863 121.987 45.0246 121.968 44.9672C121.948 44.9098 121.913 44.859 121.867 44.8207Z" fill="#263238"/>
<path d="M118.845 44.6414C118.596 44.7523 118.357 44.8849 118.131 45.0377C117.904 45.1935 117.722 45.4069 117.604 45.6563L117.961 45.9988C118.059 46.0311 118.14 46.0651 118.215 45.9988C118.254 45.965 118.283 45.9221 118.301 45.8739C118.32 45.8257 118.325 45.7737 118.318 45.7227C118.366 45.7328 118.415 45.7297 118.461 45.7137C118.507 45.6977 118.547 45.6693 118.578 45.6317C118.609 45.5942 118.629 45.5488 118.636 45.5007C118.642 45.4525 118.636 45.4034 118.617 45.3587C118.652 45.3502 118.685 45.3325 118.711 45.3073C118.738 45.2821 118.757 45.2503 118.767 45.2152C118.776 45.1801 118.776 45.1432 118.767 45.108C118.758 45.0728 118.74 45.0406 118.715 45.0144C118.755 45.012 118.794 44.9978 118.827 44.9736C118.859 44.9494 118.884 44.9162 118.898 44.8781C118.911 44.8399 118.914 44.7986 118.905 44.7591C118.895 44.7196 118.875 44.6837 118.845 44.6558V44.6414Z" fill="#263238"/>
<path d="M122.208 49.8414C122.208 49.8414 123.264 50.4779 123.582 51.0445C123.9 51.6112 125.59 55.746 125.52 56.4238C125.451 57.1016 123.864 57.5194 123.864 57.5194L122.208 55.3677L122.966 54.914L122.208 53.4491V49.8414Z" fill="#FF7A00"/>
<path d="M123.868 57.514C123.868 57.514 120.03 58.2851 118.636 56.6175L119.04 55.2099C119.04 55.2099 121.576 55.8124 122.369 55.5542L123.868 57.514Z" fill="#FFBE9D"/>
<path d="M124.264 54.0928C124.279 54.1215 123.814 54.3169 123.33 54.6881C122.846 55.0593 122.54 55.4609 122.515 55.4412C122.559 55.3407 122.619 55.2486 122.694 55.1686C122.863 54.9631 123.054 54.7772 123.264 54.6146C123.475 54.4532 123.704 54.3155 123.945 54.2039C124.044 54.1491 124.152 54.1115 124.264 54.0928Z" fill="#263238"/>
<path d="M123.033 54.862C122.897 54.6449 122.781 54.4149 122.689 54.1753C122.566 53.9499 122.461 53.7155 122.374 53.4742C122.543 53.6709 122.677 53.8946 122.773 54.1358C122.893 54.3644 122.981 54.6089 123.033 54.862Z" fill="#263238"/>
<path d="M122.337 53.1209C122.326 52.9186 122.295 52.7179 122.244 52.522C122.211 52.3214 122.159 52.1244 122.088 51.9339C122.131 52.3369 122.215 52.7346 122.337 53.1209Z" fill="#263238"/>
<path d="M115.447 50.3793C115.521 50.4564 116.575 51.1575 116.927 52.3517C117.279 53.5459 117.666 54.7921 117.666 54.7921L119.04 54.9714L118.265 58.1524C117.74 58.0712 117.239 57.8777 116.795 57.585C116.352 57.2923 115.976 56.9073 115.694 56.4561C115.081 55.3838 114.585 54.2482 114.214 53.069C114.214 53.069 114.331 49.2066 115.447 50.3793Z" fill="#FF7A00"/>
<path d="M118.569 54.9086C118.569 54.9086 117.986 53.5997 117.907 53.5817C117.829 53.5638 116.705 53.1675 116.705 53.1675C116.671 53.2595 116.671 53.3607 116.705 53.4526L116.299 53.5046C116.299 53.5046 116.36 53.7539 116.498 53.788L116.351 53.9188C116.425 54.016 116.519 54.0956 116.626 54.152C116.668 54.1725 116.713 54.1832 116.76 54.1832C116.806 54.1832 116.851 54.1725 116.893 54.152C116.893 54.152 116.843 54.2452 117.071 54.3922C117.3 54.5393 117.698 54.7508 117.698 54.7508L118.569 54.9086Z" fill="#FFBE9D"/>
<path d="M117.7 54.758C117.7 54.758 117.302 54.5393 117.073 54.3994C116.875 54.2739 116.88 54.1878 116.894 54.1627C116.854 54.1814 116.809 54.191 116.764 54.191C116.719 54.191 116.675 54.1814 116.634 54.1627C116.526 54.1052 116.431 54.0251 116.357 53.9278L116.491 53.7862C116.357 53.7467 116.298 53.5118 116.296 53.5011L116.7 53.4491C116.667 53.3574 116.667 53.2574 116.7 53.1658C116.71 53.1658 117.827 53.5638 117.904 53.58C117.981 53.5961 118.542 54.8549 118.567 54.9087L117.7 54.758ZM116.707 53.4509L116.301 53.5029C116.301 53.5316 116.371 53.7503 116.498 53.7826L116.35 53.9135C116.422 54.0096 116.514 54.0881 116.621 54.143C116.662 54.1631 116.708 54.1736 116.753 54.1736C116.799 54.1736 116.844 54.1631 116.886 54.143V54.1538C116.886 54.1538 116.839 54.247 117.064 54.3905C117.289 54.5339 117.677 54.7491 117.691 54.7491L118.554 54.9015C118.351 54.4478 117.956 53.5943 117.897 53.5818C117.838 53.5692 116.757 53.1891 116.696 53.1676C116.664 53.26 116.668 53.3611 116.707 53.4509Z" fill="#EB996E"/>
<path d="M116.741 53.4562C116.978 53.5719 117.224 53.6684 117.477 53.7449C117.581 53.7826 117.682 53.8095 117.763 53.8489C117.835 53.8831 117.894 53.9397 117.931 54.0103C117.999 54.1322 118.024 54.2201 118.034 54.2165C118.03 54.1367 118.008 54.059 117.97 53.9888C117.932 53.9078 117.87 53.8412 117.791 53.7987C117.696 53.7557 117.598 53.7186 117.498 53.6875C117.252 53.5922 116.999 53.5149 116.741 53.4562Z" fill="#EB996E"/>
<path d="M116.478 53.7862C116.541 53.8236 116.61 53.8486 116.682 53.8597C116.811 53.8956 116.993 53.9243 117.186 53.9763C117.35 54.0173 117.505 54.0904 117.641 54.1914C117.745 54.2721 117.79 54.3421 117.799 54.3367C117.774 54.2658 117.729 54.2036 117.67 54.1574C117.535 54.0411 117.375 53.9582 117.202 53.9153C117.003 53.8615 116.819 53.84 116.691 53.8167C116.621 53.7987 116.55 53.7884 116.478 53.7862Z" fill="#EB996E"/>
<path d="M117.509 54.385C117.443 54.2953 117.347 54.2319 117.239 54.2057C117.137 54.1596 117.023 54.1489 116.914 54.1753C116.914 54.195 117.057 54.2039 117.22 54.2631C117.382 54.3223 117.498 54.3994 117.509 54.385Z" fill="#EB996E"/>
<path d="M118.922 55.3103L122.387 53.5566L123.021 54.853C123.021 54.853 119.828 58.0286 118.333 57.9874" fill="#FFBE9D"/>
<path d="M116.818 51.6345C116.823 51.7221 116.838 51.8088 116.864 51.8927C116.902 52.0487 116.955 52.2638 117.02 52.5005C117.084 52.7372 117.145 52.9524 117.198 53.1066C117.218 53.1913 117.248 53.2732 117.288 53.3505C117.281 53.2636 117.266 53.1776 117.241 53.094C117.204 52.938 117.15 52.7229 117.086 52.4844C117.021 52.2459 116.961 52.0343 116.907 51.8819C116.887 51.7963 116.857 51.7132 116.818 51.6345Z" fill="#263238"/>
<path d="M116.968 55.9504C116.978 55.9504 117.009 55.7908 117.089 55.5416C117.135 55.3968 117.205 55.2609 117.297 55.14C117.406 54.9962 117.564 54.8974 117.741 54.862C117.926 54.8535 118.112 54.8746 118.29 54.9248L118.744 55.0162C118.801 55.0238 118.856 55.0383 118.91 55.0593C118.948 55.0762 118.978 55.1069 118.994 55.1453C119.001 55.1617 119.005 55.1794 119.005 55.1973C119.005 55.2152 119.001 55.2329 118.994 55.2493C118.994 55.2493 119.042 55.2206 119.022 55.1382C119.015 55.1146 119.004 55.0928 118.988 55.074C118.972 55.0552 118.953 55.0398 118.931 55.0288C118.874 55.0024 118.814 54.9837 118.753 54.9732L118.301 54.8692C118.116 54.8139 117.923 54.7909 117.731 54.8011C117.536 54.8395 117.363 54.9503 117.246 55.1113C117.154 55.2387 117.085 55.3821 117.043 55.5344C117.014 55.6358 116.99 55.7388 116.973 55.8428C116.966 55.8782 116.964 55.9145 116.968 55.9504Z" fill="#263238"/>
<path d="M116.491 55.2511C116.585 55.0831 116.712 54.9356 116.864 54.8172C117.032 54.7167 117.212 54.6384 117.4 54.5841C117.34 54.5745 117.279 54.5795 117.221 54.5984C117.082 54.6276 116.95 54.6849 116.834 54.767C116.716 54.8493 116.619 54.9579 116.55 55.0844C116.516 55.1338 116.496 55.1913 116.491 55.2511Z" fill="#263238"/>
<path d="M114.214 53.0689C114.214 53.0689 114.214 53.0922 114.232 53.137C114.25 53.1819 114.27 53.25 114.297 53.3271C114.356 53.5064 114.436 53.7359 114.536 54.0246C114.636 54.3133 114.758 54.6719 114.929 55.0485C115.101 55.425 115.303 55.8303 115.547 56.2409C115.776 56.6298 116.068 56.9776 116.41 57.2701C116.69 57.5093 117.003 57.7057 117.339 57.8529C117.568 57.9514 117.808 58.0183 118.054 58.0519C118.12 58.0619 118.187 58.0685 118.254 58.0716C118.301 58.0716 118.324 58.0716 118.324 58.0716C118.324 58.0716 118.229 58.0609 118.058 58.0304C117.817 57.9871 117.583 57.9142 117.361 57.8134C116.626 57.4727 116.013 56.9138 115.604 56.2122C115.362 55.8052 115.165 55.3946 114.985 55.027C114.804 54.6594 114.688 54.3097 114.579 54.0121C114.47 53.7144 114.386 53.4831 114.322 53.3199L114.247 53.1406C114.238 53.1157 114.228 53.0916 114.214 53.0689Z" fill="#263238"/>
<path d="M115.208 50.4546C115.208 50.4725 115.472 50.5693 115.774 50.7504C116.076 50.9316 116.292 51.1198 116.31 51.1091C116.018 50.7864 115.636 50.5596 115.213 50.4582L115.208 50.4546Z" fill="#263238"/>
<path d="M117.836 58.9037C117.893 58.9386 117.953 58.9686 118.015 58.9933C118.074 59.022 118.145 59.0543 118.229 59.0866C118.313 59.1189 118.408 59.1619 118.519 59.196C118.771 59.2863 119.029 59.3617 119.29 59.4219C119.612 59.493 119.937 59.5445 120.264 59.5761C120.592 59.6032 120.922 59.6092 121.25 59.594C121.519 59.5815 121.786 59.5533 122.051 59.5098C122.163 59.4936 122.265 59.4703 122.353 59.4524C122.44 59.4344 122.519 59.4147 122.58 59.3986C122.645 59.3841 122.709 59.3649 122.771 59.3412C122.705 59.348 122.639 59.3593 122.574 59.3753C122.514 59.3878 122.437 59.404 122.347 59.4183C122.258 59.4326 122.156 59.4542 122.044 59.4667C121.779 59.5048 121.513 59.5287 121.247 59.5384C120.921 59.5492 120.595 59.5408 120.269 59.5133C119.945 59.483 119.622 59.4339 119.303 59.3663C119.043 59.3093 118.786 59.2386 118.533 59.1547C118.422 59.1224 118.327 59.0848 118.242 59.0543C118.156 59.0238 118.084 58.9951 118.025 58.9718C117.964 58.9448 117.901 58.9221 117.836 58.9037Z" fill="#263238"/>
<path d="M120.65 60.7093C120.89 60.6783 121.126 60.6181 121.352 60.53C121.584 60.4632 121.808 60.368 122.017 60.2467C122.017 60.2306 121.71 60.3453 121.333 60.4708C120.956 60.5964 120.646 60.6932 120.65 60.7093Z" fill="#263238"/>
<g opacity="0.3">
<path d="M123.294 57.6091C122.503 57.7661 121.689 57.7782 120.893 57.6449C120.604 57.557 120.301 57.5206 120 57.5373C119.76 57.5957 119.529 57.6836 119.312 57.7991C118.901 57.9688 118.454 58.0335 118.012 57.9875C117.57 57.9415 117.146 57.7862 116.778 57.5355C116.908 57.7834 117.094 57.9965 117.322 58.1572C117.55 58.3178 117.814 58.4213 118.09 58.459C118.642 58.5293 119.204 58.4791 119.735 58.3119C120.052 58.2083 120.379 58.1421 120.711 58.1147C121.132 58.104 121.545 58.242 121.961 58.2492C122.45 58.2634 122.929 58.118 123.328 57.835L123.294 57.6091Z" fill="black"/>
</g>
<g opacity="0.3">
<path d="M121.922 60.3704C121.745 60.6697 121.499 60.923 121.206 61.1099C120.914 61.2967 120.581 61.412 120.236 61.4463C120.086 61.4651 119.935 61.4529 119.791 61.4104C119.718 61.3891 119.651 61.3532 119.594 61.3047C119.536 61.2563 119.489 61.1964 119.455 61.1289C119.615 61.0258 119.792 60.9523 119.978 60.9119L121.902 60.383" fill="black"/>
</g>
<path d="M122.969 54.905C122.922 54.9629 122.87 55.0163 122.814 55.0646C122.71 55.165 122.56 55.3085 122.383 55.4914C122.206 55.6743 121.995 55.9002 121.738 56.1243C121.481 56.3485 121.188 56.5798 120.879 56.8201C120.588 57.0485 120.283 57.2581 119.966 57.4476C119.706 57.6032 119.43 57.7312 119.144 57.8296C118.951 57.8954 118.752 57.944 118.551 57.9748C118.478 57.9877 118.403 57.9919 118.329 57.9874C118.598 57.9305 118.863 57.8574 119.122 57.7686C119.401 57.6622 119.669 57.5302 119.923 57.3741C120.232 57.1821 120.531 56.9725 120.816 56.7465C121.125 56.5063 121.42 56.2785 121.676 56.0598C121.931 55.841 122.145 55.6241 122.331 55.4448C122.517 55.2654 122.674 55.1292 122.785 55.0377C122.841 54.986 122.903 54.9415 122.969 54.905Z" fill="#EB996E"/>
<g clip-path="url(#clip0_2318_5469)">
<g filter="url(#filter0_d_2318_5469)">
<path d="M76.5266 38.5128L77.0841 40.1531L89.4525 35.9145L87.7629 44.7368L86.9177 45.0265C86.5877 44.3758 86.0352 43.8664 85.3615 43.5918C84.6879 43.3173 83.9383 43.296 83.2505 43.5318C82.5626 43.7676 81.9826 44.2448 81.6169 44.8757C81.2513 45.5067 81.1244 46.249 81.2597 46.9664L72.5194 49.9618L70.6259 46.9475L80.9328 43.4143L80.3745 41.7743L69.6791 45.4395L65.8921 39.4101L90.3879 31.0137L89.8249 33.9542L76.5266 38.5128Z" fill="#FF7A00"/>
</g>
<g filter="url(#filter1_d_2318_5469)">
<path d="M86.267 45.7077C86.4449 46.234 86.4148 46.8089 86.1827 47.3133C85.9507 47.8178 85.5345 48.2134 85.0203 48.4182C84.506 48.6231 83.933 48.6215 83.4196 48.414C82.9063 48.2064 82.4919 47.8087 82.2621 47.303C82.0324 46.7973 82.0048 46.2224 82.1851 45.697C82.3654 45.1716 82.7398 44.736 83.2309 44.4801C83.722 44.2243 84.2922 44.1679 84.8238 44.3225C85.3553 44.4771 85.8074 44.8309 86.0867 45.3108C86.1605 45.4364 86.2209 45.5694 86.267 45.7077Z" fill="#00AB00"/>
</g>
</g>
<defs>
<filter id="filter0_d_2318_5469" x="61.892" y="31.0137" width="32.4959" height="26.948" filterUnits="userSpaceOnUse" color-interpolation-filters="sRGB">
<feFlood flood-opacity="0" result="BackgroundImageFix"/>
<feColorMatrix in="SourceAlpha" type="matrix" values="0 0 0 0 0 0 0 0 0 0 0 0 0 0 0 0 0 0 127 0" result="hardAlpha"/>
<feOffset dy="4"/>
<feGaussianBlur stdDeviation="2"/>
<feComposite in2="hardAlpha" operator="out"/>
<feColorMatrix type="matrix" values="0 0 0 0 0 0 0 0 0 0 0 0 0 0 0 0 0 0 0.25 0"/>
<feBlend mode="normal" in2="BackgroundImageFix" result="effect1_dropShadow_2318_5469"/>
<feBlend mode="normal" in="SourceGraphic" in2="effect1_dropShadow_2318_5469" result="shape"/>
</filter>
<filter id="filter1_d_2318_5469" x="78.0673" y="44.2369" width="12.3143" height="12.3338" filterUnits="userSpaceOnUse" color-interpolation-filters="sRGB">
<feFlood flood-opacity="0" result="BackgroundImageFix"/>
<feColorMatrix in="SourceAlpha" type="matrix" values="0 0 0 0 0 0 0 0 0 0 0 0 0 0 0 0 0 0 127 0" result="hardAlpha"/>
<feOffset dy="4"/>
<feGaussianBlur stdDeviation="2"/>
<feComposite in2="hardAlpha" operator="out"/>
<feColorMatrix type="matrix" values="0 0 0 0 0 0 0 0 0 0 0 0 0 0 0 0 0 0 0.25 0"/>
<feBlend mode="normal" in2="BackgroundImageFix" result="effect1_dropShadow_2318_5469"/>
<feBlend mode="normal" in="SourceGraphic" in2="effect1_dropShadow_2318_5469" result="shape"/>
</filter>
<clipPath id="clip0_2318_5469">
<rect width="25.6361" height="17.6729" fill="white" transform="matrix(0.982 -0.188883 0.187579 0.982249 65.2133 35.856)"/>
</clipPath>
</defs>
</svg>
