<svg width="134" height="134" viewBox="0 0 134 134" fill="none" xmlns="http://www.w3.org/2000/svg">
<path d="M88.4212 69.8676L88.4963 74.5389H126.949V69.8676H88.4212Z" fill="#EBEBEB"/>
<path d="M90.0963 73.3436L95.1883 121.291C95.2386 121.766 95.4627 122.205 95.8175 122.524C96.1723 122.843 96.6326 123.02 97.1098 123.02H121.94L124.25 73.3436H90.0963Z" fill="#EBEBEB"/>
<path d="M126.73 122.74C127.72 118.141 124.795 113.611 120.197 112.621C115.598 111.631 111.068 114.556 110.078 119.155C109.088 123.753 112.013 128.283 116.611 129.273C121.21 130.264 125.74 127.338 126.73 122.74Z" fill="#E0E0E0"/>
<path d="M125.877 74.5817C125.877 74.6192 117.545 74.6514 107.272 74.6514C96.9999 74.6514 88.6651 74.6192 88.6651 74.5817C88.6651 74.5442 96.9945 74.512 107.272 74.512C117.55 74.512 125.877 74.5415 125.877 74.5817Z" fill="#E0E0E0"/>
<path d="M126.949 69.8462C126.949 69.8837 118.36 69.9159 107.768 69.9159C97.1768 69.9159 88.5847 69.8837 88.5847 69.8462C88.5847 69.8087 97.1607 69.7765 107.768 69.7765C118.376 69.7765 126.949 69.8087 126.949 69.8462Z" fill="#E0E0E0"/>
<path d="M124.148 122.121C124.794 118.949 122.746 115.854 119.574 115.208C116.402 114.562 113.307 116.61 112.662 119.782C112.016 122.954 114.063 126.049 117.235 126.694C120.407 127.34 123.502 125.293 124.148 122.121Z" fill="#EBEBEB"/>
<path d="M108.47 90.5679C108.47 90.5679 110.553 91.1763 110.153 93.5374C109.754 95.8985 108.47 96.2442 108.47 96.2442L111.378 97.4287L114.286 96.8472L115.446 95.8073C115.446 95.8073 113.704 94.7997 113.643 92.8406C113.581 90.8815 114.423 90.6966 114.776 90.3803C115.13 90.0641 112.785 89.5763 112.785 89.5763L110.735 89.3619L108.47 90.5679Z" fill="#F5F5F5"/>
<path d="M108.149 90.6858C108.583 89.1475 110.293 88.2899 111.775 88.2738C113.257 88.2578 114.94 89.0993 115.278 90.4714C114.876 90.3361 114.438 90.3622 114.055 90.5443C113.672 90.7263 113.376 91.05 113.227 91.447C113.157 91.2565 113.035 91.0887 112.877 90.9617C112.718 90.8346 112.528 90.753 112.327 90.7255C112.125 90.698 111.92 90.7256 111.733 90.8055C111.547 90.8853 111.385 91.0144 111.266 91.179C110.844 90.8131 110.328 90.5737 109.777 90.4883C109.225 90.403 108.661 90.4752 108.149 90.6966" fill="#E0E0E0"/>
<path d="M112.413 86.832C112.413 86.8534 112.289 86.907 112.145 87.0624C111.954 87.2676 111.826 87.5235 111.777 87.7994C111.732 88.0813 111.725 88.3679 111.756 88.6517C111.775 88.7725 111.775 88.8954 111.756 89.0162C111.695 88.9073 111.659 88.7866 111.649 88.6624C111.588 88.3694 111.583 88.0677 111.633 87.7726C111.685 87.469 111.84 87.1926 112.072 86.9901C112.257 86.832 112.41 86.8159 112.413 86.832Z" fill="#E0E0E0"/>
<path d="M111.161 94.1297C111.068 93.6941 111.068 93.2439 111.161 92.8084C111.254 93.2439 111.254 93.6941 111.161 94.1297Z" fill="#E0E0E0"/>
<path d="M112.447 94.0064C112.355 93.6125 112.355 93.2023 112.447 92.8084C112.54 93.2023 112.54 93.6125 112.447 94.0064Z" fill="#E0E0E0"/>
<path d="M108.304 95.9118C108.304 95.9118 108.84 98.5034 112.043 98.3989C115.245 98.2944 115.623 95.735 115.623 95.735C115.623 95.735 115.251 96.4746 114.072 95.735C114.072 95.735 112.823 97.2706 111.442 95.6304C111.442 95.6304 109.998 96.9168 108.304 95.9118Z" fill="#E0E0E0"/>
<path d="M80.4 61.0021C80.7918 60.2805 81.3132 59.6372 81.9383 59.1047L77.0232 56.28C76.755 56.1501 76.5189 55.9625 76.3317 55.7306C76.2424 55.612 76.1941 55.4676 76.1941 55.3192C76.1941 55.1708 76.2424 55.0264 76.3317 54.9078C76.4412 54.8195 76.5689 54.7564 76.7055 54.7231C76.8422 54.6897 76.9845 54.6869 77.1223 54.7149C78.0808 54.7807 79.0249 54.9838 79.9256 55.3179C79.5344 54.7068 79.1431 54.0931 78.7491 53.4821C78.5856 53.2275 78.4195 52.8951 78.5856 52.6405C78.7518 52.3859 79.1216 52.402 79.4271 52.4878C80.0527 52.677 80.6197 53.0223 81.075 53.4911C81.5302 53.96 81.8587 54.537 82.0294 55.1678C81.9765 53.8054 82.12 52.4425 82.4556 51.121C82.5494 50.7458 82.6941 50.3331 83.0478 50.1749C83.2317 50.1118 83.4311 50.1094 83.6164 50.1683C83.8018 50.2272 83.9632 50.3442 84.0769 50.5019C84.2962 50.8212 84.4342 51.1892 84.4789 51.5739C84.8849 53.9012 84.6704 56.2944 83.8572 58.5124C84.8381 58.5821 85.8082 59.1154 86.6471 59.6836C89.7643 61.7929 92.4203 64.5136 94.4539 67.6807C94.4539 67.6807 98.5275 74.5549 93.398 78.4195C91.7578 79.6549 89.9783 79.4915 87.9254 79.5075C85.8725 79.5236 83.6991 79.9739 81.7186 79.4325C80.1374 78.9983 78.457 78.4945 77.4064 77.2349C76.0396 75.6001 76.1468 73.2149 76.5461 71.1165C77.2282 67.5452 78.5326 64.1217 80.4 61.0021Z" fill="#E0E0E0"/>
<path d="M42.6415 73.6196L42.5718 77.9638H6.82864V73.6196H42.6415Z" fill="#EBEBEB"/>
<path d="M41.0844 76.8517L36.3462 121.423C36.2992 121.864 36.0906 122.273 35.7606 122.569C35.4306 122.866 35.0025 123.031 34.5586 123.031H11.4758L9.33176 76.8544L41.0844 76.8517Z" fill="#EBEBEB"/>
<path d="M14.7748 129.013C19.1471 129.013 22.6916 125.468 22.6916 121.096C22.6916 116.724 19.1471 113.179 14.7748 113.179C10.4026 113.179 6.85812 116.724 6.85812 121.096C6.85812 125.468 10.4026 129.013 14.7748 129.013Z" fill="#E0E0E0"/>
<path d="M7.82559 78.0014C7.82559 77.9639 15.5681 77.9317 25.1196 77.9317C34.6711 77.9317 42.4137 77.9639 42.4137 78.0014C42.4137 78.0389 34.6711 78.0711 25.1196 78.0711C15.5681 78.0711 7.82559 78.0416 7.82559 78.0014Z" fill="#E0E0E0"/>
<path d="M16.0427 126.396C18.9684 125.692 20.7698 122.75 20.0664 119.825C19.3629 116.899 16.4209 115.098 13.4951 115.801C10.5694 116.504 8.76798 119.447 9.47146 122.372C10.1749 125.298 13.117 127.099 16.0427 126.396Z" fill="#EBEBEB"/>
<path d="M15.8495 71.3845L18.5912 67.7289H31.9938L35.5877 71.3845H15.8495Z" fill="#EBEBEB"/>
<path d="M20.3198 101.036V89.8068L21.8768 87.845V86.6953H26.4757V87.9817L27.998 89.504V101.036H20.3198Z" fill="#E0E0E0"/>
<path d="M24.7605 92.2027H20.9228V97.7047H24.7605V92.2027Z" fill="white"/>
<path d="M25.5779 101.036C25.5705 100.992 25.5705 100.946 25.5779 100.902C25.5779 100.797 25.5779 100.669 25.5779 100.516C25.5779 100.16 25.5779 99.6772 25.5565 99.093C25.5431 97.895 25.535 96.2361 25.535 94.4057C25.535 92.6422 25.535 91.0423 25.5538 89.8497V89.8363L26.2318 88.4829C26.3069 88.3355 26.3712 88.2149 26.4221 88.1184C26.4412 88.074 26.4665 88.0325 26.4972 87.9951C26.4871 88.0417 26.4709 88.0868 26.4489 88.1291L26.264 88.4936C26.1032 88.8366 25.8888 89.2976 25.6262 89.8658V89.8443C25.6262 91.0423 25.6262 92.6422 25.6449 94.4003C25.6449 96.2308 25.6449 97.8843 25.6235 99.0876C25.6235 99.6719 25.6074 100.16 25.602 100.511C25.602 100.663 25.602 100.792 25.5886 100.897C25.5932 100.943 25.5895 100.991 25.5779 101.036Z" fill="#F5F5F5"/>
<path d="M25.5136 89.8443C24.6355 89.9134 23.7543 89.9366 22.8738 89.914C21.9924 89.9367 21.1103 89.9134 20.2313 89.8443C21.1103 89.7737 21.9924 89.7504 22.8738 89.7747C23.7543 89.7505 24.6356 89.7737 25.5136 89.8443Z" fill="#F5F5F5"/>
<path d="M26.4757 87.7995C25.689 87.8701 24.8988 87.8934 24.1093 87.8692C23.3189 87.8933 22.5278 87.8701 21.7402 87.7995C22.5279 87.7305 23.3189 87.7072 24.1093 87.7298C24.8988 87.7072 25.6889 87.7304 26.4757 87.7995Z" fill="#F5F5F5"/>
<path d="M5.48328 74.2521L7.1824 70.2991L42.1591 70.4893L44.0217 74.2521H5.48328Z" fill="#EBEBEB"/>
<path d="M6.49631 74.2521C6.49631 74.2145 14.8981 74.1824 25.2563 74.1824C35.6145 74.1824 44.0163 74.2145 44.0163 74.2521C44.0163 74.2896 35.6172 74.3217 25.2563 74.3217C14.8954 74.3217 6.49631 74.2923 6.49631 74.2521Z" fill="#E0E0E0"/>
<path d="M42.1591 70.484C42.1591 70.5242 34.3308 70.5108 24.6774 70.4599C15.0241 70.4089 7.1958 70.3312 7.1958 70.2937C7.1958 70.2562 15.0214 70.2669 24.6801 70.3205C34.3388 70.3741 42.1591 70.4518 42.1591 70.484Z" fill="#E0E0E0"/>
<path d="M107.042 36.7964H94.0037V40.2455H107.042V36.7964Z" fill="#EBEBEB"/>
<path d="M101.529 43.8796C101.529 43.8796 101.529 43.8555 101.529 43.8153V43.6384C101.529 43.4776 101.529 43.2498 101.529 42.9604C101.529 42.3654 101.529 41.5078 101.505 40.4304L101.545 40.4706L88.5097 40.4948L88.574 40.4304V42.1778C88.574 42.7531 88.574 43.3186 88.574 43.8742L88.5097 43.8099L97.8012 43.8394L100.546 43.8555H101.285H101.481H101.548H101.489H101.304H100.575L97.8468 43.8742L88.5097 43.9037H88.44V42.1832C88.44 41.8937 88.44 41.6043 88.44 41.3122V40.4358C88.574 40.3018 88.4775 40.3983 88.5097 40.3688L101.545 40.3956H101.572V40.4358C101.572 41.5239 101.553 42.3895 101.548 42.9898C101.548 43.2766 101.548 43.499 101.548 43.6598C101.548 43.7295 101.548 43.7858 101.548 43.8287C101.544 43.8463 101.537 43.8634 101.529 43.8796Z" fill="#E0E0E0"/>
<path d="M31.3587 8.28119H18.3205V11.7303H31.3587V8.28119Z" fill="#EBEBEB"/>
<path d="M25.8459 15.3644C25.844 15.343 25.844 15.3215 25.8459 15.3001V15.1232C25.8459 14.9624 25.8459 14.7346 25.8459 14.4452C25.8459 13.8502 25.8325 12.9926 25.8245 11.9153L25.8647 11.9555L12.8265 11.9823C12.856 11.9501 12.7595 12.0466 12.8908 11.9153V15.3644L12.8265 15.3001L22.1181 15.3296L24.8597 15.3484H25.6021H25.795H25.8647H25.8031H25.6181H24.8892L22.1636 15.3671L12.8265 15.3966H12.7595V11.9206L12.8265 11.8536L25.8647 11.8804H25.9049V11.9206C25.9049 13.0087 25.8888 13.8744 25.8835 14.4747C25.8835 14.7614 25.8835 14.9839 25.8835 15.1447C25.8835 15.2144 25.8835 15.2706 25.8835 15.3135C25.8722 15.3314 25.8596 15.3484 25.8459 15.3644Z" fill="#E0E0E0"/>
<path d="M118.745 15.3698C118.744 15.3492 118.744 15.3287 118.745 15.3081V15.1312C118.745 14.9678 118.745 14.7426 118.745 14.4532C118.745 13.8582 118.745 13.0006 118.724 11.9206L118.764 11.9608L105.726 11.9876L105.793 11.9206V13.668C105.793 14.2451 105.793 14.8105 105.793 15.3644L105.729 15.3001L115.02 15.3296L117.762 15.3483H118.504H118.7H118.767C118.767 15.3483 118.748 15.3483 118.708 15.3483H118.52H117.794L115.066 15.3671L105.729 15.3966H105.664V15.3296C105.664 14.7748 105.664 14.2093 105.664 13.6331V11.9233C105.798 11.792 105.702 11.8884 105.731 11.859L118.77 11.8831H118.81V11.9233C118.81 13.014 118.794 13.877 118.788 14.48C118.788 14.7668 118.788 14.9892 118.788 15.15V15.3188C118.748 15.3537 118.748 15.3724 118.745 15.3698Z" fill="#E0E0E0"/>
<path d="M120.514 11.9206C120.512 11.8993 120.512 11.8777 120.514 11.8563C120.514 11.8054 120.514 11.7464 120.514 11.6741C120.514 11.5026 120.514 11.2721 120.514 10.9826C120.514 10.377 120.498 9.52205 120.487 8.47149L120.536 8.51973L112.702 8.53849C112.643 8.59745 112.782 8.45809 112.766 8.47149V10.2456C112.766 10.8245 112.766 11.382 112.766 11.918L112.705 11.8563L118.309 11.8858L119.941 11.9019H120.38H120.538C120.491 11.9057 120.444 11.9057 120.396 11.9019H119.968L118.36 11.9206L112.713 11.9501H112.648V11.8858C112.648 11.3498 112.648 10.7924 112.648 10.2135V8.47417L112.715 8.40717L120.549 8.42593H120.597V8.47417C120.597 9.54617 120.576 10.4011 120.571 11.0121C120.571 11.2989 120.571 11.5267 120.571 11.6928C120.571 11.859 120.517 11.926 120.514 11.9206Z" fill="#E0E0E0"/>
<path d="M69.2163 99.428C69.214 99.4075 69.214 99.3868 69.2163 99.3664V99.1895C69.2163 99.026 69.2163 98.8009 69.2163 98.5088C69.2163 97.9138 69.2029 97.0589 69.1949 95.9788L69.2351 96.019L56.1969 96.0458C56.2264 96.0164 56.1299 96.1102 56.2612 95.9788V99.428L56.1942 99.3637L65.4885 99.3932L68.2301 99.4119H68.9725H69.144H69.2137H69.152H68.9671H68.2381L65.5099 99.4307L56.1728 99.4602H56.1085V95.9949L56.1755 95.9279L69.2137 95.9547H69.2539V95.9949C69.2539 97.0857 69.2351 97.9486 69.2297 98.549C69.2297 98.8357 69.2297 99.0582 69.2297 99.219V99.3905C69.226 99.4032 69.2216 99.4158 69.2163 99.428Z" fill="#E0E0E0"/>
<path d="M70.9825 95.9895C70.9825 95.9895 70.9825 95.9654 70.9825 95.9225V95.7403C70.9825 95.5715 70.9825 95.341 70.9691 95.0489C70.9691 94.4432 70.9691 93.5909 70.9423 92.5404L70.9905 92.5886L63.1569 92.6074L63.2239 92.5404V94.3119C63.2239 94.8881 63.2239 95.4482 63.2239 95.9842L63.1596 95.9199L68.7634 95.952L70.3956 95.9681H70.8378H70.9932C70.9459 95.9719 70.8984 95.9719 70.8512 95.9681H70.425L68.817 95.9842L63.1703 96.0163H63.1086V94.2797C63.1086 93.9903 63.1086 93.6981 63.1086 93.4007V92.5082L63.1756 92.4412L71.0093 92.46H71.02V92.5082C71.02 93.5802 71.0012 94.4351 70.9959 95.0462C70.9959 95.3329 70.9959 95.5607 70.9825 95.7269C70.9913 95.8142 70.9913 95.9022 70.9825 95.9895Z" fill="#E0E0E0"/>
<path d="M22.3995 44.2602C22.3975 44.2388 22.3975 44.2173 22.3995 44.1959C22.3995 44.1503 22.3995 44.0913 22.3995 44.019C22.3995 43.8582 22.3995 43.6304 22.3995 43.3409C22.3995 42.746 22.3861 41.8884 22.378 40.811L22.4182 40.8512L9.38001 40.8753L9.44433 40.811V44.2548L9.38001 44.1878L18.6528 44.22L21.3945 44.2388H22.1368H22.3298H22.3995H22.3378H22.1529H21.4239L18.6984 44.2575L9.36125 44.287H9.29425V40.8164L9.36125 40.7494L22.3995 40.7762H22.4397V40.8164C22.4397 41.9045 22.4236 42.7701 22.4182 43.3704C22.4182 43.6572 22.4182 43.8796 22.4182 44.0404C22.4182 44.1101 22.4182 44.1664 22.4182 44.2093C22.413 44.2266 22.4067 44.2436 22.3995 44.2602Z" fill="#E0E0E0"/>
<path d="M82.7235 19.832C82.7224 19.8114 82.7224 19.7909 82.7235 19.7703V19.5935C82.7235 19.43 82.7235 19.2049 82.7235 18.9127C82.7235 18.3178 82.7101 17.4629 82.6994 16.3828L82.7396 16.423L69.68 16.4552L69.747 16.3882V18.1355C69.747 18.7126 69.747 19.2781 69.747 19.832L69.6827 19.7677L78.9742 19.7971L81.7185 19.8159H82.4582H82.6539H82.7209C82.7209 19.8159 82.7021 19.8159 82.6619 19.8159H82.477H81.748L79.0198 19.8347L69.68 19.9017H69.6157V18.1409C69.6157 17.8541 69.6157 17.562 69.6157 17.2699V16.3935L69.6827 16.3265L82.7209 16.3533H82.7637V16.3935C82.7637 17.4843 82.745 18.3473 82.7396 18.9476C82.7396 19.2343 82.7396 19.4595 82.7396 19.6176V19.7891C82.7262 19.832 82.7262 19.832 82.7235 19.832Z" fill="#E0E0E0"/>
<path d="M130.897 129.492C130.897 129.53 102.285 129.562 67.0027 129.562C31.7205 129.562 3.10345 129.53 3.10345 129.492C3.10345 129.455 31.7071 129.423 67.0027 129.423C102.298 129.423 130.897 129.444 130.897 129.492Z" fill="#263238"/>
<path d="M103.025 67.126C102.645 66.429 102.141 65.8077 101.537 65.2928L106.278 62.5619C106.538 62.4351 106.766 62.252 106.945 62.0259C107.035 61.911 107.084 61.7696 107.084 61.6239C107.084 61.4783 107.035 61.3368 106.945 61.2219C106.839 61.1371 106.716 61.0763 106.584 61.0439C106.452 61.0115 106.315 61.0083 106.182 61.0343C105.255 61.1065 104.344 61.3104 103.475 61.64L104.611 59.8658C104.769 59.6193 104.93 59.2977 104.772 59.0618C104.614 58.826 104.236 58.8314 103.968 58.9144C103.364 59.0967 102.817 59.4291 102.377 59.8805C101.937 60.3318 101.618 60.8874 101.451 61.4953C101.502 60.1781 101.364 58.8606 101.041 57.5825C100.95 57.2207 100.808 56.8214 100.468 56.6686C100.29 56.6078 100.098 56.6057 99.9185 56.6626C99.7395 56.7196 99.5835 56.8325 99.4736 56.9848C99.2581 57.294 99.1244 57.6526 99.085 58.0274C98.692 60.2746 98.8991 62.5858 99.6853 64.7274C98.7366 64.7944 97.8093 65.3116 96.9865 65.861C93.9731 67.8995 91.4062 70.5302 89.4423 73.5928C89.4423 73.5928 85.5027 80.2392 90.4607 83.9751C92.0473 85.1677 93.9233 85.9663 95.9065 85.9744C97.8897 85.9824 99.8381 85.4759 101.752 84.9533C103.282 84.5352 104.903 84.0448 105.922 82.8281C107.243 81.2496 107.138 78.9367 106.752 76.9133C106.092 73.4578 104.831 70.145 103.025 67.126Z" fill="#263238"/>
<path d="M71.9098 70.0873L71.9821 74.7586H110.437V70.0873H71.9098Z" fill="#FF725E"/>
<path d="M73.1908 73.4963L78.2828 121.444C78.3331 121.919 78.5572 122.358 78.912 122.677C79.2668 122.996 79.7271 123.173 80.2044 123.173H105.056L107.369 73.4963H73.1908Z" fill="#FF725E"/>
<path d="M110.21 122.974C111.212 118.378 108.299 113.84 103.703 112.838C99.1074 111.836 94.5693 114.749 93.5673 119.345C92.5652 123.941 95.4786 128.479 100.074 129.481C104.67 130.483 109.208 127.57 110.21 122.974Z" fill="#263238"/>
<path d="M117.687 34.4434L105.9 71.5721L109.939 70.3446L120.3 38.9913L117.687 34.4434Z" fill="#FF725E"/>
<path d="M117.48 47.5244L119.348 49.6041L115.02 61.7659L112.531 62.5029L117.48 47.5244Z" fill="#FF725E"/>
<path d="M84.0234 93.4409C84.0234 93.4409 82.9808 94.478 83.4606 95.5849C83.9403 96.6917 85.5108 98.8143 85.5108 98.8143C85.7754 97.5046 86.3457 96.276 87.175 95.2284L88.1104 95.7457L87.1 91.8007L83.3078 92.9236L84.0234 93.4409Z" fill="white"/>
<path d="M85.9744 99.6451C86.1366 99.9114 86.3545 100.14 86.613 100.314C86.8716 100.488 87.1648 100.605 87.4725 100.655C88.5445 100.838 90.8681 100.704 90.8681 100.704L90.8252 97.1848L86.7436 97.2357C86.2628 97.9491 85.9959 98.7851 85.9744 99.6451Z" fill="white"/>
<path d="M95.6465 88.0085C95.6465 88.0085 95.3223 86.5774 94.1297 86.4005C92.9371 86.2236 90.3026 86.4193 90.3026 86.4193C91.2685 87.341 92.0031 88.4778 92.4466 89.7371L91.5113 90.2543L95.408 91.4898L96.48 87.6789L95.6465 88.0085Z" fill="white"/>
<path d="M89.3539 86.363C89.0421 86.3575 88.7328 86.4202 88.4477 86.5465C88.1625 86.6729 87.9084 86.86 87.703 87.0946C86.9821 87.8986 85.8565 89.9435 85.8565 89.9435L88.8581 91.7793L90.9887 88.2953C90.6391 87.5085 90.0719 86.8381 89.3539 86.363Z" fill="white"/>
<path d="M95.1239 100.672C95.1239 100.672 96.5524 101.017 97.2465 100.028C97.9406 99.0394 98.9242 96.5899 98.9242 96.5899C97.6699 97.0501 96.3245 97.2071 94.998 97.0481L94.9471 95.9761L92.1143 98.9027L95.0623 101.545L95.1239 100.672Z" fill="white"/>
<path d="M99.3878 95.7591C99.5299 95.4812 99.6102 95.1759 99.6231 94.8641C99.6361 94.5523 99.5814 94.2414 99.4628 93.9528C99.0608 92.9531 97.7235 91.0369 97.7235 91.0369L94.7514 92.9129L96.9302 96.3648C97.7904 96.4013 98.6431 96.1911 99.3878 95.7591Z" fill="white"/>
<path d="M101.891 126.132C104.512 126.132 106.637 124.007 106.637 121.385C106.637 118.764 104.512 116.639 101.891 116.639C99.2696 116.639 97.1447 118.764 97.1447 121.385C97.1447 124.007 99.2696 126.132 101.891 126.132Z" fill="#455A64"/>
<path d="M109.095 74.772C109.095 74.8122 100.787 74.8417 90.5384 74.8417C80.2901 74.8417 71.9821 74.8122 71.9821 74.772C71.9821 74.7318 80.2901 74.7023 90.5384 74.7023C100.787 74.7023 109.095 74.7211 109.095 74.772Z" fill="#263238"/>
<path d="M110.167 70.0874C110.167 70.1249 101.591 70.1571 91.0396 70.1571C80.4884 70.1571 71.9098 70.1249 71.9098 70.0874C71.9098 70.0499 80.4724 70.0177 91.0396 70.0177C101.607 70.0177 110.167 70.0472 110.167 70.0874Z" fill="#263238"/>
<path d="M110.641 68.2462C110.604 68.2328 112.715 61.7418 115.361 53.7447C118.006 45.7476 120.185 39.2727 120.211 39.2888C120.238 39.3049 118.134 45.7905 115.492 53.7903C112.849 61.7901 110.684 68.2569 110.641 68.2462Z" fill="#263238"/>
<g opacity="0.3">
<path d="M107.417 74.772C102.574 75.0936 97.5815 75.911 92.7387 76.2299C86.3871 76.6507 79.805 77.0339 73.8581 74.772H107.417Z" fill="black"/>
</g>
<path d="M63.1596 116.355C63.481 116.45 63.7797 116.609 64.0377 116.822C64.2957 117.036 64.5076 117.3 64.6604 117.598C64.9646 118.196 65.1278 118.855 65.1374 119.525C65.1937 120.817 64.6738 122.205 64.0654 123.347C62.8514 122.581 62.3475 120.994 62.1438 120.174C61.8222 118.874 62.0286 116.333 63.1676 116.355" fill="#455A64"/>
<path d="M65.6278 125.244C65.4978 124.893 65.463 124.514 65.5271 124.145C65.5911 123.776 65.7516 123.43 65.9923 123.143C66.2377 122.861 66.5369 122.631 66.8723 122.466C67.2078 122.3 67.5728 122.204 67.946 122.181C68.1167 122.152 68.2916 122.161 68.4583 122.208C68.625 122.254 68.7795 122.336 68.9108 122.449C69.0154 122.572 69.085 122.722 69.1124 122.881C69.1397 123.04 69.1238 123.204 69.0663 123.355C68.9486 123.657 68.7525 123.923 68.4981 124.124C67.6646 124.85 66.724 125.4 65.6278 125.25" fill="#455A64"/>
<path d="M64.8694 129.35C64.8596 129.261 64.8596 129.171 64.8694 129.082C64.8694 128.895 64.8694 128.651 64.8881 128.359C64.8827 127.556 65.0085 126.757 65.2607 125.995C65.5243 125.23 65.9868 124.549 66.6007 124.022C66.7889 123.867 66.9949 123.735 67.2144 123.628C67.2737 123.599 67.3345 123.573 67.3966 123.551C67.4368 123.535 67.4609 123.527 67.4609 123.532C67.175 123.682 66.9056 123.862 66.6569 124.068C66.0651 124.599 65.6179 125.271 65.3571 126.022C65.1097 126.776 64.976 127.562 64.9605 128.356C64.9417 128.661 64.9283 128.908 64.9123 129.08C64.9065 129.171 64.8922 129.262 64.8694 129.35Z" fill="#263238"/>
<path d="M63.1756 118.303C63.1893 118.34 63.1991 118.377 63.2051 118.416C63.2239 118.499 63.248 118.606 63.2748 118.74C63.3364 119.021 63.4168 119.429 63.5133 119.935C63.7063 120.946 63.9528 122.347 64.1887 123.902C64.4245 125.456 64.6094 126.866 64.7247 127.887C64.7836 128.399 64.8292 128.814 64.856 129.098C64.856 129.235 64.8774 129.345 64.8855 129.431C64.8896 129.469 64.8896 129.508 64.8855 129.546C64.8746 129.508 64.8674 129.47 64.864 129.431C64.8506 129.348 64.8345 129.238 64.8158 129.104C64.7783 128.806 64.722 128.396 64.6577 127.895C64.521 126.877 64.328 125.467 64.0922 123.915C63.8563 122.363 63.6178 120.967 63.4436 119.946C63.3579 119.45 63.2855 119.043 63.2346 118.745C63.2131 118.611 63.1944 118.504 63.181 118.418C63.1732 118.381 63.1714 118.342 63.1756 118.303Z" fill="#263238"/>
<path d="M63.9019 126.308C63.6523 125.56 63.2276 124.881 62.6631 124.329C62.0987 123.777 61.4107 123.368 60.6564 123.135C60.2732 123.02 59.7908 122.98 59.5389 123.293C59.2869 123.607 59.4263 124.071 59.6273 124.419C60.0619 125.135 60.6986 125.707 61.4573 126.062C62.216 126.417 63.0628 126.54 63.8912 126.416" fill="#455A64"/>
<path d="M61.0182 124.309C61.1011 124.324 61.1826 124.346 61.2621 124.373C61.3532 124.4 61.4427 124.433 61.5301 124.47C61.6373 124.515 61.7606 124.556 61.8892 124.623C62.0323 124.69 62.1718 124.764 62.3073 124.845C62.4547 124.928 62.6048 125.033 62.7602 125.143C63.0937 125.391 63.3976 125.677 63.6661 125.995C63.9299 126.317 64.1564 126.667 64.3414 127.04C64.4193 127.203 64.4882 127.37 64.5478 127.541C64.6014 127.69 64.647 127.841 64.6845 127.994C64.7181 128.12 64.744 128.248 64.7622 128.377C64.7821 128.474 64.7946 128.571 64.7997 128.669C64.8092 128.752 64.8092 128.836 64.7997 128.919C64.7783 128.919 64.7595 128.562 64.6094 128.013C64.5694 127.862 64.5211 127.713 64.4647 127.568C64.403 127.401 64.3324 127.237 64.253 127.078C64.0679 126.713 63.8432 126.369 63.583 126.054C63.3189 125.743 63.0225 125.46 62.6986 125.212C62.5458 125.102 62.4011 124.995 62.2564 124.912C62.1117 124.829 61.975 124.749 61.849 124.682C61.372 124.427 61.0129 124.331 61.0182 124.309Z" fill="#263238"/>
<path d="M44.9597 118.566L44.5818 125.534C44.5818 125.534 51.531 128.257 51.5873 129.554L38.056 129.294L38.2034 118.421L44.9597 118.566Z" fill="#455A64"/>
<path d="M40.4091 124.864C40.2782 124.902 40.1658 124.986 40.0931 125.101C40.0205 125.216 39.9927 125.354 40.0151 125.488C40.0488 125.62 40.1312 125.734 40.2456 125.807C40.3601 125.88 40.498 125.907 40.6315 125.882C40.7698 125.842 40.8884 125.752 40.9645 125.63C41.0407 125.508 41.0691 125.362 41.0442 125.22C40.9955 125.086 40.8971 124.976 40.7693 124.913C40.6416 124.849 40.4943 124.838 40.3581 124.88" fill="#E0E0E0"/>
<g opacity="0.6">
<path d="M38.056 129.294L38.115 128.2L51.062 128.849C51.062 128.849 51.6597 129.117 51.598 129.546L38.056 129.294Z" fill="white"/>
</g>
<path d="M44.8016 125.464C44.8016 125.528 44.4666 125.553 44.1396 125.759C43.8127 125.965 43.6304 126.241 43.5715 126.212C43.5125 126.182 43.617 125.807 44.019 125.563C44.421 125.319 44.8177 125.403 44.8016 125.464Z" fill="#263238"/>
<path d="M46.2086 126.075C46.2246 126.14 45.9406 126.247 45.7047 126.523C45.4689 126.799 45.4072 127.094 45.3402 127.088C45.2732 127.083 45.2384 126.71 45.5305 126.373C45.8226 126.035 46.2086 126.014 46.2086 126.075Z" fill="#263238"/>
<path d="M46.9831 127.79C46.9241 127.79 46.8384 127.471 47.0153 127.112C47.1921 126.753 47.503 126.614 47.5298 126.67C47.5566 126.726 47.361 126.917 47.2216 127.206C47.0823 127.496 47.0501 127.785 46.9831 127.79Z" fill="#263238"/>
<path d="M44.7131 123.867C44.6836 123.926 44.3808 123.829 44.0083 123.848C43.6358 123.867 43.341 123.979 43.3088 123.921C43.2766 123.862 43.558 123.634 44.0002 123.618C44.4424 123.602 44.756 123.816 44.7131 123.867Z" fill="#263238"/>
<path d="M40.4224 118.657L40.1544 125.625C40.1544 125.625 47.1492 128.235 47.2243 129.527L33.6956 129.498L33.6635 118.625L40.4224 118.657Z" fill="#455A64"/>
<path d="M35.9763 125.03C35.844 125.066 35.7305 125.151 35.6592 125.269C35.5879 125.386 35.5643 125.526 35.5931 125.66C35.6285 125.79 35.712 125.903 35.8268 125.974C35.9417 126.046 36.0793 126.071 36.2122 126.046C36.3506 126.004 36.4685 125.912 36.5433 125.789C36.618 125.665 36.6442 125.518 36.6168 125.376C36.5666 125.242 36.4665 125.133 36.3376 125.071C36.2087 125.01 36.0609 125.001 35.9254 125.046" fill="#E0E0E0"/>
<g opacity="0.6">
<path d="M33.6983 129.498L33.7385 128.401L46.6937 128.841C46.6937 128.841 47.2967 129.109 47.2297 129.527L33.6983 129.498Z" fill="white"/>
</g>
<path d="M40.3769 125.555C40.3769 125.622 40.0446 125.652 39.7203 125.863C39.396 126.075 39.2191 126.351 39.1602 126.327C39.1012 126.303 39.1977 125.917 39.597 125.668C39.9963 125.419 40.393 125.496 40.3769 125.555Z" fill="#263238"/>
<path d="M41.808 126.148C41.8241 126.209 41.54 126.322 41.3122 126.6C41.0844 126.879 41.0228 127.174 40.9558 127.171C40.8888 127.169 40.8486 126.796 41.1353 126.453C41.4221 126.11 41.808 126.083 41.808 126.148Z" fill="#263238"/>
<path d="M42.5959 127.836C42.537 127.836 42.4459 127.52 42.6174 127.158C42.7889 126.796 43.0971 126.654 43.1239 126.708C43.1507 126.761 42.9604 126.957 42.8237 127.244C42.6871 127.53 42.6629 127.836 42.5959 127.836Z" fill="#263238"/>
<path d="M40.2617 123.961C40.2349 124.022 39.932 123.931 39.5568 123.961C39.1816 123.99 38.8922 124.103 38.8573 124.044C38.8225 123.985 39.1039 123.754 39.5434 123.73C39.9829 123.706 40.2938 123.91 40.2617 123.961Z" fill="#263238"/>
<path d="M28.2445 68.8894L28.7028 74.378L31.959 95.6411C31.959 95.6411 31.9054 106.093 31.8304 111.989C31.7661 117.116 33.3044 125.904 33.3044 125.904L41.8804 125.191L42.4941 95.408L42.8639 76.8275L45.4796 68.1658L28.2445 68.8894Z" fill="#263238"/>
<path d="M51.724 96.5979L50.8959 70.0659C50.8843 69.7018 50.7332 69.356 50.4738 69.1001C50.2144 68.8442 49.8666 68.6978 49.5023 68.6911L40.3019 68.5169C40.1126 68.514 39.9247 68.549 39.7492 68.6198C39.5737 68.6905 39.4141 68.7957 39.2798 68.929C39.1454 69.0623 39.0391 69.2211 38.967 69.3961C38.895 69.5711 38.8586 69.7588 38.86 69.948L39.4228 120.463C39.4266 120.799 39.5497 121.123 39.7701 121.377C39.9905 121.631 40.2939 121.798 40.6261 121.849L45.753 122.288L51.3649 99.428C51.6351 98.5099 51.7564 97.5544 51.724 96.5979Z" fill="#263238"/>
<path d="M42.8586 77.0446C42.8672 77.0851 42.8717 77.1265 42.872 77.1679C42.872 77.2563 42.8854 77.3796 42.8961 77.5324C42.9122 77.862 42.9363 78.3364 42.9685 78.934C43.0355 80.1534 43.0944 81.9169 43.1534 84.0957C43.2552 88.4534 43.2713 94.4807 43.0676 101.13C42.8639 107.779 42.5504 113.798 42.3119 118.153C42.1859 120.321 42.0841 122.079 42.0144 123.307C41.9769 123.907 41.9474 124.379 41.9259 124.708C41.9259 124.861 41.9045 124.976 41.8991 125.07C41.8972 125.113 41.8918 125.155 41.8831 125.196C41.8795 125.154 41.8795 125.112 41.8831 125.07C41.8831 124.982 41.8831 124.858 41.8831 124.706C41.8965 124.376 41.9152 123.902 41.942 123.304C42.001 122.077 42.0841 120.316 42.1886 118.145C42.3976 113.793 42.7031 107.776 42.8961 101.127C43.0891 94.478 43.1025 88.4561 43.0274 84.0984C42.9845 81.9195 42.9443 80.1561 42.8961 78.9367C42.8773 78.3337 42.8639 77.8647 42.8532 77.5351C42.8532 77.3796 42.8532 77.2671 42.8532 77.1679C42.8521 77.1267 42.8539 77.0855 42.8586 77.0446Z" fill="#455A64"/>
<path d="M40.0821 24.6801L38.6965 37.4958C38.4285 39.6774 38.0104 42.9121 41.4837 43.1989C44.5175 43.2203 45.6404 40.4787 45.9004 38.4419C46.0236 37.4744 46.1282 36.6677 46.1469 36.5659C46.1469 36.5659 49.454 36.6784 50.108 33.4758C50.4215 31.9268 50.8128 28.684 51.129 25.744C51.294 24.2222 50.8794 22.6941 49.968 21.4643C49.0566 20.2345 47.7152 19.3933 46.2112 19.1084L45.903 19.0494C42.5236 18.6099 40.4305 21.2899 40.0821 24.6801Z" fill="#FFCCB3"/>
<path d="M46.155 36.5712C44.6719 36.284 43.302 35.5781 42.2073 34.5371C42.2073 34.5371 42.7809 37.0778 46.0424 37.3994L46.155 36.5712Z" fill="#FF9A6A"/>
<path d="M45.6136 26.6526C45.5413 26.6526 45.2465 26.3846 44.7373 26.1836C44.2281 25.9826 43.7939 25.9799 43.7537 25.9156C43.7135 25.8513 43.8207 25.8513 44.0217 25.8513C44.2975 25.8579 44.5698 25.9142 44.8257 26.0174C45.0762 26.1112 45.3064 26.2522 45.5037 26.4328C45.6243 26.5668 45.6485 26.6472 45.6136 26.6526Z" fill="#263238"/>
<path d="M45.2491 27.7836C45.227 27.8942 45.1639 27.9924 45.0724 28.0585C44.981 28.1245 44.868 28.1537 44.756 28.14C44.7 28.1337 44.6458 28.1163 44.5966 28.0888C44.5474 28.0613 44.5041 28.0242 44.4694 27.9798C44.4347 27.9354 44.4093 27.8845 44.3945 27.83C44.3797 27.7756 44.376 27.7188 44.3835 27.663C44.4038 27.5496 44.4676 27.4487 44.5612 27.3816C44.6547 27.3146 44.7708 27.2867 44.8846 27.3038C44.9966 27.3191 45.0979 27.3783 45.1662 27.4682C45.2345 27.5582 45.2644 27.6716 45.2491 27.7836Z" fill="#263238"/>
<path d="M46.4498 30.3724C46.7246 30.3365 47.003 30.3365 47.2779 30.3724C47.4065 30.3724 47.5298 30.3724 47.5673 30.3001C47.6073 30.1727 47.6073 30.0362 47.5673 29.9088C47.5057 29.5818 47.4414 29.2388 47.377 28.8797C47.109 27.4137 46.959 26.2184 47.0179 26.1997C47.0769 26.1809 47.3342 27.3708 47.5914 28.8341C47.6504 29.1959 47.7094 29.539 47.763 29.8686C47.8144 30.0355 47.8039 30.2153 47.7335 30.3751C47.7075 30.4165 47.6721 30.4512 47.6302 30.4763C47.5883 30.5015 47.541 30.5164 47.4923 30.5198C47.4194 30.5299 47.3454 30.5299 47.2725 30.5198C46.9929 30.5079 46.7161 30.4584 46.4498 30.3724Z" fill="#263238"/>
<path d="M45.5332 24.388C45.4662 24.5005 45.0428 24.3612 44.5202 24.3263C43.9976 24.2915 43.558 24.3585 43.5098 24.2352C43.4884 24.1762 43.5822 24.0744 43.7778 23.9886C44.0257 23.8857 44.2944 23.8425 44.562 23.8626C44.8297 23.8826 45.089 23.9652 45.3188 24.1039C45.4876 24.2084 45.56 24.321 45.5332 24.388Z" fill="#263238"/>
<path d="M50.5689 25.9799C50.4992 26.071 50.0892 25.9129 49.5773 25.8379C49.0654 25.7628 48.634 25.7789 48.5911 25.669C48.5723 25.6181 48.6688 25.5404 48.8591 25.4814C49.1108 25.4146 49.3739 25.4019 49.6309 25.4439C49.8918 25.4807 50.142 25.572 50.3652 25.7119C50.526 25.8298 50.5984 25.9344 50.5689 25.9799Z" fill="#263238"/>
<path d="M39.8891 27.1537C39.8329 27.1189 37.6728 26.0817 37.3673 28.4133C37.0617 30.7449 39.463 30.5573 39.4764 30.5011C39.4898 30.4448 39.8891 27.1537 39.8891 27.1537Z" fill="#FFCCB3"/>
<path d="M38.8788 29.5255C38.8788 29.5255 38.8359 29.5497 38.7635 29.5711C38.6612 29.5987 38.5523 29.5873 38.458 29.5389C38.2249 29.4157 38.0694 29.0029 38.1123 28.5768C38.1324 28.3764 38.1975 28.1831 38.3026 28.0113C38.3343 27.9421 38.3823 27.8815 38.4425 27.8348C38.5027 27.7882 38.5733 27.7568 38.6483 27.7433C38.6965 27.7372 38.7453 27.748 38.7864 27.7739C38.8275 27.7998 38.8582 27.8392 38.8734 27.8854C38.8949 27.9551 38.8734 27.9979 38.8734 28.0033C38.8734 28.0087 38.9297 27.9711 38.9217 27.872C38.9158 27.8127 38.8903 27.7571 38.8493 27.7139C38.7909 27.6577 38.7132 27.626 38.6322 27.6254C38.5345 27.632 38.44 27.6636 38.3579 27.7171C38.2758 27.7706 38.2088 27.8442 38.1632 27.9309C38.0373 28.1203 37.9591 28.3373 37.9354 28.5634C37.8899 29.0324 38.0721 29.5041 38.3964 29.6354C38.4553 29.6639 38.5199 29.6787 38.5853 29.6787C38.6508 29.6787 38.7153 29.6639 38.7743 29.6354C38.86 29.5818 38.8868 29.5309 38.8788 29.5255Z" fill="#FF9A6A"/>
<path d="M46.364 31.9268C46.364 31.8652 45.9245 31.8062 45.56 31.4525C45.4057 31.2906 45.2716 31.1106 45.1607 30.9165C45.0722 30.7664 45.0052 30.6753 44.9838 30.686C44.9624 30.6967 44.9838 30.8039 45.0481 30.9727C45.1342 31.1977 45.2677 31.4015 45.4394 31.5704C45.6143 31.7406 45.8334 31.8585 46.0719 31.9107C46.2354 31.959 46.364 31.9456 46.364 31.9268Z" fill="#263238"/>
<path d="M50.3679 27.068C50.309 27.1135 49.915 27.0305 49.3763 27.1269C48.8377 27.2234 48.4625 27.4351 48.3981 27.411C48.3338 27.3869 48.4249 27.3279 48.5884 27.2288C48.8297 27.0945 49.0928 27.0038 49.3656 26.9608C49.6313 26.9105 49.904 26.9105 50.1696 26.9608C50.3331 27.0063 50.384 27.068 50.3679 27.068Z" fill="#263238"/>
<path d="M49.6952 28.4267C49.6749 28.5401 49.6112 28.641 49.5176 28.7081C49.424 28.7751 49.3079 28.803 49.1941 28.7859C49.1381 28.7796 49.0838 28.7622 49.0346 28.7347C48.9854 28.7072 48.9422 28.6701 48.9075 28.6257C48.8728 28.5812 48.8473 28.5303 48.8326 28.4759C48.8178 28.4215 48.8141 28.3647 48.8216 28.3088C48.8419 28.1955 48.9056 28.0946 48.9992 28.0275C49.0928 27.9605 49.2089 27.9325 49.3227 27.9497C49.3787 27.956 49.433 27.9734 49.4822 28.0009C49.5314 28.0284 49.5746 28.0655 49.6093 28.1099C49.644 28.1543 49.6695 28.2052 49.6842 28.2597C49.699 28.3141 49.7027 28.3709 49.6952 28.4267Z" fill="#263238"/>
<path d="M55.8512 23.3508C55.8267 23.2166 55.7519 23.0968 55.6422 23.0158C55.3992 22.8694 55.1218 22.7899 54.8382 22.7853C54.1351 22.6886 53.4628 22.4349 52.871 22.043C53.103 21.9596 53.3208 21.8412 53.5169 21.6919C53.7237 21.5411 53.8851 21.3363 53.9834 21.1C54.0817 20.8637 54.1132 20.6049 54.0744 20.3519C54.0692 20.3047 54.0532 20.2594 54.0276 20.2194C54.0021 20.1794 53.9676 20.1459 53.927 20.1214C53.7876 20.0598 53.6456 20.1857 53.533 20.2876C53.3848 20.4479 53.1958 20.565 52.9862 20.6264C52.7767 20.6878 52.5544 20.6911 52.3431 20.636C52.0528 20.5816 51.7782 20.4635 51.5391 20.2903L51.515 20.2554L51.2175 19.8749C50.4805 18.9529 49.8292 18.2963 49.1271 17.9158C48.098 17.3557 46.3104 16.9697 45.15 17.1332C43.9895 17.2967 42.872 18.0953 42.5825 19.2317C42.0117 18.6233 41.063 18.5188 40.259 18.7385H40.2402C39.3478 18.9449 38.7555 19.7918 38.4017 20.636L38.3454 20.778C38.0025 21.2059 37.5624 21.5458 37.0617 21.7696C36.9733 21.8071 36.8714 21.8554 36.8527 21.9492C36.8484 21.9971 36.8571 22.0452 36.8779 22.0886C36.8986 22.132 36.9306 22.169 36.9706 22.1957C37.1612 22.3659 37.3873 22.4913 37.6326 22.5629C37.5307 22.7627 37.4123 22.9536 37.2788 23.1337C37.1636 23.2865 37.0242 23.4687 37.0885 23.6483C37.1203 23.7153 37.1716 23.7712 37.2357 23.8085C37.2998 23.8458 37.3737 23.8629 37.4476 23.8573C37.5957 23.8424 37.739 23.7967 37.8684 23.7233L37.5012 24.3746C37.8067 24.4641 38.1289 24.4807 38.4419 24.4228C38.5019 25.2552 38.6074 26.0837 38.7582 26.9045C39.1173 26.9447 39.4657 26.9045 39.664 27.1243C39.932 27.4298 40.007 27.9524 40.5296 27.8184C40.7976 27.7487 41.0871 27.2449 41.2023 26.9956C41.964 25.3367 42.3598 23.5334 42.3628 21.708C42.7629 21.3697 43.2241 21.1114 43.7215 20.9469L43.6786 20.979C44.6193 20.77 45.6806 20.5797 46.4873 21.1023C47.1171 21.5097 47.428 22.2467 47.8621 22.855C48.2383 23.4105 48.7263 23.8814 49.2948 24.2377C49.8633 24.5939 50.4999 24.8277 51.1639 24.924C51.1773 25.9156 50.928 27.143 50.8718 28.0596L51.8848 26.6874C51.957 26.59 52.0241 26.489 52.0858 26.3846L52.1072 26.3524C52.2044 26.1838 52.31 26.0201 52.4235 25.862C52.519 25.9625 52.6478 26.025 52.7859 26.0378C52.924 26.0507 53.062 26.0131 53.1745 25.932C53.287 25.8509 53.3663 25.7318 53.3977 25.5967C53.4292 25.4617 53.4106 25.3198 53.3454 25.1973C53.2795 25.0825 53.1974 24.9778 53.1015 24.8865C53.2003 25.0076 53.3287 25.1011 53.4743 25.1579C53.6198 25.2148 53.7776 25.2329 53.9323 25.2107C54.0867 25.1828 54.2275 25.1046 54.3327 24.9882C54.4379 24.8718 54.5016 24.7239 54.5139 24.5675C54.5168 24.4591 54.4901 24.352 54.4368 24.2575C54.3834 24.1631 54.3054 24.085 54.211 24.0315C54.6091 24.1102 55.0216 24.0682 55.3956 23.9109C55.6475 23.8332 55.8968 23.6456 55.8512 23.3508Z" fill="#263238"/>
<path d="M43.55 19.7221C43.4247 19.8037 43.3048 19.8932 43.1909 19.9901C42.8997 20.2706 42.6856 20.6213 42.5691 21.0085C42.4823 21.2698 42.4221 21.5391 42.3896 21.8125C42.3547 22.1127 42.3413 22.4343 42.3253 22.7719C42.3152 23.131 42.282 23.4891 42.2261 23.8439C42.1942 24.0311 42.1485 24.2156 42.0894 24.396C42.0405 24.5869 41.9436 24.7622 41.808 24.9052C41.7446 24.9619 41.6675 25.0011 41.5843 25.0189C41.5012 25.0368 41.4148 25.0327 41.3337 25.0071C41.1794 24.9619 41.044 24.8678 40.9477 24.7391C40.8006 24.4776 40.7266 24.1814 40.7333 23.8815L40.8003 23.8975C40.6737 24.1303 40.5139 24.3433 40.326 24.53C40.145 24.7015 39.9053 24.7973 39.656 24.798C39.5401 24.7947 39.4272 24.7604 39.329 24.6989C39.2382 24.6382 39.1681 24.5512 39.128 24.4496C39.0902 24.3563 39.0782 24.2544 39.0932 24.1548C39.1075 24.0617 39.1551 23.9769 39.2272 23.9163L39.2567 23.9485C39.0357 24.1483 38.7743 24.2982 38.4902 24.388C38.4164 24.4122 38.3412 24.4319 38.2651 24.4469C38.2383 24.4496 38.2114 24.4496 38.1847 24.4469C38.2096 24.4359 38.2356 24.4279 38.2624 24.4228C38.3133 24.4228 38.3883 24.388 38.4821 24.3531C38.7546 24.2538 39.0043 24.1006 39.2165 23.9029L39.2459 23.9377C39.1845 23.999 39.1439 24.0781 39.1299 24.1637C39.116 24.2493 39.1294 24.3372 39.1682 24.4148C39.2052 24.5056 39.2687 24.5831 39.3505 24.6372C39.44 24.692 39.543 24.7208 39.6479 24.7203C39.8822 24.7153 40.1052 24.6191 40.2697 24.4523C40.4532 24.2757 40.6103 24.0735 40.736 23.852L40.795 23.7528V23.8681C40.792 24.1533 40.8641 24.4342 41.004 24.6828C41.0885 24.8024 41.21 24.8909 41.3497 24.9347C41.4185 24.9562 41.4916 24.9597 41.562 24.9446C41.6324 24.9296 41.6978 24.8967 41.7517 24.8489C41.8806 24.7125 41.9728 24.5456 42.0197 24.3639C42.0793 24.1891 42.125 24.0098 42.1564 23.8279C42.2118 23.4783 42.2458 23.1257 42.2583 22.7719C42.277 22.4343 42.2904 22.11 42.3306 21.8071C42.3664 21.5272 42.4301 21.2516 42.5209 20.9844C42.6438 20.5918 42.8696 20.2392 43.1748 19.9633C43.2859 19.8629 43.4126 19.7815 43.55 19.7221Z" fill="#455A64"/>
<path d="M53.2034 24.0369L53.1739 24.0556L53.0854 24.1039C53.0388 24.1328 52.9894 24.157 52.938 24.1762C52.871 24.2094 52.801 24.2363 52.729 24.2566C52.2723 24.4048 51.7859 24.4361 51.314 24.3478C50.6104 24.2185 49.9591 23.8891 49.438 23.399C48.8128 22.7907 48.3186 22.0611 47.9854 21.255C47.7951 20.8343 47.6477 20.4108 47.4816 20.0142C47.3291 19.63 47.1234 19.2692 46.8705 18.9422C46.643 18.6482 46.3454 18.416 46.0049 18.2668C45.8488 18.2053 45.6844 18.1674 45.5171 18.1543C45.3635 18.1452 45.2093 18.157 45.0588 18.1891C44.7971 18.2452 44.5504 18.3567 44.3352 18.5161C44.1736 18.6374 44.0317 18.7829 43.9145 18.9476C43.8222 19.0937 43.7475 19.2502 43.692 19.4139C43.692 19.4139 43.692 19.4139 43.692 19.3817C43.692 19.3496 43.7081 19.3228 43.7188 19.2826C43.7605 19.1595 43.8162 19.0417 43.885 18.9315C44.0028 18.7624 44.1477 18.6139 44.3138 18.492C44.5314 18.3239 44.7829 18.2051 45.0508 18.1436C45.2074 18.1094 45.3678 18.0959 45.5278 18.1034C45.7009 18.1148 45.8709 18.1537 46.0317 18.2186C46.3848 18.3678 46.6939 18.6049 46.9295 18.9074C47.188 19.2329 47.3983 19.5939 47.5539 19.9794C47.7254 20.3787 47.8702 20.8021 48.0578 21.2175C48.3894 22.0096 48.877 22.7269 49.4916 23.3267C49.9993 23.8117 50.6355 24.1409 51.3247 24.2754C51.7885 24.3669 52.2675 24.3449 52.721 24.2111C52.8848 24.1616 53.0458 24.1035 53.2034 24.0369Z" fill="#455A64"/>
<path d="M53.6616 22.6487C53.622 22.6751 53.5798 22.6976 53.5357 22.7157C53.4178 22.7695 53.2959 22.8143 53.1712 22.8497C52.9873 22.9042 52.799 22.9427 52.6084 22.9649C52.3731 22.988 52.1362 22.988 51.9009 22.9649C51.6651 22.9441 51.4318 22.901 51.2041 22.8363C51.0201 22.7821 50.8409 22.713 50.6681 22.6299C50.5519 22.5739 50.4399 22.5094 50.3331 22.437C50.258 22.3834 50.2178 22.3539 50.2205 22.3485C50.2232 22.3432 50.3974 22.4504 50.6922 22.5817C50.8663 22.6567 51.0454 22.7194 51.2282 22.7693C51.4523 22.8282 51.6809 22.8686 51.9116 22.8899C52.1426 22.9088 52.3747 22.9088 52.6057 22.8899C52.7937 22.8717 52.98 22.8394 53.1632 22.7934C53.4714 22.7184 53.6563 22.6353 53.6616 22.6487Z" fill="#455A64"/>
<path d="M24.0182 47.6879C24.0182 47.6879 27.7943 36.1023 32.2484 36.3488L38.8412 36.1532C38.8412 36.1532 40.1035 39.5193 42.5236 39.7498C44.9436 39.9802 45.9004 38.4419 45.9004 38.4419C45.9004 38.4419 52.796 41.1648 53.6429 44.0485C54.4898 46.9322 53.8466 54.6238 53.8466 54.6238L49.1217 54.3772L49.4138 60.5412L51.7588 72.486L27.9765 72.955L28.6465 54.463L29.3728 49.1673L24.0182 47.6879Z" fill="#455A64"/>
<path d="M30.82 41.1943C30.821 41.3153 30.8066 41.436 30.7771 41.5534C30.7262 41.8214 30.6673 42.1403 30.5976 42.5236C30.4448 43.341 30.2358 44.4719 30.0267 45.7235C29.8177 46.975 29.6462 48.114 29.5256 48.9395C29.4666 49.3227 29.4184 49.6497 29.3782 49.915C29.3667 50.0363 29.3416 50.1558 29.3031 50.2714C29.2885 50.1504 29.2885 50.028 29.3031 49.907C29.3192 49.6738 29.3514 49.3388 29.3969 48.9234C29.4881 48.0953 29.6408 46.9536 29.8499 45.7074C30.0589 44.4612 30.2894 43.3249 30.4716 42.5102C30.5627 42.1028 30.6431 41.7758 30.7021 41.5507C30.7271 41.4276 30.7666 41.308 30.82 41.1943Z" fill="#263238"/>
<path d="M49.1217 54.3772C49.1217 54.3772 48.8537 59.287 50.8021 60.6752C51.7079 61.3184 55.7922 61.305 55.7922 61.305L53.8466 54.6238L49.1217 54.3772Z" fill="#FFCCB3"/>
<g opacity="0.3">
<path d="M49.2798 57.888C50.1204 54.8674 50.7764 51.7985 51.2443 48.6982C50.6011 49.7461 49.9043 52.0911 49.3495 53.6294C48.9207 54.8328 49.1324 56.1084 49.2825 57.7808" fill="black"/>
</g>
<path d="M51.7589 47.4789C51.6401 47.8321 51.4996 48.1776 51.3381 48.5134C51.0701 49.1458 50.7002 50.0222 50.3277 51.0058C49.9552 51.9893 49.647 52.8818 49.4326 53.541C49.3312 53.8998 49.2068 54.2516 49.0601 54.5943C49.0632 54.4932 49.0804 54.3931 49.111 54.2968C49.1539 54.1092 49.2236 53.8385 49.32 53.5062C49.5076 52.8416 49.7971 51.933 50.1696 50.9468C50.5421 49.9606 50.9307 49.0869 51.2416 48.4651C51.3917 48.1542 51.5096 47.905 51.6088 47.7335C51.6463 47.6419 51.6969 47.5561 51.7589 47.4789Z" fill="#263238"/>
<path d="M45.2652 58.8688C45.1869 58.9685 45.0969 59.0585 44.9972 59.1368C44.815 59.3003 44.5443 59.5335 44.2093 59.8149C43.5393 60.3804 42.6013 61.1415 41.5293 61.9589C40.4573 62.7763 39.4818 63.4784 38.7582 63.9769C38.3991 64.2262 38.1043 64.4218 37.8979 64.5558C37.7942 64.6316 37.6828 64.6962 37.5656 64.7488C37.6544 64.6559 37.7533 64.5732 37.8604 64.5022L38.6912 63.8804C39.3933 63.3444 40.3662 62.6369 41.4275 61.8249C42.4887 61.0128 43.4428 60.2705 44.1316 59.7291L44.9517 59.0913C45.0485 59.0068 45.1535 58.9323 45.2652 58.8688Z" fill="#263238"/>
<path d="M67.1019 40.2482L63.6366 36.373C63.4932 36.2118 63.3075 36.0939 63.1006 36.0326L59.9623 35.1777C59.7897 35.1314 59.6087 35.1262 59.4337 35.1625C59.2587 35.1988 59.0946 35.2756 58.9547 35.3867L55.9209 37.7987C55.7326 37.9495 55.5966 38.1558 55.5323 38.3883L52.7558 48.5991C52.7165 48.7436 52.7062 48.8944 52.7253 49.0429C52.7445 49.1914 52.7928 49.3346 52.8676 49.4644C52.9423 49.5941 53.0419 49.7078 53.1607 49.799C53.2795 49.8901 53.4151 49.9569 53.5598 49.9954L63.1194 52.595C63.2637 52.6343 63.4143 52.6446 63.5626 52.6254C63.7109 52.6062 63.854 52.5578 63.9835 52.4831C64.1131 52.4083 64.2265 52.3087 64.3174 52.1899C64.4083 52.0712 64.4747 51.9356 64.513 51.791L67.3699 41.2934C67.4155 41.1107 67.415 40.9194 67.3682 40.7369C67.3214 40.5544 67.2299 40.3865 67.1019 40.2482ZM65.4483 41.5346C65.3661 41.608 65.2703 41.6645 65.1663 41.7009C65.0623 41.7372 64.9521 41.7527 64.8421 41.7465C64.7321 41.7403 64.6244 41.7125 64.5252 41.6646C64.4259 41.6168 64.3371 41.5498 64.2637 41.4676L62.0608 39.0047C61.9875 38.9228 61.931 38.8272 61.8947 38.7234C61.8584 38.6196 61.8429 38.5097 61.8491 38.3999C61.8553 38.2901 61.8832 38.1826 61.931 38.0836C61.9788 37.9846 62.0457 37.896 62.1278 37.8228C62.2932 37.6751 62.5105 37.5989 62.732 37.611C62.9535 37.6231 63.1612 37.7223 63.3097 37.8872L65.5126 40.3528C65.5866 40.4348 65.6436 40.5307 65.6804 40.6349C65.7172 40.739 65.7331 40.8494 65.7271 40.9597C65.7212 41.0701 65.6934 41.1781 65.6456 41.2777C65.5977 41.3773 65.5307 41.4664 65.4483 41.54V41.5346Z" fill="#455A64"/>
<path d="M63.2595 34.9587L60.2934 34.1517L60.0092 35.1964L62.9753 36.0034L63.2595 34.9587Z" fill="#455A64"/>
<path d="M63.793 34.249L60.1131 33.2478C59.9575 33.2055 59.7969 33.2973 59.7546 33.453L59.5266 34.2909C59.4843 34.4466 59.5761 34.6071 59.7318 34.6494L63.4117 35.6506C63.5674 35.693 63.7279 35.6011 63.7702 35.4454L63.9982 34.6076C64.0406 34.4519 63.9487 34.2914 63.793 34.249Z" fill="#263238"/>
<path d="M52.6781 47.7254C52.6763 47.6002 52.6348 47.4789 52.5597 47.3787C52.4846 47.2786 52.3797 47.2048 52.26 47.168C52.3194 47.1623 52.3769 47.1443 52.4289 47.1152C52.4809 47.086 52.5263 47.0464 52.5621 46.9987C52.5979 46.951 52.6234 46.8964 52.6369 46.8384C52.6504 46.7803 52.6517 46.72 52.6406 46.6615C52.6405 46.5366 52.6063 46.4141 52.5416 46.3073C52.4769 46.2006 52.3841 46.1136 52.2734 46.0558C52.3889 46.0265 52.4895 45.9556 52.5558 45.8567C52.6221 45.7577 52.6494 45.6377 52.6325 45.5198C52.595 45.0615 52.0965 44.9972 52.0965 44.9972C52.0965 44.9972 52.5548 44.9597 52.5575 44.5362C52.5602 44.1128 52.0724 44.0217 52.0724 44.0217L52.4744 43.5446L52.3458 41.9822C52.3381 41.8977 52.3127 41.8158 52.2711 41.7419C52.2295 41.668 52.1728 41.6038 52.1046 41.5534L50.644 40.4814L48.8162 40.6341L48.5482 40.6556L47.2859 41.9661C47.2272 42.0273 47.182 42.1003 47.1534 42.1802C47.1247 42.2601 47.1133 42.3451 47.1198 42.4297L47.2511 43.9922L47.7255 44.3942C47.7255 44.3942 47.2618 44.5657 47.3342 44.9838C47.3606 45.1021 47.4301 45.2064 47.5292 45.2763C47.6283 45.3461 47.7498 45.3766 47.8702 45.3617C47.7391 45.3983 47.6238 45.4774 47.5424 45.5865C47.4609 45.6956 47.4179 45.8285 47.4199 45.9647C47.4209 46.0857 47.467 46.2021 47.5493 46.2908C47.6316 46.3796 47.7442 46.4344 47.8648 46.4444C47.7643 46.5182 47.6862 46.6183 47.6389 46.7337C47.5916 46.849 47.577 46.9752 47.5968 47.0983C47.5956 47.158 47.6067 47.2172 47.6296 47.2724C47.6524 47.3275 47.6865 47.3773 47.7295 47.4186C47.7726 47.4599 47.8238 47.4918 47.8798 47.5123C47.9359 47.5329 47.9955 47.5415 48.0551 47.5378C47.9434 47.5941 47.8523 47.6843 47.795 47.7955C47.7377 47.9068 47.7171 48.0333 47.7362 48.1569C47.7323 48.2786 47.77 48.398 47.8431 48.4955C47.9162 48.5929 48.0202 48.6625 48.1382 48.6929L47.6879 49.2718L47.9559 52.5762C48.0354 52.7788 48.1813 52.9485 48.3696 53.0576C48.558 53.1666 48.7778 53.2085 48.9931 53.1765C49.2083 53.1705 49.4136 53.0851 49.5695 52.9366C49.7254 52.7881 49.8208 52.5872 49.8373 52.3725C49.8373 52.3725 49.9097 53.0935 50.5797 53.0506H50.6681C51.3381 52.9836 51.2899 52.26 51.2899 52.26C51.3404 52.4704 51.4675 52.6545 51.6463 52.7764C51.8252 52.8983 52.043 52.9492 52.2573 52.9193C52.4746 52.9144 52.6838 52.8363 52.8511 52.6977C53.0184 52.559 53.134 52.368 53.1793 52.1555L52.9113 48.8483L52.3753 48.3525C52.4921 48.3012 52.5869 48.2098 52.6424 48.0949C52.6979 47.9799 52.7106 47.8489 52.6781 47.7254Z" fill="#E0E0E0"/>
<path d="M50.534 39.3234L48.4535 39.4966C48.3591 39.5045 48.289 39.5874 48.2968 39.6818L48.3635 40.483C48.3714 40.5774 48.4543 40.6476 48.5487 40.6397L50.6292 40.4665C50.7236 40.4586 50.7938 40.3757 50.7859 40.2813L50.7192 39.4801C50.7113 39.3857 50.6284 39.3155 50.534 39.3234Z" fill="#263238"/>
<path d="M52.0644 44.0163C51.3253 44.1469 50.5788 44.2319 49.8292 44.2709C49.0829 44.3566 48.3319 44.396 47.5807 44.3888C48.3197 44.2544 49.0661 44.1649 49.8158 44.1208C50.5624 44.0387 51.3134 44.0038 52.0644 44.0163Z" fill="#263238"/>
<path d="M52.4315 43.5392C51.5762 43.6815 50.7137 43.7772 49.848 43.826C48.9866 43.9214 48.1205 43.9697 47.2538 43.9707C48.1127 43.8286 48.9787 43.7328 49.848 43.684C50.706 43.5898 51.5684 43.5415 52.4315 43.5392Z" fill="#263238"/>
<path d="M52.2011 45.024C51.4664 45.1546 50.7244 45.2396 49.9793 45.2786C49.2393 45.3643 48.4946 45.4037 47.7496 45.3965C48.4829 45.2605 49.224 45.171 49.9686 45.1285C50.7099 45.048 51.4555 45.0131 52.2011 45.024Z" fill="#263238"/>
<path d="M52.2841 46.021C51.5504 46.1514 50.8093 46.2365 50.0651 46.2756C49.3241 46.3613 48.5785 46.3998 47.8326 46.3908C48.5666 46.2619 49.3076 46.1769 50.0517 46.1362C50.7928 46.0521 51.5383 46.0136 52.2841 46.021Z" fill="#263238"/>
<path d="M52.3753 47.1331C51.6416 47.2641 50.9005 47.3491 50.1562 47.3877C49.4162 47.4735 48.6714 47.512 47.9265 47.503C48.6602 47.3723 49.4013 47.2873 50.1455 47.2484C50.8857 47.1643 51.6303 47.1258 52.3753 47.1331Z" fill="#263238"/>
<path d="M52.4691 48.24C51.7353 48.3704 50.9942 48.4555 50.25 48.4946C49.5089 48.5787 48.7634 48.6172 48.0176 48.6098C48.7519 48.4747 49.4939 48.3852 50.2393 48.3418C50.9796 48.2606 51.7244 48.2266 52.4691 48.24Z" fill="#263238"/>
<path d="M52.9112 48.8376C52.0485 48.9784 51.179 49.0741 50.3063 49.1244C49.4369 49.2214 48.5628 49.2706 47.6879 49.2718C48.5507 49.131 49.4202 49.0353 50.2929 48.985C51.1624 48.8896 52.0365 48.8404 52.9112 48.8376Z" fill="#263238"/>
<path d="M58.6143 43.7322C58.6236 43.588 58.5869 43.4446 58.5093 43.3227C58.4317 43.2008 58.3174 43.1068 58.1828 43.0542C58.2513 43.0523 58.3187 43.0363 58.3807 43.0072C58.4427 42.978 58.498 42.9363 58.5431 42.8846C58.5882 42.833 58.6221 42.7726 58.6426 42.7072C58.6632 42.6418 58.67 42.5729 58.6625 42.5048C58.6709 42.3615 58.6408 42.2185 58.5753 42.0908C58.5098 41.9631 58.4113 41.8553 58.29 41.7785C58.4268 41.7542 58.5496 41.6798 58.6344 41.5697C58.7191 41.4597 58.7598 41.322 58.7483 41.1835C58.7483 40.6475 58.164 40.5376 58.164 40.5376C58.164 40.5376 58.7 40.5376 58.7322 40.0472C58.7644 39.5568 58.2176 39.4147 58.2176 39.4147L58.7188 38.9002L58.6974 37.0938C58.6962 36.9965 58.6743 36.9005 58.6332 36.8122C58.5921 36.724 58.5327 36.6455 58.4588 36.582L56.8669 35.2178L54.7551 35.242H54.4522L52.8925 36.6436C52.8202 36.7089 52.7626 36.7887 52.7233 36.8779C52.6841 36.967 52.6641 37.0634 52.6647 37.1608L52.6861 38.9672L53.2007 39.4683C53.2007 39.4683 52.6647 39.6291 52.6995 40.1142C52.7205 40.2512 52.791 40.3758 52.8977 40.4642C53.0044 40.5526 53.1399 40.5988 53.2784 40.5939C53.1246 40.6255 52.9856 40.707 52.8828 40.8257C52.7801 40.9445 52.7194 41.0938 52.7102 41.2505C52.7019 41.3895 52.7456 41.5266 52.8328 41.6351C52.92 41.7436 53.0444 41.8157 53.1819 41.8374C53.0616 41.9154 52.9647 42.0247 52.9019 42.1537C52.8391 42.2826 52.8127 42.4262 52.8255 42.5691C52.8203 42.6372 52.8293 42.7056 52.8517 42.7701C52.8741 42.8346 52.9095 42.8938 52.9557 42.9441C53.0019 42.9944 53.058 43.0346 53.1204 43.0623C53.1829 43.09 53.2503 43.1045 53.3186 43.1051C53.1852 43.1611 53.0729 43.2579 52.9978 43.3816C52.9227 43.5053 52.8887 43.6496 52.9005 43.7938C52.8881 43.9327 52.9225 44.0718 52.9983 44.1888C53.074 44.3059 53.1868 44.3942 53.3186 44.4397L52.7558 45.0695L52.7987 48.8912C52.874 49.13 53.0277 49.3363 53.2349 49.4769C53.4421 49.6174 53.6907 49.684 53.9404 49.6657C54.1892 49.6769 54.4333 49.5949 54.6251 49.4359C54.8168 49.2768 54.9425 49.0521 54.9775 48.8054C54.9775 48.8054 55.0016 49.6389 55.7815 49.6443H55.8834C56.6579 49.6202 56.6632 48.784 56.6632 48.784C56.7034 49.0301 56.8338 49.2524 57.029 49.4075C57.2243 49.5627 57.4704 49.6394 57.7192 49.6228C57.9696 49.635 58.2167 49.5622 58.4205 49.4162C58.6244 49.2703 58.7729 49.0598 58.8421 48.8188L58.7965 44.9972L58.2176 44.3808C58.3465 44.3322 58.4554 44.242 58.5272 44.1245C58.5991 44.0071 58.6297 43.869 58.6143 43.7322Z" fill="#E0E0E0"/>
<path d="M58.2177 39.4201C57.3562 39.499 56.4911 39.5321 55.6261 39.5192C54.7622 39.5532 53.897 39.5398 53.0345 39.479C53.896 39.3999 54.7611 39.3668 55.6261 39.3799C56.49 39.3459 57.3552 39.3594 58.2177 39.4201Z" fill="#263238"/>
<path d="M58.692 38.9028C58.692 38.943 57.352 38.9886 55.6985 39.0074C54.0449 39.0261 52.7049 39.0074 52.7049 38.9725C52.7049 38.9377 54.0449 38.8868 55.6958 38.868C57.3467 38.8492 58.6759 38.86 58.692 38.9028Z" fill="#263238"/>
<path d="M58.29 40.5778C57.4357 40.6568 56.5778 40.6899 55.7199 40.677C54.8613 40.7109 54.0015 40.6975 53.1444 40.6368C53.9996 40.5579 54.8585 40.5248 55.7172 40.5376C56.5749 40.5053 57.4337 40.5187 58.29 40.5778Z" fill="#263238"/>
<path d="M58.3034 41.7437C57.4491 41.8226 56.5911 41.8557 55.7333 41.8428C54.8747 41.8751 54.015 41.8617 53.1578 41.8026C54.0129 41.7221 54.8718 41.689 55.7306 41.7035C56.5883 41.6696 57.4472 41.683 58.3034 41.7437Z" fill="#263238"/>
<path d="M58.3195 43.0274C57.4644 43.1079 56.6055 43.141 55.7467 43.1265C54.889 43.1605 54.0301 43.1471 53.1739 43.0863C54.0291 43.0074 54.8879 42.9742 55.7467 42.9872C56.6044 42.9549 57.4632 42.9683 58.3195 43.0274Z" fill="#263238"/>
<path d="M58.3329 44.3138C57.4786 44.3928 56.6206 44.4259 55.7628 44.413C54.9051 44.4453 54.0462 44.4319 53.19 44.3728C54.0442 44.2921 54.9022 44.259 55.7601 44.2736C56.6178 44.2397 57.4767 44.2531 58.3329 44.3138Z" fill="#263238"/>
<path d="M58.7912 45.024C58.7912 45.0642 57.4512 45.1098 55.7735 45.1285C54.0958 45.1473 52.7558 45.1285 52.7558 45.0937C52.7558 45.0588 54.0958 45.0106 55.7735 44.9892C57.4512 44.9677 58.7912 44.9918 58.7912 45.024Z" fill="#263238"/>
<path d="M56.8035 33.8992L54.4801 33.926C54.3484 33.9275 54.2428 34.0355 54.2444 34.1672L54.2541 35.0114C54.2556 35.1431 54.3636 35.2486 54.4953 35.2471L56.8187 35.2204C56.9505 35.2188 57.056 35.1108 57.0545 34.9791L57.0448 34.135C57.0433 34.0032 56.9352 33.8977 56.8035 33.8992Z" fill="#455A64"/>
<path d="M54.6935 35.2339C54.6219 35.0284 54.5936 34.8104 54.6104 34.5934C54.5834 34.3785 54.6017 34.1603 54.664 33.9529C54.7393 34.1566 54.7686 34.3744 54.7497 34.5907C54.7762 34.8067 54.757 35.0258 54.6935 35.2339Z" fill="#263238"/>
<path d="M55.1678 35.1938C55.0961 34.9892 55.0678 34.772 55.0847 34.5559C55.0563 34.34 55.0755 34.1204 55.141 33.9127C55.2428 34.3327 55.2519 34.7699 55.1678 35.1938Z" fill="#263238"/>
<path d="M55.6475 35.2125C55.576 35.007 55.5477 34.7889 55.5645 34.572C55.5375 34.3571 55.5558 34.1389 55.6181 33.9315C55.6934 34.1351 55.7226 34.353 55.7038 34.5693C55.7303 34.7853 55.7111 35.0044 55.6475 35.2125Z" fill="#263238"/>
<path d="M56.1621 35.1884C56.0905 34.9829 56.0623 34.7648 56.079 34.5479C56.0505 34.3328 56.0697 34.1141 56.1353 33.9073C56.207 34.1119 56.2353 34.3291 56.2184 34.5452C56.2468 34.7611 56.2275 34.9807 56.1621 35.1884Z" fill="#263238"/>
<path d="M56.6391 35.175C56.5676 34.9695 56.5393 34.7514 56.5561 34.5344C56.5275 34.3194 56.5468 34.1007 56.6123 33.8939C56.6844 34.0984 56.7127 34.3157 56.6954 34.5318C56.7235 34.7477 56.7043 34.9672 56.6391 35.175Z" fill="#263238"/>
<path d="M45.0381 49.346L66.4633 49.0992C67.0997 49.0919 67.6097 48.57 67.6024 47.9336L67.5909 46.9367C67.5835 46.3003 67.0617 45.7903 66.4253 45.7977L45.0001 46.0445C44.3637 46.0518 43.8537 46.5737 43.861 47.2101L43.8725 48.207C43.8799 48.8434 44.4017 49.3534 45.0381 49.346Z" fill="#FF725E"/>
<path d="M65.7002 48.7545L63.1998 71.0548C63.1646 71.3591 63.0214 71.6407 62.7961 71.8483C62.5708 72.0558 62.2785 72.1756 61.9723 72.1858L49.2557 72.5931C48.9329 72.6036 48.6182 72.4908 48.3753 72.2779C48.1325 72.0649 47.9797 71.7675 47.9479 71.4461L45.7074 48.851C45.6324 48.106 46.2166 47.4574 46.8089 47.4521L64.2691 47.3368C65.1883 47.3315 65.786 47.9961 65.7002 48.7545Z" fill="#FF725E"/>
<path d="M51.3033 57.6575C51.3033 57.6575 50.6842 58.2713 50.9683 58.9279C51.3225 59.5972 51.7285 60.2378 52.1823 60.8441C52.3397 60.068 52.6775 59.34 53.1685 58.7188L53.7233 59.0243L53.1283 56.6847L50.8798 57.352L51.3033 57.6575Z" fill="white"/>
<path d="M52.4557 61.3344C52.5523 61.4922 52.6818 61.6272 52.8353 61.7303C52.9889 61.8335 53.1629 61.9023 53.3454 61.9321C54.0137 61.9937 54.6857 62.0036 55.3554 61.9616L55.3313 59.8765L52.9193 59.906C52.6318 60.3282 52.4709 60.8238 52.4557 61.3344Z" fill="white"/>
<path d="M58.1908 54.4415C58.1908 54.4415 58.0006 53.5919 57.293 53.482C56.5385 53.4222 55.7803 53.4222 55.0258 53.482C55.598 54.0282 56.034 54.7011 56.2988 55.4465L55.744 55.7654L58.0434 56.5051L58.6759 54.2458L58.1908 54.4415Z" fill="white"/>
<path d="M54.463 53.4633C54.2783 53.4614 54.0954 53.4992 53.9267 53.5741C53.7579 53.649 53.6072 53.7593 53.4848 53.8975C53.0771 54.4311 52.7116 54.9956 52.3913 55.5859L54.1682 56.674L55.4304 54.6104C55.2238 54.1437 54.8881 53.7457 54.463 53.4633Z" fill="white"/>
<path d="M57.888 61.9429C57.888 61.9429 58.7349 62.1492 59.1449 61.5623C59.5308 60.9109 59.8642 60.2298 60.1419 59.5255C59.3984 59.7968 58.6013 59.8886 57.8156 59.7935L57.7862 59.161L56.1058 60.8923L57.8478 62.4601L57.888 61.9429Z" fill="white"/>
<path d="M60.4045 59.035C60.4895 58.8704 60.5376 58.6892 60.5455 58.5041C60.5534 58.3189 60.5208 58.1343 60.4501 57.963C60.1521 57.3612 59.8081 56.7832 59.421 56.2344L57.6575 57.352L58.9493 59.3968C59.4589 59.4172 59.9638 59.2917 60.4045 59.035Z" fill="white"/>
<path d="M62.6396 62.653C62.5994 62.653 62.8648 59.622 63.2266 55.8887C63.5884 52.1555 63.9502 49.1003 63.9529 49.1378C63.9555 49.1753 63.7277 52.1689 63.3659 55.9021C63.0041 59.6354 62.6772 62.6584 62.6396 62.653Z" fill="#263238"/>
<path d="M66.0084 49.1056C66.0084 49.1458 61.4524 49.2262 55.8244 49.2878C50.1964 49.3495 45.6404 49.3682 45.6404 49.3307C45.6404 49.2932 50.1964 49.2101 55.8244 49.1485C61.4524 49.0868 66.0084 49.0681 66.0084 49.1056Z" fill="#263238"/>
<path d="M64.2289 63.0389C64.2289 63.0389 66.0647 63.3793 65.6091 65.7993C65.6091 65.7993 66.4265 67.9433 65.3545 68.7795C64.2825 69.6157 64.7863 71.7007 63.6849 72.2849C63.1033 72.5958 62.0072 72.8209 61.104 72.9415C60.9837 72.9585 60.8613 72.9321 60.7587 72.8671C60.6561 72.8021 60.5799 72.7027 60.5438 72.5867C60.5077 72.4707 60.5141 72.3457 60.5617 72.2339C60.6094 72.1222 60.6952 72.031 60.8039 71.9767C60.9001 71.9267 60.9995 71.8828 61.1013 71.8454L62.4413 71.2397L63.2587 69.2003L60.7958 69.5219C60.6258 69.5483 60.4517 69.5225 60.2966 69.4479C60.1416 69.3732 60.0129 69.2532 59.9275 69.1038C59.7828 68.8358 59.8015 68.4874 60.4635 68.2006C61.5998 67.7048 63.5241 67.4529 63.5241 67.4529L63.8349 65.2901C63.8349 65.2901 63.0738 66.0111 62.8433 65.2097C62.6129 64.4084 64.2289 63.0389 64.2289 63.0389Z" fill="#FFCCB3"/>
<path d="M64.6523 64.1833C64.6549 64.3153 64.6225 64.4457 64.5585 64.5612C64.4396 64.8513 64.2563 65.1106 64.0225 65.3196C63.8911 65.437 63.7382 65.528 63.5723 65.5876C63.5013 65.6148 63.4255 65.6274 63.3496 65.6246C63.2736 65.6219 63.1989 65.6038 63.1301 65.5715C63.0353 65.5302 62.9597 65.4545 62.9184 65.3598C62.8916 65.2928 62.8996 65.2526 62.9184 65.2499C62.9371 65.2472 62.9693 65.4054 63.1864 65.4804C63.3044 65.5212 63.4335 65.5164 63.5482 65.467C63.6967 65.4017 63.8328 65.311 63.9502 65.199C64.2405 64.903 64.478 64.5595 64.6523 64.1833Z" fill="#FF9A6A"/>
<path d="M65.4081 68.3668C65.4081 68.3668 65.3732 68.4311 65.2794 68.5142C65.1453 68.6314 64.9945 68.7281 64.8319 68.8009C64.2898 69.0086 63.7233 69.1455 63.1462 69.2083C62.4788 69.3155 61.8759 69.4066 61.4363 69.4763C61.2014 69.5217 60.9627 69.5441 60.7234 69.5433C60.9495 69.4646 61.183 69.4089 61.4202 69.3771C61.8544 69.294 62.4574 69.1895 63.122 69.0796C63.6895 69.0176 64.249 68.8973 64.7917 68.7205C65.0076 68.6219 65.214 68.5035 65.4081 68.3668Z" fill="#FF9A6A"/>
<path d="M63.2963 35.6574C62.7452 35.5859 62.201 35.4685 61.6695 35.3063C61.127 35.1874 60.5954 35.0233 60.0803 34.8159C60.6304 34.8893 61.1735 35.0076 61.7043 35.1696C62.2475 35.2882 62.7799 35.4513 63.2963 35.6574Z" fill="#263238"/>
<path d="M41.9715 44.488C42.0005 44.3662 41.9902 44.2384 41.9421 44.1228C41.8939 44.0073 41.8104 43.9099 41.7035 43.8448C41.7626 43.853 41.8228 43.849 41.8803 43.8329C41.9378 43.8168 41.9914 43.789 42.0377 43.7513C42.084 43.7136 42.122 43.6667 42.1493 43.6136C42.1767 43.5605 42.1928 43.5024 42.1966 43.4428C42.2258 43.322 42.2215 43.1956 42.1842 43.077C42.1469 42.9585 42.078 42.8524 41.9849 42.7701C42.1058 42.7686 42.2218 42.7222 42.3104 42.64C42.399 42.5578 42.454 42.4457 42.4646 42.3252C42.4766 42.1899 42.4437 42.0545 42.371 41.9397C42.2984 41.8249 42.19 41.7372 42.0626 41.6901C42.1808 41.7125 42.3031 41.6903 42.406 41.628C42.5089 41.5657 42.5851 41.4675 42.62 41.3524C42.7246 40.9424 42.2743 40.7333 42.2743 40.7333L42.7782 40.3688L43.0274 38.8225C43.0417 38.7388 43.0376 38.653 43.0154 38.5711C42.9932 38.4892 42.9534 38.4131 42.8988 38.3481L41.741 36.9465L39.932 36.6436L39.664 36.6008L38.123 37.5682C38.0518 37.6137 37.9911 37.6737 37.9449 37.7444C37.8986 37.8151 37.868 37.8948 37.855 37.9783L37.6058 39.5246L37.9702 40.0285C37.9702 40.0285 37.4771 40.0848 37.4342 40.5082C37.3914 40.9316 37.8577 41.0013 37.8577 41.0013C37.7215 41.0061 37.5906 41.0557 37.4855 41.1425C37.3803 41.2292 37.3067 41.3482 37.2761 41.481C37.2484 41.5985 37.2654 41.722 37.3239 41.8276C37.3824 41.9331 37.4781 42.0131 37.5924 42.0519C37.4777 42.1006 37.3785 42.1798 37.3058 42.2809C37.233 42.382 37.1894 42.5012 37.1796 42.6254C37.1642 42.6831 37.161 42.7433 37.17 42.8023C37.1791 42.8612 37.2003 42.9177 37.2323 42.9681C37.2643 43.0184 37.3063 43.0616 37.3559 43.0949C37.4054 43.1282 37.4613 43.1508 37.52 43.1614C37.3965 43.1902 37.2853 43.2578 37.2029 43.3542C37.1205 43.4506 37.071 43.5709 37.0617 43.6974C37.0301 43.8149 37.0394 43.9397 37.0881 44.0513C37.1368 44.1628 37.222 44.2545 37.3297 44.3111L36.7535 44.7667L36.2175 48.0417C36.2466 48.2567 36.3473 48.4557 36.5034 48.6065C36.6595 48.7572 36.8619 48.8509 37.0778 48.8725C37.2891 48.919 37.5102 48.8852 37.6979 48.7777C37.8857 48.6702 38.0267 48.4967 38.0935 48.2909C38.0935 48.2909 37.9917 49.0065 38.651 49.1271H38.7394C39.4041 49.2209 39.5434 48.508 39.5434 48.508C39.5416 48.7245 39.6204 48.934 39.7646 49.0955C39.9088 49.257 40.108 49.359 40.3233 49.3817C40.5344 49.4271 40.7546 49.4005 40.9488 49.3063C41.1431 49.2121 41.3002 49.0556 41.3953 48.8618L41.9313 45.5868L41.54 44.9784C41.6559 44.9557 41.7611 44.8952 41.8391 44.8066C41.9171 44.7179 41.9637 44.6059 41.9715 44.488Z" fill="#E0E0E0"/>
<path d="M41.9176 35.8024L39.8566 35.4697C39.763 35.4546 39.675 35.5181 39.6599 35.6116L39.5318 36.4054C39.5167 36.4989 39.5802 36.5869 39.6738 36.602L41.7348 36.9347C41.8283 36.9498 41.9164 36.8863 41.9315 36.7928L42.0596 35.999C42.0747 35.9055 42.0111 35.8175 41.9176 35.8024Z" fill="#263238"/>
<path d="M42.269 40.736C41.5194 40.6871 40.7738 40.5905 40.0365 40.4466C39.2925 40.3495 38.555 40.2072 37.8282 40.0204C38.5776 40.0709 39.3232 40.1676 40.0607 40.3099C40.8047 40.407 41.5422 40.5493 42.269 40.736Z" fill="#263238"/>
<path d="M42.7407 40.3554C41.8756 40.287 41.015 40.1716 40.1625 40.0097C39.3032 39.8944 38.4506 39.7334 37.6085 39.5273C38.4733 39.5973 39.3339 39.7127 40.1866 39.873C41.0459 39.9883 41.8985 40.1493 42.7407 40.3554Z" fill="#263238"/>
<path d="M42.1618 41.7303C41.4178 41.6803 40.6776 41.5845 39.9454 41.4435C39.2058 41.3476 38.4727 41.2062 37.7505 41.0201C38.4948 41.0669 39.2352 41.1627 39.9668 41.3068C40.7065 41.4028 41.4395 41.5442 42.1618 41.7303Z" fill="#263238"/>
<path d="M41.9983 42.7272C41.2549 42.6802 40.5154 42.5844 39.7846 42.4405C39.0449 42.3449 38.3119 42.2035 37.5897 42.017C38.3337 42.067 39.0739 42.1628 39.8061 42.3038C40.5449 42.3992 41.2771 42.5406 41.9983 42.7272Z" fill="#263238"/>
<path d="M41.8214 43.8287C41.0772 43.7816 40.3368 43.6858 39.605 43.542C38.8663 43.4462 38.1341 43.3048 37.4128 43.1185C38.1567 43.1689 38.8969 43.2646 39.6292 43.4053C40.368 43.501 41.1001 43.6424 41.8214 43.8287Z" fill="#263238"/>
<path d="M41.6445 44.9302C40.9002 44.8834 40.1599 44.7876 39.4282 44.6434C38.6893 44.548 37.9572 44.4066 37.2359 44.22C37.9791 44.2686 38.7185 44.3644 39.4496 44.5067C40.1893 44.6023 40.9224 44.7437 41.6445 44.9302Z" fill="#263238"/>
<path d="M41.9286 45.6136C41.0575 45.5432 40.1906 45.4269 39.3317 45.2652C38.4652 45.1484 37.6054 44.9856 36.7562 44.7774C37.6274 44.8478 38.4942 44.9641 39.3531 45.1258C40.2197 45.2422 41.0795 45.405 41.9286 45.6136Z" fill="#263238"/>
<path d="M37.7425 40.736C37.7425 40.736 36.448 41.1889 36.4025 41.7865C36.3569 42.3842 35.0866 46.2032 35.0866 46.2032L29.3728 49.1485L24.12 47.704C24.12 47.704 21.5097 52.8764 21.1452 54.4281C20.8611 55.6314 20.8343 59.2521 22.3941 59.7345C24.5381 60.4018 27.6925 58.7911 29.4318 57.3412C31.9563 55.2374 37.0644 50.2687 37.7746 48.7304C38.2353 47.7058 38.6257 46.651 38.9431 45.5734L37.7425 40.736Z" fill="#FFCCB3"/>
<path d="M37.7425 40.736C37.7425 40.736 40.929 39.9856 41.1514 40.1464C41.3739 40.3072 42.7005 41.8991 42.6951 42.1966C42.6897 42.494 42.2958 43.1265 42.2958 43.1265C42.2958 43.1265 42.7407 44.5228 41.6472 45.0025C41.6472 45.0025 42.4512 45.5921 42.1645 46.297C42.0265 46.5783 41.8235 46.8227 41.5722 47.0098L41.3792 46.1147L39.723 45.5787L38.86 45.828L37.52 43.684L37.7425 40.736Z" fill="#FFCCB3"/>
<path d="M41.54 45.024C41.5191 44.865 41.4623 44.7129 41.3739 44.5791C41.2077 44.3272 40.8111 44.1851 40.3447 44.0806C39.4175 43.8394 38.6751 43.6036 38.6885 43.5446C38.7019 43.4857 39.463 43.6491 40.3903 43.8877C40.616 43.9386 40.836 44.0122 41.0469 44.1074C41.2271 44.1891 41.3798 44.3213 41.4864 44.488C41.666 44.8015 41.5615 45.024 41.54 45.024Z" fill="#FF9A6A"/>
<path d="M41.808 44.823C41.766 44.5978 41.7543 44.3679 41.7732 44.1396C41.7952 43.9064 41.7798 43.6711 41.7276 43.4428C41.6392 43.2257 41.3176 43.1748 41.004 43.1158C39.7498 42.8478 38.7421 42.5798 38.7528 42.5182C38.7635 42.4565 39.79 42.6549 41.0442 42.9336C41.2018 42.9637 41.3575 43.0031 41.5105 43.0515C41.5922 43.0757 41.6678 43.1169 41.7324 43.1723C41.7971 43.2277 41.8493 43.2961 41.8857 43.3731C41.9323 43.51 41.9479 43.6556 41.9313 43.7992C41.9313 43.9171 41.9125 44.0324 41.9045 44.1449C41.9047 44.3744 41.8722 44.6027 41.808 44.823Z" fill="#FF9A6A"/>
<path d="M42.344 43.1319C42.3199 43.148 42.1859 42.9309 42.1055 42.553C42.0639 42.3415 41.9888 42.1379 41.8831 41.95C41.817 41.8452 41.7251 41.7592 41.6163 41.7C41.5074 41.6409 41.3852 41.6107 41.2613 41.6124C40.1062 41.5856 39.1575 41.5454 39.1575 41.4918C39.1575 41.4382 40.1009 41.398 41.2801 41.4275C41.4342 41.4368 41.5847 41.4779 41.7223 41.548C41.851 41.6234 41.9573 41.7316 42.0305 41.8616C42.1387 42.0687 42.2078 42.294 42.2341 42.5262C42.269 42.9068 42.344 43.1185 42.344 43.1319Z" fill="#FF9A6A"/>
<path d="M31.2863 48.256C30.9477 48.474 30.5939 48.6674 30.2277 48.8349L27.6496 50.1749C26.674 50.7109 25.7923 51.1746 25.0928 51.5551C24.749 51.7596 24.3907 51.9387 24.0208 52.0911C24.3377 51.8427 24.6747 51.6213 25.0285 51.4292C25.6664 51.0432 26.5615 50.5314 27.5665 50.0007C28.5715 49.4701 29.4961 49.0172 30.1741 48.7063C30.531 48.5241 30.9032 48.3734 31.2863 48.256Z" fill="#FF9A6A"/>
</svg>
