<svg width="360" height="432" viewBox="0 0 360 432" fill="none" xmlns="http://www.w3.org/2000/svg">
<path d="M342.341 231.385C337.481 277.062 305.979 313.962 267.252 338.631C230.455 362.071 186.497 368.606 144.242 357.573C99.5895 345.913 57.1101 321.257 38.6723 278.946C19.6239 235.234 26.7165 184.599 51.0132 143.632C74.7804 103.559 116.119 78.3039 162.123 70.7971C208.583 63.2161 257.01 72.9348 292.186 104.279C327.972 136.168 347.408 183.763 342.341 231.385Z" fill="#F2F2F2"/>
<path d="M281.137 151.659H235.514V233.772H281.137V151.659Z" fill="#EBEBEB"/>
<path d="M278.842 154.042H237.338V231.326H278.842V154.042Z" fill="#FAFAFA"/>
<path d="M283.066 234.514L281.137 233.772V150.269H283.066V234.514Z" fill="#E0E0E0"/>
<path d="M279.743 176.274H237.338V177.097H279.743V176.274Z" fill="#E0E0E0"/>
<path d="M279.743 194.677H237.338V195.5H279.743V194.677Z" fill="#E0E0E0"/>
<path d="M279.743 213.083H237.338V213.906H279.743V213.083Z" fill="#E0E0E0"/>
<path d="M257.04 176.684V233.517H259.136V176.684H257.04Z" fill="#E0E0E0"/>
<path d="M246.281 154.042H245.331V176.687H246.281V154.042Z" fill="#E0E0E0"/>
<path d="M254.473 154.042H253.523V176.687H254.473V154.042Z" fill="#E0E0E0"/>
<path d="M262.668 154.042H261.718V176.687H262.668V154.042Z" fill="#E0E0E0"/>
<path d="M270.86 154.042H269.91V176.687H270.86V154.042Z" fill="#E0E0E0"/>
<path d="M235.514 150.269H233.586V234.283H235.514V150.269Z" fill="#E0E0E0"/>
<path d="M283.066 149.419H233.586V151.659H283.066V149.419Z" fill="#E0E0E0"/>
<path d="M284.372 234.787H232.217V236.873H284.372V234.787Z" fill="#E0E0E0"/>
<path d="M281.137 233.772L284.372 234.787H232.217L235.514 233.772H281.137Z" fill="#E0E0E0"/>
<path d="M86.709 253.928H72.6099V257.666H86.709V253.928Z" fill="#EBEBEB"/>
<path d="M80.7458 261.6C80.7444 261.578 80.7444 261.556 80.7458 261.534V261.341C80.7458 261.166 80.7458 260.921 80.7458 260.606C80.7458 259.962 80.7458 259.035 80.7213 257.866L80.7633 257.908L66.6502 257.95L66.7201 257.88V259.777C66.7201 260.4 66.7201 261.016 66.7201 261.614L66.6502 261.544L76.697 261.576L79.6629 261.597H80.4663H80.7493C80.7493 261.597 80.7283 261.597 80.6864 261.597H80.4838H79.6978L76.7494 261.614L66.6502 261.646H66.5803V257.866C66.7235 257.719 66.6187 257.824 66.6537 257.792L80.7493 257.82H80.7947V257.866C80.7947 259.045 80.7947 259.966 80.7702 260.631C80.7702 260.942 80.7702 261.184 80.7702 261.359C80.7702 261.432 80.7702 261.495 80.7702 261.541C80.7702 261.586 80.7493 261.604 80.7458 261.6Z" fill="#E0E0E0"/>
<path d="M83.792 157.339C83.792 157.339 83.792 157.315 83.792 157.273V157.08C83.792 156.905 83.792 156.66 83.792 156.345C83.792 155.701 83.792 154.774 83.7675 153.605L83.8095 153.647L69.7139 153.675L69.7837 153.605V157.339L69.7104 157.269L79.7607 157.301L82.7265 157.322H83.5265H83.8095C83.8095 157.322 83.792 157.322 83.7466 157.322H83.544H82.758L79.8096 157.339L69.7104 157.37H69.6405V153.608L69.7139 153.535L83.8095 153.563H83.8374V153.608C83.8374 154.788 83.8374 155.708 83.813 156.373C83.813 156.685 83.813 156.926 83.813 157.101C83.813 157.175 83.813 157.237 83.813 157.283C83.813 157.328 83.7955 157.343 83.792 157.339Z" fill="#E0E0E0"/>
<path d="M299.184 255.801C299.182 255.779 299.182 255.757 299.184 255.735V255.542C299.184 255.367 299.184 255.122 299.184 254.807C299.184 254.159 299.184 253.232 299.159 252.063L299.201 252.108L285.102 252.137C285.137 252.105 285.032 252.206 285.176 252.063V253.956C285.176 254.579 285.176 255.192 285.176 255.794L285.106 255.724L295.153 255.756L298.118 255.777H298.922H299.131H298.929H298.143L295.184 255.85L285.088 255.881H285.018V252.07L285.088 252L299.187 252.028H299.233V252.07C299.233 253.253 299.212 254.187 299.208 254.838C299.208 255.151 299.208 255.393 299.208 255.563C299.208 255.64 299.208 255.699 299.208 255.748C299.208 255.797 299.187 255.801 299.184 255.801Z" fill="#E0E0E0"/>
<path d="M111.435 179.088C111.433 179.066 111.433 179.044 111.435 179.021V178.829C111.435 178.654 111.435 178.409 111.435 178.094C111.435 177.446 111.435 176.522 111.414 175.35L111.456 175.395L97.3565 175.423L97.4299 175.35V177.243C97.4299 177.866 97.4299 178.479 97.4299 179.081L97.36 179.011L107.407 179.042L110.373 179.063H111.176H111.393H111.194H110.408L107.456 179.084L97.36 179.116H97.2902V176.263C97.2902 176.106 97.2902 175.948 97.2902 175.787V175.35L97.3635 175.28L111.463 175.308H111.508V175.35C111.508 176.533 111.487 177.45 111.484 178.118C111.484 178.43 111.484 178.671 111.484 178.846C111.484 178.92 111.484 178.979 111.484 179.028C111.47 179.05 111.453 179.07 111.435 179.088Z" fill="#E0E0E0"/>
<path d="M113.356 175.35C113.355 175.327 113.355 175.303 113.356 175.28C113.356 175.228 113.356 175.161 113.356 175.084C113.356 174.899 113.356 174.65 113.356 174.332C113.356 173.677 113.356 172.753 113.328 171.616L113.381 171.665L104.909 171.686C104.846 171.752 104.997 171.598 104.983 171.616V173.534C104.983 174.157 104.983 174.762 104.983 175.343L104.913 175.277L110.974 175.308L112.738 175.329H113.216H113.384C113.333 175.334 113.281 175.334 113.23 175.329H112.769L111.023 175.35L104.916 175.382H104.85V175.35C104.85 174.769 104.85 174.164 104.85 173.541V171.623C104.832 171.623 104.986 171.486 104.92 171.549L113.391 171.57H113.443V171.623C113.443 172.774 113.422 173.723 113.415 174.37C113.415 174.682 113.415 174.927 113.415 175.109C113.4 175.19 113.381 175.271 113.356 175.35Z" fill="#E0E0E0"/>
<path d="M297.238 177.867C297.236 177.843 297.236 177.82 297.238 177.797C297.238 177.748 297.238 177.685 297.238 177.608C297.238 177.429 297.238 177.184 297.238 176.869C297.238 176.225 297.238 175.298 297.214 174.129L297.259 174.171L283.16 174.202C283.191 174.167 283.087 174.272 283.23 174.129V177.86L283.16 177.79L293.207 177.821H296.173H296.973H297.182H297.259H296.99H296.204L293.256 177.842L283.16 177.874H283.09V177.804C283.09 177.202 283.09 176.589 283.09 175.963V174.073L283.163 173.999L297.263 174.027H297.28V174.073C297.28 175.252 297.28 176.173 297.256 176.841C297.256 177.149 297.256 177.394 297.256 177.566V177.8C297.238 177.846 297.238 177.867 297.238 177.867Z" fill="#E0E0E0"/>
<path d="M299.149 174.129C299.146 174.105 299.146 174.082 299.149 174.059V173.859C299.149 173.677 299.149 173.425 299.149 173.11C299.149 172.456 299.149 171.528 299.121 170.391L299.173 170.443L290.678 170.45C290.615 170.513 290.765 170.363 290.748 170.377V172.295C290.748 172.921 290.748 173.527 290.748 174.108L290.681 174.038L296.742 174.073H298.489H298.964C299.021 174.068 299.078 174.068 299.135 174.073C299.084 174.078 299.032 174.078 298.981 174.073H298.52H296.774L290.667 174.108H290.597V172.225C290.597 171.913 290.597 171.595 290.597 171.273V170.307C290.597 170.307 290.734 170.17 290.671 170.237L299.142 170.254H299.194V170.303C299.194 171.455 299.173 172.403 299.166 173.054C299.166 173.366 299.166 173.611 299.166 173.793C299.169 173.905 299.163 174.017 299.149 174.129Z" fill="#E0E0E0"/>
<path d="M86.639 205.125H72.5399V208.863H86.639V205.125Z" fill="#E0E0E0"/>
<path d="M96.7767 197.449H82.6776V201.187H96.7767V197.449Z" fill="#EBEBEB"/>
<path d="M90.824 205.125C90.8205 205.101 90.8205 205.078 90.824 205.055V204.862C90.824 204.687 90.824 204.442 90.824 204.127C90.824 203.483 90.824 202.556 90.7996 201.387L90.845 201.429L76.7459 201.457L76.8158 201.387V205.118L76.7459 205.044L86.7927 205.079H89.7586H90.562H90.7716H90.845H90.5795H89.79L86.8416 205.1L76.7459 205.132H76.676V205.062C76.676 204.46 76.676 203.847 76.676 203.221V201.331L76.7494 201.257L90.8485 201.285H90.8904V201.331C90.8904 202.51 90.8904 203.448 90.8659 204.099C90.8659 204.407 90.8659 204.649 90.8659 204.824C90.8659 204.901 90.8659 204.96 90.8659 205.009C90.858 205.049 90.8438 205.088 90.824 205.125Z" fill="#E0E0E0"/>
<path d="M232.426 257.621H218.327V261.359H232.426V257.621Z" fill="#E0E0E0"/>
<path d="M242.564 249.945H228.465V253.683H242.564V249.945Z" fill="#EBEBEB"/>
<path d="M236.601 257.621C236.601 257.621 236.601 257.597 236.601 257.551V257.362C236.601 257.184 236.601 256.939 236.601 256.624C236.601 255.98 236.601 255.052 236.576 253.883L236.618 253.925L222.523 253.957C222.554 253.922 222.449 254.027 222.593 253.883V257.614L222.519 257.544L232.57 257.576L235.535 257.593H236.335H236.545H236.618H236.353H235.567L232.618 257.614L222.519 257.646H222.449V253.89L222.523 253.817L236.618 253.845H236.664V253.89C236.664 255.07 236.664 256.008 236.639 256.659C236.639 256.967 236.639 257.212 236.639 257.383C236.639 257.46 236.639 257.52 236.639 257.569C236.639 257.618 236.604 257.621 236.601 257.621Z" fill="#E0E0E0"/>
<path d="M123.518 236.415C123.517 236.391 123.517 236.368 123.518 236.345V236.152C123.518 235.977 123.518 235.732 123.518 235.417C123.518 234.773 123.518 233.846 123.497 232.677L123.539 232.719L109.44 232.747C109.471 232.715 109.37 232.82 109.513 232.677V234.567C109.513 235.193 109.513 235.806 109.513 236.408L109.444 236.334L119.49 236.369L122.456 236.387H123.26H123.469C123.494 236.384 123.518 236.384 123.543 236.387H123.277H122.491L119.539 236.408L109.444 236.439H109.339V232.684C109.482 232.54 109.377 232.642 109.409 232.61L123.508 232.638H123.553V232.684C123.553 233.863 123.532 234.784 123.529 235.452C123.529 235.76 123.529 236.002 123.529 236.177V236.362C123.526 236.38 123.523 236.397 123.518 236.415Z" fill="#E0E0E0"/>
<path d="M125.429 232.677C125.429 232.677 125.429 232.649 125.429 232.607C125.429 232.565 125.429 232.488 125.429 232.407C125.429 232.222 125.429 231.973 125.429 231.658C125.429 231.004 125.429 230.076 125.401 228.939L125.453 228.991L116.982 229.012L117.055 228.939V230.857C117.055 231.483 117.055 232.089 117.055 232.67L116.986 232.6L123.047 232.635L124.811 232.652H125.289H125.457C125.406 232.655 125.354 232.655 125.303 232.652H124.842L123.095 232.67L116.989 232.701H116.923V232.631C116.923 232.05 116.923 231.445 116.923 230.818V228.9L116.993 228.83H125.464H125.516V228.883C125.516 230.034 125.495 230.983 125.488 231.634C125.488 231.945 125.488 232.19 125.488 232.372C125.476 232.475 125.456 232.577 125.429 232.677Z" fill="#E0E0E0"/>
<path d="M295.823 297.769C295.823 297.818 243.961 297.86 180.002 297.86C116.042 297.86 64.1699 297.818 64.1699 297.769C64.1699 297.72 116.018 297.678 180.002 297.678C243.986 297.678 295.823 297.717 295.823 297.769Z" fill="#263238"/>
<path d="M283.527 284.76L285.769 293.689L289.577 300.234C289.642 300.345 289.684 300.469 289.699 300.598C289.715 300.726 289.703 300.857 289.666 300.981C289.629 301.105 289.567 301.22 289.484 301.319C289.401 301.418 289.298 301.499 289.182 301.557C289.049 301.625 288.902 301.66 288.753 301.66C288.603 301.66 288.456 301.625 288.323 301.557C286.611 300.633 280.337 297.199 280.212 296.538C280.061 295.771 277.218 287.28 277.218 287.28L283.527 284.76Z" fill="#FF725E"/>
<g opacity="0.6">
<path d="M289.183 301.556L280.044 295.925L280.149 296.299C280.238 296.625 280.44 296.908 280.718 297.097C281.462 297.605 283.551 298.956 288.295 301.549C288.432 301.623 288.584 301.661 288.739 301.661C288.894 301.661 289.046 301.623 289.183 301.549V301.556Z" fill="white"/>
</g>
<g opacity="0.6">
<path d="M281.074 292.558C281.206 292.608 281.315 292.705 281.379 292.83C281.444 292.956 281.46 293.101 281.424 293.237C281.379 293.369 281.285 293.48 281.162 293.545C281.038 293.61 280.894 293.625 280.76 293.587C280.621 293.534 280.507 293.431 280.439 293.299C280.371 293.166 280.355 293.013 280.393 292.87C280.454 292.736 280.565 292.631 280.702 292.576C280.838 292.522 280.991 292.523 281.127 292.579" fill="white"/>
</g>
<path d="M286.101 298.239C286.24 297.903 286.439 297.596 286.688 297.332C286.977 297.112 287.306 296.95 287.656 296.856C287.656 296.832 287.527 296.793 287.307 296.821C287.026 296.867 286.764 296.993 286.551 297.182C286.338 297.372 286.184 297.618 286.105 297.892C286.042 298.102 286.066 298.239 286.101 298.239Z" fill="#263238"/>
<path d="M287.048 299.25C287.101 299.274 287.307 298.9 287.726 298.651C287.997 298.518 288.276 298.401 288.561 298.301C288.401 298.255 288.232 298.247 288.069 298.279C287.905 298.31 287.752 298.381 287.621 298.483C287.149 298.781 286.996 299.25 287.048 299.25Z" fill="#263238"/>
<path d="M284.494 297.041C285.055 296.282 285.825 295.703 286.709 295.375C286.22 295.412 285.751 295.589 285.359 295.884C284.966 296.179 284.666 296.581 284.494 297.041Z" fill="#263238"/>
<path d="M283.586 294.385C283.625 294.43 284.058 294.091 284.687 293.891C285.315 293.692 285.864 293.706 285.867 293.646C285.871 293.587 285.301 293.479 284.624 293.699C284.208 293.799 283.841 294.042 283.586 294.385Z" fill="#263238"/>
<path d="M282.86 291.781C283.211 291.548 283.593 291.366 283.995 291.238C284.41 291.172 284.831 291.161 285.249 291.207C285.249 291.186 285.13 291.102 284.9 291.039C284.588 290.964 284.264 290.964 283.952 291.039C283.641 291.114 283.351 291.261 283.108 291.469C282.919 291.63 282.842 291.763 282.86 291.781Z" fill="#263238"/>
<path d="M283.841 290.745C283.839 290.624 283.812 290.505 283.761 290.395C283.644 290.096 283.471 289.823 283.251 289.59C283.104 289.407 282.902 289.276 282.674 289.219C282.597 289.208 282.518 289.221 282.448 289.256C282.378 289.291 282.321 289.346 282.283 289.415C282.222 289.554 282.212 289.71 282.255 289.856C282.358 290.149 282.559 290.396 282.824 290.556C283.09 290.716 283.402 290.778 283.708 290.731C284.01 290.68 284.289 290.541 284.511 290.33C284.732 290.119 284.886 289.847 284.952 289.548C284.969 289.473 284.97 289.394 284.953 289.319C284.937 289.243 284.904 289.172 284.858 289.111C284.807 289.05 284.737 289.009 284.659 288.994C284.582 288.979 284.502 288.99 284.432 289.027C284.228 289.134 284.055 289.293 283.932 289.488C283.746 289.748 283.606 290.038 283.52 290.346C283.478 290.458 283.461 290.577 283.467 290.696C283.604 290.297 283.799 289.92 284.047 289.58C284.161 289.414 284.313 289.278 284.491 289.184C284.53 289.166 284.573 289.16 284.615 289.169C284.657 289.177 284.696 289.198 284.725 289.23C284.752 289.272 284.77 289.32 284.778 289.37C284.785 289.42 284.783 289.471 284.77 289.52C284.702 289.775 284.564 290.006 284.37 290.186C284.177 290.365 283.936 290.486 283.677 290.535C283.417 290.573 283.152 290.52 282.926 290.387C282.7 290.253 282.526 290.046 282.433 289.8C282.398 289.702 282.398 289.594 282.433 289.496C282.453 289.457 282.484 289.425 282.522 289.405C282.56 289.385 282.604 289.377 282.646 289.384C282.84 289.431 283.013 289.537 283.143 289.688C283.436 289.996 283.672 290.354 283.841 290.745Z" fill="#263238"/>
<path d="M253.512 286.171L254.008 293.668C254.008 293.668 246.56 296.146 246.515 297.542L261.072 297.647L260.778 285.929L253.512 286.171Z" fill="#FF725E"/>
<g opacity="0.6">
<path d="M258.504 292.901C258.645 292.94 258.767 293.03 258.846 293.153C258.925 293.277 258.956 293.425 258.934 293.57C258.9 293.712 258.814 293.837 258.691 293.917C258.569 293.998 258.421 294.029 258.277 294.004C258.13 293.962 258.003 293.868 257.92 293.739C257.837 293.61 257.804 293.455 257.826 293.304C257.876 293.158 257.98 293.038 258.116 292.968C258.252 292.899 258.41 292.884 258.556 292.929" fill="white"/>
</g>
<g opacity="0.6">
<path d="M261.072 297.647L261.044 296.464L246.976 296.856C246.827 296.932 246.699 297.044 246.604 297.182C246.51 297.32 246.451 297.48 246.435 297.647H261.072Z" fill="white"/>
</g>
<path d="M253.771 293.601C253.771 293.674 254.12 293.695 254.469 293.912C254.819 294.129 255.021 294.424 255.088 294.396C255.154 294.368 255.032 293.958 254.598 293.696C254.165 293.433 253.753 293.538 253.771 293.601Z" fill="#263238"/>
<path d="M252.265 294.28C252.265 294.35 252.562 294.462 252.81 294.756C253.058 295.05 253.142 295.365 253.212 295.362C253.281 295.358 253.316 294.952 252.998 294.591C252.681 294.231 252.265 294.213 252.265 294.28Z" fill="#263238"/>
<path d="M251.454 296.139C251.517 296.139 251.605 295.789 251.413 295.407C251.22 295.026 250.882 294.879 250.854 294.938C250.826 294.998 251.035 295.201 251.203 295.519C251.371 295.838 251.381 296.132 251.454 296.139Z" fill="#263238"/>
<path d="M253.847 291.879C253.879 291.945 254.197 291.837 254.605 291.851C255.014 291.865 255.325 291.984 255.36 291.921C255.395 291.858 255.084 291.616 254.612 291.602C254.141 291.588 253.809 291.826 253.847 291.879Z" fill="#263238"/>
<g opacity="0.3">
<path d="M253.613 287.654L253.701 288.991L260.848 288.708L260.82 287.504L253.613 287.654Z" fill="black"/>
</g>
<path d="M253.774 290.367C254.016 290.423 254.268 290.413 254.504 290.339C254.765 290.284 255.018 290.198 255.259 290.084C255.402 290.015 255.54 289.935 255.671 289.846C255.752 289.799 255.824 289.739 255.884 289.667C255.929 289.615 255.956 289.55 255.959 289.482C255.963 289.413 255.944 289.345 255.905 289.289C255.868 289.241 255.82 289.202 255.766 289.175C255.711 289.148 255.651 289.134 255.591 289.135C255.498 289.137 255.406 289.153 255.318 289.181C255.164 289.224 255.015 289.282 254.871 289.352C254.627 289.469 254.404 289.625 254.211 289.814C253.882 290.136 253.778 290.406 253.802 290.42C253.826 290.434 253.991 290.213 254.326 289.944C254.522 289.789 254.737 289.659 254.965 289.559C255.1 289.5 255.239 289.452 255.381 289.415C255.531 289.373 255.664 289.366 255.706 289.433C255.748 289.499 255.706 289.471 255.706 289.517C255.659 289.566 255.606 289.61 255.549 289.646C255.218 289.874 254.856 290.051 254.473 290.171C254.236 290.22 254.002 290.286 253.774 290.367Z" fill="#263238"/>
<path d="M253.872 290.465C254 290.255 254.06 290.01 254.043 289.765C254.046 289.494 254.004 289.224 253.917 288.967C253.865 288.815 253.798 288.669 253.718 288.53C253.676 288.435 253.61 288.353 253.526 288.292C253.443 288.231 253.346 288.192 253.243 288.18C253.179 288.184 253.117 288.207 253.064 288.244C253.012 288.282 252.971 288.333 252.946 288.393C252.911 288.479 252.888 288.57 252.88 288.663C252.853 288.825 252.853 288.99 252.88 289.153C252.926 289.425 253.04 289.681 253.212 289.898C253.508 290.269 253.809 290.343 253.812 290.318C253.816 290.294 253.613 290.15 253.369 289.8C253.237 289.595 253.151 289.363 253.117 289.121C253.098 288.982 253.098 288.84 253.117 288.701C253.117 288.544 253.191 288.418 253.25 288.432C253.309 288.446 253.449 288.54 253.512 288.663C253.586 288.787 253.65 288.917 253.704 289.051C253.791 289.284 253.847 289.528 253.868 289.776C253.9 290.185 253.83 290.455 253.872 290.465Z" fill="#263238"/>
<path d="M253.477 220.784L275.653 220.616L286.37 291.141L277.165 292.31L265.372 234.322L261.84 292.516L261.83 292.691L251.877 292.516L253.477 220.784Z" fill="#263238"/>
<path d="M264.628 232.803C264.636 232.516 264.618 232.228 264.572 231.945C264.52 231.413 264.464 230.685 264.439 229.877C264.415 229.068 264.439 228.333 264.439 227.805C264.467 227.517 264.467 227.228 264.439 226.94C264.361 227.218 264.316 227.505 264.306 227.794C264.181 229.182 264.223 230.581 264.432 231.959C264.46 232.248 264.525 232.531 264.628 232.803Z" fill="#455A64"/>
<path d="M262.801 227.15C262.801 227.15 262.762 227.108 262.672 227.101C262.546 227.097 262.423 227.135 262.322 227.21C262.239 227.266 262.171 227.342 262.122 227.43C262.074 227.518 262.046 227.616 262.043 227.717C262.053 227.842 262.1 227.962 262.178 228.061C262.255 228.16 262.36 228.235 262.479 228.275C262.598 228.316 262.726 228.321 262.848 228.289C262.969 228.258 263.079 228.192 263.164 228.099C263.223 228.016 263.261 227.922 263.277 227.822C263.293 227.723 263.285 227.621 263.255 227.525C263.217 227.399 263.137 227.29 263.028 227.217C262.951 227.168 262.899 227.168 262.895 227.175C262.892 227.182 263.073 227.28 263.129 227.56C263.145 227.635 263.145 227.712 263.128 227.787C263.111 227.862 263.078 227.933 263.031 227.994C262.967 228.056 262.887 228.099 262.8 228.118C262.713 228.138 262.622 228.132 262.537 228.104C262.453 228.075 262.378 228.023 262.321 227.954C262.264 227.885 262.227 227.802 262.214 227.714C262.215 227.637 262.232 227.562 262.264 227.492C262.295 227.423 262.342 227.361 262.399 227.311C262.595 227.119 262.801 227.175 262.801 227.15Z" fill="#455A64"/>
<path d="M268.481 225.722C268.481 225.722 268.544 225.799 268.684 225.908C268.88 226.062 269.092 226.195 269.316 226.306C269.65 226.475 270.001 226.607 270.364 226.698C270.805 226.809 271.258 226.866 271.712 226.87C272.168 226.866 272.621 226.809 273.064 226.702C273.427 226.609 273.778 226.476 274.112 226.306C274.336 226.196 274.548 226.064 274.745 225.911C274.881 225.802 274.954 225.736 274.947 225.725C274.94 225.715 274.619 225.936 274.056 226.191C273.727 226.339 273.384 226.456 273.033 226.541C272.17 226.744 271.272 226.744 270.409 226.541C270.057 226.46 269.714 226.342 269.386 226.191C268.809 225.932 268.502 225.694 268.481 225.722Z" fill="#455A64"/>
<path d="M254.752 227.217C254.944 227.301 255.151 227.345 255.36 227.346C256.375 227.421 257.383 227.132 258.204 226.531C258.38 226.419 258.532 226.272 258.651 226.1C257.529 226.934 256.144 227.33 254.752 227.217Z" fill="#455A64"/>
<path d="M282.86 291.781C282.834 291.733 282.813 291.682 282.797 291.63C282.765 291.529 282.72 291.371 282.671 291.165C282.573 290.752 282.44 290.139 282.28 289.345C281.965 287.759 281.532 285.463 281.015 282.618C279.967 276.93 278.605 269.066 277.085 260.375C275.566 251.685 274.179 243.827 273.18 238.126C272.666 235.287 272.25 232.988 271.964 231.388C271.814 230.601 271.698 229.988 271.615 229.558C271.573 229.355 271.541 229.208 271.52 229.082L271.482 228.921C271.482 228.921 271.482 228.977 271.499 229.085C271.517 229.194 271.545 229.362 271.576 229.565C271.649 229.992 271.751 230.615 271.887 231.399C272.16 233.002 272.554 235.305 273.043 238.147L276.886 260.407C278.402 269.097 279.803 276.958 280.868 282.642C281.399 285.484 281.85 287.78 282.189 289.359C282.528 290.937 282.793 291.809 282.86 291.781Z" fill="#455A64"/>
<path d="M254.595 290.986C254.595 290.986 254.595 290.931 254.595 290.822C254.595 290.714 254.595 290.549 254.595 290.346C254.595 289.919 254.595 289.296 254.595 288.512C254.595 287.728 254.595 286.737 254.626 285.607C254.658 284.476 254.651 283.185 254.689 281.757C254.745 278.908 254.854 275.516 255.018 271.754C255.182 267.991 255.43 263.854 255.748 259.521C256.066 255.188 256.447 251.059 256.848 247.31C257.25 243.562 257.645 240.195 258.015 237.367C258.19 235.967 258.364 234.678 258.522 233.555C258.679 232.431 258.812 231.455 258.927 230.681C259.042 229.908 259.122 229.281 259.182 228.865C259.21 228.662 259.231 228.515 259.245 228.389C259.248 228.335 259.248 228.282 259.245 228.228C259.245 228.228 259.245 228.281 259.213 228.389C259.182 228.498 259.164 228.659 259.133 228.858C259.063 229.282 258.965 229.891 258.843 230.671C258.721 231.452 258.567 232.421 258.406 233.541C258.246 234.661 258.057 235.938 257.872 237.352C257.488 240.177 257.075 243.544 256.667 247.292C256.258 251.041 255.881 255.168 255.552 259.508C255.224 263.848 255 267.981 254.836 271.757C254.672 275.534 254.585 278.915 254.546 281.767C254.518 283.192 254.518 284.48 254.508 285.617C254.497 286.755 254.508 287.717 254.508 288.522C254.508 289.327 254.508 289.922 254.508 290.356C254.508 290.559 254.508 290.707 254.508 290.833C254.508 290.958 254.595 290.986 254.595 290.986Z" fill="#455A64"/>
<path d="M231.665 193.599L245.523 197.652L253.285 193.06L259.175 200.06L248.188 204.827C247.412 205.164 246.571 205.324 245.725 205.296C244.879 205.268 244.05 205.053 243.298 204.666L229.674 197.666L231.665 193.599Z" fill="#FFBE9D"/>
<path d="M228.503 192.262L226.788 191.37L222.016 188.881C221.931 188.847 221.837 188.84 221.748 188.861C221.659 188.883 221.578 188.931 221.518 189C221.457 189.07 221.42 189.156 221.41 189.247C221.4 189.339 221.419 189.431 221.464 189.511L224.507 192.017L223.221 192.5C222.968 192.598 222.76 192.786 222.638 193.029L221.964 194.376C221.964 194.376 221.188 194.46 221.111 194.961C221.035 195.461 221.614 195.64 221.614 195.64L221.468 196.228C221.434 196.363 221.43 196.504 221.454 196.642C221.479 196.779 221.532 196.91 221.611 197.026C222.348 197.33 222.935 195.78 222.935 195.78L223.724 195.864L224.584 197.614C225.677 197.88 225.16 196.151 225.16 196.151L225.642 196.273C226.124 196.392 226.376 196.735 227.127 197.12C227.878 197.505 229.349 197.642 229.349 197.642L230.439 198.447L233.757 193.9L228.503 192.262Z" fill="#FAFAFA"/>
<path d="M228.503 192.262L228.598 192.28L228.867 192.357L229.915 192.668L233.785 193.851L233.866 193.876L233.813 193.942L230.526 198.492L230.477 198.559L230.414 198.51L229.321 197.708H229.363C228.627 197.651 227.902 197.491 227.211 197.232C226.863 197.06 226.531 196.859 226.219 196.63C226.067 196.52 225.902 196.432 225.726 196.368C225.548 196.319 225.349 196.273 225.16 196.224L225.265 196.112C225.362 196.434 225.402 196.77 225.384 197.106C225.38 197.202 225.356 197.295 225.316 197.382C225.275 197.468 225.217 197.546 225.146 197.61C225.063 197.662 224.97 197.695 224.873 197.708C224.776 197.722 224.678 197.714 224.584 197.687H224.545L224.524 197.645C224.252 197.092 223.958 196.504 223.662 195.895L223.735 195.948L223.036 195.874H222.938L223.033 195.818C222.923 196.096 222.781 196.36 222.61 196.606C222.532 196.742 222.427 196.861 222.301 196.956C222.176 197.05 222.032 197.118 221.88 197.155H221.754C221.712 197.155 221.674 197.134 221.632 197.124H221.604H221.586C221.586 197.124 221.51 197.061 221.545 197.092L221.513 197.043L221.461 196.938C221.398 196.796 221.366 196.642 221.366 196.487C221.375 196.338 221.4 196.191 221.443 196.049L221.545 195.64L221.611 195.752C221.422 195.703 221.255 195.59 221.139 195.433C221.085 195.35 221.05 195.255 221.038 195.156C221.026 195.057 221.036 194.957 221.069 194.863C221.145 194.685 221.285 194.542 221.461 194.464C221.621 194.386 221.794 194.335 221.971 194.313L221.901 194.362L222.327 193.512L222.54 193.095C222.605 192.944 222.699 192.807 222.816 192.693C222.935 192.578 223.077 192.491 223.232 192.437L223.655 192.276L224.482 191.961L224.458 192.105L221.422 189.588C221.37 189.493 221.349 189.383 221.362 189.275C221.375 189.167 221.422 189.066 221.496 188.986C221.566 188.91 221.658 188.857 221.759 188.835C221.86 188.812 221.966 188.821 222.062 188.86L226.792 191.363L228.074 192.063L228.405 192.248C228.445 192.267 228.483 192.29 228.517 192.318C228.477 192.303 228.437 192.286 228.398 192.266L228.049 192.101L226.743 191.443L221.988 188.993C221.918 188.965 221.841 188.959 221.767 188.976C221.694 188.993 221.627 189.032 221.576 189.088C221.524 189.146 221.491 189.22 221.482 189.298C221.473 189.377 221.489 189.456 221.527 189.525V189.504L224.577 192.003L224.685 192.094L224.552 192.143L223.728 192.462L223.305 192.623C223.175 192.672 223.057 192.747 222.956 192.843C222.854 192.943 222.772 193.062 222.715 193.193L222.505 193.61L222.079 194.46L222.058 194.502H222.009C221.716 194.544 221.359 194.67 221.258 194.936C221.236 195.004 221.228 195.075 221.237 195.146C221.245 195.217 221.269 195.285 221.307 195.346C221.4 195.465 221.528 195.551 221.674 195.591L221.761 195.615L221.74 195.699L221.639 196.109C221.598 196.235 221.575 196.367 221.569 196.501C221.568 196.63 221.594 196.759 221.646 196.879L221.691 196.963L221.716 197.005C221.754 197.033 221.667 196.963 221.677 196.97H221.698C221.727 196.979 221.756 196.986 221.786 196.991H221.873C222.128 196.919 222.344 196.749 222.474 196.518C222.635 196.285 222.769 196.033 222.872 195.769L222.9 195.703H222.966H223.064L223.763 195.776H223.815L223.836 195.818C224.13 196.417 224.423 197.005 224.696 197.568L224.636 197.523C224.704 197.543 224.776 197.55 224.847 197.542C224.918 197.534 224.986 197.512 225.048 197.477C225.152 197.376 225.212 197.24 225.216 197.096C225.233 196.784 225.196 196.473 225.104 196.175L225.066 196.025L225.213 196.063C225.408 196.112 225.59 196.154 225.792 196.21C225.983 196.279 226.163 196.376 226.327 196.497C226.632 196.72 226.956 196.917 227.295 197.085C227.968 197.338 228.674 197.496 229.391 197.554H229.412H229.429L230.519 198.363L230.407 198.38C231.668 196.662 232.797 195.129 233.726 193.858L233.757 193.953L229.915 192.714L228.888 192.364L228.622 192.273L228.503 192.262Z" fill="#263238"/>
<path d="M225.286 196.175C225.286 196.193 224.905 196.126 224.259 196.032C223.613 195.937 222.697 195.818 221.621 195.727H221.639C221.54 195.727 221.442 195.703 221.354 195.656C221.266 195.609 221.192 195.541 221.137 195.458C221.082 195.376 221.048 195.28 221.039 195.181C221.029 195.082 221.045 194.982 221.083 194.891C221.169 194.713 221.298 194.561 221.459 194.447C221.62 194.334 221.807 194.264 222.002 194.243C222.414 194.177 222.792 194.156 223.162 194.089C223.532 194.023 223.889 193.956 224.21 193.869C224.531 193.781 224.86 193.69 225.15 193.592C225.284 193.556 225.409 193.491 225.517 193.403C225.56 193.368 225.59 193.32 225.604 193.267C225.617 193.213 225.612 193.156 225.59 193.106C225.534 193.003 225.459 192.911 225.37 192.836L225.136 192.598C224.989 192.448 224.863 192.325 224.755 192.227C224.538 192.035 224.406 191.954 224.406 191.94C224.552 191.993 224.687 192.072 224.804 192.175C224.945 192.284 225.08 192.401 225.209 192.525L225.454 192.752C225.56 192.833 225.648 192.936 225.712 193.053C225.746 193.129 225.755 193.214 225.738 193.295C225.72 193.376 225.677 193.45 225.614 193.505C225.496 193.611 225.355 193.69 225.202 193.736C224.909 193.841 224.594 193.942 224.255 194.033C223.917 194.124 223.557 194.201 223.186 194.264C222.816 194.327 222.411 194.359 222.03 194.422C221.865 194.436 221.706 194.492 221.568 194.585C221.431 194.678 221.319 194.805 221.244 194.954C221.216 195.017 221.203 195.087 221.208 195.156C221.212 195.226 221.233 195.293 221.269 195.353C221.305 195.412 221.355 195.462 221.415 195.498C221.474 195.534 221.542 195.555 221.611 195.559C222.694 195.664 223.609 195.804 224.252 195.93C224.573 195.993 224.828 196.049 224.999 196.095C225.099 196.106 225.195 196.133 225.286 196.175Z" fill="#263238"/>
<path d="M225.16 193.722C224.873 193.848 224.555 193.89 224.245 193.844C224.083 193.838 223.921 193.817 223.763 193.781L223.847 193.732C223.742 193.97 223.658 194.121 223.627 194.11C223.595 194.1 223.627 193.928 223.7 193.68L223.717 193.624H223.784L224.255 193.655C224.559 193.646 224.862 193.668 225.16 193.722Z" fill="#263238"/>
<path d="M256.446 187.975L247.517 194.838L253.778 203.098L261.414 198.754L256.446 187.975Z" fill="#00AB00"/>
<path d="M256.446 187.975C257.739 187.18 262.207 186.197 262.207 186.197L270.849 185.255L278.346 188.703L275.272 201.628L277.969 225.999L252.24 227.398L256.446 187.975Z" fill="#00AB00"/>
<path d="M271.136 198.786H266.703V199.983H271.136V198.786Z" fill="#FAFAFA"/>
<path d="M271.143 199.994H266.692V198.779H271.143V199.994ZM266.71 199.994H271.125V198.8H266.71V199.994Z" fill="#263238"/>
<path d="M255.36 195.454C255.255 194.798 255.212 194.134 255.231 193.47C255.191 192.806 255.21 192.141 255.287 191.482C255.391 192.138 255.434 192.802 255.416 193.466C255.456 194.129 255.437 194.794 255.36 195.454Z" fill="#263238"/>
<path d="M271.58 173.393L270.633 186.816C270.555 187.87 270.083 188.856 269.311 189.577C268.539 190.298 267.524 190.7 266.469 190.704C265.898 190.702 265.334 190.583 264.81 190.355C264.287 190.126 263.816 189.793 263.426 189.375C263.035 188.958 262.734 188.465 262.541 187.927C262.348 187.388 262.266 186.816 262.301 186.245C262.385 184.968 262.459 183.925 262.459 183.925C262.459 183.925 259.217 183.417 259.178 180.169C259.154 178.293 259.479 174.034 259.755 170.775C259.844 169.712 260.329 168.72 261.114 167.998C261.899 167.276 262.926 166.875 263.992 166.876H265.952C266.752 166.924 267.535 167.131 268.254 167.486C268.973 167.841 269.614 168.337 270.139 168.945C270.663 169.552 271.061 170.259 271.309 171.023C271.556 171.787 271.648 172.593 271.58 173.393Z" fill="#FFBE9D"/>
<path d="M262.455 183.876C263.952 183.905 265.424 183.485 266.682 182.672C266.682 182.672 265.683 185.01 262.448 184.719L262.455 183.876Z" fill="#EB996E"/>
<path d="M260.415 174.878C260.413 174.998 260.458 175.115 260.541 175.203C260.624 175.29 260.738 175.342 260.859 175.347C260.917 175.352 260.977 175.345 261.033 175.327C261.089 175.309 261.142 175.279 261.186 175.24C261.231 175.201 261.267 175.154 261.293 175.1C261.319 175.047 261.334 174.989 261.337 174.93C261.338 174.809 261.292 174.692 261.208 174.605C261.125 174.517 261.011 174.466 260.89 174.461C260.831 174.456 260.772 174.463 260.716 174.482C260.66 174.5 260.609 174.53 260.565 174.569C260.52 174.608 260.484 174.655 260.458 174.708C260.433 174.761 260.418 174.819 260.415 174.878Z" fill="#263238"/>
<path d="M260.314 174.031C260.369 174.094 260.722 173.831 261.218 173.835C261.714 173.838 262.081 174.083 262.137 174.024C262.193 173.964 262.106 173.887 261.945 173.772C261.729 173.622 261.473 173.543 261.211 173.544C260.951 173.542 260.698 173.624 260.488 173.779C260.338 173.894 260.286 174.006 260.314 174.031Z" fill="#263238"/>
<path d="M265.204 174.881C265.203 175.002 265.25 175.118 265.333 175.205C265.417 175.292 265.531 175.343 265.651 175.346C265.71 175.351 265.769 175.344 265.825 175.326C265.881 175.307 265.932 175.278 265.977 175.239C266.021 175.2 266.057 175.153 266.083 175.1C266.109 175.047 266.123 174.989 266.126 174.93C266.128 174.809 266.082 174.693 265.999 174.606C265.916 174.518 265.803 174.466 265.683 174.461C265.624 174.456 265.564 174.463 265.508 174.482C265.452 174.501 265.4 174.531 265.355 174.57C265.31 174.609 265.274 174.657 265.248 174.71C265.222 174.764 265.207 174.822 265.204 174.881Z" fill="#263238"/>
<path d="M265.211 174.125C265.267 174.185 265.62 173.926 266.116 173.926C266.612 173.926 266.979 174.178 267.035 174.118C267.091 174.059 267.003 173.982 266.843 173.863C266.627 173.713 266.371 173.635 266.109 173.639C265.85 173.637 265.596 173.718 265.386 173.87C265.236 173.989 265.183 174.097 265.211 174.125Z" fill="#263238"/>
<path d="M263.447 177.702C263.185 177.621 262.914 177.573 262.64 177.558C262.511 177.558 262.392 177.52 262.371 177.432C262.358 177.301 262.388 177.168 262.455 177.054C262.574 176.746 262.699 176.421 262.832 176.085C263.353 174.702 263.733 173.565 263.678 173.544C263.622 173.523 263.15 174.625 262.63 175.994C262.504 176.344 262.382 176.662 262.28 176.97C262.199 177.124 262.176 177.302 262.214 177.471C262.233 177.516 262.261 177.556 262.297 177.589C262.334 177.622 262.377 177.646 262.423 177.66C262.494 177.679 262.567 177.688 262.64 177.688C262.907 177.729 263.179 177.734 263.447 177.702Z" fill="#263238"/>
<path d="M265.082 172.393C265.131 172.529 265.627 172.466 266.214 172.536C266.801 172.606 267.262 172.767 267.349 172.644C267.384 172.585 267.3 172.459 267.108 172.326C266.854 172.165 266.566 172.064 266.267 172.032C265.968 171.999 265.665 172.035 265.382 172.137C265.169 172.221 265.061 172.33 265.082 172.393Z" fill="#263238"/>
<path d="M260.317 173.051C260.404 173.166 260.75 173.051 261.162 173.051C261.575 173.051 261.924 173.124 262.004 173.005C262.039 172.949 261.983 172.837 261.833 172.729C261.628 172.6 261.389 172.535 261.147 172.543C260.905 172.55 260.671 172.63 260.474 172.771C260.327 172.879 260.279 172.998 260.317 173.051Z" fill="#263238"/>
<path d="M270.486 175.833C270.542 175.808 272.715 175.171 272.645 177.394C272.575 179.616 270.36 179.084 270.36 179.021C270.36 178.958 270.486 175.833 270.486 175.833Z" fill="#FFBE9D"/>
<path d="M271.08 178.202C271.08 178.202 271.118 178.231 271.185 178.262C271.23 178.281 271.279 178.291 271.328 178.291C271.377 178.291 271.426 178.281 271.471 178.262C271.618 178.176 271.738 178.053 271.821 177.904C271.904 177.756 271.946 177.588 271.943 177.418C271.954 177.229 271.923 177.039 271.852 176.862C271.833 176.792 271.798 176.727 271.748 176.673C271.699 176.62 271.638 176.579 271.569 176.554C271.525 176.541 271.478 176.543 271.436 176.561C271.394 176.579 271.359 176.611 271.338 176.652C271.307 176.715 271.321 176.76 271.307 176.764C271.293 176.767 271.262 176.725 271.283 176.631C271.297 176.578 271.329 176.531 271.373 176.498C271.436 176.453 271.514 176.434 271.59 176.445C271.679 176.466 271.762 176.509 271.83 176.57C271.899 176.631 271.951 176.709 271.981 176.795C272.071 176.992 272.11 177.207 272.097 177.422C272.101 177.62 272.046 177.814 271.941 177.981C271.835 178.148 271.683 178.279 271.503 178.36C271.443 178.376 271.38 178.378 271.32 178.366C271.259 178.353 271.202 178.328 271.153 178.29C271.08 178.255 271.056 178.206 271.08 178.202Z" fill="#EB996E"/>
<path d="M271.719 175.756C271.509 175.742 271.298 175.786 271.11 175.883C270.923 175.98 270.765 176.126 270.654 176.306C270.507 176.624 270.476 176.981 270.332 177.3C270.275 177.465 270.165 177.606 270.019 177.701C269.873 177.796 269.699 177.84 269.525 177.825C269.412 177.787 269.309 177.72 269.229 177.631C269.148 177.542 269.091 177.434 269.064 177.317C269.017 177.08 269.017 176.836 269.064 176.6C269.194 175.55 269.414 174.535 269.456 173.492C269.54 172.442 269.311 171.391 268.799 170.471C268.538 170.016 268.16 169.64 267.704 169.382C267.248 169.125 266.73 168.995 266.207 169.008C265.508 169.064 264.886 169.425 264.202 169.523C263.794 169.575 263.38 169.535 262.991 169.405C262.601 169.274 262.246 169.057 261.952 168.77C261.818 168.661 261.678 168.559 261.533 168.466C261.539 168.215 261.619 167.971 261.763 167.766C263.122 166.506 265.568 166.156 267.353 166.607C268.264 166.832 269.116 167.253 269.849 167.841C270.582 168.429 271.179 169.17 271.597 170.013C272.369 171.696 272.142 174.041 271.716 175.742" fill="#263238"/>
<path d="M259.716 170.271C259.716 170.271 268.222 167.531 271.904 174.906C271.904 174.906 272.453 173.057 272.453 172.07C272.453 171.409 272.058 167.475 268.02 166.236C268.02 166.25 261.931 163.908 259.716 170.271Z" fill="#00AB00"/>
<path d="M267.028 170.45C266.877 170.694 266.671 170.9 266.427 171.051C266.183 171.202 265.908 171.294 265.622 171.32C265.337 171.346 265.049 171.306 264.782 171.201C264.515 171.097 264.276 170.932 264.083 170.72C263.998 170.931 263.849 171.11 263.657 171.233C263.465 171.355 263.239 171.415 263.012 171.403C262.785 171.391 262.567 171.308 262.389 171.166C262.211 171.024 262.081 170.83 262.018 170.611C261.788 170.869 261.506 171.075 261.19 171.217C261.032 171.284 260.856 171.3 260.688 171.265C260.519 171.229 260.365 171.143 260.247 171.017C260.151 170.869 260.106 170.695 260.116 170.519C260.127 170.343 260.194 170.175 260.307 170.041C260.536 169.774 260.833 169.573 261.166 169.46C262.174 169.015 263.282 168.846 264.376 168.97C265.477 169.101 266.485 169.651 267.192 170.506" fill="#263238"/>
<path d="M271.548 174.041C270.258 172.116 268.567 170.493 266.591 169.284C264.638 168.059 261.403 166.834 259.175 166.257C258.515 166.041 257.817 165.968 257.128 166.043C256.782 166.089 256.456 166.231 256.188 166.453C255.919 166.675 255.718 166.969 255.608 167.3C255.398 168.14 256.887 169.438 257.589 169.949C258.275 170.408 258.985 170.828 259.716 171.209C259.716 171.209 259.699 169.648 262.193 169.326C265.585 168.878 271.548 174.041 271.548 174.041Z" fill="#00AB00"/>
<path d="M264.572 167.671C263.807 167.262 262.981 166.979 262.127 166.834C262.332 166.674 262.556 166.539 262.794 166.432C263.462 166.544 264.109 166.762 264.708 167.079L264.572 167.671Z" fill="#E0E0E0"/>
<path d="M271.08 175.91C270.935 176.038 270.781 176.155 270.619 176.26C270.27 176.519 269.899 176.785 269.505 177.079C268.993 177.49 268.447 177.856 267.873 178.175C268.339 177.711 268.849 177.295 269.396 176.932C270.249 176.281 271.024 175.837 271.08 175.91Z" fill="#EBEBEB"/>
<path d="M271.29 179.151C270.567 180.268 269.532 181.147 268.313 181.678C268.289 181.629 269.05 181.195 269.871 180.495C270.692 179.795 271.248 179.116 271.29 179.151Z" fill="#EBEBEB"/>
<path d="M259.098 178.076C259.46 178.185 259.83 178.265 260.205 178.314C261.812 178.227 262.375 177.684 264.998 178.244C265.422 178.334 265.859 178.347 266.287 178.283C266.807 178.208 267.331 178.171 267.856 178.171L268.362 181.671C268.362 181.671 265.25 184.397 262.448 184.093C258.822 183.708 258.396 179.473 259.098 178.076Z" fill="#FAFAFA"/>
<path d="M259.098 178.077C259.098 178.077 259.066 178.168 259.004 178.332C258.927 178.58 258.877 178.836 258.853 179.095C258.776 180.057 258.951 181.022 259.36 181.895C259.642 182.492 260.068 183.01 260.6 183.4C261.226 183.829 261.96 184.071 262.717 184.1C263.557 184.115 264.391 183.949 265.162 183.614C265.993 183.27 266.782 182.832 267.513 182.308C267.8 182.102 268.079 181.895 268.338 181.671V181.706C268.16 180.474 267.988 179.295 267.835 178.206L267.866 178.234C267.247 178.24 266.628 178.287 266.015 178.374C265.722 178.394 265.427 178.379 265.138 178.329C264.858 178.276 264.593 178.213 264.327 178.175C263.834 178.088 263.333 178.046 262.832 178.049C262.403 178.061 261.976 178.108 261.554 178.189C261.169 178.255 260.824 178.311 260.506 178.336C260.364 178.349 260.221 178.349 260.08 178.336C259.95 178.336 259.835 178.29 259.73 178.266C259.314 178.168 259.098 178.094 259.098 178.094C259.891 178.348 260.742 178.363 261.543 178.136C262.464 177.946 263.413 177.937 264.338 178.108C264.603 178.143 264.876 178.206 265.152 178.259C265.436 178.306 265.724 178.32 266.011 178.301C266.627 178.21 267.248 178.162 267.87 178.157H267.901V178.185C268.062 179.284 268.229 180.464 268.408 181.685C268.142 181.909 267.863 182.119 267.576 182.326C266.839 182.851 266.044 183.292 265.208 183.638C264.43 183.975 263.589 184.141 262.741 184.125C262.021 184.109 261.319 183.891 260.716 183.495C260.113 183.099 259.633 182.541 259.332 181.885C258.925 181.005 258.758 180.033 258.846 179.067C258.873 178.806 258.928 178.549 259.011 178.301C259.059 178.15 259.098 178.077 259.098 178.077Z" fill="#263238"/>
<path d="M259.391 180.124C260.607 180.717 261.946 181.013 263.298 180.988C264.651 180.963 265.978 180.618 267.171 179.98C266.723 180.585 266.161 181.094 265.515 181.478C264.75 181.87 263.856 181.891 262.993 181.888C262.308 181.936 261.62 181.826 260.984 181.566C260.378 181.203 259.863 180.707 259.479 180.114" fill="#E0E0E0"/>
<path d="M266.801 179.238C266.476 179.364 266.139 179.452 265.795 179.501C264.973 179.662 264.14 179.758 263.304 179.788C262.467 179.816 261.63 179.78 260.799 179.679C260.453 179.653 260.111 179.588 259.779 179.487C260.129 179.485 260.479 179.506 260.827 179.55C262.482 179.683 264.146 179.624 265.788 179.375C266.122 179.308 266.46 179.262 266.801 179.238Z" fill="#E0E0E0"/>
<path d="M267.402 180.698C267.213 180.972 266.976 181.209 266.703 181.398C266.081 181.896 265.365 182.263 264.597 182.476C263.83 182.689 263.028 182.744 262.238 182.637C261.911 182.609 261.591 182.527 261.292 182.392C261.292 182.364 261.662 182.459 262.256 182.508C263.81 182.649 265.362 182.218 266.623 181.297C267.122 180.95 267.381 180.677 267.402 180.698Z" fill="#E0E0E0"/>
<path d="M267.457 179.9C267.374 179.975 267.28 180.036 267.178 180.082C266.914 180.229 266.64 180.357 266.357 180.463C265.937 180.626 265.505 180.753 265.064 180.845C264.526 180.955 263.979 181.016 263.43 181.027C262.878 181.033 262.328 180.989 261.784 180.897C261.342 180.818 260.907 180.701 260.485 180.547C260.198 180.452 259.919 180.335 259.65 180.197C259.547 180.156 259.451 180.098 259.367 180.026C259.367 179.998 259.804 180.208 260.523 180.428C260.945 180.558 261.376 180.659 261.812 180.729C262.881 180.896 263.97 180.879 265.033 180.677C265.467 180.59 265.894 180.473 266.312 180.327C267.024 180.085 267.44 179.861 267.457 179.9Z" fill="#263238"/>
<path d="M264.851 179.9C263.479 180.163 262.065 180.104 260.719 179.728C260.719 179.676 261.644 179.83 262.783 179.872C263.922 179.914 264.848 179.84 264.851 179.9Z" fill="#263238"/>
<path d="M226.278 223.531V195.15H265.679V223.531L244.796 223.706L226.278 223.531Z" fill="#FF725E"/>
<g opacity="0.4">
<path d="M265.683 195.15H226.278V223.531H265.683V195.15Z" fill="black"/>
</g>
<path d="M244.796 223.706L226.278 223.531V195.15H244.737L244.796 223.706Z" fill="#FF725E"/>
<path d="M236.262 195.15H233.806V200.074H236.262V195.15Z" fill="#263238"/>
<path d="M232.482 217.266H227.592V222.166H232.482V217.266Z" fill="#FAFAFA"/>
<path d="M232.493 222.176H227.581V217.276H232.493V222.176ZM227.602 222.176H232.475V217.276H227.602V222.176Z" fill="#263238"/>
<path d="M274.902 201.666L275.716 208.271L263.489 215.54L265.389 219.74L279.286 214.116C280.97 213.258 282.409 211.991 282.29 210.094L281.623 200.851L274.902 201.666Z" fill="#FFBE9D"/>
<path d="M278.346 188.702C279.534 189.724 280.324 191.134 280.575 192.682C281.043 195.241 282.632 202.395 282.632 202.395L274.248 203.389V201.422C274.248 201.394 273.466 197.733 273.466 197.733L275.027 192.682L278.346 188.702Z" fill="#00AB00"/>
<path d="M282.301 202.426C282.113 202.475 281.921 202.509 281.728 202.527L280.159 202.744C278.835 202.919 277.015 203.15 274.975 203.392L274.276 203.476H274.182V203.378C274.042 201.505 273.889 199.843 273.777 198.646C273.721 198.072 273.676 197.596 273.641 197.246C273.616 197.074 273.605 196.901 273.609 196.728C273.658 196.895 273.69 197.066 273.707 197.239C273.759 197.568 273.822 198.047 273.899 198.639C274.042 199.832 274.22 201.498 274.364 203.374L274.262 203.29L274.961 203.206C276.987 202.961 278.804 202.751 280.152 202.611L281.728 202.45C281.918 202.426 282.109 202.418 282.301 202.426Z" fill="#263238"/>
<path d="M277.658 189.165C277.658 189.193 277.354 189.322 276.889 189.609C275.673 190.36 274.728 191.481 274.193 192.808C273.986 193.316 273.913 193.652 273.882 193.645C273.896 193.342 273.96 193.044 274.07 192.763C274.556 191.371 275.538 190.208 276.827 189.497C277.083 189.34 277.364 189.228 277.658 189.165Z" fill="#263238"/>
<path d="M263.3 215.173L261.505 215.996L260.736 215.698L256.817 215.453L254.371 215.996L254.302 216.136C254.302 217.469 256.82 216.944 257.592 217.154C258.364 217.364 257.662 219.013 257.662 219.013C257.662 219.013 254.197 223.538 253.592 224.613C253.292 225.155 253.39 225.453 253.564 225.617C253.655 225.695 253.769 225.739 253.887 225.743C254.006 225.747 254.123 225.71 254.218 225.638L255.496 224.732C255.496 224.732 259.018 224.938 259.259 224.819C259.593 224.566 259.883 224.259 260.114 223.909C261.784 222.304 263.655 220.923 265.679 219.8L263.3 215.173Z" fill="#FAFAFA"/>
<path d="M263.3 215.173C263.3 215.173 263.3 215.194 263.346 215.243C263.391 215.292 263.419 215.38 263.472 215.474L263.95 216.377C264.373 217.186 264.981 218.341 265.735 219.776L265.76 219.828L265.707 219.856C263.689 220.993 261.826 222.385 260.163 224C259.941 224.343 259.663 224.647 259.342 224.9C259.29 224.934 259.23 224.955 259.168 224.963H259.011H258.696H258.071C257.229 224.942 256.363 224.903 255.475 224.854L255.531 224.837L254.71 225.4L254.291 225.701C254.212 225.763 254.12 225.805 254.022 225.825C253.924 225.845 253.822 225.842 253.725 225.817C253.626 225.788 253.535 225.734 253.464 225.659C253.393 225.584 253.343 225.491 253.32 225.39C253.284 225.197 253.308 224.997 253.39 224.819C253.551 224.494 253.743 224.184 253.963 223.895C255.178 222.145 256.433 220.5 257.603 218.96V218.978C257.699 218.741 257.775 218.496 257.83 218.246C257.893 218.012 257.902 217.767 257.858 217.529C257.835 217.425 257.772 217.334 257.683 217.277C257.581 217.229 257.471 217.203 257.358 217.2C257.117 217.175 256.869 217.179 256.628 217.175C256.148 217.19 255.667 217.157 255.192 217.077C254.954 217.033 254.729 216.934 254.536 216.787C254.445 216.704 254.372 216.604 254.322 216.492C254.272 216.38 254.246 216.258 254.246 216.136V216.118L254.316 215.978V215.947H254.351L256.796 215.415H256.817L260.733 215.681L261.501 215.985H261.473L262.825 215.39L263.175 215.24L263.286 215.198L263.168 215.261L262.818 215.429L261.501 216.055H261.484L260.712 215.765L256.792 215.541H256.81L254.364 216.094L254.413 216.055L254.344 216.195V216.16C254.345 216.261 254.367 216.36 254.408 216.451C254.45 216.543 254.51 216.625 254.585 216.692C254.758 216.823 254.961 216.91 255.175 216.944C255.637 217.021 256.105 217.051 256.572 217.035C256.817 217.035 257.061 217.035 257.316 217.056C257.454 217.061 257.59 217.095 257.715 217.154C257.84 217.235 257.93 217.36 257.966 217.504C258.021 217.77 258.013 218.046 257.945 218.309C257.888 218.57 257.808 218.825 257.708 219.072C256.541 220.616 255.29 222.254 254.078 224.004C253.873 224.286 253.693 224.586 253.54 224.9C253.474 225.044 253.452 225.205 253.477 225.362C253.494 225.431 253.528 225.495 253.577 225.548C253.626 225.6 253.688 225.638 253.757 225.659C253.828 225.677 253.902 225.678 253.973 225.662C254.045 225.646 254.112 225.614 254.169 225.568L254.592 225.267L255.423 224.679L255.447 224.662H255.479C256.363 224.711 257.226 224.753 258.067 224.777H258.689H258.993H259.14C259.178 224.773 259.215 224.759 259.248 224.738C259.549 224.497 259.809 224.21 260.02 223.888C261.697 222.279 263.576 220.897 265.61 219.776L265.585 219.856L263.877 216.458C263.681 216.062 263.528 215.758 263.416 215.53L263.297 215.285L263.3 215.173Z" fill="#263238"/>
<path d="M258.808 221.694C258.301 222.249 257.761 222.772 257.191 223.262C256.733 223.685 256.314 224.063 256.01 224.333C255.853 224.49 255.679 224.629 255.489 224.746C255.962 224.158 256.49 223.616 257.065 223.129C257.596 222.592 258.18 222.111 258.808 221.694Z" fill="#263238"/>
<path d="M259.873 222.568C259.601 223.03 259.258 223.445 258.857 223.8C258.503 224.202 258.098 224.556 257.652 224.85C257.972 224.425 258.332 224.031 258.728 223.674C259.082 223.278 259.465 222.909 259.873 222.568Z" fill="#263238"/>
<path d="M95.1418 289.747C95.4352 288.61 94.6911 287.465 93.8562 286.639C93.0213 285.813 92.0222 285.075 91.589 283.983C90.8904 282.212 91.8301 279.923 90.6284 278.446C89.9297 277.578 88.6546 277.287 88.0293 276.346C87.7404 275.834 87.5485 275.273 87.4634 274.69C86.7939 271.749 85.3458 269.042 83.2714 266.854C83.1317 269.473 83.6976 272.082 84.9098 274.407C85.3989 275.334 85.9962 276.237 86.1569 277.273C86.4189 278.953 85.4792 280.686 85.8914 282.338C86.363 284.228 88.4835 285.488 88.5813 287.434C88.6686 289.079 87.2364 290.521 87.3446 292.162C87.4307 292.861 87.6809 293.529 88.0748 294.112C89.3428 296.212 91.2188 297.678 94.0134 297.633L97.4718 297.752L95.1418 289.747Z" fill="#5A9535"/>
<path d="M98.2019 297.85C98.5174 297.905 98.84 297.905 99.1556 297.85C99.5389 297.792 99.9156 297.698 100.28 297.566C100.785 297.392 101.258 297.134 101.678 296.803C101.928 296.601 102.124 296.339 102.247 296.04C102.354 295.701 102.409 295.347 102.411 294.99C102.416 294.616 102.443 294.242 102.492 293.87C102.56 293.475 102.704 293.096 102.914 292.754C103.323 292.036 104.001 291.354 104.217 290.384C104.434 289.415 104.284 288.389 104.123 287.346C103.962 286.303 103.809 285.173 104.203 284.091C104.598 283.01 105.335 282.026 105.713 280.805C106.09 279.583 105.915 278.246 105.996 276.937C106.02 276.273 106.173 275.619 106.446 275.012C106.726 274.4 107.113 273.819 107.417 273.175C108.032 271.869 108.14 270.375 108.308 268.94C108.387 268.207 108.47 267.469 108.556 266.724C108.605 265.974 108.734 265.232 108.94 264.509C109.173 263.778 109.449 263.061 109.768 262.363C109.933 262.002 110.067 261.627 110.17 261.243C110.228 260.848 110.265 260.449 110.282 260.05C110.318 259.25 110.287 258.448 110.188 257.652C110.093 256.851 109.95 256.06 109.866 255.258C109.866 255.209 109.866 255.164 109.866 255.118L109.849 254.961L109.705 255.031C108.972 255.405 108.335 255.944 107.843 256.606C107.366 257.249 106.982 257.956 106.701 258.706C106.125 260.197 105.915 261.758 105.625 263.256C105.335 264.754 104.965 266.21 104.203 267.456C103.823 268.072 103.365 268.635 102.963 269.237C102.534 269.823 102.241 270.498 102.104 271.211C101.901 272.678 102.708 273.966 102.541 275.264C102.458 275.902 102.243 276.515 101.908 277.063C101.594 277.616 101.21 278.113 100.86 278.645C100.503 279.149 100.192 279.685 99.9311 280.245C99.6863 280.798 99.5431 281.391 99.5084 281.995C99.4211 283.164 99.5887 284.273 99.5084 285.32C99.4132 286.316 99.1236 287.284 98.656 288.169C98.2368 289.019 97.7722 289.793 97.381 290.538C97.1853 290.913 97.0072 291.277 96.857 291.644C96.7195 291.999 96.6177 292.366 96.553 292.74C96.4512 293.395 96.443 294.06 96.5286 294.717C96.621 295.634 96.963 296.506 97.5172 297.241C97.6036 297.35 97.6982 297.451 97.8002 297.545C97.869 297.617 97.9451 297.682 98.0272 297.738C98.153 297.832 98.2228 297.874 98.2228 297.874C97.977 297.678 97.7522 297.456 97.5521 297.213C97.0187 296.478 96.695 295.612 96.6159 294.707C96.5383 294.058 96.5525 293.402 96.6578 292.757C96.7238 292.391 96.8268 292.032 96.9652 291.686C97.1218 291.315 97.2979 290.951 97.4927 290.598C97.884 289.856 98.3556 289.089 98.7818 288.232C99.2641 287.334 99.5645 286.349 99.6656 285.334C99.7564 284.263 99.5957 283.15 99.6831 282.009C99.7225 281.43 99.8645 280.862 100.102 280.332C100.358 279.782 100.666 279.257 101.021 278.764C101.37 278.25 101.744 277.735 102.069 277.172C102.42 276.602 102.645 275.964 102.729 275.299C102.897 273.917 102.097 272.618 102.303 271.257C102.438 270.573 102.722 269.928 103.134 269.367C103.529 268.775 103.99 268.212 104.378 267.578C105.164 266.308 105.545 264.813 105.835 263.319C106.125 261.824 106.338 260.277 106.904 258.818C107.176 258.084 107.551 257.392 108.018 256.763C108.488 256.129 109.098 255.611 109.8 255.251L109.643 255.164C109.643 255.206 109.643 255.255 109.643 255.304C109.73 256.116 109.877 256.91 109.967 257.698C110.058 258.479 110.081 259.265 110.037 260.05C110.023 260.438 109.988 260.824 109.932 261.208C109.832 261.578 109.703 261.938 109.545 262.286C109.224 262.993 108.945 263.717 108.71 264.456C108.503 265.192 108.373 265.948 108.322 266.71C108.238 267.456 108.158 268.194 108.074 268.926C107.91 270.382 107.802 271.838 107.211 273.098C106.918 273.724 106.53 274.305 106.244 274.939C105.962 275.568 105.804 276.245 105.779 276.934C105.706 278.271 105.877 279.58 105.517 280.763C105.157 281.946 104.403 282.926 104.022 284.046C103.641 285.166 103.784 286.345 103.948 287.381C104.113 288.417 104.298 289.439 104.06 290.36C103.823 291.28 103.201 291.966 102.785 292.705C102.568 293.059 102.423 293.453 102.359 293.863C102.311 294.24 102.287 294.618 102.286 294.997C102.286 295.339 102.235 295.679 102.135 296.005C102.02 296.289 101.836 296.539 101.601 296.733C101.197 297.06 100.743 297.319 100.256 297.5C99.8973 297.635 99.5264 297.736 99.1486 297.801C98.9179 297.842 98.6842 297.865 98.4499 297.867L98.2019 297.85Z" fill="#5A9535"/>
<path d="M109.133 257.033C109.115 257.066 109.103 257.101 109.098 257.138C109.077 257.218 109.052 257.323 109.021 257.449C108.954 257.722 108.874 258.132 108.741 258.65C108.609 259.168 108.294 259.742 108.043 260.459C107.791 261.177 107.48 261.992 107.218 262.909C106.956 263.826 106.722 264.859 106.478 265.958C106.268 267.132 105.895 268.272 105.37 269.342C105.087 269.906 104.766 270.476 104.514 271.092C104.264 271.731 104.096 272.399 104.015 273.08C103.843 274.493 103.594 275.895 103.271 277.28C102.572 280.122 101.915 282.824 101.315 285.288L99.6762 291.819C99.2185 293.667 98.8482 295.169 98.5897 296.226L98.3033 297.43C98.2753 297.556 98.2544 297.657 98.2369 297.741C98.2332 297.778 98.2332 297.814 98.2369 297.85C98.2369 297.85 98.2369 297.818 98.2753 297.748C98.3138 297.678 98.3277 297.566 98.3662 297.44C98.443 297.15 98.5513 296.74 98.691 296.25C98.967 295.2 99.3618 293.699 99.8438 291.858C100.326 290.017 100.892 287.791 101.531 285.341C102.17 282.891 102.803 280.171 103.505 277.329C103.829 275.944 104.077 274.542 104.249 273.129C104.327 272.466 104.488 271.814 104.728 271.19C104.972 270.581 105.286 270.014 105.569 269.44C106.098 268.353 106.47 267.196 106.673 266.003C106.911 264.901 107.134 263.875 107.372 262.955C107.61 262.034 107.892 261.205 108.158 260.505C108.423 259.805 108.717 259.206 108.857 258.674C108.996 258.142 109.042 257.74 109.098 257.46C109.119 257.334 109.136 257.229 109.154 257.145C109.152 257.107 109.145 257.069 109.133 257.033Z" fill="#263238"/>
<path d="M98.8133 297.867C101.073 296.523 101.72 292.439 100.78 289.982C99.8403 287.525 98.1845 285.278 97.9329 282.656C97.7373 280.64 98.3941 278.575 97.9329 276.605C97.3006 273.948 94.7121 271.887 94.74 269.157C94.74 267.624 95.6273 266.182 95.561 264.649C95.4736 262.773 94.0344 261.282 93.1436 259.626C91.7812 257.096 91.6903 254.1 91.2257 251.261C90.7611 248.423 89.6782 245.381 87.1665 243.985C86.7962 246.396 86.1604 248.048 86.3595 251.314C86.4329 252.486 87.7918 254.73 87.9769 257.302C88.0887 258.839 88.1656 260.375 88.2564 261.915C88.3472 263.455 88.445 264.932 88.9795 266.332C89.3917 267.407 90.052 268.38 90.3559 269.482C90.9288 271.565 90.1742 273.822 90.6389 275.933C91.0301 277.721 92.2667 279.261 92.5183 281.074C92.8676 283.622 91.2257 286.268 92.0676 288.701C92.4868 289.905 93.465 290.874 93.7584 292.12C93.975 293.086 93.7374 294.108 93.9366 295.078C94.2545 296.642 97.2308 297.857 98.8272 297.759" fill="#5A9535"/>
<path d="M87.7813 246.379C87.7767 246.424 87.7767 246.47 87.7813 246.515C87.7813 246.617 87.8092 246.746 87.8302 246.911C87.8826 247.261 87.942 247.768 88.0608 248.43C88.1795 249.091 88.5289 249.83 88.8014 250.747C89.0738 251.664 89.3743 252.686 89.6293 253.848C89.8843 255.01 90.1044 256.298 90.3279 257.677C90.5515 259.056 90.803 260.568 91.4877 262.006C91.8056 262.731 92.1584 263.455 92.4274 264.225C92.6873 265.019 92.8469 265.842 92.9025 266.675C93.0306 268.444 93.2521 270.205 93.5663 271.95C94.2649 275.523 94.9182 278.925 95.5155 282.019C96.1129 285.113 96.7172 287.885 97.1993 290.223C97.6814 292.561 98.0762 294.423 98.3521 295.75C98.4884 296.39 98.5967 296.895 98.6735 297.251C98.7119 297.412 98.7434 297.542 98.7643 297.64C98.7712 297.685 98.7841 297.728 98.8028 297.769C98.8082 297.725 98.8082 297.681 98.8028 297.637C98.7853 297.535 98.7608 297.405 98.7329 297.241C98.6665 296.891 98.5722 296.376 98.4499 295.733C98.1914 294.41 97.8211 292.519 97.367 290.192C96.9129 287.864 96.347 285.068 95.7321 281.981L93.8003 271.912C93.4851 270.175 93.2624 268.422 93.1331 266.662C93.075 265.813 92.9095 264.976 92.6405 264.169C92.3646 263.378 92.0047 262.654 91.6868 261.937C91.0091 260.516 90.7681 259.035 90.5236 257.656C90.279 256.277 90.0659 254.985 89.797 253.823C89.528 252.661 89.2345 251.618 88.9341 250.719C88.6337 249.819 88.2948 249.07 88.1586 248.423C88.0223 247.775 87.956 247.257 87.8896 246.914C87.8582 246.75 87.8372 246.62 87.8162 246.522C87.8102 246.473 87.7985 246.425 87.7813 246.379Z" fill="#263238"/>
<path d="M216.874 181.758H205.646V197.526H216.874V181.758Z" fill="#455A64"/>
<path d="M216.874 181.758H205.646V183.585H216.874V181.758Z" fill="#263238"/>
<path d="M216.874 195.699H205.646V197.526H216.874V195.699Z" fill="#263238"/>
<path d="M214.659 184.709H207.837V188.272H214.659V184.709Z" fill="#263238"/>
<path d="M212.864 186.491C212.846 186.491 212.846 186.347 212.78 186.109C212.68 185.771 212.473 185.475 212.189 185.266C211.962 185.096 211.692 184.992 211.41 184.967C211.127 184.942 210.843 184.996 210.59 185.123C210.336 185.25 210.123 185.445 209.973 185.687C209.824 185.928 209.745 186.206 209.744 186.491C209.745 186.801 209.84 187.105 210.018 187.36C210.195 187.615 210.446 187.81 210.736 187.919C210.976 188.008 211.234 188.036 211.487 188.001C211.74 187.965 211.98 187.867 212.186 187.716C212.466 187.506 212.672 187.211 212.773 186.876C212.839 186.634 212.839 186.491 212.857 186.491C212.874 186.491 212.857 186.526 212.857 186.596C212.859 186.696 212.848 186.796 212.825 186.893C212.747 187.259 212.543 187.586 212.249 187.817C212.029 187.992 211.768 188.107 211.491 188.152C211.214 188.198 210.93 188.171 210.666 188.076C210.34 187.959 210.057 187.744 209.858 187.46C209.658 187.177 209.551 186.838 209.551 186.491C209.551 186.143 209.658 185.804 209.858 185.521C210.057 185.237 210.34 185.022 210.666 184.905C210.93 184.811 211.214 184.786 211.491 184.831C211.767 184.877 212.028 184.991 212.249 185.164C212.544 185.395 212.748 185.724 212.825 186.092C212.848 186.189 212.859 186.289 212.857 186.389C212.874 186.456 212.871 186.491 212.864 186.491Z" fill="#455A64"/>
<path d="M208.623 189.644C208.623 189.697 208.607 189.748 208.578 189.792C208.549 189.836 208.507 189.87 208.459 189.89C208.41 189.91 208.357 189.915 208.305 189.905C208.254 189.895 208.207 189.869 208.169 189.832C208.132 189.795 208.107 189.747 208.097 189.696C208.087 189.644 208.092 189.591 208.112 189.542C208.132 189.494 208.166 189.452 208.21 189.423C208.253 189.394 208.305 189.378 208.357 189.378C208.428 189.378 208.495 189.406 208.545 189.456C208.595 189.506 208.623 189.573 208.623 189.644Z" fill="#263238"/>
<path d="M210.624 189.644C210.624 189.697 210.609 189.748 210.58 189.792C210.55 189.836 210.509 189.87 210.46 189.89C210.412 189.91 210.359 189.915 210.307 189.905C210.256 189.895 210.208 189.869 210.171 189.832C210.134 189.795 210.109 189.747 210.098 189.696C210.088 189.644 210.093 189.591 210.114 189.542C210.134 189.494 210.168 189.452 210.211 189.423C210.255 189.394 210.306 189.378 210.359 189.378C210.429 189.378 210.497 189.406 210.547 189.456C210.596 189.506 210.624 189.573 210.624 189.644Z" fill="#263238"/>
<path d="M212.626 189.644C212.626 189.714 212.598 189.78 212.549 189.83C212.5 189.879 212.434 189.907 212.364 189.907C212.311 189.907 212.259 189.892 212.215 189.863C212.171 189.834 212.137 189.793 212.116 189.744C212.095 189.695 212.09 189.641 212.1 189.589C212.11 189.538 212.136 189.49 212.173 189.452C212.21 189.415 212.258 189.39 212.31 189.379C212.361 189.369 212.415 189.375 212.464 189.395C212.512 189.416 212.554 189.451 212.583 189.495C212.612 189.539 212.627 189.591 212.626 189.644Z" fill="#263238"/>
<path d="M208.357 191.608C208.504 191.608 208.623 191.488 208.623 191.342C208.623 191.195 208.504 191.076 208.357 191.076C208.211 191.076 208.092 191.195 208.092 191.342C208.092 191.488 208.211 191.608 208.357 191.608Z" fill="#263238"/>
<path d="M210.624 191.342C210.624 191.394 210.609 191.446 210.58 191.489C210.55 191.533 210.509 191.567 210.46 191.587C210.412 191.607 210.359 191.613 210.307 191.602C210.256 191.592 210.208 191.567 210.171 191.53C210.134 191.492 210.109 191.445 210.098 191.393C210.088 191.342 210.093 191.288 210.114 191.24C210.134 191.191 210.168 191.15 210.211 191.12C210.255 191.091 210.306 191.076 210.359 191.076C210.429 191.076 210.497 191.104 210.547 191.153C210.596 191.203 210.624 191.271 210.624 191.342Z" fill="#263238"/>
<path d="M212.364 191.608C212.511 191.608 212.629 191.488 212.629 191.342C212.629 191.195 212.511 191.076 212.364 191.076C212.217 191.076 212.099 191.195 212.099 191.342C212.099 191.488 212.217 191.608 212.364 191.608Z" fill="#263238"/>
<path d="M208.357 193.309C208.504 193.309 208.623 193.189 208.623 193.043C208.623 192.896 208.504 192.777 208.357 192.777C208.211 192.777 208.092 192.896 208.092 193.043C208.092 193.189 208.211 193.309 208.357 193.309Z" fill="#263238"/>
<path d="M210.624 193.043C210.624 193.095 210.609 193.147 210.58 193.19C210.55 193.234 210.509 193.268 210.46 193.288C210.412 193.308 210.359 193.314 210.307 193.303C210.256 193.293 210.208 193.268 210.171 193.231C210.134 193.193 210.109 193.146 210.098 193.094C210.088 193.043 210.093 192.989 210.114 192.941C210.134 192.892 210.168 192.851 210.211 192.821C210.255 192.792 210.306 192.777 210.359 192.777C210.429 192.777 210.497 192.805 210.547 192.854C210.596 192.904 210.624 192.972 210.624 193.043Z" fill="#263238"/>
<path d="M212.364 193.309C212.511 193.309 212.629 193.189 212.629 193.043C212.629 192.896 212.511 192.777 212.364 192.777C212.217 192.777 212.099 192.896 212.099 193.043C212.099 193.189 212.217 193.309 212.364 193.309Z" fill="#263238"/>
<path d="M214.446 192.304C214.977 192.304 215.407 191.873 215.407 191.341C215.407 190.81 214.977 190.379 214.446 190.379C213.915 190.379 213.485 190.81 213.485 191.341C213.485 191.873 213.915 192.304 214.446 192.304Z" fill="#FF725E"/>
<path d="M200.854 146.307H194.356V297.766H200.854V146.307Z" fill="#263238"/>
<path d="M194.356 152.698H129.656V297.77H194.356V152.698Z" fill="#455A64"/>
<path d="M131.469 146.307H125.481V297.766H131.469V146.307Z" fill="#263238"/>
<path d="M200.854 146.307H125.481V152.698H200.854V146.307Z" fill="#263238"/>
<path d="M200.864 146.3C200.864 146.3 200.787 146.402 200.623 146.556L199.924 147.2L197.594 149.3C196.693 150.129 195.886 150.892 195.334 151.473C195.113 151.693 194.907 151.927 194.716 152.173C194.667 152.241 194.623 152.313 194.583 152.387C194.566 152.439 194.555 152.471 194.548 152.471C194.541 152.471 194.548 152.439 194.548 152.376C194.574 152.291 194.61 152.21 194.656 152.135C194.827 151.863 195.022 151.607 195.24 151.372C195.946 150.593 196.691 149.852 197.472 149.149C198.38 148.32 199.219 147.592 199.841 147.077C200.148 146.818 200.403 146.615 200.581 146.475C200.669 146.407 200.764 146.348 200.864 146.3Z" fill="#455A64"/>
<path d="M131.469 152.831C131.434 152.863 130.072 151.431 128.409 149.632C126.746 147.833 125.446 146.342 125.481 146.307C125.516 146.272 126.879 147.707 128.542 149.506C130.204 151.305 131.507 152.796 131.469 152.831Z" fill="#455A64"/>
<path d="M135.434 218.708H135.252C134.1 218.708 133.167 219.644 133.167 220.798V235.995C133.167 237.149 134.1 238.084 135.252 238.084H135.434C136.586 238.084 137.519 237.149 137.519 235.995V220.798C137.519 219.644 136.586 218.708 135.434 218.708Z" fill="#263238"/>
<path d="M136.237 233.324C136.24 233.191 136.207 233.06 136.141 232.944C136.076 232.828 135.98 232.733 135.865 232.667C135.749 232.601 135.618 232.568 135.485 232.571C135.353 232.573 135.223 232.612 135.11 232.682C134.998 232.753 134.906 232.852 134.845 232.97C134.784 233.089 134.757 233.221 134.765 233.354C134.773 233.487 134.816 233.615 134.891 233.725C134.966 233.835 135.069 233.922 135.189 233.979V234.85C135.189 234.937 135.224 235.021 135.286 235.083C135.347 235.144 135.431 235.179 135.518 235.179C135.561 235.179 135.604 235.171 135.644 235.155C135.685 235.139 135.721 235.114 135.752 235.084C135.783 235.053 135.808 235.017 135.824 234.977C135.841 234.937 135.85 234.894 135.85 234.85V233.996C135.97 233.931 136.07 233.834 136.139 233.715C136.207 233.596 136.241 233.461 136.237 233.324Z" fill="#455A64"/>
<path d="M146.165 225.232H136.395C135.783 225.232 135.287 225.729 135.287 226.341V226.439C135.287 227.052 135.783 227.549 136.395 227.549H146.165C146.777 227.549 147.273 227.052 147.273 226.439V226.341C147.273 225.729 146.777 225.232 146.165 225.232Z" fill="#263238"/>
<path d="M139.643 227.616C139.523 227.641 139.4 227.651 139.277 227.647L138.284 227.689C137.79 227.714 137.295 227.698 136.803 227.64C136.507 227.606 136.217 227.533 135.94 227.423C135.63 227.302 135.366 227.083 135.189 226.8C135.107 226.651 135.06 226.484 135.052 226.314C135.044 226.143 135.075 225.973 135.144 225.817C135.215 225.669 135.33 225.547 135.472 225.467C135.602 225.395 135.739 225.337 135.881 225.295C136.362 225.156 136.862 225.097 137.362 225.12C137.781 225.12 138.12 225.141 138.354 225.155C138.472 225.155 138.589 225.168 138.704 225.194C138.253 225.238 137.801 225.256 137.348 225.246C136.864 225.244 136.383 225.314 135.919 225.453C135.789 225.479 135.665 225.533 135.557 225.611C135.448 225.689 135.358 225.788 135.291 225.904C135.235 226.035 135.21 226.177 135.218 226.319C135.226 226.461 135.266 226.599 135.336 226.723C135.488 226.976 135.717 227.172 135.989 227.283C136.25 227.391 136.524 227.463 136.803 227.497C137.286 227.562 137.773 227.592 138.26 227.588C138.721 227.555 139.184 227.564 139.643 227.616Z" fill="#455A64"/>
<path d="M160.223 185.181C160.223 185.181 160.223 185.139 160.223 185.062C160.223 184.985 160.223 184.873 160.223 184.73C160.223 184.432 160.223 184.002 160.223 183.442C160.223 182.315 160.223 180.673 160.202 178.591C160.202 174.429 160.177 168.518 160.16 161.486L160.24 161.567H141.027L141.118 161.476C141.118 170.226 141.118 178.391 141.118 185.171L141.041 185.094L154.958 185.132L158.853 185.153H159.884H158.867L154.99 185.174L141.016 185.213H140.939V185.139C140.939 178.36 140.939 170.208 140.939 161.444V161.354H141.034H160.247H160.331V161.434C160.331 168.486 160.3 174.419 160.289 178.584C160.289 180.656 160.289 182.294 160.268 183.417C160.268 183.97 160.268 184.394 160.268 184.688C160.268 184.828 160.268 184.936 160.268 185.013C160.261 185.071 160.246 185.128 160.223 185.181Z" fill="#263238"/>
<path d="M157.065 182.249C157.062 182.218 157.062 182.188 157.065 182.158C157.065 182.091 157.065 182.007 157.065 181.902C157.065 181.668 157.065 181.339 157.065 180.912C157.065 180.044 157.065 178.787 157.044 177.198C157.044 174.017 157.019 169.498 157.002 164.185L157.086 164.266H143.856C143.835 164.266 144.027 164.094 143.947 164.178V165.428C143.947 165.844 143.947 166.261 143.947 166.674V169.124C143.947 170.737 143.947 172.309 143.947 173.828C143.947 176.866 143.947 179.697 143.947 182.228L143.874 182.151L153.47 182.193H156.146H156.844H157.093H156.858H156.16L153.501 182.214L143.856 182.252H143.779V182.179C143.779 179.641 143.779 176.81 143.779 173.779C143.779 172.26 143.779 170.688 143.779 169.075V164.192L143.874 164.098H157.103H157.183V164.182C157.166 169.533 157.152 174.055 157.141 177.251C157.141 178.829 157.141 180.079 157.12 180.943C157.12 181.363 157.12 181.685 157.12 181.916V182.165C157.065 182.221 157.065 182.249 157.065 182.249Z" fill="#263238"/>
<path d="M160.223 235.2C160.223 235.2 160.223 235.123 160.223 234.98C160.223 234.836 160.223 234.63 160.223 234.343C160.223 233.779 160.223 232.943 160.223 231.893C160.223 229.744 160.223 226.618 160.198 222.691C160.198 214.837 160.174 203.791 160.16 190.915L160.244 191.002H141.03L141.121 190.911C141.121 208.163 141.121 223.811 141.097 235.211L141.03 235.148L155.059 235.183H158.902H159.901H160.251C160.251 235.183 160.142 235.183 159.901 235.183H158.916L155.105 235.2L141.034 235.235H140.971V235.2C140.971 223.797 140.971 208.152 140.943 190.901V190.81H160.32V190.897C160.303 203.781 160.289 214.862 160.278 222.747C160.278 226.671 160.261 229.789 160.258 231.931C160.258 232.981 160.258 233.818 160.258 234.381C160.258 234.654 160.258 234.864 160.258 235.008C160.258 235.151 160.223 235.2 160.223 235.2Z" fill="#263238"/>
<path d="M157.065 232.75C157.065 232.75 157.065 232.68 157.065 232.554C157.065 232.428 157.065 232.229 157.065 231.984C157.065 231.476 157.065 230.741 157.065 229.789C157.065 227.875 157.065 225.096 157.04 221.617C157.04 214.659 157.016 204.89 156.998 193.634L157.089 193.722H143.835L143.926 193.631C143.926 209.269 143.902 223.303 143.895 232.746L143.835 232.687L153.54 232.719H156.149H156.827H157.065H156.841H156.174L153.575 232.736L143.835 232.767H143.773V232.75C143.773 223.3 143.755 209.272 143.741 193.634V193.55H157.152V193.638C157.135 204.918 157.121 214.708 157.11 221.68C157.11 225.152 157.093 227.924 157.086 229.831C157.086 230.776 157.086 231.508 157.086 232.008C157.086 232.25 157.086 232.435 157.086 232.568C157.086 232.701 157.065 232.75 157.065 232.75Z" fill="#263238"/>
<path d="M160.223 291.298C160.223 291.298 160.223 291.221 160.223 291.078C160.223 290.934 160.223 290.728 160.223 290.441C160.223 289.877 160.223 289.041 160.223 287.991C160.223 285.842 160.223 282.716 160.198 278.789C160.198 270.935 160.174 259.872 160.16 247.013L160.244 247.1H141.03L141.121 247.009C141.121 264.261 141.121 279.909 141.097 291.309L141.03 291.242L155.059 291.281H158.902H159.901H158.916L155.105 291.298L141.034 291.333H140.971V291.267C140.971 279.864 140.971 264.219 140.943 246.967V246.876H160.32V246.964C160.303 259.847 160.289 270.928 160.278 278.814C160.278 282.737 160.261 285.856 160.258 287.998C160.258 289.048 160.258 289.884 160.258 290.448C160.258 290.721 160.258 290.931 160.258 291.074C160.258 291.218 160.223 291.298 160.223 291.298Z" fill="#263238"/>
<path d="M157.065 288.845C157.065 288.845 157.065 288.775 157.065 288.645C157.065 288.516 157.065 288.323 157.065 288.078C157.065 287.571 157.065 286.836 157.065 285.884C157.065 283.969 157.065 281.19 157.04 277.711C157.04 270.753 157.016 260.985 156.998 249.729L157.089 249.816H143.835L143.926 249.725C143.926 265.363 143.902 279.398 143.895 288.841L143.835 288.782L153.54 288.813H156.149H156.827H157.065H156.841H156.174L153.575 288.831L143.835 288.862H143.773V288.803C143.773 279.353 143.755 265.325 143.741 249.687V249.596H157.152V249.683C157.135 260.964 157.121 270.753 157.11 277.725C157.11 281.197 157.093 283.969 157.086 285.877C157.086 286.822 157.086 287.553 157.086 288.054C157.086 288.295 157.086 288.481 157.086 288.614C157.086 288.747 157.065 288.845 157.065 288.845Z" fill="#263238"/>
<path d="M144.143 182.238C143.638 182.77 143.089 183.259 142.501 183.698C141.955 184.181 141.371 184.62 140.754 185.01C141.262 184.482 141.811 183.995 142.396 183.554C142.943 183.07 143.527 182.63 144.143 182.238Z" fill="#263238"/>
<path d="M160.341 184.832C159.732 184.526 159.166 184.141 158.658 183.687C158.113 183.277 157.623 182.799 157.197 182.266C157.236 182.228 157.896 182.84 158.773 183.544C159.65 184.247 160.362 184.8 160.341 184.832Z" fill="#263238"/>
<path d="M159.94 162.05C159.496 162.486 159.01 162.878 158.49 163.219C158.006 163.611 157.484 163.953 156.932 164.241C157.376 163.805 157.862 163.413 158.382 163.072C158.867 162.682 159.389 162.34 159.94 162.05Z" fill="#263238"/>
<path d="M143.888 163.884C143.32 163.66 142.785 163.358 142.298 162.988C141.78 162.666 141.31 162.272 140.901 161.819C141.422 162.13 141.924 162.47 142.407 162.838C142.921 163.157 143.415 163.506 143.888 163.884Z" fill="#263238"/>
<path d="M143.765 193.68C142.548 192.977 141.592 191.896 141.044 190.6C141.093 190.575 141.533 191.394 142.291 192.241C143.049 193.088 143.797 193.634 143.765 193.68Z" fill="#263238"/>
<path d="M159.992 190.872C159.581 191.355 159.125 191.797 158.63 192.192C158.175 192.633 157.679 193.029 157.148 193.375C157.56 192.893 158.016 192.452 158.511 192.055C158.965 191.614 159.461 191.218 159.992 190.872Z" fill="#263238"/>
<path d="M143.758 232.939C143.786 232.984 143.151 233.446 142.428 234.09C141.704 234.734 141.163 235.312 141.125 235.277C141.441 234.772 141.84 234.325 142.305 233.954C142.732 233.54 143.223 233.197 143.758 232.939Z" fill="#263238"/>
<path d="M159.685 235.151C158.754 234.462 157.902 233.673 157.141 232.799C157.623 233.122 158.07 233.494 158.476 233.909C158.92 234.28 159.325 234.696 159.685 235.151Z" fill="#263238"/>
<path d="M144.083 250.25C143.505 249.778 142.965 249.259 142.469 248.7C141.933 248.18 141.437 247.62 140.988 247.023C141.567 247.495 142.107 248.014 142.602 248.574C143.142 249.089 143.638 249.65 144.083 250.25Z" fill="#263238"/>
<path d="M160.16 246.887C159.712 247.44 159.22 247.956 158.689 248.43C158.198 248.942 157.664 249.41 157.093 249.83C158.03 248.759 159.056 247.77 160.16 246.872V246.887Z" fill="#263238"/>
<path d="M143.444 288.617C142.739 289.58 141.937 290.468 141.051 291.267C141.756 290.304 142.558 289.416 143.444 288.617Z" fill="#263238"/>
<path d="M159.905 291.298C159.358 290.973 158.857 290.578 158.413 290.122C157.933 289.711 157.506 289.241 157.145 288.722C157.636 289.121 158.102 289.549 158.542 290.003C159.022 290.407 159.477 290.839 159.905 291.298Z" fill="#263238"/>
<path d="M185.776 185.181C185.776 185.181 185.776 185.139 185.776 185.062C185.776 184.985 185.776 184.873 185.776 184.73C185.776 184.432 185.776 184.002 185.776 183.442C185.776 182.315 185.776 180.673 185.755 178.591C185.755 174.429 185.731 168.518 185.713 161.486L185.794 161.567H166.598L166.689 161.476C166.689 170.226 166.689 178.391 166.689 185.171L166.612 185.094L180.533 185.132L184.424 185.153H185.472H184.456L180.578 185.174L166.605 185.213H166.528V185.139C166.528 178.36 166.528 170.208 166.528 161.444V161.354H166.622H185.818H185.902V161.434C185.885 168.486 185.871 174.419 185.86 178.584C185.86 180.656 185.843 182.294 185.839 183.417C185.839 183.97 185.839 184.394 185.839 184.688C185.839 184.828 185.839 184.936 185.839 185.013C185.827 185.072 185.805 185.129 185.776 185.181Z" fill="#263238"/>
<path d="M182.618 182.249C182.616 182.218 182.616 182.188 182.618 182.158C182.618 182.091 182.618 182.007 182.618 181.902C182.618 181.668 182.618 181.339 182.618 180.912C182.618 180.044 182.618 178.787 182.597 177.198C182.597 174.017 182.573 169.498 182.556 164.185L182.639 164.266H169.41C169.389 164.266 169.581 164.094 169.501 164.178V165.428C169.501 165.844 169.501 166.261 169.501 166.674V169.124C169.501 170.737 169.501 172.309 169.501 173.828C169.501 176.866 169.501 179.697 169.501 182.228L169.428 182.151L179.024 182.193H181.7H182.398H182.646H182.412H181.714L179.055 182.214L169.41 182.252H169.333V182.179C169.333 179.641 169.333 176.81 169.333 173.779C169.333 172.26 169.333 170.688 169.333 169.075V166.625C169.333 166.212 169.333 165.795 169.333 165.379V164.192L169.428 164.098H182.657H182.699V164.182C182.681 169.533 182.667 174.055 182.657 177.251C182.657 178.829 182.657 180.079 182.636 180.943C182.636 181.363 182.636 181.685 182.636 181.916V182.165C182.618 182.221 182.618 182.249 182.618 182.249Z" fill="#263238"/>
<path d="M185.776 235.2C185.776 235.2 185.776 235.123 185.776 234.98C185.776 234.836 185.776 234.63 185.776 234.343C185.776 233.779 185.776 232.943 185.776 231.893C185.776 229.744 185.776 226.618 185.752 222.691C185.752 214.837 185.727 203.791 185.713 190.915L185.797 191.002H166.584L166.675 190.911C166.675 208.163 166.657 223.811 166.65 235.211L166.584 235.148L180.613 235.183H184.456H185.455H185.804C185.804 235.183 185.696 235.183 185.472 235.183L184.445 235.2L180.634 235.218L166.563 235.253H166.5V235.2C166.5 223.797 166.483 208.152 166.472 190.901V190.81H185.85V190.897C185.832 203.781 185.818 214.862 185.808 222.747C185.808 226.671 185.79 229.789 185.787 231.931C185.787 232.981 185.787 233.818 185.787 234.381C185.787 234.654 185.787 234.864 185.787 235.008C185.787 235.151 185.776 235.2 185.776 235.2Z" fill="#263238"/>
<path d="M182.618 232.75C182.618 232.75 182.618 232.68 182.618 232.554C182.618 232.428 182.618 232.229 182.618 231.984C182.618 231.476 182.618 230.741 182.618 229.789C182.618 227.875 182.618 225.096 182.594 221.617C182.594 214.659 182.569 204.89 182.552 193.634L182.643 193.722H169.389L169.48 193.631C169.48 209.269 169.455 223.303 169.449 232.746L169.389 232.687L179.094 232.719H181.703H182.381H182.618H182.395H181.728L179.132 232.736L169.389 232.767H169.326V232.75C169.326 223.3 169.309 209.272 169.295 193.634V193.55H182.699V193.638C182.699 204.918 182.667 214.708 182.657 221.68C182.657 225.152 182.657 227.924 182.632 229.831C182.632 230.776 182.632 231.508 182.632 232.008C182.632 232.25 182.632 232.435 182.632 232.568C182.632 232.701 182.618 232.75 182.618 232.75Z" fill="#263238"/>
<path d="M185.776 291.298C185.776 291.298 185.776 291.221 185.776 291.078C185.776 290.934 185.776 290.728 185.776 290.441C185.776 289.877 185.776 289.041 185.776 287.991C185.776 285.842 185.776 282.716 185.752 278.789C185.752 270.935 185.727 259.872 185.714 247.013L185.797 247.1H166.584L166.675 247.009C166.675 264.261 166.657 279.909 166.65 291.309L166.584 291.242L180.613 291.281H184.456H185.455H185.804H185.472H184.487L180.676 291.298L166.605 291.333H166.542V291.267C166.542 279.864 166.525 264.219 166.514 246.967V246.876H185.892V246.964C185.874 259.847 185.86 270.928 185.85 278.814C185.85 282.737 185.832 285.856 185.829 287.998C185.829 289.048 185.829 289.884 185.829 290.448C185.829 290.721 185.829 290.931 185.829 291.074C185.829 291.218 185.776 291.298 185.776 291.298Z" fill="#263238"/>
<path d="M182.618 288.845C182.618 288.845 182.618 288.775 182.618 288.645C182.618 288.516 182.618 288.323 182.618 288.078C182.618 287.571 182.618 286.836 182.618 285.884C182.618 283.969 182.618 281.19 182.594 277.711C182.594 270.753 182.569 260.985 182.552 249.729L182.643 249.816H169.389L169.48 249.725C169.48 265.363 169.455 279.398 169.449 288.841L169.389 288.782L179.094 288.813H181.703H182.381H182.618H182.395H181.728L179.132 288.831L169.389 288.862H169.326V288.803C169.326 279.353 169.309 265.325 169.295 249.687V249.596H182.699V249.683C182.699 260.964 182.667 270.753 182.657 277.725C182.657 281.197 182.657 283.969 182.632 285.877C182.632 286.822 182.632 287.553 182.632 288.054C182.632 288.295 182.632 288.481 182.632 288.614C182.632 288.747 182.618 288.845 182.618 288.845Z" fill="#263238"/>
<path d="M169.697 182.238C169.192 182.77 168.642 183.259 168.055 183.698C167.509 184.181 166.925 184.62 166.308 185.01C166.816 184.482 167.365 183.995 167.95 183.554C168.496 183.07 169.08 182.63 169.697 182.238Z" fill="#263238"/>
<path d="M185.888 184.832C185.279 184.526 184.713 184.141 184.204 183.687C183.66 183.277 183.169 182.799 182.744 182.266C182.783 182.228 183.443 182.84 184.32 183.544C185.196 184.247 185.916 184.8 185.888 184.832Z" fill="#263238"/>
<path d="M185.493 162.05C185.049 162.486 184.564 162.878 184.044 163.219C183.559 163.611 183.037 163.953 182.486 164.241C182.931 163.806 183.416 163.415 183.935 163.072C184.421 162.682 184.942 162.34 185.493 162.05Z" fill="#263238"/>
<path d="M169.442 163.884C168.873 163.66 168.338 163.358 167.852 162.988C167.334 162.666 166.864 162.272 166.455 161.819C166.975 162.13 167.478 162.47 167.96 162.838C168.474 163.157 168.969 163.506 169.442 163.884Z" fill="#263238"/>
<path d="M169.319 193.68C168.102 192.977 167.146 191.896 166.598 190.6C166.647 190.575 167.087 191.394 167.845 192.241C168.603 193.088 169.351 193.634 169.319 193.68Z" fill="#263238"/>
<path d="M185.539 190.872C185.128 191.355 184.672 191.797 184.176 192.192C183.723 192.633 183.228 193.029 182.699 193.375C183.111 192.893 183.567 192.452 184.061 192.055C184.514 191.614 185.009 191.218 185.539 190.872Z" fill="#263238"/>
<path d="M169.312 232.939C169.34 232.984 168.704 233.446 167.981 234.09C167.258 234.734 166.717 235.312 166.678 235.277C166.994 234.772 167.394 234.325 167.859 233.954C168.286 233.54 168.777 233.197 169.312 232.939Z" fill="#263238"/>
<path d="M185.238 235.151C184.308 234.462 183.455 233.673 182.695 232.799C183.176 233.122 183.624 233.494 184.03 233.909C184.474 234.28 184.879 234.696 185.238 235.151Z" fill="#263238"/>
<path d="M169.637 250.25C169.058 249.778 168.519 249.259 168.023 248.7C167.486 248.18 166.991 247.62 166.542 247.023C167.122 247.494 167.662 248.013 168.156 248.574C168.696 249.089 169.191 249.65 169.637 250.25Z" fill="#263238"/>
<path d="M185.714 246.887C185.267 247.441 184.775 247.958 184.243 248.43C183.752 248.942 183.218 249.41 182.646 249.83C183.583 248.759 184.61 247.77 185.714 246.872V246.887Z" fill="#263238"/>
<path d="M168.998 288.617C168.293 289.58 167.491 290.468 166.605 291.267C166.932 290.762 167.31 290.293 167.733 289.867C168.113 289.409 168.536 288.991 168.998 288.617Z" fill="#263238"/>
<path d="M185.458 291.298C184.912 290.973 184.41 290.578 183.967 290.122C183.486 289.711 183.06 289.241 182.699 288.722C183.189 289.121 183.656 289.549 184.096 290.003C184.576 290.407 185.031 290.839 185.458 291.298Z" fill="#263238"/>
<path d="M223.455 266.906H180.606V297.769H223.455V266.906Z" fill="#FF725E"/>
<path d="M192.099 266.906C192.159 266.906 192.099 273.423 192.099 273.423H188.927V266.906H192.099Z" fill="#263238"/>
<g opacity="0.4">
<path d="M202.031 297.77H223.455V266.907H202.031V297.77Z" fill="black"/>
</g>
<path d="M187.649 291.729H181.913V295.796H187.649V291.729Z" fill="#FAFAFA"/>
<path d="M187.656 295.803H181.902V291.718H187.656V295.803ZM181.92 295.803H187.638V291.736H181.92V295.803Z" fill="#263238"/>
<path d="M191.575 291.729H188.707V295.796H191.575V291.729Z" fill="#FAFAFA"/>
<path d="M191.582 295.803H188.697V291.718H191.582V295.803ZM188.718 295.803H191.565V291.736H188.718V295.803Z" fill="#263238"/>
</svg>
