<svg width="360" height="410" viewBox="0 0 360 410" fill="none" xmlns="http://www.w3.org/2000/svg">
<path d="M30.0837 238.575C20.7323 193.602 39.4314 148.832 68.7513 113.495C96.6103 79.9195 136.46 60.2461 180.064 57.8194C226.142 55.2549 274.128 65.7287 304.63 100.368C336.141 136.154 344.884 186.53 334.289 232.967C323.925 278.391 292.298 315.085 250.798 336.309C208.887 357.744 159.809 363.311 116.729 344.235C72.901 324.827 39.833 285.463 30.0837 238.575Z" fill="#F2F2F2"/>
<path d="M254.059 289.37C242.083 284.625 236.587 271.852 234.155 259.779C233.747 257.763 233.028 255.707 233.564 253.728C234.1 251.75 236.033 250.023 238.02 250.44C239.674 250.788 240.732 252.359 241.9 253.591C243.461 255.233 245.455 256.4 247.652 256.957C249.081 257.319 250.753 257.347 251.843 256.357C253.345 254.983 252.983 252.565 252.498 250.577L249.791 239.476C249.305 237.492 248.82 235.463 248.989 233.425C249.159 231.387 250.111 229.303 251.879 228.337C253.647 227.371 256.239 227.879 257.101 229.748C257.462 230.517 257.494 231.396 257.746 232.207C257.998 233.018 258.598 233.842 259.436 233.888C260.274 233.934 260.948 233.178 261.406 232.454C262.981 229.963 263.76 227.045 264.451 224.165C265.143 221.284 265.784 218.348 267.126 215.719C268.468 213.09 270.634 210.741 273.442 209.902C276.249 209.064 279.703 210.104 281.086 212.728C282.469 215.353 281.512 218.595 280.271 221.284C278.428 225.273 276.018 228.975 273.117 232.276C272.599 232.867 272.031 233.508 271.967 234.305C271.848 235.729 273.419 236.75 274.83 236.874C276.428 237.016 278.004 236.48 279.597 236.297C281.191 236.114 283.032 236.398 283.967 237.721C285.263 239.553 284.068 242.095 282.726 243.886C280.038 247.475 276.752 250.574 273.011 253.046C271.679 253.925 270.263 254.764 269.311 256.069C268.358 257.374 268.088 259.334 269.132 260.566C270.176 261.798 272.114 261.812 273.579 261.166C275.045 260.521 276.217 259.362 277.55 258.464C280.037 256.783 283.61 256.133 285.922 258.079C287.438 259.362 288.057 261.496 287.91 263.488C287.764 265.481 286.967 267.349 286.078 269.117C282.9 275.314 278.274 280.81 272.457 284.474C266.641 288.138 260.907 290.162 254.059 289.356" fill="#00AB00"/>
<path d="M255.369 281.126C255.81 274.129 256.653 267.164 257.893 260.264C258.198 258.432 258.513 256.62 258.836 254.828C259.148 253.046 259.459 251.278 259.872 249.565C260.665 246.282 261.64 243.045 262.794 239.869C263.87 236.833 265.006 233.989 266.087 231.337C267.167 228.685 268.23 226.235 269.293 224.041C270.947 220.57 272.877 217.238 275.063 214.075C275.833 212.957 276.46 212.105 276.895 211.537C277.106 211.269 277.271 211.054 277.39 210.892C277.443 210.815 277.504 210.744 277.573 210.681C277.53 210.764 277.479 210.844 277.422 210.919L276.964 211.583C276.552 212.17 275.943 213.031 275.192 214.157C273.063 217.347 271.174 220.69 269.54 224.16C268.5 226.354 267.456 228.804 266.384 231.456C265.313 234.108 264.195 236.952 263.128 239.993C261.989 243.162 261.024 246.391 260.238 249.666C259.83 251.37 259.523 253.124 259.212 254.91C258.901 256.696 258.589 258.51 258.273 260.342C257.034 267.227 256.184 274.177 255.727 281.158" fill="#E0E0E0"/>
<path d="M259.972 249.529C259.809 249.276 259.676 249.005 259.574 248.723C259.34 248.2 259.024 247.431 258.658 246.474C257.907 244.559 256.958 241.894 255.91 238.926C254.861 235.958 253.894 233.311 253.12 231.415C252.731 230.467 252.411 229.702 252.182 229.175C252.045 228.909 251.94 228.628 251.87 228.337C252.051 228.577 252.204 228.837 252.328 229.111C252.598 229.619 252.956 230.37 253.377 231.309C254.22 233.187 255.246 235.839 256.281 238.798C257.316 241.756 258.204 244.362 258.905 246.378L259.716 248.668C259.831 248.945 259.917 249.233 259.972 249.529Z" fill="#E0E0E0"/>
<path d="M284.406 238.674C284.088 238.828 283.755 238.951 283.413 239.04C282.771 239.251 281.842 239.558 280.701 239.956C278.411 240.762 275.311 241.99 271.935 243.497C268.56 245.004 265.564 246.501 263.43 247.646C262.358 248.214 261.502 248.695 260.911 249.02C260.613 249.21 260.299 249.372 259.972 249.506C260.239 249.276 260.527 249.072 260.833 248.897C261.406 248.526 262.244 248.008 263.302 247.413C265.409 246.204 268.395 244.665 271.779 243.149C274.665 241.848 277.615 240.697 280.619 239.7C281.768 239.32 282.716 239.054 283.367 238.885C283.705 238.78 284.054 238.709 284.406 238.674Z" fill="#E0E0E0"/>
<path d="M255.571 280.581C255.478 280.501 255.395 280.41 255.324 280.311L254.669 279.491C254.101 278.772 253.295 277.714 252.342 276.399C250.414 273.761 247.867 270.033 245.11 265.888C242.353 261.743 239.839 257.992 237.97 255.318L235.744 252.158C235.501 251.814 235.286 251.53 235.144 251.297C235.002 251.063 234.943 250.99 234.956 250.98C234.97 250.971 235.048 251.063 235.204 251.251L235.859 252.071C236.426 252.785 237.233 253.843 238.185 255.162C240.113 257.8 242.66 261.524 245.422 265.673C248.183 269.823 250.689 273.569 252.557 276.239L254.783 279.399L255.383 280.265C255.516 280.462 255.585 280.572 255.571 280.581Z" fill="#E0E0E0"/>
<path d="M286.953 261.574C286.861 261.661 286.758 261.735 286.646 261.794L285.73 262.357L282.373 264.4C279.533 266.127 275.645 268.554 271.354 271.242C267.062 273.931 263.142 276.326 260.27 277.993C258.836 278.827 257.664 279.486 256.849 279.931L255.905 280.434C255.798 280.5 255.682 280.551 255.562 280.586C255.654 280.499 255.757 280.425 255.869 280.366L256.785 279.802L260.142 277.76C262.981 276.033 266.87 273.606 271.166 270.917C275.462 268.229 279.373 265.838 282.245 264.171C283.678 263.337 284.846 262.673 285.666 262.229L286.61 261.73C286.716 261.662 286.832 261.609 286.953 261.574Z" fill="#E0E0E0"/>
<path d="M165.565 143.57L136.019 146.662L133.587 126.134L163.133 123.038L165.565 143.57Z" fill="#F5F5F5"/>
<path d="M154.596 132.162C154.651 132.111 157.174 134.671 160.238 137.887C163.302 141.102 165.734 143.754 165.688 143.804C165.643 143.854 163.11 141.294 160.046 138.079C156.982 134.864 154.541 132.216 154.596 132.162Z" fill="#E0E0E0"/>
<path d="M255.868 133.732C255.875 130.931 255.235 128.167 253.999 125.653C252.763 123.14 250.963 120.946 248.74 119.242C246.517 117.537 243.931 116.369 241.183 115.827C238.435 115.286 235.599 115.386 232.895 116.119C230.192 116.853 227.695 118.2 225.597 120.057C223.5 121.913 221.859 124.228 220.802 126.822C219.746 129.417 219.302 132.22 219.506 135.013C219.709 137.807 220.555 140.516 221.976 142.929L222.027 142.998C222.723 144.175 223.598 145.018 224.482 146.254L235.048 160.255C235.355 160.66 235.752 160.989 236.207 161.215C236.662 161.441 237.164 161.559 237.672 161.559C238.181 161.559 238.682 161.441 239.137 161.215C239.593 160.989 239.989 160.66 240.296 160.255L250.693 146.483C251.638 145.365 252.521 144.196 253.336 142.979L253.368 142.952C255.011 140.158 255.875 136.974 255.868 133.732ZM237.663 141.66C236.078 141.66 234.528 141.19 233.21 140.31C231.892 139.429 230.865 138.177 230.258 136.713C229.651 135.248 229.493 133.637 229.802 132.082C230.111 130.527 230.875 129.099 231.996 127.978C233.116 126.857 234.545 126.094 236.099 125.784C237.654 125.475 239.266 125.634 240.73 126.241C242.195 126.847 243.446 127.874 244.327 129.193C245.208 130.511 245.678 132.06 245.678 133.645C245.678 135.771 244.834 137.81 243.33 139.313C241.827 140.816 239.789 141.66 237.663 141.66Z" fill="#F5F5F5"/>
<path d="M269.792 164.977C269.802 163.463 269.461 161.966 268.797 160.605C268.132 159.244 267.162 158.055 265.962 157.132C264.762 156.208 263.364 155.574 261.879 155.28C260.393 154.986 258.859 155.04 257.398 155.437C255.936 155.834 254.586 156.564 253.454 157.569C252.321 158.574 251.436 159.828 250.869 161.232C250.301 162.637 250.066 164.153 250.182 165.663C250.297 167.173 250.761 168.636 251.536 169.937L251.563 169.974C251.939 170.606 252.411 171.064 252.887 171.728L258.589 179.281C258.754 179.5 258.967 179.677 259.212 179.8C259.458 179.922 259.728 179.986 260.002 179.986C260.276 179.986 260.546 179.922 260.792 179.8C261.037 179.677 261.25 179.5 261.415 179.281L267.021 171.852C267.532 171.25 268.009 170.62 268.45 169.965V169.937C269.333 168.434 269.796 166.721 269.792 164.977ZM259.972 169.25C259.118 169.249 258.284 168.995 257.574 168.52C256.864 168.045 256.311 167.37 255.985 166.581C255.659 165.792 255.574 164.924 255.741 164.086C255.908 163.249 256.32 162.479 256.924 161.876C257.529 161.272 258.298 160.861 259.136 160.695C259.973 160.529 260.842 160.615 261.631 160.942C262.419 161.269 263.094 161.822 263.568 162.532C264.042 163.243 264.296 164.077 264.296 164.931C264.296 165.499 264.184 166.061 263.966 166.585C263.749 167.11 263.431 167.586 263.029 167.987C262.628 168.388 262.151 168.706 261.626 168.923C261.102 169.14 260.54 169.251 259.972 169.25Z" fill="#EBEBEB"/>
<path d="M287.887 289.407C287.887 289.475 242.491 289.526 186.505 289.526C130.519 289.526 85.1125 289.475 85.1125 289.407C85.1125 289.338 130.5 289.288 186.505 289.288C242.509 289.288 287.887 289.343 287.887 289.407Z" fill="#263238"/>
<path d="M158.722 131.475L161.736 174.16C161.975 177.519 163.478 180.663 165.943 182.958C168.407 185.253 171.65 186.528 175.018 186.526C176.841 186.526 178.644 186.152 180.317 185.427C181.989 184.701 183.494 183.64 184.74 182.309C185.985 180.978 186.944 179.405 187.556 177.688C188.168 175.971 188.422 174.147 188.3 172.328C188.034 168.266 187.792 164.941 187.792 164.941C187.792 164.941 198.129 163.333 198.257 153.001C198.33 147.047 197.3 133.49 196.425 123.116C196.136 119.733 194.587 116.582 192.086 114.286C189.585 111.991 186.313 110.717 182.918 110.718H176.658C174.104 110.867 171.606 111.527 169.312 112.658C167.018 113.79 164.975 115.37 163.302 117.305C161.63 119.241 160.363 121.492 159.576 123.926C158.79 126.359 158.499 128.926 158.722 131.475Z" fill="#B78876"/>
<path d="M187.801 164.812C187.801 164.812 181.27 165.344 174.331 160.983C174.331 160.983 177.514 168.421 187.823 167.492L187.801 164.812Z" fill="#AA6550"/>
<path d="M193.196 135.624C193.2 136.009 193.053 136.38 192.787 136.658C192.521 136.936 192.156 137.099 191.772 137.112C191.584 137.127 191.395 137.105 191.217 137.046C191.038 136.987 190.873 136.892 190.732 136.769C190.59 136.645 190.474 136.494 190.392 136.325C190.309 136.156 190.261 135.972 190.251 135.784C190.247 135.4 190.393 135.029 190.658 134.75C190.923 134.471 191.287 134.307 191.671 134.291C191.859 134.276 192.048 134.299 192.227 134.358C192.407 134.418 192.572 134.512 192.714 134.636C192.856 134.761 192.972 134.912 193.055 135.081C193.138 135.251 193.186 135.436 193.196 135.624Z" fill="#263238"/>
<path d="M194.625 133.499C194.442 133.691 193.324 132.867 191.74 132.871C190.155 132.876 188.992 133.668 188.813 133.476C188.73 133.389 188.918 133.018 189.422 132.67C190.109 132.195 190.927 131.944 191.762 131.951C192.585 131.947 193.388 132.207 194.052 132.693C194.552 133.068 194.717 133.416 194.625 133.499Z" fill="#263238"/>
<path d="M177.702 135.624C177.706 136.009 177.559 136.38 177.293 136.658C177.027 136.936 176.662 137.099 176.277 137.112C176.09 137.127 175.901 137.105 175.723 137.046C175.544 136.987 175.379 136.892 175.237 136.769C175.096 136.645 174.98 136.494 174.898 136.325C174.815 136.156 174.767 135.972 174.757 135.784C174.753 135.399 174.9 135.027 175.166 134.748C175.432 134.47 175.796 134.306 176.181 134.291C176.369 134.277 176.558 134.3 176.736 134.36C176.915 134.419 177.08 134.514 177.222 134.638C177.363 134.762 177.479 134.913 177.561 135.083C177.644 135.252 177.691 135.436 177.702 135.624Z" fill="#263238"/>
<path d="M179.021 133.792C178.838 133.984 177.716 133.155 176.131 133.16C174.546 133.165 173.383 133.961 173.204 133.765C173.122 133.678 173.305 133.334 173.813 132.963C174.502 132.49 175.318 132.238 176.154 132.239C176.976 132.242 177.776 132.502 178.444 132.981C178.943 133.361 179.108 133.71 179.021 133.792Z" fill="#263238"/>
<path d="M184.782 145.572C184.782 145.48 185.762 145.311 187.361 145.114C187.764 145.068 188.149 144.99 188.217 144.711C188.252 144.292 188.158 143.874 187.947 143.511C187.569 142.531 187.169 141.502 186.747 140.424C185.085 136.027 183.876 132.413 184.054 132.349C184.233 132.285 185.726 135.793 187.393 140.186C187.793 141.273 188.176 142.309 188.543 143.295C188.694 143.753 188.959 144.276 188.749 144.885C188.691 145.028 188.601 145.156 188.486 145.258C188.371 145.361 188.233 145.435 188.085 145.476C187.861 145.539 187.63 145.572 187.398 145.572C185.785 145.654 184.787 145.663 184.782 145.572Z" fill="#263238"/>
<path d="M180.111 146.671C180.367 146.671 180.372 148.379 181.847 149.602C183.321 150.825 185.153 150.637 185.167 150.875C185.195 150.985 184.76 151.21 183.986 151.233C182.976 151.247 181.993 150.905 181.21 150.266C180.459 149.653 179.976 148.77 179.864 147.807C179.799 147.074 179.992 146.662 180.111 146.671Z" fill="#263238"/>
<path d="M179.428 127.572C179.273 128.03 177.688 127.801 175.824 128.03C173.96 128.259 172.453 128.763 172.206 128.374C172.096 128.191 172.357 127.783 172.966 127.366C173.776 126.855 174.692 126.534 175.644 126.428C176.596 126.323 177.56 126.435 178.462 126.757C179.172 127.032 179.497 127.38 179.428 127.572Z" fill="#263238"/>
<path d="M194.043 128.905C193.764 129.267 192.669 128.905 191.355 128.873C190.04 128.841 188.927 129.116 188.671 128.74C188.556 128.557 188.73 128.195 189.22 127.852C189.874 127.442 190.635 127.237 191.405 127.261C192.176 127.286 192.922 127.539 193.549 127.989C194.011 128.356 194.167 128.754 194.043 128.905Z" fill="#263238"/>
<path d="M162.226 139.228C162.047 139.151 155.127 137.131 155.356 144.193C155.585 151.256 162.624 149.575 162.634 149.369C162.643 149.162 162.226 139.228 162.226 139.228Z" fill="#B78876"/>
<path d="M160.366 146.763C160.334 146.763 160.247 146.854 160.041 146.955C159.754 147.088 159.426 147.106 159.125 147.005C158.37 146.753 157.705 145.59 157.628 144.317C157.592 143.712 157.691 143.107 157.916 142.544C157.978 142.319 158.093 142.113 158.253 141.943C158.413 141.773 158.611 141.644 158.832 141.569C158.973 141.527 159.123 141.536 159.258 141.594C159.393 141.651 159.503 141.754 159.569 141.885C159.67 142.077 159.629 142.219 159.666 142.233C159.702 142.247 159.817 142.109 159.748 141.816C159.703 141.643 159.599 141.491 159.455 141.386C159.357 141.315 159.245 141.264 159.128 141.237C159.01 141.209 158.887 141.205 158.768 141.225C158.48 141.293 158.214 141.432 157.995 141.631C157.777 141.83 157.612 142.081 157.518 142.361C157.239 142.983 157.115 143.664 157.156 144.344C157.247 145.769 158.017 147.092 159.047 147.34C159.239 147.389 159.44 147.394 159.634 147.355C159.828 147.317 160.011 147.234 160.169 147.115C160.357 146.937 160.394 146.776 160.366 146.763Z" fill="#AA6550"/>
<path d="M158.278 138.99C159.354 138.729 161.218 139.723 161.676 140.731C162.134 141.738 162.235 142.883 162.693 143.895C163.151 144.908 164.186 145.814 165.267 145.558C165.632 145.444 165.961 145.235 166.219 144.952C166.477 144.67 166.656 144.324 166.737 143.95C166.893 143.196 166.901 142.418 166.76 141.66C166.343 138.363 165.652 135.093 165.519 131.768C165.386 128.443 165.858 124.994 167.603 122.15C169.348 119.305 172.549 117.235 175.847 117.506C178.041 117.68 180.056 118.825 182.236 119.131C183.535 119.303 184.856 119.177 186.099 118.762C187.341 118.347 188.473 117.654 189.408 116.736C189.646 116.502 190.746 115.774 190.746 115.774C190.746 115.605 190.585 114.13 190.004 113.59C185.675 109.591 177.88 108.474 172.164 109.926C166.449 111.377 161.09 115.422 158.631 120.753C156.171 126.084 156.904 133.577 158.26 138.981" fill="#263238"/>
<path d="M196.521 121.545C196.521 121.545 169.416 112.843 157.692 136.274C157.692 136.274 155.938 130.407 155.938 127.261C155.938 125.159 157.192 112.646 170.071 108.707C170.071 108.707 189.468 101.306 196.521 121.545Z" fill="#00AB00"/>
<path d="M173.218 122.131C173.699 122.908 174.355 123.562 175.132 124.042C175.909 124.522 176.788 124.814 177.698 124.897C178.608 124.98 179.524 124.85 180.375 124.518C181.226 124.185 181.989 123.66 182.602 122.983C182.872 123.657 183.345 124.23 183.957 124.621C184.568 125.012 185.287 125.202 186.011 125.164C186.736 125.126 187.431 124.862 187.998 124.41C188.565 123.957 188.977 123.338 189.175 122.64C189.909 123.459 190.808 124.114 191.813 124.563C192.843 124.943 194.148 124.797 194.822 123.936C195.495 123.075 195.312 121.715 194.634 120.826C193.894 119.986 192.946 119.354 191.886 118.994C188.673 117.581 185.142 117.047 181.654 117.446C178.196 117.904 174.848 119.589 172.687 122.328" fill="#263238"/>
<path d="M158.823 133.531C162.84 127.38 168.381 122.296 174.615 118.417C180.848 114.538 191.149 110.677 198.248 108.799C200.382 108.231 202.603 107.736 204.779 108.112C206.954 108.487 209.079 109.944 209.615 112.074C210.293 114.753 205.539 118.884 203.309 120.505C201.078 122.127 196.521 124.513 196.521 124.513C196.521 124.513 196.585 119.548 188.634 118.527C177.825 117.112 158.823 133.531 158.823 133.531Z" fill="#00AB00"/>
<path d="M181.054 113.274C181.054 113.274 184.957 111.112 188.882 110.608C188.226 110.099 187.511 109.671 186.752 109.335C184.621 109.687 182.562 110.38 180.651 111.387L181.054 113.274Z" fill="#E0E0E0"/>
<path d="M203.052 173.849L194.455 171.953L190.956 171.078L188.043 166.562C188.043 166.562 186.669 174.636 181.453 178.983C180.746 179.561 179.918 179.971 179.031 180.184C178.143 180.396 177.219 180.405 176.328 180.21C175.151 179.963 173.768 179.661 172.742 179.386C172.522 179.326 172.284 179.248 172.027 179.157C168.256 177.756 165.114 175.047 163.174 171.522C162.02 169.47 161.044 167.363 161.379 166.562L157.298 175.012L133.253 186.086L119.6 219.438L146.059 227.261L146.883 254.741L141.9 289.384L216.751 289.434L214.094 212.357" fill="#00AB00"/>
<path d="M183.702 203.687C183.549 203.7 183.396 203.7 183.244 203.687L181.911 203.655L177.152 203.486H177.061V203.408C176.983 201.342 176.887 198.897 176.781 196.282C176.658 192.512 176.548 189.105 176.461 186.599C176.433 185.381 176.41 184.387 176.392 183.664C176.392 183.338 176.392 183.073 176.392 182.867C176.38 182.774 176.38 182.68 176.392 182.587C176.413 182.677 176.424 182.77 176.424 182.862C176.424 183.073 176.456 183.32 176.474 183.659C176.511 184.383 176.561 185.377 176.621 186.59C176.722 189.095 176.859 192.503 177.01 196.268C177.102 198.888 177.184 201.333 177.258 203.399L177.157 203.303L181.915 203.555L183.244 203.642C183.398 203.64 183.551 203.655 183.702 203.687Z" fill="#263238"/>
<path d="M179.63 192.553C179.735 192.48 179.859 192.438 179.987 192.434C180.284 192.415 180.581 192.482 180.841 192.627C181.101 192.773 181.314 192.991 181.453 193.254C181.583 193.511 181.63 193.803 181.585 194.088C181.537 194.411 181.395 194.712 181.178 194.956C180.961 195.2 180.678 195.376 180.363 195.462C180.044 195.529 179.713 195.506 179.406 195.397C179.098 195.288 178.827 195.096 178.622 194.843C178.456 194.64 178.339 194.4 178.282 194.143C178.225 193.886 178.228 193.619 178.292 193.364C178.363 193.017 178.536 192.698 178.787 192.448C178.961 192.279 179.089 192.224 179.094 192.237C179.099 192.251 179.002 192.334 178.856 192.512C178.653 192.763 178.516 193.061 178.457 193.378C178.411 193.606 178.416 193.842 178.473 194.068C178.53 194.294 178.638 194.504 178.787 194.683C178.97 194.899 179.208 195.062 179.475 195.156C179.742 195.249 180.03 195.269 180.308 195.214C180.578 195.138 180.821 194.987 181.008 194.777C181.196 194.568 181.32 194.31 181.366 194.033C181.404 193.806 181.378 193.572 181.292 193.359C181.205 193.145 181.061 192.96 180.876 192.824C180.624 192.623 180.313 192.512 179.992 192.508C179.753 192.526 179.63 192.572 179.63 192.553Z" fill="#263238"/>
<path d="M178.819 182.876C178.925 182.783 179.055 182.723 179.195 182.702C179.575 182.621 179.971 182.68 180.312 182.867C180.554 182.99 180.761 183.173 180.912 183.398C181.088 183.662 181.177 183.974 181.164 184.291C181.15 184.652 181.027 185.001 180.811 185.291C180.595 185.581 180.297 185.799 179.955 185.917C179.606 186.006 179.237 185.991 178.897 185.872C178.556 185.753 178.258 185.536 178.041 185.248C177.847 185 177.731 184.701 177.706 184.387C177.692 184.117 177.736 183.847 177.834 183.595C177.977 183.236 178.228 182.932 178.554 182.725C178.667 182.64 178.802 182.589 178.943 182.578C178.943 182.578 178.81 182.647 178.609 182.803C178.325 183.021 178.112 183.317 177.995 183.654C177.903 183.896 177.875 184.158 177.913 184.414C177.952 184.67 178.056 184.911 178.215 185.115C178.408 185.362 178.669 185.548 178.966 185.649C179.262 185.751 179.582 185.764 179.886 185.688C180.181 185.583 180.439 185.394 180.627 185.144C180.815 184.894 180.925 184.594 180.944 184.282C180.956 184.025 180.896 183.77 180.771 183.546C180.645 183.322 180.46 183.137 180.234 183.013C179.927 182.832 179.568 182.755 179.213 182.793C178.961 182.825 178.828 182.894 178.819 182.876Z" fill="#263238"/>
<path d="M176.383 219.841C176.383 219.841 176.419 219.818 176.497 219.791L176.841 219.658C177.148 219.553 177.583 219.36 178.137 219.104C179.684 218.323 181.105 217.314 182.351 216.108C184.181 214.305 185.8 212.298 187.173 210.127C188.891 207.487 190.46 204.753 191.872 201.938C194.412 196.807 196.64 191.527 198.545 186.128C199.292 184.058 199.874 182.377 200.281 181.218L200.739 179.881C200.79 179.743 200.835 179.629 200.867 179.537C200.88 179.497 200.897 179.459 200.918 179.423C200.914 179.465 200.905 179.506 200.89 179.546C200.863 179.638 200.826 179.752 200.785 179.899C200.68 180.224 200.538 180.673 200.359 181.273C199.979 182.441 199.42 184.131 198.687 186.206C196.832 191.619 194.626 196.907 192.083 202.034C190.667 204.857 189.089 207.596 187.356 210.237C185.967 212.42 184.325 214.432 182.465 216.232C181.2 217.435 179.753 218.432 178.178 219.186C177.747 219.384 177.305 219.557 176.855 219.704L176.502 219.814C176.464 219.829 176.424 219.838 176.383 219.841Z" fill="#263238"/>
<path d="M192.152 210.695C192.349 210.695 196.906 210.383 196.906 210.383C196.906 210.383 195.023 213.708 193.063 214.963H189.074L192.152 210.695Z" fill="#FAFAFA"/>
<path d="M175.586 229.912C175.664 229.838 175.75 229.772 175.842 229.716L176.612 229.184C177.276 228.726 178.233 228.039 179.383 227.155C181.673 225.401 184.723 222.781 187.984 219.786C189.614 218.288 191.19 216.878 192.536 215.522C193.745 214.333 194.866 213.06 195.893 211.712C196.583 210.802 197.195 209.837 197.725 208.826C197.927 208.473 198.051 208.185 198.147 207.993C198.19 207.891 198.244 207.795 198.307 207.704C198.278 207.809 198.239 207.912 198.193 208.011C198.11 208.208 197.996 208.506 197.808 208.867C197.305 209.901 196.708 210.887 196.026 211.812C195.013 213.184 193.897 214.476 192.687 215.678C191.336 217.052 189.77 218.467 188.139 219.96C184.879 222.955 181.824 225.566 179.483 227.288C178.315 228.154 177.34 228.813 176.662 229.258C176.318 229.477 176.048 229.638 175.865 229.752C175.778 229.816 175.685 229.87 175.586 229.912Z" fill="#263238"/>
<path d="M162.743 280.81C162.743 280.81 162.743 280.769 162.798 280.7C162.853 280.631 162.913 280.521 162.986 280.398C163.156 280.137 163.412 279.752 163.756 279.267C164.443 278.305 165.505 276.949 166.907 275.355C169.728 272.19 173.68 267.872 178.031 263.09L189.248 250.866L192.66 247.202L193.576 246.208L193.823 245.956L193.915 245.874C193.915 245.874 193.892 245.91 193.842 245.97L193.613 246.24L192.697 247.266L189.339 250.999L178.21 263.237L167.035 275.456C165.62 277.032 164.539 278.364 163.829 279.308C163.476 279.766 163.206 280.155 163.027 280.412L162.821 280.7C162.798 280.739 162.772 280.776 162.743 280.81Z" fill="#263238"/>
<path d="M202.457 173.638C202.85 174.229 211.699 175.214 213.865 177.375C216.032 179.537 237.681 196.062 237.681 196.062L222.251 216.827L212.294 214.634L202.457 173.638Z" fill="#00AB00"/>
<path opacity="0.4" d="M235.057 194.046L217.758 215.838L222.251 216.827L237.663 196.039L235.057 194.046Z" fill="black"/>
<path d="M207.169 195.256C207.092 195.019 207.032 194.777 206.991 194.532C206.94 194.298 206.881 194.01 206.84 193.671C206.798 193.332 206.73 192.947 206.707 192.517C206.684 192.086 206.638 191.601 206.638 191.111C206.638 190.621 206.638 190.066 206.679 189.499C206.768 188.263 206.96 187.038 207.252 185.835C207.564 184.637 207.976 183.468 208.484 182.34C208.727 181.827 208.942 181.332 209.203 180.893C209.464 180.453 209.688 180.045 209.922 179.684C210.156 179.322 210.38 179.01 210.582 178.731C210.748 178.491 210.927 178.261 211.117 178.039C211.267 177.84 211.434 177.655 211.617 177.485C211.492 177.7 211.349 177.903 211.191 178.094C211.049 178.287 210.875 178.52 210.691 178.809C210.508 179.097 210.275 179.404 210.064 179.775C209.853 180.146 209.606 180.54 209.377 180.989C209.148 181.438 208.919 181.905 208.685 182.427C208.203 183.551 207.808 184.71 207.504 185.894C207.219 187.082 207.024 188.29 206.922 189.508C206.89 190.071 206.849 190.607 206.863 191.106C206.876 191.605 206.863 192.073 206.899 192.48C206.936 192.888 206.963 193.291 206.995 193.63C207.027 193.969 207.069 194.257 207.105 194.491C207.151 194.743 207.173 194.999 207.169 195.256Z" fill="#263238"/>
<path d="M214.094 212.33C213.385 210.955 212.748 209.544 212.185 208.103C211.547 206.694 210.981 205.254 210.49 203.788C211.199 205.162 211.838 206.572 212.404 208.011C213.044 209.42 213.608 210.861 214.094 212.33Z" fill="#263238"/>
<path d="M146.059 197.243C146.022 197.243 145.651 196.579 144.95 195.549C144.036 194.206 142.989 192.959 141.827 191.825C140.658 190.7 139.382 189.692 138.016 188.816C136.963 188.147 136.271 187.799 136.289 187.763C136.465 187.811 136.634 187.88 136.793 187.969C137.241 188.182 137.679 188.417 138.103 188.674C139.512 189.514 140.818 190.514 141.996 191.656C143.17 192.801 144.209 194.076 145.092 195.457C145.427 195.988 145.678 196.428 145.834 196.744C145.929 196.901 146.005 197.068 146.059 197.243Z" fill="#263238"/>
<path opacity="0.4" d="M119.6 219.424L120.667 216.827L149.933 224.797L148.774 228.053L119.6 219.424Z" fill="black"/>
<path d="M197.73 209.16H208.873V213.74L194.616 213.649C194.616 213.649 196.819 210.997 197.73 209.16Z" fill="#FAFAFA"/>
<g opacity="0.2">
<path d="M157.985 176.02C158.388 179.592 158.828 183.279 160.595 186.412C162.363 189.544 165.821 192.013 169.38 191.486C171.752 191.134 173.763 189.549 175.38 187.772C176.996 185.995 178.352 183.984 180.115 182.358C181.182 183.507 182.374 184.531 183.67 185.413C184.978 186.3 186.55 186.715 188.126 186.59C189.678 186.402 190.535 185.784 191.025 184.3C189.367 184.813 188.456 184.735 186.802 184.419C184.977 184.069 183.262 183.284 181.805 182.129C180.834 181.364 180.482 180.215 179.25 180.297C178.109 180.361 177.216 181.264 176.465 182.129C175.253 183.518 173.922 184.799 172.49 185.958C171.116 187.044 169.788 187.79 168.038 187.74C165.157 187.676 162.798 185.413 161.209 183.009C159.742 180.792 158.658 178.344 158.003 175.768" fill="black"/>
</g>
<path d="M191.712 171.563C191.738 171.647 191.755 171.733 191.762 171.82C191.762 171.989 191.817 172.237 191.849 172.557C191.918 173.198 191.987 174.128 192.014 175.305C192.076 178.316 191.789 181.324 191.158 184.268V184.341V184.415H191.089C189.461 184.796 187.762 184.751 186.157 184.282C184.844 183.931 183.604 183.351 182.493 182.569C181.741 182.058 181.066 181.441 180.491 180.737C180.336 180.547 180.193 180.348 180.061 180.142C180.009 180.071 179.965 179.996 179.928 179.917C180.675 180.894 181.571 181.747 182.584 182.445C183.689 183.192 184.913 183.746 186.202 184.085C187.773 184.529 189.43 184.568 191.02 184.199L190.933 184.287V184.213C191.557 181.284 191.864 178.296 191.849 175.301C191.849 174.151 191.799 173.221 191.762 172.575C191.762 172.278 191.73 172.035 191.717 171.838C191.702 171.747 191.7 171.655 191.712 171.563Z" fill="#263238"/>
<path d="M177.798 180.6C177.762 180.697 177.712 180.79 177.651 180.874C177.498 181.128 177.33 181.373 177.148 181.607C176.464 182.461 175.71 183.256 174.894 183.984C174.386 184.442 173.813 184.951 173.195 185.473C172.884 185.734 172.572 186.009 172.224 186.283C171.866 186.554 171.488 186.797 171.093 187.012C170.245 187.479 169.309 187.765 168.345 187.85C167.293 187.939 166.238 187.706 165.322 187.181C164.43 186.65 163.63 185.977 162.954 185.189C162.313 184.475 161.717 183.722 161.168 182.935C160.243 181.6 159.462 180.171 158.837 178.671C158.418 177.663 158.075 176.625 157.811 175.566C157.715 175.191 157.655 174.897 157.619 174.696C157.593 174.595 157.578 174.493 157.573 174.389C157.615 174.484 157.645 174.584 157.664 174.687C157.719 174.884 157.793 175.172 157.898 175.543C158.198 176.586 158.564 177.61 158.993 178.607C159.634 180.084 160.425 181.491 161.351 182.807C161.898 183.583 162.491 184.325 163.128 185.028C163.782 185.796 164.556 186.453 165.418 186.975C166.295 187.475 167.302 187.699 168.308 187.616C169.245 187.536 170.155 187.264 170.983 186.819C171.372 186.613 171.744 186.377 172.096 186.114C172.43 185.857 172.751 185.578 173.062 185.322C173.685 184.804 174.262 184.319 174.775 183.861C175.594 183.155 176.359 182.389 177.065 181.571C177.308 181.277 177.487 181.035 177.606 180.87C177.662 180.774 177.726 180.684 177.798 180.6Z" fill="#263238"/>
<path d="M167.933 233.224L171.464 228.076C171.464 228.076 173.891 219.64 173.561 218.458C173.232 217.276 172.16 212.879 172.412 212.824C172.664 212.77 175.306 211.789 176.74 215.316C177.633 217.514 177.926 220.409 178.022 222.278C178.033 222.508 178.093 222.734 178.199 222.94C178.306 223.145 178.455 223.325 178.638 223.467C178.82 223.609 179.031 223.709 179.256 223.762C179.481 223.814 179.715 223.817 179.941 223.771C182.383 223.267 186.445 222.502 187.411 222.736C188.813 223.07 190.068 224.856 190.187 225.456C190.306 226.056 189.344 227.407 189.344 227.407C189.344 227.407 190.535 228.016 190.901 228.937C190.952 229.061 190.993 229.184 191.03 229.303C191.141 229.672 191.155 230.064 191.069 230.44C190.983 230.816 190.801 231.163 190.539 231.447L190.164 231.859C190.164 231.859 191.652 232.267 191.836 233.118C191.935 233.741 191.918 234.376 191.785 234.992L190.388 236.434C190.778 236.798 191.033 237.282 191.112 237.808C191.185 238.596 189.092 240.556 189.092 240.556L180.111 243.762L176.548 244.678L167.933 233.224Z" fill="#B78876"/>
<path d="M189.372 227.416C188.345 227.693 187.306 227.917 186.257 228.09C185.227 228.341 184.184 228.54 183.134 228.685C183.415 228.548 183.712 228.445 184.017 228.378C184.572 228.222 185.346 228.03 186.211 227.856C187.077 227.682 187.86 227.554 188.437 227.48C188.744 227.417 189.059 227.396 189.372 227.416Z" fill="#AA6550"/>
<path d="M190.191 231.859C189.428 232.217 188.632 232.501 187.814 232.706C187.021 232.991 186.202 233.2 185.369 233.329C186.132 232.971 186.928 232.687 187.746 232.482C188.539 232.197 189.358 231.988 190.191 231.859Z" fill="#AA6550"/>
<path d="M190.727 236.242C189.923 236.724 189.079 237.136 188.204 237.474C187.361 237.887 186.485 238.227 185.584 238.491C186.389 238.009 187.233 237.597 188.108 237.259C188.95 236.846 189.827 236.506 190.727 236.242Z" fill="#AA6550"/>
<path d="M147.24 265.036L180.271 242.878L171.936 227.764L141.79 243.268L145.211 226.981L124.752 220.927L119.632 248.819C118.844 261.221 128.792 271.233 140.782 267.977C143.081 267.355 145.262 266.362 147.24 265.036Z" fill="#B78876"/>
<path d="M137.425 252.034C137.366 251.902 137.327 251.761 137.311 251.617C137.243 251.231 137.205 250.841 137.196 250.449C137.179 249.146 137.471 247.857 138.048 246.689C138.633 245.524 139.489 244.515 140.544 243.749C140.859 243.515 141.193 243.31 141.543 243.135C141.668 243.062 141.804 243.008 141.946 242.975C141.946 243.016 141.41 243.277 140.645 243.891C139.644 244.673 138.829 245.669 138.262 246.806C137.695 247.943 137.388 249.192 137.366 250.463C137.343 251.425 137.494 252.029 137.425 252.034Z" fill="#AA6550"/>
<path d="M222.251 216.827C222.458 216.543 245.774 230.751 245.774 230.751L253.249 264.803L264.007 268.751C264.007 268.751 267.364 230.856 264.809 224.957C262.253 219.058 236.344 197.834 236.344 197.834L222.251 216.827Z" fill="#B78876"/>
<path d="M250.867 228.14C250.348 228.921 249.657 229.572 248.847 230.045C248.08 230.586 247.2 230.946 246.273 231.099C247.11 230.724 247.927 230.305 248.719 229.844C249.466 229.316 250.184 228.748 250.867 228.14Z" fill="#AA6550"/>
<path d="M194.208 216.901L196.035 249.584L233.298 247.065L232.172 222.736L226.744 215.431L194.208 216.901Z" fill="#263238"/>
<path d="M185.74 250.312C185.85 250.939 189.014 280.54 189.014 280.54L244.474 276.688L253.858 275.428L249.53 247.866L242.903 246.277L185.74 250.312Z" fill="#FF725E"/>
<path opacity="0.4" d="M242.903 246.272L185.74 250.312C185.85 250.939 189.014 280.54 189.014 280.54L246.755 276.523L242.903 246.272Z" fill="black"/>
<path d="M227.711 247.44L196.035 249.584L194.208 216.901L226.744 215.431L227.711 247.44Z" fill="#455A64"/>
<path d="M206.02 216.369L206.688 226.441L208.383 225.47L209.322 226.441L210.49 225.47L212.294 226.441V216.085L206.02 216.369Z" fill="#263238"/>
<path d="M219.261 248.127L217.094 223.597L238.268 229.432L240.31 246.364L219.261 248.127Z" fill="#FF725E"/>
<path d="M238.254 229.436C238.216 229.499 238.172 229.557 238.121 229.61L237.714 230.091L236.156 231.868L230.747 237.937L230.665 238.028L230.578 237.941L227.72 234.918L220.177 226.949L217.91 224.513L217.3 223.844C217.225 223.77 217.159 223.687 217.104 223.597C217.187 223.66 217.265 223.731 217.337 223.807L217.978 224.449L220.296 226.83L227.889 234.754L230.766 237.781H230.596L236.092 231.767L237.7 230.036L238.135 229.578C238.17 229.527 238.21 229.479 238.254 229.436Z" fill="#263238"/>
<path d="M226.396 233.979C226.456 234.012 224.944 236.906 223.025 240.446C221.106 243.987 219.503 246.831 219.444 246.799C219.384 246.767 220.896 243.872 222.815 240.332C224.734 236.792 226.346 233.947 226.396 233.979Z" fill="#263238"/>
<path d="M239.816 246.364C239.761 246.396 238.295 244.051 236.541 241.129C234.787 238.207 233.408 235.802 233.468 235.766C233.527 235.729 234.988 238.079 236.743 241.005C238.497 243.932 239.875 246.332 239.816 246.364Z" fill="#263238"/>
<path d="M230.633 247.17L229.25 231.548L242.733 235.267L244.034 246.048L230.633 247.17Z" fill="#FF725E"/>
<path opacity="0.4" d="M230.633 247.17L229.25 231.548L242.733 235.267L244.034 246.048L230.633 247.17Z" fill="white"/>
<path d="M242.733 235.267C242.637 235.42 242.525 235.563 242.399 235.692C242.147 235.99 241.817 236.37 241.419 236.833L237.984 240.708L237.901 240.804L237.814 240.712L235.982 238.789C234.1 236.815 232.405 235.015 231.187 233.705L229.758 232.143C229.573 231.959 229.404 231.76 229.254 231.548C229.458 231.709 229.648 231.887 229.822 232.079L231.311 233.586C232.561 234.868 234.274 236.65 236.156 238.624L237.988 240.552H237.796L241.29 236.732L242.325 235.637C242.449 235.501 242.586 235.377 242.733 235.267Z" fill="#263238"/>
<path d="M235.176 238.161C235.231 238.193 234.288 240.043 233.065 242.283C232.363 243.664 231.589 245.008 230.747 246.309C231.377 244.899 232.081 243.523 232.854 242.187C233.556 240.805 234.331 239.461 235.176 238.161Z" fill="#263238"/>
<path d="M243.722 246.048C242.948 244.988 242.238 243.882 241.597 242.736C240.886 241.631 240.245 240.483 239.678 239.297C241.157 241.466 242.507 243.721 243.722 246.048Z" fill="#263238"/>
<path d="M239.225 234.607V235.862L241.194 236.091L241.3 235.134L239.225 234.607Z" fill="white"/>
<path d="M232.272 228.236V230.068L235.991 230.682L236.198 229.28L232.272 228.236Z" fill="white"/>
<path d="M217.758 257.26L217.575 248.127L210.169 248.626L210.962 257.905L217.758 257.26Z" fill="#FF725E"/>
<path d="M241.909 262.058L229.475 263.237L230.519 274.235L242.953 273.055L241.909 262.058Z" fill="#FAFAFA"/>
<path d="M242.935 273.07C242.919 273 242.909 272.93 242.903 272.859C242.903 272.708 242.861 272.511 242.834 272.264C242.779 271.732 242.696 270.977 242.596 270.029C242.399 268.096 242.138 265.366 241.79 262.082L241.899 262.174L229.474 263.369C229.446 263.397 229.675 263.127 229.579 263.241V263.324V263.42V263.603L229.616 263.979L229.685 264.72C229.735 265.211 229.781 265.696 229.827 266.181C229.914 267.148 230.005 268.091 230.092 269.017C230.262 270.849 230.427 272.612 230.573 274.229L230.459 274.137L239.431 273.34L241.977 273.125L242.66 273.074C242.741 273.068 242.822 273.068 242.903 273.074C242.832 273.091 242.76 273.102 242.687 273.106L242.028 273.184L239.509 273.45L230.482 274.366H230.376V274.261C230.216 272.639 230.046 270.89 229.868 269.049C229.782 268.133 229.692 267.188 229.598 266.214C229.552 265.728 229.506 265.243 229.46 264.748C229.437 264.505 229.414 264.258 229.387 264.011L229.355 263.635V263.452V263.356V263.273C229.259 263.388 229.483 263.113 229.465 263.14L241.895 261.982H241.996V262.082C242.289 265.394 242.532 268.151 242.706 270.102C242.783 271.041 242.843 271.787 242.889 272.319C242.889 272.561 242.921 272.754 242.93 272.9C242.936 272.957 242.937 273.013 242.935 273.07Z" fill="#263238"/>
<path d="M240.92 264.707C240.92 264.775 238.753 265.055 236.065 265.339C234.446 265.552 232.818 265.683 231.187 265.733C231.187 265.669 233.353 265.385 236.042 265.101C238.73 264.817 240.915 264.643 240.92 264.707Z" fill="#263238"/>
<path d="M240.846 266.575C240.414 266.731 239.968 266.843 239.513 266.91C238.68 267.075 237.521 267.267 236.234 267.418C234.947 267.569 233.77 267.652 232.923 267.679C232.466 267.72 232.006 267.72 231.549 267.679C232.002 267.59 232.461 267.538 232.923 267.523C233.766 267.446 234.929 267.34 236.211 267.189C237.494 267.038 238.652 266.873 239.491 266.731C239.938 266.646 240.391 266.594 240.846 266.575Z" fill="#263238"/>
<path d="M241.373 270.661C240.939 270.815 240.491 270.927 240.035 270.995C239.202 271.16 238.043 271.352 236.756 271.503C235.469 271.655 234.297 271.737 233.445 271.764C232.988 271.809 232.528 271.809 232.071 271.764C232.524 271.675 232.983 271.623 233.445 271.609C234.288 271.535 235.455 271.426 236.738 271.274C238.02 271.123 239.179 270.958 240.017 270.816C240.464 270.731 240.918 270.679 241.373 270.661Z" fill="#263238"/>
<path d="M240.745 268.568C239.25 268.906 237.738 269.162 236.216 269.337C234.699 269.595 233.171 269.772 231.636 269.868C233.132 269.536 234.643 269.279 236.165 269.099C237.682 268.844 239.211 268.667 240.745 268.568Z" fill="#263238"/>
<path d="M251.724 285.601C251.724 285.601 261.96 278.827 262.748 275.364C263.535 271.902 264.007 268.751 264.007 268.751L253.07 264.221L254.156 268.16C254.156 268.16 250.235 270.491 249.832 273.317C249.566 275.2 244.496 278.424 244.496 278.424C244.075 277.914 243.538 277.512 242.93 277.25C242.323 276.988 241.662 276.874 241.002 276.917L236.742 277.219L239.623 283.709L251.724 285.601Z" fill="#B78876"/>
<path d="M255.722 276.317C255.573 276.408 255.411 276.474 255.241 276.514C254.921 276.619 254.444 276.725 253.867 276.908C253.216 277.14 252.613 277.491 252.09 277.943C251.431 278.505 250.694 278.968 249.901 279.317C248.435 279.941 246.807 280.078 245.257 279.706C244.985 279.654 244.723 279.556 244.483 279.418C244.384 279.362 244.305 279.278 244.254 279.177C244.203 279.076 244.184 278.962 244.199 278.85C244.207 278.78 244.232 278.713 244.272 278.656C244.312 278.598 244.365 278.552 244.428 278.52C244.519 278.488 244.57 278.52 244.57 278.52C244.57 278.52 244.519 278.52 244.451 278.57C244.403 278.605 244.363 278.651 244.336 278.703C244.308 278.755 244.292 278.813 244.29 278.873C244.282 278.967 244.303 279.062 244.35 279.144C244.398 279.226 244.47 279.291 244.556 279.331C244.79 279.446 245.04 279.524 245.298 279.564C246.813 279.873 248.387 279.713 249.809 279.106C250.584 278.761 251.306 278.308 251.953 277.76C252.501 277.304 253.133 276.959 253.812 276.743C254.399 276.578 254.875 276.5 255.186 276.418C255.362 276.37 255.541 276.336 255.722 276.317Z" fill="#AA6550"/>
<path d="M248.632 281.57C248.632 281.607 248.105 281.305 247.235 280.943C246.101 280.479 244.905 280.181 243.686 280.059C243.329 280.022 242.976 280.013 242.637 280.004H242.573L242.536 279.949C242.006 279.119 241.367 278.364 240.635 277.705C240.081 277.206 239.719 276.949 239.719 276.922C239.719 276.894 239.829 276.958 240.003 277.068C240.251 277.228 240.489 277.401 240.718 277.586C241.499 278.222 242.174 278.978 242.719 279.825L242.623 279.77C242.971 279.77 243.329 279.77 243.695 279.825C244.939 279.945 246.154 280.272 247.29 280.792C247.632 280.948 247.964 281.125 248.284 281.323C248.412 281.387 248.53 281.47 248.632 281.57Z" fill="#AA6550"/>
<path d="M251.399 279.711C251.399 279.775 250.707 280.036 249.901 280.494C249.095 280.952 248.504 281.433 248.458 281.378C249.214 280.497 250.254 279.907 251.399 279.711Z" fill="#AA6550"/>
<path d="M256.945 267.528C256.945 267.601 256.23 267.528 255.415 267.734C254.6 267.94 254.041 268.362 253.977 268.302C254.356 267.917 254.832 267.642 255.354 267.506C255.877 267.369 256.426 267.377 256.945 267.528Z" fill="#AA6550"/>
<path d="M107.619 263.621C108.965 265.224 111.241 264.45 112.226 263.31C113.211 262.169 113.531 260.621 113.82 259.142C114.47 255.762 115.121 252.222 114.113 248.929C113.853 247.927 113.322 247.015 112.579 246.295C112.203 245.942 111.74 245.694 111.238 245.576C110.735 245.457 110.211 245.473 109.716 245.622C108.571 246.034 107.944 247.248 107.518 248.37C106.255 251.729 105.758 255.328 106.062 258.904C106.203 260.571 106.556 262.298 107.619 263.589" fill="#00AB00"/>
<path d="M112.872 271.879C114.741 270.693 117.035 270.354 119.238 270.505C120.425 270.597 121.67 270.835 122.545 271.641C123.42 272.447 123.704 273.977 122.861 274.81C122.308 275.261 121.615 275.505 120.901 275.497C119.197 275.63 117.283 275.497 116.019 276.647C115.295 277.297 114.864 278.314 113.962 278.685C113.508 278.833 113.018 278.829 112.566 278.675C112.115 278.521 111.725 278.223 111.457 277.828C110.937 277.013 110.752 276.029 110.939 275.08C110.995 274.434 111.198 273.81 111.533 273.255C111.868 272.7 112.326 272.229 112.872 271.879Z" fill="#00AB00"/>
<path d="M104.55 266.369C105.713 264.711 105.759 262.44 105.008 260.557C104.257 258.675 102.801 257.154 101.179 255.945C99.2601 254.524 97.082 253.491 94.7672 252.904C93.8684 252.633 92.922 252.558 91.9918 252.684C91.5351 252.76 91.1033 252.944 90.7326 253.222C90.362 253.499 90.0634 253.861 89.8621 254.278C89.3354 255.551 90.0773 256.976 90.8468 258.121C92.2005 260.14 93.7088 262.051 95.3581 263.837C96.6908 265.27 98.1977 266.667 100.08 267.203C101.962 267.739 103.845 267.482 104.701 266.136" fill="#00AB00"/>
<path d="M109.84 289.411C109.879 289.151 109.892 288.887 109.877 288.623C109.877 288.056 109.877 287.341 109.877 286.489C109.889 285.435 109.956 284.381 110.078 283.334C110.243 282.058 110.511 280.797 110.88 279.564C111.236 278.333 111.767 277.16 112.455 276.079C113.015 275.198 113.765 274.453 114.649 273.899C115.248 273.531 115.902 273.26 116.586 273.097C116.846 273.06 117.102 273 117.351 272.919C117.087 272.906 116.823 272.925 116.563 272.974C115.848 273.095 115.16 273.341 114.53 273.702C113.596 274.251 112.802 275.008 112.208 275.914C111.491 277.014 110.938 278.213 110.568 279.473C110.196 280.724 109.933 282.005 109.78 283.302C109.673 284.359 109.629 285.422 109.648 286.485C109.648 287.401 109.703 288.124 109.735 288.628C109.74 288.892 109.775 289.155 109.84 289.411Z" fill="#263238"/>
<path d="M109.84 287.767C109.852 287.647 109.852 287.526 109.84 287.405C109.84 287.135 109.785 286.791 109.749 286.375C109.666 285.482 109.552 284.185 109.455 282.582C109.249 279.376 109.13 274.943 109.226 270.047C109.323 265.151 109.648 260.722 110.019 257.534C110.101 256.733 110.188 256.014 110.28 255.382C110.371 254.75 110.436 254.205 110.509 253.765C110.582 253.325 110.619 253.009 110.66 252.739C110.684 252.62 110.695 252.499 110.692 252.377C110.644 252.49 110.611 252.609 110.596 252.73C110.541 252.996 110.472 253.33 110.385 253.742C110.298 254.154 110.202 254.727 110.101 255.359C110 255.991 109.891 256.705 109.79 257.507C109.271 261.667 108.976 265.851 108.906 270.042C108.81 274.948 108.961 279.395 109.226 282.601C109.35 284.204 109.501 285.5 109.625 286.388C109.684 286.805 109.739 287.144 109.776 287.414C109.785 287.534 109.807 287.652 109.84 287.767Z" fill="#263238"/>
<path d="M109.098 279.23C109.094 278.869 109.06 278.509 108.997 278.154C108.892 277.467 108.709 276.477 108.407 275.268C108.042 273.857 107.598 272.467 107.078 271.105C106.452 269.432 105.709 267.805 104.853 266.236C103.349 263.343 101.331 260.746 98.8985 258.574C98.4746 258.205 98.0296 257.861 97.5657 257.544C97.3642 257.402 97.1856 257.26 97.0024 257.15L96.4986 256.861C96.1918 256.672 95.8719 256.505 95.5414 256.362C95.4956 256.435 96.9154 257.104 98.7474 258.748C101.105 260.946 103.071 263.529 104.559 266.388C105.413 267.938 106.164 269.543 106.808 271.192C107.413 272.713 107.852 274.119 108.182 275.314C108.512 276.509 108.727 277.485 108.869 278.163C108.916 278.524 108.993 278.881 109.098 279.23Z" fill="#263238"/>
</svg>
