<svg width="217" height="206" viewBox="0 0 217 206" fill="none" xmlns="http://www.w3.org/2000/svg">
<g clip-path="url(#clip0_2238_17988)">
<path d="M216.947 180.969H199.418V181.101H216.947V180.969Z" fill="#EBEBEB"/>
<path d="M154.134 182.402H149.534V182.534H154.134V182.402Z" fill="#EBEBEB"/>
<path d="M198.889 176.08H188.732V176.212H198.889V176.08Z" fill="#EBEBEB"/>
<path d="M29.4538 176.965H6.59473V177.097H29.4538V176.965Z" fill="#EBEBEB"/>
<path d="M37.5197 176.965H34.1694V177.097H37.5197V176.965Z" fill="#EBEBEB"/>
<path d="M97.994 179.188H48.4121V179.32H97.994V179.188Z" fill="#EBEBEB"/>
<path d="M105.007 148.994H2.80508C2.00356 148.994 1.23488 148.677 0.668118 148.113C0.10136 147.549 -0.217041 146.784 -0.217041 145.986V2.98199C-0.210062 2.18871 0.111416 1.43028 0.67742 0.871788C1.24342 0.3133 2.00813 -3.04131e-05 2.80508 2.21413e-09H105.007C105.404 2.21413e-09 105.797 0.0778123 106.163 0.228995C106.53 0.380178 106.863 0.601772 107.144 0.881122C107.424 1.16047 107.647 1.49211 107.799 1.8571C107.951 2.22209 108.029 2.61328 108.029 3.00834V145.986C108.029 146.381 107.951 146.772 107.799 147.137C107.647 147.502 107.424 147.834 107.144 148.113C106.863 148.393 106.53 148.614 106.163 148.765C105.797 148.917 105.404 148.994 105.007 148.994ZM2.80508 0.105371C2.03909 0.106764 1.30487 0.410283 0.763225 0.949453C0.221585 1.48862 -0.0833248 2.21949 -0.0847239 2.98199V145.986C-0.0833248 146.749 0.221585 147.479 0.763225 148.019C1.30487 148.558 2.03909 148.861 2.80508 148.863H105.007C105.773 148.861 106.507 148.558 107.049 148.019C107.59 147.479 107.895 146.749 107.897 145.986V2.98199C107.895 2.21949 107.59 1.48862 107.049 0.949453C106.507 0.410283 105.773 0.106764 105.007 0.105371H2.80508Z" fill="#EBEBEB"/>
<path d="M219.488 148.994H117.286C116.484 148.994 115.716 148.677 115.149 148.113C114.582 147.549 114.264 146.784 114.264 145.986V2.98199C114.271 2.18871 114.592 1.43028 115.158 0.871788C115.724 0.3133 116.489 -3.04131e-05 117.286 2.21413e-09H219.488C220.289 2.21414e-09 221.058 0.316949 221.624 0.881122C222.191 1.44529 222.51 2.21048 222.51 3.00834V145.986C222.51 146.784 222.191 147.549 221.624 148.113C221.058 148.677 220.289 148.994 219.488 148.994ZM117.286 0.105371C116.52 0.106764 115.786 0.410283 115.244 0.949453C114.702 1.48862 114.397 2.21949 114.396 2.98199V145.986C114.397 146.749 114.702 147.479 115.244 148.019C115.786 148.558 116.52 148.861 117.286 148.863H219.488C220.254 148.861 220.988 148.558 221.529 148.019C222.071 147.479 222.376 146.749 222.377 145.986V2.98199C222.376 2.21949 222.071 1.48862 221.529 0.949453C220.988 0.410283 220.254 0.106764 219.488 0.105371H117.286Z" fill="#EBEBEB"/>
<path d="M243.463 172.492H-21.1707V172.624H243.463V172.492Z" fill="#EBEBEB"/>
<path d="M41.9869 136.85C41.5423 131.761 36.3237 129.859 30.1365 130.396C23.9494 130.934 19.1489 133.71 19.5829 138.8L41.9869 136.85Z" fill="#F0F0F0"/>
<path d="M29.9354 128.073C32.8041 127.82 33.7197 125.407 33.4709 122.552C33.2222 119.696 31.8831 117.478 29.0251 117.726C26.167 117.973 25.2408 120.391 25.4896 123.247C25.7383 126.103 27.0668 128.321 29.9354 128.073Z" fill="#F0F0F0"/>
<path d="M158.833 28.4501C158.884 29.015 158.764 29.5819 158.491 30.0793C158.217 30.5767 157.802 30.9821 157.296 31.2442C156.791 31.5064 156.219 31.6135 155.653 31.552C155.087 31.4905 154.552 31.2631 154.115 30.8988C153.679 30.5344 153.361 30.0493 153.201 29.5049C153.042 28.9605 153.048 28.3813 153.22 27.8405C153.391 27.2997 153.72 26.8217 154.164 26.4669C154.608 26.1122 155.149 25.8966 155.716 25.8475C156.476 25.7817 157.231 26.0188 157.816 26.5068C158.4 26.9948 158.766 27.6937 158.833 28.4501Z" fill="#F5F5F5"/>
<path d="M174.749 27.0487C174.798 27.6124 174.678 28.1779 174.404 28.6738C174.13 29.1696 173.715 29.5736 173.211 29.8345C172.706 30.0955 172.136 30.2017 171.571 30.1397C171.006 30.0778 170.472 29.8504 170.037 29.4865C169.602 29.1225 169.285 28.6383 169.126 28.095C168.967 27.5517 168.974 26.9738 169.145 26.4343C169.316 25.8948 169.644 25.4179 170.088 25.064C170.531 24.7101 171.07 24.495 171.636 24.446C172.396 24.3817 173.149 24.6195 173.733 25.1074C174.316 25.5952 174.681 26.2933 174.749 27.0487Z" fill="#F5F5F5"/>
<path d="M190.669 25.6631C190.719 26.2279 190.6 26.7949 190.327 27.2922C190.053 27.7896 189.637 28.195 189.132 28.4572C188.627 28.7193 188.055 28.8264 187.489 28.7649C186.923 28.7034 186.387 28.4761 185.951 28.1117C185.514 27.7473 185.196 27.2622 185.037 26.7178C184.878 26.1735 184.884 25.5942 185.055 25.0534C185.227 24.5127 185.555 24.0347 186 23.6799C186.444 23.3251 186.984 23.1095 187.552 23.0604C188.312 22.9946 189.067 23.2318 189.651 23.7198C190.236 24.2077 190.602 24.9067 190.669 25.6631Z" fill="#F5F5F5"/>
<path d="M160.252 44.5824C160.302 45.1473 160.183 45.7142 159.909 46.2116C159.636 46.709 159.22 47.1144 158.715 47.3765C158.21 47.6387 157.638 47.7457 157.072 47.6843C156.505 47.6228 155.97 47.3954 155.534 47.031C155.097 46.6667 154.779 46.1816 154.62 45.6372C154.46 45.0928 154.467 44.5136 154.638 43.9728C154.809 43.432 155.138 42.954 155.582 42.5992C156.027 42.2444 156.567 42.0289 157.134 41.9797C157.894 41.914 158.65 42.1511 159.234 42.6391C159.819 43.1271 160.185 43.826 160.252 44.5824Z" fill="#F5F5F5"/>
<path d="M176.167 43.202C176.216 43.7657 176.097 44.3313 175.823 44.8271C175.549 45.323 175.134 45.7269 174.629 45.9879C174.125 46.2488 173.554 46.355 172.989 46.2931C172.424 46.2311 171.891 46.0038 171.455 45.6398C171.02 45.2759 170.703 44.7917 170.545 44.2484C170.386 43.7051 170.392 43.1271 170.564 42.5876C170.735 42.0481 171.063 41.5712 171.506 41.2173C171.95 40.8634 172.489 40.6484 173.055 40.5994C173.431 40.5668 173.81 40.6083 174.17 40.7215C174.53 40.8347 174.864 41.0174 175.153 41.2591C175.442 41.5007 175.68 41.7967 175.854 42.1301C176.028 42.4635 176.135 42.8277 176.167 43.202Z" fill="#F5F5F5"/>
<path d="M192.087 41.8111C192.138 42.376 192.018 42.943 191.745 43.4403C191.471 43.9377 191.055 44.3431 190.55 44.6052C190.045 44.8674 189.473 44.9745 188.907 44.913C188.341 44.8515 187.806 44.6242 187.369 44.2598C186.933 43.8954 186.615 43.4103 186.455 42.8659C186.296 42.3215 186.302 41.7423 186.473 41.2015C186.645 40.6607 186.974 40.1827 187.418 39.828C187.862 39.4732 188.402 39.2576 188.97 39.2085C189.73 39.1427 190.485 39.3799 191.07 39.8678C191.654 40.3558 192.02 41.0547 192.087 41.8111Z" fill="#F5F5F5"/>
<path d="M161.67 60.7358C161.72 61.2994 161.6 61.865 161.326 62.3608C161.052 62.8567 160.637 63.2607 160.133 63.5216C159.628 63.7825 159.058 63.8887 158.493 63.8268C157.928 63.7648 157.394 63.5375 156.959 63.1736C156.523 62.8096 156.206 62.3254 156.048 61.7821C155.889 61.2388 155.896 60.6608 156.067 60.1213C156.238 59.5818 156.566 59.105 157.01 58.7511C157.453 58.3972 157.992 58.1821 158.558 58.1331C158.934 58.0998 159.314 58.1409 159.674 58.2538C160.034 58.3667 160.368 58.5493 160.657 58.7911C160.946 59.0329 161.185 59.3292 161.359 59.6629C161.533 59.9966 161.638 60.3612 161.67 60.7358Z" fill="#F5F5F5"/>
<path d="M177.591 59.3449C177.641 59.9097 177.522 60.4767 177.248 60.974C176.975 61.4714 176.559 61.8768 176.054 62.1389C175.549 62.4011 174.977 62.5082 174.411 62.4467C173.844 62.3852 173.309 62.1579 172.873 61.7935C172.436 61.4291 172.118 60.944 171.959 60.3996C171.799 59.8552 171.806 59.276 171.977 58.7352C172.149 58.1945 172.477 57.7164 172.922 57.3617C173.366 57.0069 173.906 56.7913 174.474 56.7422C175.234 56.6764 175.989 56.9136 176.573 57.4015C177.158 57.8895 177.524 58.5884 177.591 59.3449Z" fill="#F5F5F5"/>
<path d="M193.506 57.954C193.556 58.5188 193.437 59.0858 193.163 59.5831C192.89 60.0805 192.474 60.4859 191.969 60.748C191.464 61.0102 190.892 61.1173 190.326 61.0558C189.759 60.9943 189.224 60.767 188.788 60.4026C188.351 60.0382 188.033 59.5531 187.874 59.0087C187.714 58.4643 187.721 57.8851 187.892 57.3443C188.063 56.8036 188.392 56.3255 188.836 55.9708C189.281 55.616 189.821 55.4004 190.388 55.3513C191.148 55.2855 191.903 55.5227 192.488 56.0106C193.072 56.4986 193.439 57.1975 193.506 57.954Z" fill="#F5F5F5"/>
<path d="M190.065 58.8918L157.367 61.7368L186.36 26.6694L156.663 29.2562C156.58 29.2642 156.497 29.2555 156.417 29.2308C156.338 29.2061 156.264 29.1658 156.2 29.1123C156.137 29.0587 156.084 28.9931 156.047 28.9192C156.009 28.8453 155.986 28.7646 155.98 28.6819C155.966 28.5164 156.018 28.3518 156.125 28.2243C156.232 28.0969 156.386 28.017 156.552 28.0023L189.256 25.1573L160.257 60.2247L189.965 57.6379C190.132 57.6246 190.298 57.6774 190.427 57.7849C190.556 57.8923 190.637 58.0457 190.653 58.2121C190.659 58.2952 190.649 58.3787 190.623 58.4579C190.597 58.5371 190.556 58.6104 190.501 58.6735C190.446 58.7367 190.38 58.7885 190.305 58.826C190.23 58.8634 190.149 58.8858 190.065 58.8918Z" fill="#E6E6E6"/>
<path d="M190.569 121.498C190.518 121.344 190.424 121.209 190.297 121.109C190.17 121.009 190.016 120.948 189.854 120.934C188.432 120.869 187.086 120.277 186.08 119.275C184.773 117.963 184.006 115.976 183.879 113.616C183.866 113.403 183.773 113.203 183.618 113.056C183.462 112.909 183.257 112.827 183.042 112.826C182.927 112.826 182.812 112.85 182.706 112.896C182.6 112.942 182.504 113.009 182.424 113.092C182.344 113.176 182.283 113.275 182.242 113.383C182.202 113.491 182.185 113.606 182.19 113.722C182.338 116.493 183.281 118.864 184.884 120.46C186.14 121.712 187.806 122.473 189.579 122.604H189.701C189.84 122.615 189.979 122.591 190.107 122.535C190.235 122.479 190.346 122.392 190.432 122.283C190.518 122.173 190.576 122.044 190.599 121.907C190.623 121.77 190.613 121.63 190.569 121.498Z" fill="#F0F0F0"/>
<path d="M188.875 131.608C181.862 130.997 176.802 126.24 175.204 118.811C175.178 118.699 175.176 118.584 175.196 118.471C175.217 118.359 175.26 118.252 175.323 118.156C175.387 118.061 175.469 117.979 175.565 117.916C175.66 117.853 175.768 117.809 175.881 117.789C176.095 117.751 176.316 117.797 176.497 117.916C176.679 118.036 176.807 118.22 176.855 118.432C178.289 125.107 182.788 129.385 189.028 129.928C195.866 130.523 203.207 126.045 204.525 114.759C204.548 114.539 204.657 114.337 204.828 114.196C204.999 114.055 205.219 113.987 205.441 114.006C205.553 114.015 205.662 114.047 205.762 114.099C205.862 114.15 205.95 114.222 206.021 114.308C206.093 114.395 206.146 114.495 206.178 114.602C206.211 114.709 206.221 114.822 206.208 114.933C204.943 125.576 197.915 132.393 188.875 131.608Z" fill="#F0F0F0"/>
<path d="M175.643 111.409C175.531 111.399 175.422 111.368 175.322 111.316C175.222 111.264 175.134 111.193 175.062 111.106C174.991 111.02 174.937 110.92 174.905 110.813C174.873 110.705 174.863 110.593 174.875 110.481C176.135 99.8389 183.164 93.0161 192.198 93.8064C200.137 94.4966 205.457 100.397 206.288 109.285C206.296 109.397 206.282 109.509 206.247 109.615C206.212 109.722 206.155 109.82 206.081 109.904C206.008 109.988 205.918 110.057 205.817 110.107C205.716 110.156 205.606 110.185 205.494 110.192C205.273 110.202 205.057 110.126 204.891 109.981C204.725 109.835 204.622 109.631 204.604 109.412C203.837 101.404 199.09 96.0982 192.056 95.4871C185.244 94.8917 177.871 99.3647 176.559 110.639C176.549 110.75 176.518 110.857 176.467 110.956C176.416 111.054 176.346 111.141 176.261 111.213C176.176 111.284 176.078 111.338 175.971 111.372C175.865 111.406 175.754 111.418 175.643 111.409Z" fill="#F0F0F0"/>
<path d="M189.219 127.093C187.961 126.993 186.729 126.686 185.572 126.187C185.464 126.14 185.367 126.071 185.287 125.985C185.208 125.898 185.147 125.797 185.108 125.686C185.07 125.575 185.055 125.457 185.065 125.34C185.075 125.223 185.108 125.11 185.164 125.007C185.264 124.826 185.427 124.688 185.622 124.619C185.818 124.551 186.032 124.558 186.223 124.638C187.327 125.11 188.506 125.381 189.706 125.439C194.887 125.734 200.36 122.077 200.9 113.247C201.228 107.805 199.354 103.411 195.861 101.309C195.68 101.2 195.547 101.028 195.487 100.826C195.427 100.624 195.446 100.407 195.538 100.218C195.591 100.114 195.664 100.021 195.755 99.946C195.845 99.871 195.949 99.8152 196.062 99.7821C196.175 99.749 196.293 99.7393 196.409 99.7536C196.526 99.7679 196.638 99.8059 196.74 99.8652C200.788 102.299 202.958 107.241 202.588 113.347C202.059 121.861 196.734 127.53 189.605 127.125L189.219 127.093Z" fill="#F0F0F0"/>
<path d="M181.682 121.84C181.584 121.906 181.474 121.951 181.359 121.972C181.243 121.994 181.124 121.992 181.01 121.965C180.895 121.939 180.787 121.89 180.692 121.82C180.598 121.751 180.518 121.662 180.459 121.561C178.89 118.657 178.201 115.363 178.475 112.078C178.972 103.927 183.878 98.3795 190.542 98.2847C190.659 98.2823 190.776 98.3041 190.884 98.3487C190.993 98.3933 191.091 98.4597 191.172 98.5438C191.254 98.6279 191.317 98.7278 191.358 98.8374C191.399 98.9469 191.416 99.0636 191.41 99.1803C191.397 99.391 191.304 99.5891 191.152 99.7355C190.999 99.8818 190.796 99.9657 190.584 99.9706C185.641 100.065 180.676 103.785 180.168 112.178C179.911 115.144 180.525 118.12 181.936 120.744C182.042 120.927 182.075 121.142 182.028 121.347C181.981 121.553 181.857 121.733 181.682 121.851V121.84Z" fill="#F0F0F0"/>
<path d="M193.252 121.176C193.172 120.989 193.162 120.779 193.225 120.585C193.289 120.392 193.42 120.227 193.596 120.123C195.824 118.79 197.189 115.992 197.211 112.615C197.211 109.912 196.443 107.626 194.993 106.177C194.43 105.621 193.759 105.186 193.021 104.898C192.282 104.61 191.493 104.475 190.701 104.502C188.091 104.502 185.974 105.929 184.805 108.437C184.714 108.628 184.555 108.778 184.359 108.857C184.163 108.936 183.944 108.938 183.746 108.864C183.636 108.823 183.535 108.76 183.45 108.679C183.366 108.597 183.299 108.499 183.254 108.391C183.209 108.282 183.187 108.166 183.19 108.049C183.193 107.932 183.22 107.816 183.27 107.71C184.72 104.639 187.435 102.821 190.679 102.816C191.696 102.79 192.707 102.968 193.652 103.341C194.597 103.714 195.456 104.274 196.179 104.986C197.952 106.756 198.915 109.47 198.894 112.631C198.862 116.609 197.179 119.949 194.437 121.587C194.333 121.644 194.219 121.678 194.101 121.688C193.983 121.697 193.865 121.682 193.753 121.644C193.641 121.605 193.539 121.543 193.453 121.463C193.366 121.382 193.298 121.285 193.252 121.176Z" fill="#F0F0F0"/>
<path d="M187.155 114.954C187.041 115 186.92 115.021 186.798 115.016C186.676 115.011 186.556 114.979 186.448 114.923C186.339 114.868 186.244 114.79 186.169 114.694C186.093 114.598 186.04 114.488 186.011 114.37C185.953 114.143 185.911 113.906 185.874 113.664C185.392 110.502 187.096 107.768 189.833 107.278C190.47 107.14 191.13 107.153 191.762 107.315C192.393 107.477 192.978 107.783 193.469 108.211C193.561 108.292 193.633 108.393 193.681 108.506C193.728 108.62 193.749 108.742 193.743 108.865C193.736 108.987 193.702 109.107 193.642 109.214C193.583 109.322 193.5 109.414 193.4 109.486L193.347 109.522C193.188 109.632 192.996 109.684 192.804 109.67C192.611 109.656 192.429 109.576 192.288 109.443C191.992 109.194 191.641 109.017 191.263 108.925C190.886 108.834 190.492 108.831 190.113 108.917C188.028 109.291 187.234 111.451 187.53 113.39C187.562 113.579 187.594 113.764 187.641 113.916C187.693 114.115 187.67 114.325 187.577 114.508C187.485 114.691 187.329 114.835 187.139 114.912L187.155 114.954Z" fill="#F0F0F0"/>
<path d="M189.954 118.2C189.821 118.187 189.693 118.14 189.583 118.064C189.472 117.988 189.383 117.886 189.324 117.766C189.264 117.646 189.237 117.513 189.243 117.38C189.25 117.247 189.291 117.117 189.361 117.004L189.436 116.888C189.512 116.767 189.619 116.669 189.747 116.605C189.875 116.541 190.018 116.513 190.161 116.524C190.426 116.54 190.693 116.524 190.955 116.477C192.775 116.15 193.601 114.464 193.601 112.747C193.596 112.541 193.666 112.339 193.798 112.18C193.93 112.022 194.116 111.916 194.321 111.883C194.438 111.865 194.558 111.872 194.673 111.903C194.787 111.934 194.894 111.989 194.986 112.064C195.078 112.139 195.153 112.233 195.206 112.339C195.259 112.444 195.289 112.56 195.295 112.678C195.342 115.429 193.707 117.699 191.256 118.137C190.827 118.216 190.389 118.237 189.954 118.2Z" fill="#F0F0F0"/>
<path d="M190.33 115.086C189.903 115.05 189.498 114.882 189.171 114.605C188.845 114.328 188.613 113.957 188.51 113.542C188.48 113.425 188.479 113.303 188.506 113.186C188.533 113.068 188.588 112.959 188.666 112.866C188.744 112.774 188.843 112.702 188.955 112.655C189.067 112.609 189.188 112.59 189.309 112.599H189.505C189.653 112.615 189.793 112.673 189.909 112.766C190.025 112.86 190.11 112.985 190.156 113.126C190.174 113.2 190.215 113.265 190.273 113.315C190.331 113.364 190.403 113.394 190.479 113.4C190.886 113.437 190.955 112.873 190.966 112.736C190.99 112.531 190.951 112.324 190.854 112.141C190.708 111.965 190.633 111.742 190.643 111.514C190.656 111.347 190.719 111.187 190.825 111.056C190.93 110.924 191.072 110.827 191.233 110.777C191.394 110.726 191.566 110.725 191.728 110.773C191.89 110.821 192.033 110.915 192.141 111.045C192.554 111.565 192.744 112.225 192.67 112.884C192.532 114.269 191.553 115.191 190.33 115.086Z" fill="#F0F0F0"/>
<path d="M174.41 96.2299C174.299 96.2207 174.191 96.1897 174.093 96.1388C173.994 96.0878 173.907 96.018 173.835 95.9333C173.764 95.8486 173.71 95.7506 173.677 95.6451C173.644 95.5396 173.632 95.4286 173.642 95.3185L174.283 88.011L181.624 88.6538C181.734 88.663 181.842 88.694 181.941 88.7449C182.039 88.7958 182.127 88.8657 182.198 88.9504C182.27 89.0351 182.323 89.1331 182.356 89.2386C182.39 89.3441 182.401 89.4551 182.391 89.5652C182.382 89.6756 182.351 89.7831 182.3 89.8815C182.249 89.9799 182.179 90.0673 182.094 90.1387C182.009 90.2101 181.91 90.2642 181.804 90.2978C181.698 90.3314 181.587 90.3438 181.476 90.3344L175.823 89.8392L175.331 95.466C175.321 95.5764 175.289 95.6837 175.237 95.7819C175.186 95.8801 175.115 95.9671 175.03 96.0381C174.944 96.109 174.845 96.1625 174.739 96.1954C174.633 96.2283 174.521 96.2401 174.41 96.2299Z" fill="#F0F0F0"/>
<path d="M209.305 99.2699C209.194 99.2606 209.086 99.2296 208.988 99.1787C208.889 99.1278 208.802 99.0579 208.73 98.9732C208.659 98.8885 208.605 98.7905 208.572 98.685C208.539 98.5795 208.527 98.4685 208.537 98.3584L209.03 92.7316L203.377 92.2416C203.266 92.2317 203.158 92.2001 203.06 92.1486C202.961 92.0972 202.874 92.0268 202.802 91.9417C202.731 91.8565 202.677 91.7582 202.644 91.6524C202.611 91.5466 202.599 91.4353 202.61 91.3249C202.619 91.2147 202.65 91.1075 202.701 91.0094C202.752 90.9112 202.822 90.8241 202.908 90.7531C202.993 90.6821 203.091 90.6286 203.197 90.5956C203.303 90.5626 203.415 90.5508 203.525 90.561L210.866 91.1985L210.226 98.5217C210.202 98.7418 210.092 98.9437 209.919 99.0837C209.747 99.2236 209.526 99.2905 209.305 99.2699Z" fill="#F0F0F0"/>
<path d="M206.706 138.563L199.365 137.925C199.254 137.915 199.146 137.884 199.048 137.832C198.949 137.781 198.862 137.71 198.79 137.625C198.719 137.54 198.665 137.442 198.632 137.336C198.599 137.23 198.587 137.119 198.598 137.008C198.607 136.898 198.638 136.791 198.689 136.693C198.74 136.595 198.81 136.508 198.896 136.437C198.981 136.366 199.079 136.312 199.185 136.279C199.291 136.246 199.403 136.234 199.513 136.245L205.166 136.734L205.658 131.113C205.667 131.002 205.699 130.894 205.75 130.795C205.801 130.697 205.872 130.609 205.958 130.537C206.043 130.466 206.142 130.412 206.249 130.379C206.355 130.346 206.468 130.334 206.579 130.344C206.69 130.353 206.797 130.384 206.896 130.435C206.994 130.486 207.082 130.556 207.153 130.64C207.225 130.725 207.278 130.823 207.312 130.929C207.345 131.034 207.357 131.145 207.346 131.255L206.706 138.563Z" fill="#F0F0F0"/>
<path d="M177.464 136.002L170.123 135.359L170.763 128.057C170.784 127.834 170.893 127.629 171.065 127.485C171.238 127.341 171.46 127.27 171.684 127.288C171.795 127.298 171.903 127.329 172.001 127.381C172.1 127.432 172.187 127.503 172.259 127.588C172.33 127.673 172.384 127.771 172.417 127.877C172.45 127.983 172.462 128.094 172.451 128.205L171.959 133.821L177.606 134.316C177.717 134.325 177.825 134.356 177.924 134.407C178.023 134.458 178.111 134.528 178.183 134.613C178.254 134.697 178.309 134.795 178.342 134.901C178.376 135.006 178.389 135.117 178.379 135.228C178.36 135.451 178.253 135.658 178.082 135.803C177.91 135.948 177.688 136.02 177.464 136.002Z" fill="#F0F0F0"/>
<path d="M18.3816 120.191C18.2436 120.202 18.1072 120.158 18.0013 120.069C17.8955 119.98 17.8287 119.854 17.8152 119.717L17.4236 115.228L21.933 114.833C22.0709 114.823 22.2074 114.867 22.3132 114.955C22.419 115.044 22.4858 115.17 22.4993 115.307C22.5082 115.444 22.4635 115.578 22.3746 115.682C22.2857 115.787 22.1596 115.852 22.0229 115.866L18.5509 116.171L18.8526 119.628C18.863 119.764 18.8197 119.899 18.7318 120.004C18.6439 120.11 18.5183 120.177 18.3816 120.191Z" fill="#E0E0E0"/>
<path d="M39.8381 118.321C39.701 118.331 39.5653 118.288 39.4596 118.201C39.3539 118.113 39.2866 117.988 39.2718 117.852L38.9701 114.391L35.4928 114.696C35.3549 114.706 35.2184 114.663 35.1126 114.574C35.0068 114.485 34.94 114.359 34.9265 114.222C34.9162 114.085 34.9603 113.949 35.0493 113.843C35.1383 113.738 35.2652 113.672 35.4029 113.658L39.9122 113.268L40.3092 117.757C40.3196 117.894 40.2763 118.029 40.1884 118.134C40.1004 118.239 39.9748 118.306 39.8381 118.321Z" fill="#E0E0E0"/>
<path d="M42.061 137.662L37.5463 138.057C37.4084 138.067 37.2719 138.023 37.1661 137.935C37.0602 137.846 36.9934 137.72 36.98 137.583C36.9697 137.445 37.0137 137.31 37.1027 137.204C37.1918 137.099 37.3187 137.032 37.4563 137.019L40.9283 136.719L40.6267 133.263C40.6162 133.126 40.6596 132.991 40.7475 132.886C40.8354 132.78 40.961 132.713 41.0977 132.699C41.2348 132.688 41.3706 132.732 41.4763 132.819C41.582 132.907 41.6493 133.032 41.664 133.168L42.061 137.662Z" fill="#E0E0E0"/>
<path d="M24.0766 139.226L19.5831 139.616L19.1862 135.122C19.1773 134.986 19.222 134.851 19.3109 134.747C19.3998 134.643 19.5258 134.577 19.6625 134.564C19.7987 134.555 19.9331 134.599 20.0377 134.686C20.1422 134.773 20.2088 134.898 20.2235 135.033L20.5305 138.494L24.0025 138.189C24.1404 138.178 24.2769 138.222 24.3828 138.311C24.4886 138.399 24.5554 138.526 24.5688 138.663C24.5739 138.732 24.5651 138.802 24.5431 138.867C24.521 138.933 24.4862 138.994 24.4404 139.046C24.3947 139.099 24.339 139.142 24.2766 139.173C24.2141 139.203 24.1462 139.222 24.0766 139.226Z" fill="#E0E0E0"/>
<path d="M39.4729 45.3095L22.2293 46.7847L21.8747 42.7648C21.8488 40.8462 22.5526 38.9889 23.8449 37.5653C25.1372 36.1417 26.9225 35.2572 28.8426 35.0892C30.7627 34.9212 32.6756 35.4822 34.1976 36.6595C35.7196 37.8368 36.7381 39.5435 37.0488 41.4371L37.2499 43.7763L39.7428 43.5603L39.5364 41.2211C39.4203 39.9017 39.0443 38.618 38.4298 37.4432C37.8154 36.2684 36.9745 35.2257 35.9552 34.3744C34.9359 33.5231 33.7581 32.8801 32.4891 32.4819C31.2201 32.0837 29.8848 31.9383 28.5594 32.0538C25.8825 32.2872 23.4084 33.5695 21.6813 35.6187C20.8261 36.6334 20.1801 37.8058 19.7801 39.0689C19.3801 40.3321 19.234 41.6614 19.3501 42.9808L19.7047 47.027C18.7228 47.2183 17.8467 47.7643 17.2448 48.5599C16.6429 49.3554 16.3579 50.3445 16.4444 51.3367L17.6776 65.3721C17.7216 65.9018 17.8703 66.4177 18.1151 66.89C18.3599 67.3624 18.6961 67.782 19.1043 68.1247C19.5124 68.4673 19.9846 68.7264 20.4937 68.8869C21.0027 69.0474 21.5386 69.1063 22.0705 69.0601L41.4047 67.3794C41.9369 67.3356 42.4551 67.1876 42.9296 66.9439C43.4041 66.7002 43.8256 66.3656 44.1699 65.9592C44.5141 65.5529 44.7744 65.0829 44.9356 64.5762C45.0969 64.0695 45.156 63.536 45.1096 63.0065L43.8764 48.9711C43.8292 48.4427 43.6777 47.9288 43.4308 47.4587C43.1839 46.9886 42.8462 46.5716 42.4372 46.2315C42.0283 45.8914 41.5559 45.6349 41.0473 45.4767C40.5386 45.3185 40.0036 45.2617 39.4729 45.3095ZM32.1372 56.1258L32.5606 60.957C32.5891 61.1515 32.5774 61.3497 32.5263 61.5395C32.4751 61.7292 32.3856 61.9066 32.2632 62.0608C32.1407 62.2149 31.988 62.3426 31.8142 62.4359C31.6405 62.5292 31.4495 62.5862 31.2528 62.6034C31.0562 62.6207 30.8581 62.5978 30.6707 62.5361C30.4832 62.4745 30.3104 62.3754 30.1628 62.2449C30.0152 62.1145 29.8959 61.9554 29.8122 61.7774C29.7285 61.5994 29.6822 61.4063 29.6761 61.2099L29.2527 56.3734C28.8161 56.1065 28.4752 55.7093 28.2785 55.2383C28.0819 54.7673 28.0396 54.2465 28.1576 53.7502C28.2755 53.2538 28.5478 52.8072 28.9357 52.4738C29.3235 52.1405 29.8071 51.9375 30.3176 51.8936C30.8281 51.8498 31.3394 51.9674 31.7789 52.2298C32.2183 52.4921 32.5634 52.8857 32.765 53.3546C32.9666 53.8235 33.0145 54.3438 32.9018 54.8414C32.789 55.3389 32.5215 55.7884 32.1372 56.1258Z" fill="#EBEBEB"/>
<path d="M69.0376 53.4177L67.2963 50.578C66.4186 50.7024 65.5276 50.7024 64.65 50.578L62.9034 53.4072L62.5699 53.3176C61.4381 53.0208 60.352 52.5724 59.3414 51.9847L59.045 51.8161L59.7807 48.7393C59.795 48.6796 59.821 48.6233 59.8573 48.5737C59.8935 48.5241 59.9393 48.4822 59.992 48.4503C60.0447 48.4185 60.1032 48.3973 60.1641 48.3881C60.2251 48.379 60.2872 48.3819 60.347 48.3968C60.467 48.4256 60.5706 48.5005 60.6351 48.6052C60.6996 48.7099 60.7197 48.8358 60.691 48.9553L60.1088 51.3525C60.861 51.7604 61.6539 52.0888 62.4747 52.3324L64.1789 49.5612L64.4912 49.6139C65.4799 49.772 66.4876 49.772 67.4763 49.6139L67.7832 49.5612L69.4875 52.3324C70.3089 52.0907 71.1021 51.7622 71.8533 51.3525L71.0965 48.1914L71.3505 48.007C72.0399 47.512 72.6579 46.9252 73.1871 46.2631C73.2606 46.1677 73.3685 46.1045 73.488 46.0868C73.6075 46.0691 73.7292 46.0983 73.8275 46.1682C73.879 46.2038 73.9226 46.2494 73.9557 46.3023C73.9889 46.3552 74.0108 46.4143 74.0202 46.476C74.0297 46.5376 74.0263 46.6005 74.0105 46.6608C73.9946 46.7212 73.9666 46.7776 73.928 46.8268C73.408 47.4806 72.8089 48.0681 72.1444 48.576L72.9224 51.8056L72.6208 51.9742C71.6115 52.5609 70.5273 53.0093 69.3975 53.3071L69.0376 53.4177ZM58.3358 47.2325C58.1929 47.0691 58.05 46.8953 57.9124 46.7056L54.668 47.4801L54.4933 47.1851C53.9073 46.1769 53.4571 45.0964 53.1543 43.9713L53.0696 43.6393L55.9117 41.9007C55.7867 41.027 55.7867 40.1401 55.9117 39.2664L53.0696 37.5331L53.1543 37.1959C53.4571 36.0725 53.9073 34.9937 54.4933 33.9874L54.668 33.6871L57.9124 34.4615C58.4541 33.7559 59.0877 33.1252 59.7966 32.5859L59.2091 30.1413C59.1804 30.0219 59.2006 29.896 59.2651 29.7913C59.3296 29.6866 59.4332 29.6116 59.5531 29.5829C59.6122 29.5688 59.6735 29.5665 59.7335 29.5761C59.7935 29.5857 59.8509 29.6071 59.9026 29.6389C59.9543 29.6707 59.9991 29.7124 60.0345 29.7616C60.0699 29.8108 60.0952 29.8664 60.1088 29.9253L60.8445 32.9705L60.5905 33.1497C59.7751 33.7337 59.0601 34.4454 58.4734 35.2571L58.2882 35.51L55.1126 34.7566C54.701 35.5044 54.3709 36.2939 54.1281 37.1116L56.9068 38.8081L56.8591 39.1137C56.6824 40.0963 56.6824 41.1024 56.8591 42.0851L56.9068 42.396L54.1281 44.0924C54.3719 44.9081 54.7019 45.6958 55.1126 46.4422L58.2882 45.6888L58.4734 45.9417C58.6379 46.1806 58.8146 46.4109 59.0027 46.6319C59.0842 46.7171 59.1297 46.8303 59.1297 46.948C59.1297 47.0657 59.0842 47.1789 59.0027 47.2641C58.9576 47.3071 58.9041 47.3405 58.8456 47.3622C58.7871 47.384 58.7248 47.3937 58.6624 47.3908C58.6 47.3878 58.5389 47.3722 58.4828 47.345C58.4266 47.3178 58.3766 47.2795 58.3358 47.2325ZM77.2518 47.4906L76.0557 47.2061C75.9357 47.1774 75.8321 47.1024 75.7676 46.9977C75.7031 46.893 75.683 46.7671 75.7117 46.6477C75.7405 46.5283 75.8158 46.4251 75.921 46.3609C76.0262 46.2967 76.1527 46.2767 76.2727 46.3052L76.802 46.4264C77.2109 45.6798 77.5391 44.8921 77.7811 44.0766L75.0025 42.3802L75.0554 42.0693C75.2321 41.0866 75.2321 40.0805 75.0554 39.0979L75.0025 38.7923L77.7811 37.0958C77.5401 36.2782 77.2119 35.4887 76.802 34.7408L73.6264 35.4942L73.4464 35.2413C72.8583 34.4308 72.1435 33.7193 71.3293 33.1339L71.0753 32.9547L71.8321 29.7936C71.0807 29.3856 70.2876 29.0588 69.4663 28.8189L67.7462 31.6112L67.4392 31.5586C66.4505 31.4005 65.4428 31.4005 64.4541 31.5586L64.1419 31.6112L62.4535 28.8295L62.1359 28.9243C62.0229 28.9614 61.8998 28.9529 61.7929 28.9007C61.6861 28.8485 61.604 28.7568 61.5643 28.6451C61.5425 28.5873 61.5324 28.5259 61.5347 28.4642C61.537 28.4026 61.5517 28.342 61.5778 28.2861C61.6039 28.2301 61.641 28.18 61.6869 28.1385C61.7327 28.097 61.7864 28.065 61.8448 28.0444C62.0777 27.9707 62.3159 27.9022 62.5488 27.839L62.8822 27.7494L64.6288 30.5839C65.5061 30.454 66.3978 30.454 67.2751 30.5839L69.0164 27.7494L69.3552 27.839C70.4842 28.1391 71.5681 28.5873 72.5784 29.1719L72.8801 29.3458L72.1021 32.5754C72.812 33.1134 73.4458 33.7443 73.9863 34.451L77.2307 33.6765L77.4053 33.9768C77.9935 34.9821 78.4439 36.0612 78.7444 37.1854L78.8344 37.5226L75.9869 39.2559C76.1188 40.1291 76.1188 41.017 75.9869 41.8902L78.8344 43.6288L78.7444 43.9607C78.4439 45.0866 77.9936 46.1674 77.4053 47.1745L77.2518 47.4906ZM65.8302 45.0987C64.677 45.0532 63.5833 44.5768 62.7671 43.7644C61.951 42.952 61.4724 41.8633 61.4267 40.7153C61.3952 39.5861 61.7896 38.4862 62.5321 37.632C63.2746 36.7778 64.3115 36.2313 65.4386 36.1C65.5047 36.0918 65.5718 36.0977 65.6355 36.1172C65.6992 36.1368 65.758 36.1695 65.808 36.2133C65.858 36.2572 65.8981 36.311 65.9257 36.3714C65.9532 36.4318 65.9676 36.4974 65.9678 36.5637C65.9673 36.6757 65.9255 36.7837 65.8504 36.8672C65.7753 36.9507 65.6721 37.0039 65.5603 37.0168C64.776 37.1058 64.0428 37.4487 63.4732 37.9927C62.9036 38.5368 62.5292 39.2519 62.4075 40.0283C62.2858 40.8047 62.4235 41.5994 62.7994 42.2903C63.1754 42.9813 63.7688 43.5302 64.4885 43.8529C65.2083 44.1756 66.0146 44.2542 66.7835 44.0765C67.5525 43.8989 68.2416 43.4749 68.745 42.8696C69.2484 42.2644 69.5383 41.5114 69.5701 40.7262C69.6019 39.9411 69.3739 39.1672 68.9212 38.5236C68.8558 38.4324 68.8272 38.3201 68.8409 38.2089C68.8546 38.0977 68.9097 37.9957 68.9953 37.923C69.0447 37.8793 69.1028 37.8466 69.1659 37.827C69.2289 37.8074 69.2955 37.8014 69.361 37.8094C69.4266 37.8174 69.4897 37.8391 69.5462 37.8732C69.6027 37.9074 69.6512 37.953 69.6886 38.0073C70.1701 38.6929 70.4504 39.4983 70.4984 40.3335C70.5464 41.1687 70.3601 42.0007 69.9603 42.7365C69.5605 43.4723 68.963 44.0829 68.2346 44.5001C67.5061 44.9173 66.6755 45.1245 65.8355 45.0987H65.8302Z" fill="#F0F0F0"/>
<path d="M36.1545 91.9835L35.0272 90.1553C34.457 90.2396 33.8773 90.2396 33.3071 90.1553L32.1797 91.9835L31.9627 91.9255C31.2321 91.7336 30.5307 91.4448 29.8774 91.0667L29.6869 90.9561L30.1632 88.9646C30.1821 88.8881 30.2304 88.822 30.2977 88.7806C30.365 88.7393 30.446 88.7259 30.5231 88.7433C30.5618 88.7526 30.5982 88.7694 30.6302 88.7927C30.6623 88.816 30.6895 88.8453 30.7101 88.8791C30.7308 88.9129 30.7445 88.9504 30.7506 88.9895C30.7567 89.0286 30.7549 89.0684 30.7454 89.1069L30.3749 90.6558C30.8605 90.9206 31.3733 91.1326 31.9045 91.288L33.0054 89.502L33.2012 89.5336C33.8408 89.6389 34.4935 89.6389 35.1331 89.5336L35.3289 89.502L36.4351 91.288C36.9634 91.1293 37.4741 90.9174 37.9594 90.6558L37.4724 88.6221L37.6365 88.501C38.0815 88.1827 38.4804 87.8051 38.8221 87.3788C38.8686 87.3161 38.938 87.2743 39.0154 87.2625C39.0927 87.2506 39.1716 87.2697 39.2349 87.3155C39.2674 87.3386 39.295 87.3678 39.316 87.4015C39.3371 87.4352 39.3513 87.4728 39.3577 87.512C39.3641 87.5512 39.3626 87.5913 39.3533 87.6299C39.3441 87.6685 39.3272 87.7049 39.3037 87.737C38.9665 88.1596 38.5791 88.54 38.1499 88.8698L38.6792 90.9772L38.4833 91.0878C37.8305 91.4667 37.129 91.7556 36.398 91.9466L36.1545 91.9835ZM29.2423 87.9846L28.9671 87.6527L26.85 88.148L26.7389 87.9583C26.366 87.3053 26.083 86.6053 25.8973 85.8772L25.8391 85.6612L27.6757 84.539C27.591 83.9714 27.591 83.3944 27.6757 82.8267L25.8391 81.7045L25.8973 81.4885C26.0892 80.7609 26.3794 80.0626 26.76 79.4127L26.8712 79.2178L28.9883 79.7446C29.3287 79.2834 29.7251 78.8657 30.1685 78.5013L29.7927 76.9207C29.7833 76.8826 29.7816 76.8431 29.7878 76.8044C29.7939 76.7656 29.8077 76.7285 29.8284 76.6951C29.8491 76.6618 29.8762 76.6329 29.9083 76.6101C29.9403 76.5873 29.9766 76.5711 30.015 76.5625C30.0922 76.545 30.1732 76.5584 30.2405 76.5998C30.3078 76.6412 30.3561 76.7072 30.3749 76.7837L30.8513 78.7489L30.6819 78.8701C30.1574 79.2446 29.6979 79.702 29.3217 80.2241L29.2 80.3874L27.157 79.9027C26.8942 80.3857 26.6814 80.8941 26.5219 81.42L28.3161 82.5159L28.2843 82.7161C28.2298 83.0329 28.2014 83.3536 28.1996 83.675C28.2014 83.9981 28.2297 84.3206 28.2843 84.6391L28.3161 84.8341L26.5219 85.9299C26.6804 86.4579 26.8932 86.9681 27.157 87.4525L29.2 86.9626L29.3217 87.1259C29.431 87.2819 29.5495 87.4314 29.6763 87.5737C29.7284 87.6285 29.7575 87.7011 29.7575 87.7765C29.7575 87.852 29.7284 87.9246 29.6763 87.9794C29.6489 88.0094 29.6156 88.0335 29.5785 88.0501C29.5414 88.0668 29.5012 88.0756 29.4605 88.0761C29.4197 88.0766 29.3793 88.0687 29.3418 88.053C29.3043 88.0373 29.2704 88.014 29.2423 87.9846ZM41.4631 88.148L40.6904 87.9688C40.6518 87.9596 40.6154 87.9428 40.5833 87.9195C40.5512 87.8962 40.524 87.8668 40.5034 87.833C40.4827 87.7993 40.469 87.7618 40.4629 87.7227C40.4569 87.6836 40.4586 87.6437 40.4681 87.6053C40.4768 87.5671 40.4931 87.531 40.516 87.4991C40.5388 87.4671 40.5679 87.4401 40.6014 87.4195C40.6349 87.3989 40.6722 87.3852 40.7111 87.3791C40.75 87.373 40.7897 87.3747 40.828 87.384L41.1614 87.4631C41.4274 86.9797 41.6404 86.4692 41.7965 85.9405L40.0023 84.8446L40.0341 84.6497C40.0887 84.3311 40.117 84.0087 40.1188 83.6855C40.117 83.3641 40.0887 83.0434 40.0341 82.7266L40.0023 82.5264L41.7965 81.4306C41.6394 80.9039 41.4265 80.3952 41.1614 79.9132L39.1185 80.398L38.9967 80.2346C38.6205 79.7125 38.161 79.2551 37.6365 78.8806L37.4724 78.7594L37.9594 76.7258C37.4752 76.4619 36.9642 76.25 36.4351 76.0935L35.3289 77.8796L35.1331 77.848C34.4935 77.7426 33.8408 77.7426 33.2012 77.848L33.0054 77.8796L31.9045 76.0935L31.6981 76.1568C31.6244 76.1803 31.5444 76.1741 31.4751 76.1397C31.4059 76.1052 31.353 76.0452 31.3276 75.9724C31.3134 75.9354 31.3067 75.896 31.3081 75.8564C31.3095 75.8168 31.3189 75.778 31.3357 75.7421C31.3524 75.7062 31.3763 75.674 31.4059 75.6475C31.4354 75.621 31.47 75.6007 31.5076 75.5878L31.9627 75.4508L32.1797 75.3981L33.3071 77.2263C33.8773 77.142 34.457 77.142 35.0272 77.2263L36.1545 75.3981L36.3715 75.4508C37.1019 75.6459 37.8031 75.9364 38.4569 76.3148L38.6527 76.4255L38.1234 78.5329C38.5792 78.8838 38.9882 79.291 39.3407 79.7446L41.4578 79.2178L41.569 79.4127C41.9496 80.0626 42.2398 80.7609 42.4317 81.4885L42.4899 81.7045L40.6533 82.8267C40.738 83.3944 40.738 83.9714 40.6533 84.539L42.4899 85.6612L42.4317 85.8772C42.2389 86.6045 41.9487 87.3027 41.569 87.953L41.4631 88.148ZM34.0851 86.6043C33.3659 86.5552 32.6901 86.2441 32.1868 85.7304C31.6834 85.2167 31.3878 84.5365 31.3564 83.8196C31.325 83.1027 31.5599 82.3994 32.0164 81.8441C32.4729 81.2887 33.1189 80.9202 33.8311 80.8089C33.8735 80.8045 33.9164 80.809 33.9571 80.822C33.9977 80.835 34.0351 80.8564 34.067 80.8846C34.0989 80.9129 34.1245 80.9475 34.1422 80.9861C34.1599 81.0248 34.1693 81.0667 34.1698 81.1092C34.1702 81.1823 34.1434 81.2529 34.0945 81.3074C34.0456 81.3619 33.9781 81.3964 33.9052 81.4042C33.4587 81.4551 33.0366 81.6334 32.6897 81.9176C32.3428 82.2019 32.0859 82.58 31.95 83.0064C31.8142 83.4327 31.8051 83.8891 31.9239 84.3205C32.0428 84.7518 32.2844 85.1397 32.6198 85.4375C32.9551 85.7352 33.3698 85.93 33.8139 85.9983C34.2579 86.0667 34.7124 86.0057 35.1224 85.8227C35.5324 85.6398 35.8805 85.3426 36.1247 84.9671C36.3689 84.5917 36.4987 84.1539 36.4986 83.7066C36.4996 83.231 36.3516 82.7669 36.0752 82.3789C36.0348 82.3191 36.0173 82.2467 36.0261 82.1752C36.0348 82.1036 36.0692 82.0375 36.1228 81.989C36.1547 81.9605 36.1923 81.9391 36.2331 81.9262C36.274 81.9133 36.3171 81.9092 36.3597 81.9142C36.4023 81.9191 36.4433 81.9331 36.48 81.9551C36.5167 81.9771 36.5483 82.0066 36.5727 82.0417C36.8822 82.485 37.0622 83.0051 37.0926 83.5441C37.123 84.0831 37.0026 84.62 36.7448 85.095C36.487 85.57 36.102 85.9645 35.6324 86.2347C35.1629 86.5048 34.6273 86.6401 34.0851 86.6254V86.6043Z" fill="#E6E6E6"/>
<path d="M111.146 195.995C167.822 195.995 213.766 193.325 213.766 190.031C213.766 186.737 167.822 184.067 111.146 184.067C54.4711 184.067 8.52661 186.737 8.52661 190.031C8.52661 193.325 54.4711 195.995 111.146 195.995Z" fill="#F5F5F5"/>
<path d="M171.192 47.8542H153.959L141.786 186.549H159.019C161.438 186.502 163.756 185.576 165.536 183.946C167.316 182.315 168.436 180.093 168.684 177.697L179.317 56.7C179.44 55.5727 179.321 54.432 178.967 53.3541C178.613 52.2762 178.032 51.2858 177.263 50.4488C176.495 49.6118 175.556 48.9475 174.509 48.5001C173.462 48.0527 172.331 47.8325 171.192 47.8542Z" fill="#00AB00"/>
<path d="M167.678 47.8542H109.352C106.933 47.8993 104.615 48.8237 102.834 50.4532C101.052 52.0827 99.9315 54.3047 99.6825 56.7001L89.0495 177.697C88.9271 178.824 89.0466 179.964 89.4003 181.041C89.754 182.118 90.3337 183.107 91.101 183.945C91.8683 184.782 92.8056 185.447 93.8508 185.896C94.8959 186.344 96.025 186.567 97.1632 186.549H155.483C157.899 186.497 160.212 185.569 161.989 183.939C163.766 182.309 164.883 180.09 165.132 177.697L175.765 56.7001C175.888 55.5758 175.77 54.4384 175.418 53.3631C175.066 52.2878 174.489 51.2993 173.724 50.4629C172.959 49.6265 172.025 48.9614 170.982 48.5117C169.94 48.0619 168.814 47.8378 167.678 47.8542Z" fill="#00AB00"/>
<path opacity="0.3" d="M167.678 47.8542H109.352C106.933 47.8993 104.615 48.8237 102.834 50.4532C101.052 52.0827 99.9315 54.3047 99.6825 56.7001L89.0495 177.697C88.9271 178.824 89.0466 179.964 89.4003 181.041C89.754 182.118 90.3337 183.107 91.101 183.945C91.8683 184.782 92.8056 185.447 93.8508 185.896C94.8959 186.344 96.025 186.567 97.1632 186.549H155.483C157.899 186.497 160.212 185.569 161.989 183.939C163.766 182.309 164.883 180.09 165.132 177.697L175.765 56.7001C175.888 55.5758 175.77 54.4384 175.418 53.3631C175.066 52.2878 174.489 51.2993 173.724 50.4629C172.959 49.6265 172.025 48.9614 170.982 48.5117C169.94 48.0619 168.814 47.8378 167.678 47.8542Z" fill="white"/>
<path opacity="0.4" d="M167.429 50.6886H152.048C151.59 50.6924 151.143 50.8329 150.765 51.0922C150.388 51.3514 150.097 51.7174 149.931 52.1428C149.324 53.7053 148.264 55.0526 146.885 56.0125C145.506 56.9725 143.87 57.5017 142.188 57.5325H133.116C131.532 57.5643 129.985 57.045 128.744 56.0641C127.503 55.0832 126.644 53.7021 126.315 52.1586C126.228 51.741 125.996 51.367 125.661 51.1014C125.325 50.8359 124.907 50.6954 124.479 50.7045H109.103C107.459 50.7334 105.883 51.3611 104.673 52.4689C103.462 53.5766 102.702 55.0876 102.535 56.7159L91.8968 177.713C91.8116 178.479 91.8916 179.255 92.1313 179.988C92.3709 180.721 92.7649 181.394 93.2868 181.964C93.8087 182.533 94.4466 182.985 95.1579 183.29C95.8692 183.594 96.6376 183.744 97.4118 183.73H155.737C157.382 183.7 158.958 183.071 160.168 181.962C161.378 180.854 162.139 179.342 162.305 177.713L172.938 56.7159C173.025 55.9494 172.947 55.1733 172.708 54.4394C172.469 53.7056 172.076 53.0309 171.555 52.4604C171.033 51.8899 170.395 51.4368 169.684 51.1312C168.972 50.8257 168.203 50.6748 167.429 50.6886Z" fill="white"/>
<path d="M152.895 116.435H112.078C111.798 116.439 111.519 116.385 111.262 116.274C111.004 116.163 110.773 115.999 110.584 115.793C110.395 115.587 110.252 115.343 110.164 115.078C110.077 114.812 110.047 114.531 110.078 114.254L110.284 111.925C110.345 111.334 110.62 110.787 111.059 110.385C111.498 109.983 112.07 109.755 112.666 109.744H153.488C153.769 109.739 154.047 109.794 154.305 109.905C154.562 110.015 154.793 110.179 154.983 110.385C155.172 110.592 155.315 110.835 155.402 111.101C155.489 111.366 155.519 111.647 155.489 111.925L155.288 114.254C155.226 114.845 154.948 115.394 154.507 115.796C154.066 116.198 153.493 116.425 152.895 116.435Z" fill="white"/>
<path d="M152.017 126.445H111.194C110.914 126.45 110.636 126.395 110.378 126.284C110.121 126.174 109.89 126.01 109.702 125.803C109.513 125.597 109.37 125.353 109.284 125.087C109.197 124.822 109.168 124.541 109.199 124.264L109.4 121.935C109.462 121.345 109.738 120.798 110.177 120.396C110.615 119.995 111.186 119.766 111.782 119.754H152.604C152.885 119.749 153.163 119.804 153.421 119.915C153.678 120.025 153.909 120.189 154.099 120.396C154.288 120.602 154.431 120.846 154.518 121.111C154.605 121.377 154.635 121.657 154.605 121.935L154.399 124.264C154.337 124.854 154.061 125.401 153.622 125.803C153.183 126.204 152.613 126.433 152.017 126.445Z" fill="white"/>
<path opacity="0.1" d="M140.494 52.9541C140.427 53.6098 140.121 54.2181 139.633 54.6638C139.145 55.1095 138.51 55.3616 137.848 55.3724C137.537 55.378 137.228 55.3175 136.942 55.195C136.656 55.0725 136.4 54.8909 136.19 54.6621C135.98 54.4333 135.822 54.1626 135.726 53.8681C135.629 53.5736 135.597 53.262 135.63 52.9541C135.698 52.2985 136.004 51.6901 136.492 51.2444C136.98 50.7987 137.615 50.5466 138.277 50.5358C138.588 50.5303 138.897 50.5907 139.183 50.7132C139.468 50.8357 139.725 51.0173 139.935 51.2461C140.144 51.4749 140.303 51.7456 140.399 52.0401C140.496 52.3346 140.528 52.6462 140.494 52.9541Z" fill="black"/>
<path opacity="0.1" d="M139.393 52.9541C139.356 53.312 139.188 53.644 138.922 53.8876C138.656 54.1311 138.31 54.2694 137.948 54.2765C137.778 54.2798 137.609 54.2469 137.453 54.18C137.296 54.1131 137.156 54.0137 137.042 53.8886C136.927 53.7634 136.84 53.6153 136.788 53.4541C136.735 53.293 136.718 53.1225 136.736 52.9541C136.773 52.5957 136.94 52.2631 137.206 52.0193C137.473 51.7756 137.819 51.6376 138.181 51.6317C138.351 51.6293 138.52 51.6627 138.676 51.7299C138.832 51.7971 138.972 51.8965 139.086 52.0215C139.201 52.1465 139.287 52.2942 139.34 52.455C139.393 52.6158 139.411 52.7859 139.393 52.9541Z" fill="black"/>
<g opacity="0.8">
<path d="M160.247 56.9898C160.155 56.9911 160.065 56.973 159.981 56.9369C159.897 56.9007 159.822 56.8472 159.76 56.78C159.699 56.7128 159.652 56.6333 159.624 56.5469C159.596 56.4604 159.586 56.369 159.596 56.2786L159.712 54.9825C159.732 54.791 159.821 54.6132 159.964 54.4831C160.106 54.3529 160.292 54.2794 160.485 54.2765C160.576 54.2753 160.666 54.2933 160.749 54.3291C160.833 54.365 160.908 54.4179 160.969 54.4846C161.03 54.5512 161.077 54.63 161.106 54.7158C161.135 54.8016 161.145 54.8925 161.136 54.9825L161.019 56.2786C161 56.4706 160.911 56.6489 160.768 56.78C160.626 56.911 160.441 56.9856 160.247 56.9898Z" fill="white"/>
<path d="M165.942 56.9898C165.85 56.9911 165.76 56.973 165.676 56.9369C165.592 56.9007 165.517 56.8472 165.455 56.78C165.394 56.7128 165.347 56.6333 165.319 56.5469C165.29 56.4604 165.281 56.369 165.291 56.2786L165.56 53.2386C165.58 53.0471 165.669 52.8694 165.812 52.7392C165.954 52.609 166.14 52.5355 166.333 52.5326C166.424 52.5315 166.514 52.5494 166.598 52.5852C166.681 52.6211 166.756 52.674 166.817 52.7407C166.879 52.8073 166.925 52.8861 166.954 52.9719C166.983 53.0577 166.993 53.1486 166.984 53.2386L166.714 56.2786C166.695 56.4706 166.606 56.6489 166.463 56.78C166.321 56.911 166.135 56.9856 165.942 56.9898Z" fill="white"/>
<path d="M163.094 56.9898C163.003 56.9911 162.912 56.973 162.828 56.9369C162.745 56.9007 162.669 56.8472 162.608 56.78C162.546 56.7128 162.5 56.6333 162.471 56.5469C162.443 56.4604 162.433 56.369 162.443 56.2786L162.634 54.1132C162.653 53.9203 162.743 53.7412 162.887 53.6101C163.03 53.4789 163.217 53.4049 163.412 53.4019C163.503 53.4006 163.593 53.4186 163.677 53.4548C163.76 53.491 163.835 53.5446 163.896 53.6119C163.958 53.6793 164.004 53.7588 164.031 53.8453C164.059 53.9317 164.068 54.0231 164.057 54.1132L163.867 56.2786C163.848 56.4706 163.758 56.6489 163.616 56.78C163.474 56.911 163.288 56.9856 163.094 56.9898Z" fill="white"/>
</g>
<g opacity="0.8">
<path d="M111.485 56.9898H107.907C107.856 56.9909 107.805 56.981 107.757 56.9608C107.71 56.9405 107.668 56.9104 107.633 56.8725C107.598 56.8345 107.572 56.7896 107.557 56.7408C107.541 56.6919 107.536 56.6403 107.542 56.5894L107.706 54.6769C107.718 54.5684 107.769 54.4677 107.85 54.394C107.931 54.3203 108.036 54.2785 108.145 54.2765H111.723C111.775 54.2754 111.826 54.2853 111.873 54.3056C111.921 54.3258 111.963 54.3559 111.998 54.3939C112.032 54.4318 112.058 54.4768 112.074 54.5256C112.09 54.5744 112.095 54.626 112.088 54.6769L111.919 56.5894C111.91 56.698 111.86 56.7992 111.78 56.8733C111.7 56.9473 111.595 56.9889 111.485 56.9898Z" fill="white"/>
<path d="M113.142 56.4682C113.09 56.4692 113.039 56.4593 112.991 56.4391C112.944 56.4189 112.901 56.3889 112.866 56.3511C112.831 56.3132 112.804 56.2684 112.788 56.2196C112.772 56.1707 112.766 56.119 112.771 56.0678L112.851 55.1932C112.861 55.0842 112.912 54.9829 112.993 54.909C113.074 54.835 113.18 54.7936 113.29 54.7928C113.341 54.7917 113.392 54.8016 113.44 54.8219C113.487 54.8421 113.53 54.8722 113.564 54.9102C113.599 54.9482 113.625 54.9931 113.64 55.0419C113.656 55.0907 113.661 55.1423 113.655 55.1932L113.581 56.0678C113.569 56.1764 113.518 56.277 113.437 56.3508C113.357 56.4245 113.251 56.4663 113.142 56.4682Z" fill="white"/>
</g>
<path d="M146.169 101.12C153.291 94.3326 154.002 83.5657 147.756 77.0708C141.51 70.576 130.673 70.8127 123.551 77.5996C116.428 84.3865 115.718 95.1535 121.964 101.648C128.21 108.143 139.047 107.906 146.169 101.12Z" fill="white"/>
<path d="M134.921 88.7117C130.433 88.7117 126.638 90.4134 126.315 94.1067L125.956 98.2109H142.22L142.58 94.1067C142.903 90.4134 139.415 88.7117 134.921 88.7117Z" fill="#00AB00"/>
<path d="M135.069 87.0205C137.154 87.0205 138.118 85.3399 138.298 83.264C138.478 81.1882 137.816 79.5076 135.731 79.5076C133.645 79.5076 132.687 81.1935 132.502 83.264C132.317 85.3346 132.984 87.0205 135.069 87.0205Z" fill="#00AB00"/>
<path d="M151.032 112.947C149.926 112.947 148.989 113.368 148.915 114.28L148.825 115.297H152.842L152.932 114.28C153.006 113.368 152.144 112.947 151.032 112.947Z" fill="#00AB00"/>
<path d="M151.069 112.531C151.598 112.531 151.821 112.115 151.868 111.604C151.916 111.092 151.747 110.676 151.233 110.676C150.72 110.676 150.482 111.092 150.434 111.604C150.386 112.115 150.556 112.531 151.069 112.531Z" fill="#00AB00"/>
<path d="M138.668 136.455H122.79C122.36 136.463 121.932 136.379 121.537 136.21C121.141 136.041 120.787 135.789 120.496 135.473C120.206 135.156 119.986 134.782 119.853 134.374C119.719 133.967 119.674 133.536 119.72 133.11C119.815 132.204 120.239 131.363 120.912 130.747C121.586 130.131 122.463 129.781 123.378 129.764H139.256C139.686 129.757 140.113 129.841 140.508 130.011C140.903 130.181 141.258 130.432 141.548 130.748C141.838 131.065 142.058 131.439 142.192 131.846C142.326 132.253 142.371 132.684 142.326 133.11C142.232 134.016 141.809 134.857 141.135 135.474C140.461 136.09 139.583 136.439 138.668 136.455Z" fill="#00AB00"/>
<path d="M136.747 173.767H119.752C119.296 173.779 118.843 173.694 118.423 173.516C118.004 173.338 117.627 173.073 117.32 172.737C117.013 172.402 116.782 172.004 116.642 171.572C116.503 171.14 116.459 170.683 116.513 170.232L117.598 157.893C117.695 156.936 118.142 156.047 118.853 155.396C119.564 154.744 120.49 154.375 121.457 154.358H138.457C138.911 154.35 139.362 154.438 139.78 154.617C140.198 154.797 140.572 155.062 140.879 155.397C141.185 155.731 141.416 156.127 141.557 156.557C141.698 156.988 141.745 157.443 141.696 157.893L140.611 170.232C140.511 171.189 140.064 172.077 139.352 172.728C138.64 173.379 137.714 173.749 136.747 173.767Z" fill="#00AB00"/>
<g opacity="0.6">
<path d="M131.507 161.007C131.535 160.737 131.505 160.465 131.419 160.208C131.334 159.952 131.194 159.716 131.01 159.517C130.826 159.317 130.601 159.159 130.351 159.053C130.101 158.946 129.831 158.894 129.56 158.899C128.981 158.908 128.425 159.126 127.997 159.515C127.569 159.903 127.298 160.434 127.236 161.007C127.202 161.327 127.25 161.651 127.375 161.948C127.5 162.246 127.698 162.507 127.951 162.708L127.58 166.96C127.562 167.121 127.579 167.284 127.629 167.438C127.679 167.592 127.762 167.734 127.872 167.854C127.981 167.974 128.116 168.069 128.265 168.133C128.415 168.196 128.576 168.228 128.739 168.225C129.084 168.217 129.414 168.085 129.668 167.852C129.921 167.619 130.08 167.302 130.115 166.96L130.491 162.708C130.775 162.515 131.012 162.263 131.188 161.969C131.364 161.675 131.472 161.347 131.507 161.007Z" fill="white"/>
</g>
<path d="M138.605 156.929H136.414L136.943 150.823C137.035 149.975 136.946 149.118 136.68 148.307C136.414 147.497 135.978 146.752 135.401 146.122C134.824 145.493 134.119 144.992 133.332 144.654C132.546 144.317 131.697 144.149 130.84 144.163C129.021 144.199 127.277 144.895 125.937 146.122C124.598 147.348 123.755 149.02 123.568 150.823L123.039 156.929H120.848L121.377 150.823C121.624 148.431 122.741 146.212 124.519 144.584C126.296 142.956 128.611 142.033 131.026 141.987C132.162 141.968 133.29 142.19 134.334 142.637C135.378 143.085 136.314 143.749 137.08 144.585C137.847 145.42 138.426 146.409 138.779 147.484C139.132 148.56 139.251 149.698 139.129 150.823L138.605 156.929Z" fill="#00AB00"/>
<path d="M151.302 122.299L151.371 121.703C151.385 121.565 151.37 121.426 151.326 121.294C151.283 121.163 151.211 121.042 151.117 120.939C151.024 120.837 150.909 120.755 150.781 120.7C150.653 120.644 150.515 120.617 150.376 120.618C150.079 120.624 149.795 120.738 149.577 120.938C149.359 121.137 149.221 121.41 149.19 121.703L149.138 122.288C149.019 122.291 148.906 122.338 148.819 122.418C148.732 122.499 148.678 122.608 148.666 122.725L148.529 124.306C148.522 124.361 148.527 124.417 148.544 124.47C148.561 124.523 148.589 124.572 148.627 124.613C148.665 124.654 148.711 124.687 148.763 124.708C148.814 124.73 148.87 124.74 148.926 124.738H151.106C151.224 124.736 151.338 124.691 151.425 124.611C151.511 124.532 151.566 124.423 151.577 124.306L151.715 122.725C151.72 122.67 151.712 122.613 151.693 122.561C151.674 122.508 151.644 122.46 151.605 122.419C151.566 122.379 151.519 122.347 151.467 122.327C151.415 122.306 151.358 122.296 151.302 122.299ZM150.312 120.897C150.417 120.896 150.522 120.917 150.618 120.958C150.714 121 150.801 121.061 150.872 121.138C150.943 121.215 150.996 121.306 151.03 121.406C151.063 121.505 151.074 121.61 151.064 121.714L151.011 122.299H149.37L149.423 121.714C149.446 121.493 149.549 121.289 149.713 121.139C149.877 120.988 150.09 120.902 150.312 120.897Z" fill="#00AB00"/>
<path d="M118.477 122.926L117.715 122.768C117.694 122.763 117.674 122.754 117.657 122.741C117.639 122.728 117.625 122.711 117.616 122.692C117.606 122.673 117.601 122.651 117.601 122.63C117.6 122.608 117.605 122.587 117.614 122.567L117.932 121.819C117.945 121.787 117.946 121.751 117.936 121.718C117.925 121.685 117.902 121.656 117.873 121.638C117.843 121.62 117.807 121.613 117.773 121.618C117.738 121.623 117.706 121.64 117.683 121.666L117.106 122.256C117.092 122.274 117.075 122.288 117.055 122.298C117.034 122.308 117.012 122.313 116.99 122.313C116.967 122.313 116.945 122.308 116.925 122.298C116.905 122.288 116.887 122.274 116.873 122.256L116.402 121.666C116.302 121.54 116.085 121.666 116.122 121.819L116.307 122.567C116.313 122.589 116.313 122.612 116.31 122.634C116.306 122.656 116.297 122.677 116.285 122.696C116.273 122.715 116.256 122.731 116.237 122.743C116.218 122.756 116.197 122.764 116.175 122.768L115.386 122.926C115.217 122.957 115.196 123.194 115.36 123.226L116.122 123.384C116.143 123.388 116.163 123.397 116.18 123.41C116.198 123.423 116.211 123.44 116.221 123.46C116.23 123.479 116.235 123.501 116.234 123.522C116.233 123.544 116.228 123.565 116.217 123.584L115.91 124.338C115.897 124.37 115.896 124.406 115.907 124.439C115.917 124.472 115.94 124.5 115.97 124.519C115.999 124.537 116.035 124.544 116.07 124.539C116.104 124.534 116.136 124.517 116.159 124.49L116.736 123.9C116.751 123.884 116.769 123.872 116.789 123.863C116.809 123.854 116.83 123.85 116.852 123.85C116.874 123.85 116.896 123.854 116.916 123.863C116.936 123.872 116.954 123.884 116.969 123.9L117.44 124.49C117.54 124.617 117.757 124.49 117.715 124.338L117.53 123.589C117.522 123.545 117.532 123.499 117.558 123.461C117.583 123.424 117.623 123.398 117.667 123.389L118.456 123.231C118.62 123.194 118.641 122.957 118.477 122.926Z" fill="#263238"/>
<path d="M123.484 122.926L122.722 122.768C122.701 122.763 122.681 122.754 122.663 122.741C122.646 122.728 122.632 122.711 122.623 122.692C122.613 122.673 122.608 122.651 122.608 122.63C122.607 122.608 122.612 122.587 122.621 122.567L122.939 121.819C122.952 121.787 122.953 121.751 122.942 121.718C122.932 121.685 122.909 121.656 122.879 121.638C122.85 121.62 122.814 121.613 122.78 121.618C122.745 121.623 122.713 121.64 122.69 121.666L122.113 122.256C122.099 122.274 122.082 122.288 122.061 122.298C122.041 122.308 122.019 122.313 121.997 122.313C121.974 122.313 121.952 122.308 121.932 122.298C121.912 122.288 121.894 122.274 121.88 122.256L121.409 121.666C121.309 121.54 121.092 121.666 121.134 121.819L121.319 122.567C121.324 122.59 121.324 122.612 121.319 122.635C121.315 122.657 121.306 122.678 121.293 122.697C121.28 122.715 121.264 122.731 121.245 122.743C121.226 122.756 121.204 122.764 121.182 122.768L120.393 122.926C120.224 122.957 120.203 123.194 120.367 123.226L121.129 123.384C121.15 123.388 121.17 123.397 121.187 123.41C121.204 123.424 121.218 123.44 121.228 123.46C121.238 123.479 121.243 123.5 121.243 123.522C121.243 123.543 121.239 123.565 121.229 123.584L120.912 124.332C120.899 124.365 120.897 124.401 120.908 124.434C120.919 124.467 120.941 124.495 120.971 124.513C121.001 124.532 121.036 124.539 121.071 124.534C121.106 124.529 121.137 124.511 121.16 124.485L121.737 123.895C121.752 123.879 121.77 123.866 121.79 123.858C121.81 123.849 121.832 123.844 121.854 123.844C121.876 123.844 121.897 123.849 121.917 123.858C121.937 123.866 121.955 123.879 121.97 123.895L122.441 124.485C122.542 124.612 122.759 124.485 122.722 124.332L122.537 123.584C122.532 123.562 122.532 123.54 122.536 123.518C122.54 123.496 122.548 123.475 122.561 123.457C122.573 123.438 122.589 123.422 122.608 123.41C122.626 123.397 122.647 123.388 122.669 123.384L123.458 123.226C123.627 123.194 123.648 122.957 123.484 122.926Z" fill="#263238"/>
<path d="M128.491 122.926L127.734 122.768C127.712 122.764 127.691 122.756 127.674 122.743C127.656 122.73 127.641 122.713 127.631 122.693C127.622 122.674 127.617 122.652 127.617 122.63C127.617 122.608 127.623 122.587 127.633 122.567L127.951 121.819C127.971 121.786 127.977 121.745 127.968 121.707C127.958 121.669 127.934 121.637 127.901 121.616C127.867 121.596 127.826 121.59 127.788 121.599C127.75 121.609 127.717 121.633 127.697 121.666L127.125 122.257C127.111 122.274 127.093 122.288 127.072 122.298C127.051 122.308 127.029 122.313 127.006 122.313C126.983 122.313 126.961 122.308 126.94 122.298C126.92 122.288 126.901 122.274 126.887 122.257L126.416 121.666C126.315 121.54 126.098 121.666 126.141 121.819L126.326 122.567C126.331 122.589 126.331 122.612 126.327 122.634C126.323 122.655 126.314 122.676 126.302 122.695C126.289 122.714 126.274 122.73 126.255 122.742C126.236 122.754 126.216 122.763 126.194 122.768L125.405 122.926C125.236 122.957 125.214 123.194 125.379 123.226L126.135 123.384C126.157 123.388 126.177 123.397 126.194 123.41C126.211 123.424 126.225 123.44 126.235 123.46C126.244 123.479 126.249 123.5 126.25 123.522C126.25 123.543 126.245 123.565 126.236 123.584L125.918 124.332C125.898 124.366 125.892 124.406 125.901 124.444C125.911 124.482 125.935 124.515 125.969 124.535C126.002 124.555 126.043 124.562 126.081 124.552C126.119 124.543 126.152 124.519 126.172 124.485L126.744 123.895C126.759 123.879 126.777 123.866 126.797 123.858C126.817 123.849 126.839 123.844 126.861 123.844C126.882 123.844 126.904 123.849 126.924 123.858C126.944 123.866 126.962 123.879 126.977 123.895L127.453 124.485C127.554 124.612 127.771 124.485 127.728 124.332L127.543 123.584C127.535 123.54 127.545 123.495 127.569 123.458C127.594 123.42 127.632 123.394 127.676 123.384L128.464 123.226C128.612 123.194 128.655 122.957 128.491 122.926Z" fill="#263238"/>
<path d="M133.503 122.926L132.74 122.768C132.719 122.763 132.699 122.754 132.682 122.741C132.665 122.728 132.651 122.711 132.641 122.692C132.632 122.673 132.626 122.651 132.626 122.63C132.626 122.608 132.631 122.587 132.64 122.567L132.957 121.819C132.971 121.787 132.972 121.751 132.961 121.718C132.95 121.685 132.928 121.656 132.898 121.638C132.868 121.62 132.833 121.613 132.798 121.618C132.764 121.623 132.732 121.64 132.709 121.666L132.132 122.256C132.118 122.274 132.1 122.288 132.08 122.298C132.06 122.308 132.038 122.313 132.015 122.313C131.993 122.313 131.971 122.308 131.951 122.298C131.93 122.288 131.913 122.274 131.899 122.256L131.428 121.666C131.327 121.54 131.11 121.666 131.147 121.819L131.333 122.567C131.338 122.589 131.339 122.612 131.335 122.634C131.331 122.656 131.323 122.677 131.31 122.696C131.298 122.715 131.282 122.731 131.263 122.743C131.244 122.756 131.223 122.764 131.2 122.768L130.412 122.926C130.242 122.957 130.221 123.194 130.412 123.226L131.174 123.384C131.195 123.388 131.215 123.397 131.232 123.41C131.25 123.423 131.263 123.44 131.273 123.46C131.282 123.479 131.286 123.501 131.286 123.522C131.285 123.544 131.279 123.565 131.269 123.584L130.957 124.332C130.944 124.365 130.942 124.401 130.953 124.434C130.964 124.467 130.986 124.495 131.016 124.513C131.046 124.532 131.082 124.539 131.116 124.534C131.151 124.529 131.183 124.511 131.206 124.485L131.782 123.895C131.797 123.879 131.815 123.866 131.835 123.858C131.855 123.849 131.877 123.844 131.899 123.844C131.921 123.844 131.942 123.849 131.962 123.858C131.982 123.866 132.001 123.879 132.015 123.895L132.486 124.485C132.587 124.612 132.804 124.485 132.762 124.332L132.576 123.584C132.569 123.54 132.579 123.494 132.604 123.456C132.63 123.419 132.669 123.393 132.714 123.384L133.503 123.226C133.646 123.194 133.667 122.957 133.503 122.926Z" fill="#263238"/>
<path d="M138.51 122.926L137.747 122.768C137.726 122.763 137.706 122.754 137.689 122.741C137.672 122.728 137.658 122.711 137.648 122.692C137.639 122.673 137.633 122.651 137.633 122.63C137.633 122.608 137.638 122.587 137.647 122.567L137.964 121.819C137.978 121.787 137.979 121.751 137.968 121.718C137.957 121.685 137.935 121.656 137.905 121.638C137.875 121.62 137.84 121.613 137.805 121.618C137.771 121.623 137.739 121.64 137.716 121.666L137.139 122.256C137.125 122.274 137.107 122.288 137.087 122.298C137.067 122.308 137.045 122.313 137.022 122.313C137 122.313 136.978 122.308 136.958 122.298C136.937 122.288 136.92 122.274 136.906 122.256L136.435 121.666C136.334 121.54 136.117 121.666 136.16 121.819L136.345 122.567C136.349 122.59 136.35 122.612 136.345 122.635C136.341 122.657 136.332 122.678 136.319 122.697C136.306 122.715 136.289 122.731 136.27 122.743C136.251 122.756 136.23 122.764 136.207 122.768L135.419 122.926C135.249 122.957 135.228 123.194 135.392 123.226L136.154 123.384C136.176 123.388 136.196 123.397 136.213 123.41C136.23 123.424 136.244 123.44 136.254 123.46C136.263 123.479 136.268 123.5 136.269 123.522C136.269 123.543 136.264 123.565 136.255 123.584L135.937 124.332C135.924 124.365 135.923 124.401 135.934 124.434C135.945 124.467 135.967 124.495 135.997 124.513C136.027 124.532 136.062 124.539 136.097 124.534C136.131 124.529 136.163 124.511 136.186 124.485L136.763 123.895C136.778 123.879 136.796 123.866 136.816 123.858C136.836 123.849 136.858 123.844 136.879 123.844C136.901 123.844 136.923 123.849 136.943 123.858C136.963 123.866 136.981 123.879 136.996 123.895L137.467 124.485C137.568 124.612 137.785 124.485 137.747 124.332L137.562 123.584C137.558 123.562 137.557 123.54 137.562 123.518C137.566 123.496 137.574 123.475 137.586 123.457C137.599 123.438 137.615 123.422 137.633 123.41C137.652 123.397 137.673 123.388 137.695 123.384L138.483 123.226C138.668 123.194 138.668 122.957 138.51 122.926Z" fill="#263238"/>
<path d="M143.516 122.926L142.754 122.768C142.733 122.764 142.713 122.755 142.696 122.741C142.678 122.728 142.665 122.711 142.655 122.692C142.646 122.672 142.642 122.651 142.642 122.629C142.643 122.607 142.648 122.586 142.659 122.567L142.976 121.819C142.987 121.803 142.993 121.784 142.996 121.765C142.999 121.746 142.998 121.726 142.994 121.707C142.989 121.689 142.98 121.671 142.969 121.655C142.957 121.64 142.943 121.626 142.926 121.616C142.909 121.606 142.891 121.6 142.872 121.597C142.852 121.594 142.833 121.595 142.814 121.599C142.795 121.604 142.777 121.612 142.761 121.624C142.746 121.635 142.732 121.65 142.722 121.666L142.151 122.257C142.136 122.274 142.118 122.288 142.098 122.298C142.077 122.308 142.055 122.313 142.032 122.313C142.009 122.313 141.986 122.308 141.966 122.298C141.945 122.288 141.927 122.274 141.913 122.257L141.442 121.666C141.341 121.54 141.124 121.666 141.166 121.819L141.352 122.567C141.356 122.589 141.356 122.612 141.352 122.634C141.348 122.655 141.34 122.676 141.327 122.695C141.315 122.714 141.299 122.73 141.281 122.742C141.262 122.755 141.241 122.763 141.219 122.768L140.431 122.926C140.261 122.957 140.24 123.194 140.404 123.226L141.161 123.384C141.182 123.388 141.202 123.397 141.219 123.41C141.237 123.424 141.251 123.44 141.26 123.46C141.27 123.479 141.275 123.5 141.275 123.522C141.276 123.543 141.271 123.565 141.262 123.584L140.944 124.332C140.924 124.366 140.918 124.406 140.927 124.444C140.936 124.482 140.961 124.515 140.994 124.535C141.028 124.555 141.068 124.562 141.107 124.552C141.145 124.543 141.178 124.519 141.198 124.485L141.77 123.895C141.785 123.879 141.803 123.866 141.823 123.858C141.843 123.849 141.864 123.844 141.886 123.844C141.908 123.844 141.93 123.849 141.95 123.858C141.97 123.866 141.988 123.879 142.003 123.895L142.474 124.485C142.498 124.513 142.532 124.531 142.568 124.537C142.605 124.544 142.642 124.538 142.675 124.52C142.708 124.502 142.733 124.474 142.747 124.44C142.762 124.406 142.764 124.368 142.754 124.332L142.569 123.584C142.561 123.54 142.57 123.495 142.595 123.458C142.62 123.421 142.658 123.394 142.701 123.384L143.49 123.226C143.659 123.194 143.68 122.957 143.516 122.926Z" fill="#263238"/>
<path d="M131.444 112.014H122.044C121.756 112.019 121.479 112.129 121.267 112.323C121.054 112.518 120.92 112.783 120.89 113.068C120.875 113.203 120.889 113.339 120.931 113.467C120.973 113.596 121.043 113.714 121.134 113.814C121.226 113.914 121.338 113.993 121.463 114.046C121.588 114.099 121.723 114.125 121.859 114.122H131.259C131.547 114.117 131.824 114.007 132.037 113.813C132.249 113.619 132.383 113.354 132.413 113.068C132.427 112.934 132.412 112.798 132.37 112.67C132.328 112.542 132.258 112.424 132.167 112.324C132.075 112.225 131.963 112.145 131.839 112.092C131.714 112.039 131.58 112.012 131.444 112.014Z" fill="#263238"/>
<path d="M140.992 112.014H135.535C135.247 112.02 134.971 112.13 134.76 112.324C134.548 112.518 134.415 112.783 134.387 113.068C134.372 113.202 134.386 113.338 134.427 113.466C134.469 113.594 134.538 113.712 134.629 113.812C134.72 113.912 134.832 113.991 134.956 114.044C135.08 114.098 135.215 114.124 135.35 114.122H140.786C141.074 114.117 141.35 114.007 141.561 113.813C141.773 113.618 141.906 113.353 141.934 113.068C141.949 112.936 141.936 112.802 141.895 112.675C141.855 112.549 141.788 112.432 141.699 112.332C141.61 112.233 141.501 112.153 141.38 112.099C141.258 112.044 141.126 112.015 140.992 112.014Z" fill="#263238"/>
<path d="M148.195 159.774C144.873 161.034 141.873 163.013 139.415 165.569C137.921 164.415 136.141 163.687 134.265 163.462L134.016 163.425L133.91 164.668L134.048 164.721C136.106 165.475 137.847 166.902 138.986 168.767L139.166 169.062L139.362 168.746C141.553 165.263 144.647 162.431 148.317 160.548L148.439 160.485L148.507 159.663L148.195 159.774Z" fill="#263238"/>
<path opacity="0.2" d="M100.9 56.0415C100.225 57.2139 99.8101 58.5162 99.6823 59.8612L91.8015 149.542H116.19L121.091 130.844L119.477 112.141L124.378 93.4429L122.79 74.7448L127.691 56.0415H100.9Z" fill="black"/>
<path d="M120.647 69.4763L125.548 50.7729H63.8721L58.9763 69.4763L60.5853 88.1743L55.6896 106.872L57.2986 125.576L52.4028 144.274H114.073L118.974 125.576L117.36 106.872L122.261 88.1743L120.647 69.4763Z" fill="#00AB00"/>
<path opacity="0.7" d="M120.647 69.4763L125.548 50.7729H63.8721L58.9763 69.4763L60.5853 88.1743L55.6896 106.872L57.2986 125.576L52.4028 144.274H114.073L118.974 125.576L117.36 106.872L122.261 88.1743L120.647 69.4763Z" fill="white"/>
<path opacity="0.5" d="M120.646 69.4763H58.9761L63.8718 50.7729H125.547L120.646 69.4763Z" fill="white"/>
<path opacity="0.5" d="M117.36 106.872H55.6895L60.5852 88.1743H122.261L117.36 106.872Z" fill="white"/>
<path opacity="0.5" d="M114.073 144.274H52.3975L57.2985 125.576H118.974L114.073 144.274Z" fill="white"/>
<path opacity="0.2" d="M112.395 77.2895C111.762 77.4715 111.106 77.5603 110.448 77.5529C109.554 77.5923 108.665 77.4113 107.859 77.0261C107.714 76.9401 107.547 76.8946 107.378 76.8944C107.222 76.8965 107.07 76.9363 106.933 77.0103H106.901C106.665 77.1424 106.412 77.2433 106.15 77.3106C105.558 77.4662 104.947 77.5424 104.335 77.5371C104.149 77.5371 103.969 77.5371 103.805 77.5371C103.33 77.5068 102.86 77.4237 102.403 77.2895C102.335 77.2696 102.266 77.2572 102.196 77.2526C102.08 77.2432 101.963 77.2578 101.852 77.2956C101.742 77.3334 101.64 77.3935 101.554 77.4722C101.468 77.5508 101.4 77.6464 101.353 77.7527C101.306 77.8591 101.281 77.9741 101.281 78.0903V78.6593H77.2731C76.832 78.6593 76.3952 78.7459 75.9877 78.9141C75.5803 79.0823 75.2101 79.3288 74.8984 79.6395C74.5868 79.9503 74.3397 80.3191 74.1714 80.725C74.0031 81.1308 73.9168 81.5658 73.9175 82.0048V85.3714C73.9161 85.811 74.0019 86.2465 74.1699 86.6529C74.3379 87.0594 74.5848 87.4289 74.8966 87.7402C75.2083 88.0515 75.5787 88.2985 75.9865 88.467C76.3943 88.6355 76.8315 88.7222 77.2731 88.7222H104.546H104.726C105.017 88.9646 105.324 89.2069 105.652 89.4546C105.981 89.7022 106.446 90.0446 106.875 90.3502C107.021 90.4556 107.197 90.5124 107.378 90.5124C107.558 90.5124 107.734 90.4556 107.881 90.3502C111.31 87.874 113.512 86.167 113.512 81.478V78.1061C113.514 77.9713 113.483 77.838 113.423 77.7173C113.362 77.5966 113.274 77.492 113.164 77.4122C113.055 77.3323 112.929 77.2796 112.795 77.2582C112.661 77.2369 112.524 77.2476 112.395 77.2895Z" fill="black"/>
<path d="M104.022 76.8101H76.7544C74.8983 76.8101 73.3936 78.3079 73.3936 80.1556V83.5222C73.3936 85.3699 74.8983 86.8677 76.7544 86.8677H104.022C105.878 86.8677 107.383 85.3699 107.383 83.5222V80.1556C107.383 78.3079 105.878 76.8101 104.022 76.8101Z" fill="#00AB00"/>
<path d="M109.923 75.6984C109.03 75.7364 108.142 75.5555 107.335 75.1716C107.192 75.084 107.027 75.0376 106.859 75.0376C106.691 75.0376 106.526 75.084 106.382 75.1716C105.574 75.5562 104.684 75.7371 103.789 75.6984C103.13 75.7054 102.474 75.6167 101.841 75.435C101.714 75.3923 101.578 75.3805 101.445 75.4005C101.312 75.4205 101.186 75.4717 101.076 75.55C100.967 75.6283 100.878 75.7313 100.817 75.8506C100.756 75.9698 100.724 76.1019 100.725 76.2358V79.6077C100.725 84.3019 102.926 86.0089 106.356 88.4852C106.502 88.5906 106.678 88.6473 106.859 88.6473C107.039 88.6473 107.215 88.5906 107.362 88.4852C110.791 86.0089 112.993 84.3019 112.993 79.6077V76.2358C112.992 76.1017 112.96 75.9696 112.898 75.8504C112.836 75.7312 112.747 75.6283 112.637 75.5502C112.528 75.472 112.401 75.4208 112.268 75.4008C112.135 75.3808 111.999 75.3925 111.871 75.435C111.238 75.617 110.582 75.7058 109.923 75.6984Z" fill="#00AB00"/>
<path opacity="0.3" d="M109.923 75.6984C109.03 75.7364 108.142 75.5555 107.335 75.1716C107.192 75.084 107.027 75.0376 106.859 75.0376C106.691 75.0376 106.526 75.084 106.382 75.1716C105.574 75.5562 104.684 75.7371 103.789 75.6984C103.13 75.7054 102.474 75.6167 101.841 75.435C101.714 75.3923 101.578 75.3805 101.445 75.4005C101.312 75.4205 101.186 75.4717 101.076 75.55C100.967 75.6283 100.878 75.7313 100.817 75.8506C100.756 75.9698 100.724 76.1019 100.725 76.2358V79.6077C100.725 84.3019 102.926 86.0089 106.356 88.4852C106.502 88.5906 106.678 88.6473 106.859 88.6473C107.039 88.6473 107.215 88.5906 107.362 88.4852C110.791 86.0089 112.993 84.3019 112.993 79.6077V76.2358C112.992 76.1017 112.96 75.9696 112.898 75.8504C112.836 75.7312 112.747 75.6283 112.637 75.5502C112.528 75.472 112.401 75.4208 112.268 75.4008C112.135 75.3808 111.999 75.3925 111.871 75.435C111.238 75.617 110.582 75.7058 109.923 75.6984Z" fill="white"/>
<path opacity="0.2" d="M106.382 75.161C105.574 75.5456 104.684 75.7266 103.789 75.6879C103.13 75.6945 102.474 75.6057 101.841 75.4244C101.714 75.3818 101.578 75.3699 101.445 75.3899C101.312 75.4099 101.186 75.4612 101.076 75.5395C100.967 75.6177 100.878 75.7208 100.817 75.84C100.756 75.9593 100.724 76.0913 100.725 76.2253V79.5971C100.725 84.2914 102.926 85.9984 106.356 88.4746C106.51 88.5855 106.696 88.6429 106.885 88.6379V75.024C106.708 75.0205 106.533 75.0681 106.382 75.161Z" fill="white"/>
<path d="M111.776 78.6909C109.713 79.4956 107.876 80.7842 106.42 82.4474C105.405 81.7026 104.215 81.2291 102.964 81.0723H102.8V81.8784L102.89 81.91C104.281 82.4099 105.481 83.3311 106.319 84.5443L106.452 84.734L106.563 84.5285C107.78 82.2776 109.633 80.4312 111.893 79.2178L111.972 79.1809V78.6541L111.776 78.6909Z" fill="#263238"/>
<path d="M124.457 56.0362H122.118C121.817 56.0418 121.518 55.9834 121.242 55.865C120.965 55.7465 120.717 55.5708 120.514 55.3494C120.312 55.128 120.158 54.8661 120.065 54.5812C119.972 54.2962 119.941 53.9948 119.974 53.697L120.181 51.3683C120.244 50.735 120.539 50.1469 121.009 49.7157C121.48 49.2844 122.093 49.0401 122.732 49.029H125.071C125.373 49.0227 125.672 49.0805 125.949 49.1986C126.226 49.3167 126.475 49.4924 126.678 49.7139C126.882 49.9353 127.035 50.1975 127.129 50.4828C127.222 50.7681 127.253 51.07 127.22 51.3683L127.014 53.697C126.942 54.3282 126.644 54.9125 126.175 55.3423C125.705 55.7722 125.095 56.0186 124.457 56.0362Z" fill="#00AB00"/>
<path d="M125.431 51.363L124.923 50.8046L123.642 51.9742L122.573 50.8046L121.964 51.363L123.039 52.5326L121.763 53.7022L122.271 54.2554L123.547 53.0858L124.621 54.2554L125.225 53.7022L124.15 52.5326L125.431 51.363Z" fill="white"/>
<path d="M72.176 76.1252C73.5309 77.5951 74.8223 79.1177 76.1085 80.6508C77.3946 82.184 78.6384 83.7487 79.8768 85.3188C79.9298 85.3872 79.9086 85.3609 79.9192 85.382C79.9298 85.4031 79.9192 85.4083 79.9192 85.4136C79.9284 85.4331 79.941 85.4509 79.9562 85.4663C80.0013 85.5301 80.0587 85.5844 80.125 85.626C80.1913 85.6676 80.2653 85.6957 80.3426 85.7086C80.4023 85.7167 80.4628 85.7167 80.5225 85.7086C80.5543 85.7111 80.5861 85.7111 80.6178 85.7086H80.6655C80.6919 85.7086 80.6655 85.7086 80.7501 85.677L82.0733 84.9605C83.8516 84.0227 85.6459 83.106 87.4983 82.2841L89.0491 84.1966C87.5565 85.5611 86.0005 87.2734 84.4285 88.5273L83.243 89.4546C83.1693 89.5144 83.0915 89.569 83.0101 89.6179C82.9203 89.6815 82.8266 89.7395 82.7296 89.7917C82.538 89.9016 82.3401 90.0001 82.1368 90.0868C81.7267 90.2583 81.2963 90.3769 80.856 90.4398C79.9655 90.5699 79.0566 90.4794 78.2096 90.1764C77.7788 90.0241 77.3697 89.8169 76.9923 89.5599C76.8018 89.4335 76.6218 89.286 76.4631 89.1437C76.3731 89.07 76.299 88.9857 76.2143 88.9066L76.0026 88.6959C74.6 87.2628 73.2186 85.8193 71.8637 84.3493C70.5088 82.8794 69.1697 81.399 67.8889 79.8605L72.176 76.1252Z" fill="#B55B52"/>
<path d="M86.8 83.4432L88.0332 79.497L91.283 81.1092C91.283 81.1092 90.8066 83.9858 88.4461 84.4863L86.8 83.4432Z" fill="#B55B52"/>
<path d="M89.3301 78.4064L92.2622 79.2073L91.2778 81.1092L88.0281 79.497L89.3301 78.4064Z" fill="#B55B52"/>
<path d="M55.0915 77.1999C54.7422 78.8753 54.3082 80.5349 53.8583 82.1892C53.4085 83.8436 52.9162 85.4821 52.4028 87.1206L52.2123 87.737L52.117 88.0426C52.1043 88.0866 52.0865 88.129 52.0641 88.169C52.0038 88.3385 51.9698 88.5162 51.9636 88.6959C51.9524 89.0787 52.0595 89.4557 52.2705 89.7759C52.3746 89.9164 52.4897 90.0485 52.6146 90.1711L53.0539 90.6505L53.9219 91.6147C54.4882 92.268 55.0598 92.9213 55.5996 93.6062L53.7525 95.7136C52.9903 95.2816 52.2599 94.8127 51.5296 94.349L50.4446 93.6325L49.9153 93.269C49.7353 93.1425 49.5871 93.0582 49.296 92.8212C48.2605 91.9427 47.5459 90.7479 47.2637 89.4229C47.1216 88.7476 47.0877 88.0541 47.1631 87.3682C47.1631 87.1996 47.216 87.01 47.2425 86.8414L47.3007 86.5252L47.4118 85.893C47.7082 84.2018 48.0258 82.5159 48.3804 80.8405C48.735 79.1651 49.1161 77.495 49.566 75.8459L55.0915 77.1999Z" fill="#B55B52"/>
<path d="M53.7896 93.4376L55.9701 92.3259L56.9334 96.0139C56.9334 96.0139 55.1815 96.683 53.8266 95.8242L53.7896 93.4376Z" fill="#B55B52"/>
<path d="M58.987 91.1405L59.0875 94.5334L56.6476 96.1193L55.8008 92.3944L58.987 91.1405Z" fill="#B55B52"/>
<path d="M66.1267 59.7821C66.1796 60.0403 66.3649 60.2247 66.5342 60.1931C66.7036 60.1615 66.8042 59.9191 66.7512 59.6662C66.6983 59.4133 66.5131 59.2237 66.3437 59.2553C66.1743 59.2869 66.0738 59.5345 66.1267 59.7821Z" fill="#263238"/>
<path d="M66.3384 60.23C66.8149 60.9648 67.39 61.6313 68.0479 62.2109C67.8948 62.3752 67.7074 62.5041 67.499 62.5887C67.2905 62.6734 67.066 62.7116 66.8412 62.7009L66.3384 60.23Z" fill="#A02724"/>
<path d="M64.8725 58.5282C64.842 58.5279 64.8122 58.5188 64.7868 58.502C64.7614 58.4853 64.7413 58.4616 64.729 58.4338C64.7167 58.4061 64.7128 58.3753 64.7175 58.3454C64.7223 58.3154 64.7357 58.2874 64.756 58.2648C64.9217 58.0782 65.1294 57.9332 65.3621 57.8416C65.5948 57.75 65.846 57.7145 66.0951 57.7379C66.1156 57.7417 66.1351 57.7495 66.1526 57.7609C66.1701 57.7722 66.1852 57.7868 66.197 57.8039C66.2088 57.8211 66.217 57.8403 66.2214 57.8607C66.2257 57.881 66.2259 57.9019 66.2221 57.9223C66.2189 57.9425 66.2117 57.9619 66.2008 57.9793C66.19 57.9966 66.1758 58.0117 66.159 58.0234C66.1422 58.0352 66.1232 58.0436 66.1031 58.0479C66.0831 58.0523 66.0623 58.0526 66.0421 58.0488C65.8447 58.0299 65.6456 58.0584 65.4615 58.1317C65.2774 58.205 65.1135 58.3211 64.9836 58.4703C64.9554 58.503 64.9156 58.5238 64.8725 58.5282Z" fill="#263238"/>
<path d="M58.4947 63.4543C59.0769 65.8726 59.6644 70.3034 57.5791 71.9103C57.5791 71.9103 58.3942 74.3655 63.9303 74.3655C70.0169 74.3655 66.8413 72.7849 66.8413 72.7849C63.5175 72.1421 63.6022 69.2708 64.195 67.3899L58.4947 63.4543Z" fill="#B55B52"/>
<path d="M56.9281 72.3582C56.5682 71.689 56.1659 70.9198 56.9916 70.6775C57.9019 70.4141 63.7398 69.9241 65.4599 70.4193C64.9306 71.3519 65.8251 72.5268 65.8251 72.5268L56.9281 72.3582Z" fill="#263238"/>
<path d="M61.7656 185.411H65.5817L65.9627 177.761H62.1414L61.7656 185.411Z" fill="#B55B52"/>
<path d="M37.5305 184.357L41.3995 184.562L43.7494 177.023L39.8805 176.818L37.5305 184.357Z" fill="#B55B52"/>
<path d="M41.2829 184.257L37.6362 183.472C37.5723 183.457 37.5054 183.465 37.4467 183.494C37.3879 183.523 37.3408 183.571 37.3134 183.63L36.0484 186.364C36.0173 186.431 36.0018 186.503 36.0033 186.576C36.0047 186.65 36.023 186.722 36.0567 186.787C36.0905 186.852 36.1387 186.908 36.1978 186.952C36.257 186.996 36.3253 187.025 36.3977 187.039C37.6733 187.291 38.3084 187.349 39.9121 187.697C40.8965 187.908 43.1247 188.45 44.4849 188.751C45.8452 189.051 46.3162 187.744 45.7869 187.502C43.4052 186.422 42.4102 185.468 41.7645 184.578C41.6486 184.416 41.4774 184.302 41.2829 184.257Z" fill="#263238"/>
<path d="M65.3807 185.026H61.7552C61.6897 185.027 61.6263 185.05 61.5754 185.091C61.5245 185.132 61.489 185.189 61.4747 185.252L60.8184 188.187C60.8015 188.258 60.8011 188.332 60.8172 188.403C60.8334 188.475 60.8657 188.541 60.9116 188.598C60.9576 188.655 61.016 188.701 61.0824 188.732C61.1488 188.763 61.2214 188.778 61.2948 188.777C62.6021 188.777 64.4704 188.677 66.1376 188.677C68.0588 188.677 69.7154 188.782 71.9595 188.782C73.3198 188.782 73.7008 187.413 73.1292 187.286C70.5305 186.722 68.4134 186.659 66.1693 185.284C65.9348 185.129 65.6622 185.039 65.3807 185.026Z" fill="#263238"/>
<path d="M50.6616 73.0273C47.7823 74.3918 46.999 82.6634 46.999 82.6634L54.1283 85.9404C55.3333 83.9171 55.9899 81.617 56.0336 79.2652C56.1765 74.9924 53.6096 71.6522 50.6616 73.0273Z" fill="#263238"/>
<path opacity="0.4" d="M54.5147 78.1272C53.2285 80.1187 53.3503 83.1955 53.7948 85.7929L54.1124 85.9404C55.3164 83.9167 55.9728 81.6168 56.0178 79.2652C56.0178 79.0123 56.0178 78.7384 56.0178 78.5118L54.5147 78.1272Z" fill="black"/>
<path d="M70.5563 72.827C70.5563 72.827 74.0919 76.7995 70.7522 101.383H53.0058C52.8841 98.6692 54.5936 85.4399 51.9473 72.6585C53.9086 72.2829 55.8922 72.033 57.8857 71.9103C60.3994 71.768 62.9193 71.768 65.433 71.9103C67.1619 72.0846 68.8747 72.3911 70.5563 72.827Z" fill="#00AB00"/>
<path opacity="0.6" d="M70.5563 72.827C70.5563 72.827 74.0919 76.7995 70.7522 101.383H53.0058C52.8841 98.6692 54.5936 85.4399 51.9473 72.6585C53.9086 72.2829 55.8922 72.033 57.8857 71.9103C60.3994 71.768 62.9193 71.768 65.433 71.9103C67.1619 72.0846 68.8747 72.3911 70.5563 72.827Z" fill="#FAFAFA"/>
<path opacity="0.2" d="M72.1074 80.34L72.0439 80.282L68.5137 78.4064C68.1538 83.8172 70.5831 87.2102 72.028 88.6906C72.2092 85.9107 72.2357 83.1229 72.1074 80.34Z" fill="black"/>
<path opacity="0.2" d="M65.9627 177.761L65.7669 181.707H61.9456L62.1414 177.761H65.9627Z" fill="black"/>
<path opacity="0.2" d="M39.8802 176.823L43.7492 177.023L42.5372 180.911L38.6682 180.706L39.8802 176.823Z" fill="black"/>
<path d="M57.2669 60.9992C58.119 64.1603 58.4577 66.0622 60.4425 67.3794C63.3958 69.3603 67.0689 67.0843 67.1854 63.7283C67.2859 60.7094 65.8781 56.0362 62.4643 55.3987C61.7106 55.2503 60.9313 55.2967 60.2007 55.5335C59.4702 55.7703 58.8128 56.1896 58.2915 56.7514C57.7701 57.3132 57.4022 57.9987 57.2228 58.7423C57.0434 59.486 57.0586 60.263 57.2669 60.9992Z" fill="#B55B52"/>
<path d="M64.4598 101.383C64.4598 101.383 60.6914 126.624 58.6378 136.086C56.3619 146.465 44.2205 180.711 44.2205 180.711L38.2769 179.431C38.2769 179.431 45.893 151.507 47.8037 137.03C48.5447 131.376 49.4391 122.278 50.5718 114.675C51.6673 107.299 53.017 101.388 53.017 101.388L64.4598 101.383Z" fill="#263238"/>
<path d="M45.6439 178.735L44.5324 180.874L37.853 179.431L38.4141 177.434L45.6439 178.735Z" fill="#00AB00"/>
<path opacity="0.6" d="M45.6439 178.735L44.5324 180.874L37.853 179.431L38.4141 177.434L45.6439 178.735Z" fill="white"/>
<path opacity="0.6" d="M62.0779 110.376C57.722 111.224 58.1825 127.393 58.7064 135.707C59.9661 129.827 61.8027 118.521 63.057 110.492C62.7535 110.343 62.408 110.302 62.0779 110.376Z" fill="black"/>
<path d="M70.7525 101.383C70.7525 101.383 72.5255 126.081 72.1656 136.155C71.7898 146.634 66.7988 180.938 66.7988 180.938H61.178C61.178 180.938 60.9716 147.219 60.7228 136.95C60.4476 125.728 59.0874 101.377 59.0874 101.377L70.7525 101.383Z" fill="#263238"/>
<path d="M67.8785 178.714C67.905 178.714 67.561 181.038 67.561 181.038H60.7228L60.5376 178.962L67.8785 178.714Z" fill="#00AB00"/>
<path opacity="0.6" d="M67.8785 178.714C67.905 178.714 67.561 181.038 67.561 181.038H60.7228L60.5376 178.962L67.8785 178.714Z" fill="white"/>
<path d="M68.4871 77.4476C68.4871 84.0754 72.0279 86.8045 72.0279 86.8045L77.8022 81.2093C76.4354 78.9356 74.8792 76.7802 73.1499 74.7659C69.8102 70.9567 68.4871 73.1906 68.4871 77.4476Z" fill="#263238"/>
<path opacity="0.2" d="M66.9629 64.9295C66.8452 65.2617 66.6476 65.5601 66.3875 65.7989C66.1273 66.0376 65.8125 66.2094 65.4704 66.2993C65.094 66.3757 64.7524 66.5707 64.496 66.8553C64.2396 67.14 64.0821 67.4992 64.0466 67.8799C64.732 67.6518 65.3534 67.2656 65.8602 66.7528C66.367 66.2401 66.7449 65.6153 66.9629 64.9295Z" fill="black"/>
<path d="M65.4703 54.7033C66.6558 53.2123 64.8298 53.1227 64.8298 53.1227C65.3062 51.3472 63.1679 52.3008 63.1679 52.3008C61.8871 50.5411 61.162 52.6854 61.162 52.6854C59.8336 51.1944 59.5742 53.6285 59.5742 53.6285C58.2405 51.7371 57.563 54.4662 57.563 54.4662C56.3351 52.501 55.5835 55.0562 55.5835 55.0562C53.0483 54.1553 54.2498 56.7791 54.2498 56.7791C52.0904 56.837 53.8264 58.5071 53.8264 58.5071C51.2329 58.5071 53.5194 59.9876 53.5194 59.9876C51.4605 61.3311 54.0486 61.6946 54.0486 61.6946C52.3709 64.3289 55.2554 63.3384 55.2554 63.3384C54.0857 65.9305 56.6738 64.7872 56.6738 64.7872C56.5097 67.2845 57.9547 66.6049 58.6533 66.1413C58.7856 66.6681 59.0396 67.195 59.5054 67.2371C60.4105 67.3583 60.5639 65.6566 60.5639 65.6566C60.5639 65.6566 61.4002 66.3099 62.1041 65.9569C62.808 65.6039 62.5434 64.7135 62.5434 64.7135C62.6962 64.8272 62.8819 64.8887 63.0727 64.8887C63.2635 64.8887 63.4491 64.8272 63.6019 64.7135C63.9036 64.4817 63.9036 62.8063 63.5226 62.2162L64.8986 61.6893C64.8986 61.6893 65.9201 61.5471 65.465 60.2036C65.1903 59.4315 65.1662 58.5929 65.3962 57.8064C66.9522 57.0794 65.6714 56.2259 65.6714 56.2259C67.4762 55.0721 65.4703 54.7033 65.4703 54.7033Z" fill="#263238"/>
<path d="M62.6811 61.1151C62.8965 61.9011 63.3674 62.594 64.0201 63.0855C64.8828 63.7283 65.5286 63.0855 65.465 62.1214C65.4121 61.2468 64.8934 59.8612 63.9407 59.5977C62.9881 59.3343 62.4535 60.1826 62.6811 61.1151Z" fill="#B55B52"/>
</g>
<defs>
<clipPath id="clip0_2238_17988">
<rect width="217" height="206" fill="white"/>
</clipPath>
</defs>
</svg>
