<svg width="134" height="90" viewBox="0 0 134 90" fill="none" xmlns="http://www.w3.org/2000/svg">
<path d="M119.587 11.2899C119.692 10.5296 118.622 9.90381 117.82 9.83926C117.436 9.80698 117.038 9.86615 116.675 9.73884C115.889 9.4645 115.574 8.44423 114.808 8.12506C114.234 7.8812 113.573 8.09816 113.021 8.37968C112.469 8.66119 111.915 9.01443 111.293 9.05388C110.757 9.08795 110.166 8.88712 109.685 9.1525C109.328 9.34974 109.149 9.75677 108.824 9.99705C108.499 10.2373 108.092 10.2822 107.697 10.3037C107.302 10.3252 106.895 10.3288 106.535 10.4937C106.176 10.6587 105.88 11.0317 105.955 11.4297L119.587 11.2899Z" fill="#F5F5F5"/>
<path d="M33.525 24.8293H18.4241V72.8591H33.525V24.8293Z" fill="#F5F5F5"/>
<path d="M33.5251 24.8293H25.9746V72.7265H33.5251V24.8293Z" fill="#EBEBEB"/>
<path d="M25.4814 20.1155H20.1482V24.8313H25.4814V20.1155Z" fill="#F5F5F5"/>
<path d="M25.4798 20.1155H24.2095V24.8313H25.4798V20.1155Z" fill="#EBEBEB"/>
<path d="M17.1663 24.8295V24.5552H33.9663V24.8295" fill="#E0E0E0"/>
<path d="M22.6818 26.886H21.4043V29.59H22.6818V26.886Z" fill="#FAFAFA"/>
<path d="M25.9745 30.6553C25.9745 30.6822 24.2843 30.7055 22.1993 30.7055C20.1143 30.7055 18.4241 30.6822 18.4241 30.6553C18.4241 30.6284 20.1143 30.6033 22.1993 30.6033C24.2843 30.6033 25.9745 30.6248 25.9745 30.6553Z" fill="#E0E0E0"/>
<path d="M30.2982 26.886H29.0208V29.59H30.2982V26.886Z" fill="#E0E0E0"/>
<path d="M33.5893 30.6553C33.5893 30.6822 31.8991 30.7055 29.814 30.7055C27.729 30.7055 26.0388 30.6822 26.0388 30.6553C26.0388 30.6284 27.729 30.6033 29.814 30.6033C31.8991 30.6033 33.5893 30.6248 33.5893 30.6553Z" fill="#E0E0E0"/>
<path d="M30.2982 32.2563H29.0208V34.9621H30.2982V32.2563Z" fill="#E0E0E0"/>
<path d="M33.5893 36.0237C33.5893 36.0506 31.8991 36.0739 29.814 36.0739C27.729 36.0739 26.0388 36.0506 26.0388 36.0237C26.0388 35.9968 27.729 35.9717 29.814 35.9717C31.8991 35.9717 33.5893 35.995 33.5893 36.0237Z" fill="#E0E0E0"/>
<path d="M30.2982 37.7881H29.0208V40.4921H30.2982V37.7881Z" fill="#E0E0E0"/>
<path d="M33.5893 41.5554C33.5893 41.5841 31.8991 41.6074 29.814 41.6074C27.729 41.6074 26.0388 41.5841 26.0388 41.5554C26.0388 41.5267 27.729 41.5034 29.814 41.5034C31.8991 41.5034 33.5893 41.5267 33.5893 41.5554Z" fill="#E0E0E0"/>
<path d="M30.2982 43.3215H29.0208V46.0255H30.2982V43.3215Z" fill="#E0E0E0"/>
<path d="M33.5893 47.0872C33.5893 47.1158 31.8991 47.1392 29.814 47.1392C27.729 47.1392 26.0388 47.1158 26.0388 47.0872C26.0388 47.0585 27.729 47.0352 29.814 47.0352C31.8991 47.0352 33.5893 47.0585 33.5893 47.0872Z" fill="#E0E0E0"/>
<path d="M30.2982 48.6956H29.0208V51.3995H30.2982V48.6956Z" fill="#E0E0E0"/>
<path d="M33.5893 52.4609C33.5893 52.4896 31.8991 52.5129 29.814 52.5129C27.729 52.5129 26.0388 52.4896 26.0388 52.4609C26.0388 52.4322 27.729 52.4089 29.814 52.4089C31.8991 52.4089 33.5893 52.4322 33.5893 52.4609Z" fill="#E0E0E0"/>
<path d="M30.2982 54.0908H29.0208V56.7948H30.2982V54.0908Z" fill="#E0E0E0"/>
<path d="M30.2982 59.5562H29.0208V62.2601H30.2982V59.5562Z" fill="#E0E0E0"/>
<path d="M33.5893 57.8564C33.5893 57.885 31.8991 57.9084 29.814 57.9084C27.729 57.9084 26.0388 57.885 26.0388 57.8564C26.0388 57.8277 27.729 57.8062 29.814 57.8062C31.8991 57.8062 33.5893 57.8295 33.5893 57.8564Z" fill="#E0E0E0"/>
<path d="M22.6818 32.3389H21.4043V35.0429H22.6818V32.3389Z" fill="#FAFAFA"/>
<path d="M25.9745 36.1045C25.9745 36.1332 24.2843 36.1565 22.1993 36.1565C20.1143 36.1565 18.4241 36.1332 18.4241 36.1045C18.4241 36.0758 20.1143 36.0525 22.1993 36.0525C24.2843 36.0525 25.9745 36.0758 25.9745 36.1045Z" fill="#E0E0E0"/>
<path d="M22.6818 37.7898H21.4043V40.4938H22.6818V37.7898Z" fill="#FAFAFA"/>
<path d="M25.9745 41.5571C25.9745 41.5858 24.2843 41.6091 22.1993 41.6091C20.1143 41.6091 18.4241 41.5858 18.4241 41.5571C18.4241 41.5284 20.1143 41.5051 22.1993 41.5051C24.2843 41.5051 25.9745 41.5284 25.9745 41.5571Z" fill="#E0E0E0"/>
<path d="M22.6818 43.2427H21.4043V45.9467H22.6818V43.2427Z" fill="#FAFAFA"/>
<path d="M25.9745 47.01C25.9745 47.0369 24.2843 47.0602 22.1993 47.0602C20.1143 47.0602 18.4241 47.0369 18.4241 47.01C18.4241 46.9831 20.1143 46.958 22.1993 46.958C24.2843 46.958 25.9745 46.9813 25.9745 47.01Z" fill="#E0E0E0"/>
<path d="M22.6818 48.6956H21.4043V51.3995H22.6818V48.6956Z" fill="#FAFAFA"/>
<path d="M25.9745 52.4609C25.9745 52.4896 24.2843 52.5129 22.1993 52.5129C20.1143 52.5129 18.4241 52.4896 18.4241 52.4609C18.4241 52.4322 20.1143 52.4089 22.1993 52.4089C24.2843 52.4089 25.9745 52.4322 25.9745 52.4609Z" fill="#E0E0E0"/>
<path d="M22.6818 54.1465H21.4043V56.8505H22.6818V54.1465Z" fill="#FAFAFA"/>
<path d="M25.9745 57.9102C25.9745 57.9388 24.2843 57.9622 22.1993 57.9622C20.1143 57.9622 18.4241 57.9388 18.4241 57.9102C18.4241 57.8815 20.1143 57.8582 22.1993 57.8582C24.2843 57.8582 25.9745 57.8851 25.9745 57.9102Z" fill="#E0E0E0"/>
<path d="M22.6818 59.5994H21.4043V62.3033H22.6818V59.5994Z" fill="#FAFAFA"/>
<path d="M93.1105 13.8755H71.3435V83.1068H93.1105V13.8755Z" fill="#F5F5F5"/>
<path d="M93.1087 13.8755H82.2261V82.9168H93.1087V13.8755Z" fill="#EBEBEB"/>
<path d="M81.5149 7.07959H73.8286V13.8772H81.5149V7.07959Z" fill="#F5F5F5"/>
<path d="M81.5149 7.07959H79.6836V13.8772H81.5149V7.07959Z" fill="#EBEBEB"/>
<path d="M69.53 13.8755V13.4792H93.7465V13.8755" fill="#E0E0E0"/>
<path d="M77.4824 16.8413H75.6404V20.7395H77.4824V16.8413Z" fill="#FAFAFA"/>
<path d="M82.2261 22.2688C82.2261 22.3101 79.7909 22.3441 76.7857 22.3441C73.7805 22.3441 71.3435 22.3101 71.3435 22.2688C71.3435 22.2276 73.7787 22.1953 76.7857 22.1953C79.7927 22.1953 82.2261 22.2276 82.2261 22.2688Z" fill="#E0E0E0"/>
<path d="M88.4597 16.8413H86.6177V20.7395H88.4597V16.8413Z" fill="#E0E0E0"/>
<path d="M93.2052 22.2688C93.2052 22.3101 90.7682 22.3441 87.763 22.3441C84.7578 22.3441 82.3208 22.3101 82.3208 22.2688C82.3208 22.2276 84.7578 22.1953 87.763 22.1953C90.7682 22.1953 93.2052 22.2276 93.2052 22.2688Z" fill="#E0E0E0"/>
<path d="M88.4597 24.582H86.6177V28.4802H88.4597V24.582Z" fill="#E0E0E0"/>
<path d="M93.2052 30.0113C93.2052 30.0526 90.7682 30.0849 87.763 30.0849C84.7578 30.0849 82.3208 30.0526 82.3208 30.0113C82.3208 29.9701 84.7578 29.936 87.763 29.936C90.7682 29.936 93.2052 29.9701 93.2052 30.0113Z" fill="#E0E0E0"/>
<path d="M88.4597 32.5559H86.6177V36.4541H88.4597V32.5559Z" fill="#E0E0E0"/>
<path d="M93.2052 37.9855C93.2052 38.0267 90.7682 38.0608 87.763 38.0608C84.7578 38.0608 82.3208 38.0267 82.3208 37.9855C82.3208 37.9442 84.7578 37.9102 87.763 37.9102C90.7682 37.9102 93.2052 37.9442 93.2052 37.9855Z" fill="#E0E0E0"/>
<path d="M88.4597 40.5315H86.6177V44.4297H88.4597V40.5315Z" fill="#E0E0E0"/>
<path d="M93.2052 45.9593C93.2052 46.0005 90.7682 46.0346 87.763 46.0346C84.7578 46.0346 82.3208 46.0005 82.3208 45.9593C82.3208 45.918 84.7578 45.8857 87.763 45.8857C90.7682 45.8857 93.2052 45.918 93.2052 45.9593Z" fill="#E0E0E0"/>
<path d="M88.4597 48.2776H86.6177V52.1758H88.4597V48.2776Z" fill="#E0E0E0"/>
<path d="M93.2052 53.7071C93.2052 53.7466 90.7682 53.7807 87.763 53.7807C84.7578 53.7807 82.3208 53.7466 82.3208 53.7071C82.3208 53.6677 84.7578 53.6318 87.763 53.6318C90.7682 53.6318 93.2052 53.6659 93.2052 53.7071Z" fill="#E0E0E0"/>
<path d="M88.4597 56.0544H86.6177V59.9526H88.4597V56.0544Z" fill="#E0E0E0"/>
<path d="M88.4597 63.9351H86.6177V67.8332H88.4597V63.9351Z" fill="#E0E0E0"/>
<path d="M93.2052 61.4839C93.2052 61.5252 90.7682 61.5592 87.763 61.5592C84.7578 61.5592 82.3208 61.5252 82.3208 61.4839C82.3208 61.4427 84.7578 61.4104 87.763 61.4104C90.7682 61.4104 93.2052 61.4427 93.2052 61.4839Z" fill="#E0E0E0"/>
<path d="M77.4824 24.7002H75.6404V28.5984H77.4824V24.7002Z" fill="#FAFAFA"/>
<path d="M82.2261 30.1298C82.2261 30.1692 79.7909 30.2033 76.7857 30.2033C73.7805 30.2033 71.3435 30.1692 71.3435 30.1298C71.3435 30.0903 73.7787 30.0544 76.7857 30.0544C79.7927 30.0544 82.2261 30.0885 82.2261 30.1298Z" fill="#E0E0E0"/>
<path d="M77.4824 32.5596H75.6404V36.4578H77.4824V32.5596Z" fill="#FAFAFA"/>
<path d="M82.2261 37.9889C82.2261 38.0283 79.7909 38.0624 76.7857 38.0624C73.7805 38.0624 71.3435 38.0283 71.3435 37.9889C71.3435 37.9494 73.7787 37.9136 76.7857 37.9136C79.7927 37.9136 82.2261 37.9476 82.2261 37.9889Z" fill="#E0E0E0"/>
<path d="M77.4824 40.4185H75.6404V44.3166H77.4824V40.4185Z" fill="#FAFAFA"/>
<path d="M82.2261 45.848C82.2261 45.8875 79.7909 45.9215 76.7857 45.9215C73.7805 45.9215 71.3435 45.8875 71.3435 45.848C71.3435 45.8086 73.7787 45.7727 76.7857 45.7727C79.7927 45.7727 82.2261 45.8068 82.2261 45.848Z" fill="#E0E0E0"/>
<path d="M77.4824 48.2776H75.6404V52.1758H77.4824V48.2776Z" fill="#FAFAFA"/>
<path d="M82.2261 53.7071C82.2261 53.7466 79.7909 53.7807 76.7857 53.7807C73.7805 53.7807 71.3435 53.7466 71.3435 53.7071C71.3435 53.6677 73.7787 53.6318 76.7857 53.6318C79.7927 53.6318 82.2261 53.6659 82.2261 53.7071Z" fill="#E0E0E0"/>
<path d="M77.4824 56.1367H75.6404V60.0349H77.4824V56.1367Z" fill="#FAFAFA"/>
<path d="M82.2261 61.5663C82.2261 61.6075 79.7909 61.6398 76.7857 61.6398C73.7805 61.6398 71.3435 61.6075 71.3435 61.5663C71.3435 61.525 73.7787 61.491 76.7857 61.491C79.7927 61.491 82.2261 61.525 82.2261 61.5663Z" fill="#E0E0E0"/>
<path d="M77.4824 63.9958H75.6404V67.894H77.4824V63.9958Z" fill="#FAFAFA"/>
<path d="M100.791 45.2815H88.8992V83.105H100.791V45.2815Z" fill="#F5F5F5"/>
<path d="M100.791 45.2815H94.8452V83.001H100.791V45.2815Z" fill="#EBEBEB"/>
<path d="M94.4557 41.5679H90.2571V45.2814H94.4557V41.5679Z" fill="#F5F5F5"/>
<path d="M94.4556 41.5679H93.4551V45.2814H94.4556V41.5679Z" fill="#EBEBEB"/>
<path d="M87.9077 45.2814V45.0645H101.14V45.2814" fill="#E0E0E0"/>
<path d="M92.2527 46.9006H91.2468V49.0308H92.2527V46.9006Z" fill="#FAFAFA"/>
<path d="M94.8452 49.8681C94.8452 49.8897 93.5141 49.9076 91.8722 49.9076C90.2302 49.9076 88.8992 49.8897 88.8992 49.8681C88.8992 49.8466 90.2302 49.8269 91.8722 49.8269C93.5141 49.8269 94.8452 49.8412 94.8452 49.8681Z" fill="#E0E0E0"/>
<path d="M98.2505 46.9006H97.2446V49.0308H98.2505V46.9006Z" fill="#E0E0E0"/>
<path d="M100.843 49.8681C100.843 49.8897 99.5119 49.9076 97.87 49.9076C96.228 49.9076 94.897 49.8897 94.897 49.8681C94.897 49.8466 96.228 49.8269 97.87 49.8269C99.5119 49.8269 100.843 49.8412 100.843 49.8681Z" fill="#E0E0E0"/>
<path d="M98.2505 51.1306H97.2446V53.2608H98.2505V51.1306Z" fill="#E0E0E0"/>
<path d="M100.843 54.0964C100.843 54.1197 99.5119 54.1377 97.87 54.1377C96.228 54.1377 94.897 54.1197 94.897 54.0964C94.897 54.0731 96.228 54.0552 97.87 54.0552C99.5119 54.0552 100.843 54.0749 100.843 54.0964Z" fill="#E0E0E0"/>
<path d="M98.2505 55.4878H97.2446V57.618H98.2505V55.4878Z" fill="#E0E0E0"/>
<path d="M100.843 58.4482C100.843 58.4697 99.5119 58.4895 97.87 58.4895C96.228 58.4895 94.897 58.4697 94.897 58.4482C94.897 58.4267 96.228 58.407 97.87 58.407C99.5119 58.407 100.843 58.4303 100.843 58.4482Z" fill="#E0E0E0"/>
<path d="M98.2505 59.8433H97.2446V61.9735H98.2505V59.8433Z" fill="#E0E0E0"/>
<path d="M100.843 62.8108C100.843 62.8323 99.5119 62.8502 97.87 62.8502C96.228 62.8502 94.897 62.8323 94.897 62.8108C94.897 62.7893 96.228 62.7695 97.87 62.7695C99.5119 62.7695 100.843 62.7875 100.843 62.8108Z" fill="#E0E0E0"/>
<path d="M98.2505 64.0767H97.2446V66.2069H98.2505V64.0767Z" fill="#E0E0E0"/>
<path d="M100.843 67.0425C100.843 67.0658 99.5119 67.0837 97.87 67.0837C96.228 67.0837 94.897 67.0658 94.897 67.0425C94.897 67.0191 96.228 67.0012 97.87 67.0012C99.5119 67.0012 100.843 67.0191 100.843 67.0425Z" fill="#E0E0E0"/>
<path d="M98.2505 68.3262H97.2446V70.4564H98.2505V68.3262Z" fill="#E0E0E0"/>
<path d="M98.2505 72.6296H97.2446V74.7598H98.2505V72.6296Z" fill="#E0E0E0"/>
<path d="M100.843 71.292C100.843 71.3135 99.5119 71.3314 97.87 71.3314C96.228 71.3314 94.897 71.3135 94.897 71.292C94.897 71.2705 96.228 71.2507 97.87 71.2507C99.5119 71.2507 100.843 71.2687 100.843 71.292Z" fill="#E0E0E0"/>
<path d="M92.2527 51.1951H91.2468V53.3253H92.2527V51.1951Z" fill="#FAFAFA"/>
<path d="M94.8452 54.1609C94.8452 54.1842 93.5141 54.2021 91.8722 54.2021C90.2302 54.2021 88.8992 54.1842 88.8992 54.1609C88.8992 54.1376 90.2302 54.1196 91.8722 54.1196C93.5141 54.1196 94.8452 54.1447 94.8452 54.1609Z" fill="#E0E0E0"/>
<path d="M92.2527 55.4895H91.2468V57.6197H92.2527V55.4895Z" fill="#FAFAFA"/>
<path d="M94.8452 58.4482C94.8452 58.4697 93.5141 58.4877 91.8722 58.4877C90.2302 58.4877 88.8992 58.4697 88.8992 58.4482C88.8992 58.4267 90.2302 58.407 91.8722 58.407C93.5141 58.407 94.8452 58.4321 94.8452 58.4482Z" fill="#E0E0E0"/>
<path d="M92.2527 59.7822H91.2468V61.9124H92.2527V59.7822Z" fill="#FAFAFA"/>
<path d="M94.8452 62.7516C94.8452 62.7749 93.5141 62.7928 91.8722 62.7928C90.2302 62.7928 88.8992 62.7749 88.8992 62.7516C88.8992 62.7283 90.2302 62.7122 91.8722 62.7122C93.5141 62.7122 94.8452 62.7265 94.8452 62.7516Z" fill="#E0E0E0"/>
<path d="M92.2527 64.0767H91.2468V66.2069H92.2527V64.0767Z" fill="#FAFAFA"/>
<path d="M94.8452 67.0425C94.8452 67.0658 93.5141 67.0837 91.8722 67.0837C90.2302 67.0837 88.8992 67.0658 88.8992 67.0425C88.8992 67.0191 90.2302 67.0012 91.8722 67.0012C93.5141 67.0012 94.8452 67.0191 94.8452 67.0425Z" fill="#E0E0E0"/>
<path d="M92.2527 68.3694H91.2468V70.4996H92.2527V68.3694Z" fill="#FAFAFA"/>
<path d="M94.8452 71.3369C94.8452 71.3584 93.5141 71.3763 91.8722 71.3763C90.2302 71.3763 88.8992 71.3584 88.8992 71.3369C88.8992 71.3154 90.2302 71.2957 91.8722 71.2957C93.5141 71.2957 94.8452 71.3136 94.8452 71.3369Z" fill="#E0E0E0"/>
<path d="M92.2527 72.6638H91.2468V74.794H92.2527V72.6638Z" fill="#FAFAFA"/>
<path d="M41.1524 58.7207H28.3491V83.1068H41.1524V58.7207Z" fill="#E0E0E0"/>
<path d="M41.1524 58.7207H35.1492V83.1068H41.1524V58.7207Z" fill="#EBEBEB"/>
<path d="M32.185 61.0142H31.0344V63.8204H32.185V61.0142Z" fill="#F5F5F5"/>
<path d="M32.185 72.0002H31.0344V74.8064H32.185V72.0002Z" fill="#F5F5F5"/>
<path d="M35.1492 64.9229C35.1492 64.948 33.627 64.966 31.7545 64.966C29.8821 64.966 28.3599 64.948 28.3599 64.9229C28.3599 64.8978 29.8821 64.8799 31.7545 64.8799C33.627 64.8799 35.1492 64.9032 35.1492 64.9229Z" fill="#F5F5F5"/>
<path d="M32.185 66.5493H31.0344V69.3555H32.185V66.5493Z" fill="#F5F5F5"/>
<path d="M35.1492 70.4618C35.1492 70.4851 33.627 70.5049 31.7545 70.5049C29.8821 70.5049 28.3599 70.4851 28.3599 70.4618C28.3599 70.4385 29.8821 70.417 31.7545 70.417C33.627 70.417 35.1492 70.4331 35.1492 70.4618Z" fill="#F5F5F5"/>
<path d="M37.5754 61.0142H36.4248V63.8204H37.5754V61.0142Z" fill="#E0E0E0"/>
<path d="M40.0732 61.0142H38.9226V63.8204H40.0732V61.0142Z" fill="#E0E0E0"/>
<path d="M37.5754 66.3413H36.4248V69.1475H37.5754V66.3413Z" fill="#E0E0E0"/>
<path d="M40.0732 66.3413H38.9226V69.1475H40.0732V66.3413Z" fill="#E0E0E0"/>
<path d="M37.5754 71.6667H36.4248V74.4729H37.5754V71.6667Z" fill="#E0E0E0"/>
<path d="M40.0732 71.6667H38.9226V74.4729H40.0732V71.6667Z" fill="#E0E0E0"/>
<path d="M42.1154 58.1309H27.3879V58.7423H42.1154V58.1309Z" fill="#E0E0E0"/>
<path d="M41.2418 58.8068C41.2418 58.8301 38.3831 58.8498 34.8509 58.8498C31.3186 58.8498 28.46 58.8301 28.46 58.8068C28.46 58.7835 31.3186 58.762 34.8509 58.762C38.3831 58.762 41.2418 58.7745 41.2418 58.8068Z" fill="#EBEBEB"/>
<path d="M28.4956 83.0888H7.8775L7.78638 50.3845H28.4063L28.4956 83.0888Z" fill="#EBEBEB"/>
<path d="M28.4062 50.3845H18.0972V83.0888H28.4062V50.3845Z" fill="#E0E0E0"/>
<path d="M17.4218 43.9456H10.1411V50.3846H17.4218V43.9456Z" fill="#EBEBEB"/>
<path d="M17.4219 43.9456H15.687V50.3846H17.4219V43.9456Z" fill="#E0E0E0"/>
<path d="M29.0101 50.0081H6.06934V50.3828H29.0101V50.0081Z" fill="#E0E0E0"/>
<path d="M13.602 53.1926H11.8564V56.8864H13.602V53.1926Z" fill="white"/>
<path d="M18.0972 58.3351C18.0972 58.3746 15.7889 58.4051 12.9427 58.4051C10.0965 58.4051 7.78638 58.3746 7.78638 58.3351C7.78638 58.2957 10.0948 58.2688 12.9427 58.2688C15.7906 58.2688 18.0972 58.2957 18.0972 58.3351Z" fill="#E0E0E0"/>
<path d="M24.0022 53.1926H22.2566V56.8864H24.0022V53.1926Z" fill="#F5F5F5"/>
<path d="M28.4956 58.3351C28.4956 58.3745 26.1872 58.405 23.3411 58.405C20.4949 58.405 18.1865 58.3745 18.1865 58.3351C18.1865 58.2956 20.4931 58.2651 23.3411 58.2651C26.189 58.2651 28.4956 58.2956 28.4956 58.3351Z" fill="#EBEBEB"/>
<path d="M24.0022 60.5244H22.2566V64.2182H24.0022V60.5244Z" fill="#F5F5F5"/>
<path d="M28.4956 65.6689C28.4956 65.7065 26.1872 65.7388 23.3411 65.7388C20.4949 65.7388 18.1865 65.7065 18.1865 65.6689C18.1865 65.6312 20.4931 65.5972 23.3411 65.5972C26.189 65.5972 28.4956 65.6294 28.4956 65.6689Z" fill="#EBEBEB"/>
<path d="M24.0022 68.0789H22.2566V71.7726H24.0022V68.0789Z" fill="#F5F5F5"/>
<path d="M28.4956 73.2233C28.4956 73.261 26.1872 73.2933 23.3411 73.2933C20.4949 73.2933 18.1865 73.261 18.1865 73.2233C18.1865 73.1857 20.4931 73.1516 23.3411 73.1516C26.189 73.1516 28.4956 73.1839 28.4956 73.2233Z" fill="#EBEBEB"/>
<path d="M24.0022 75.6331H22.2566V79.3268H24.0022V75.6331Z" fill="#F5F5F5"/>
<path d="M28.4956 80.7757C28.4956 80.8152 26.1872 80.8475 23.3411 80.8475C20.4949 80.8475 18.1865 80.8152 18.1865 80.7757C18.1865 80.7363 20.4931 80.7058 23.3411 80.7058C26.189 80.7058 28.4956 80.7381 28.4956 80.7757Z" fill="#EBEBEB"/>
<path d="M13.602 60.6375H11.8564V64.3312H13.602V60.6375Z" fill="white"/>
<path d="M18.0972 65.7801C18.0972 65.8196 15.7889 65.8501 12.9427 65.8501C10.0965 65.8501 7.78638 65.8196 7.78638 65.7801C7.78638 65.7407 10.0948 65.7102 12.9427 65.7102C15.7906 65.7102 18.0972 65.7407 18.0972 65.7801Z" fill="#E0E0E0"/>
<path d="M13.602 68.0825H11.8564V71.7763H13.602V68.0825Z" fill="white"/>
<path d="M18.0972 73.2251C18.0972 73.2646 15.7889 73.2951 12.9427 73.2951C10.0965 73.2951 7.78638 73.2646 7.78638 73.2251C7.78638 73.1857 10.0948 73.1516 12.9427 73.1516C15.7906 73.1516 18.0972 73.1857 18.0972 73.2251Z" fill="#E0E0E0"/>
<path d="M13.602 75.5273H11.8564V79.2211H13.602V75.5273Z" fill="white"/>
<path d="M18.0972 80.67C18.0972 80.7095 15.7889 80.74 12.9427 80.74C10.0965 80.74 7.78638 80.7095 7.78638 80.67C7.78638 80.6306 10.0948 80.6001 12.9427 80.6001C15.7906 80.6001 18.0972 80.6306 18.0972 80.67Z" fill="#E0E0E0"/>
<path d="M126.237 32.4483C126.385 31.3617 124.858 30.4759 123.709 30.3755C123.162 30.3306 122.592 30.4149 122.074 30.2338C120.95 29.8411 120.502 28.3833 119.405 27.9189C118.585 27.5711 117.639 27.8813 116.846 28.2776C116.053 28.6738 115.265 29.1831 114.377 29.2404C113.605 29.2907 112.769 29.002 112.09 29.3821C111.586 29.6636 111.322 30.2464 110.857 30.5906C110.393 30.9349 109.812 30.9977 109.249 31.0282C108.686 31.0586 108.102 31.064 107.589 31.3007C107.077 31.5374 106.651 32.0807 106.759 32.6366L126.237 32.4483Z" fill="#F5F5F5"/>
<path d="M130.805 71.1379H114.218V83.1051H130.805V71.1379Z" fill="#EBEBEB"/>
<path d="M118.667 71.1379C118.692 71.1379 118.667 73.6644 118.667 73.6644H117.439V71.1379H118.667Z" fill="#F5F5F5"/>
<path d="M122.512 83.105H130.805V71.1379H122.512V83.105Z" fill="#E0E0E0"/>
<path d="M116.944 80.7632H114.724V82.3393H116.944V80.7632Z" fill="white"/>
<path d="M118.465 80.7632H117.355V82.3393H118.465V80.7632Z" fill="white"/>
<path d="M129.23 63.345H118.429V71.1378H129.23V63.345Z" fill="#EBEBEB"/>
<path d="M121.327 63.345C121.342 63.345 121.327 64.991 121.327 64.991H120.527V63.345H121.327Z" fill="#F5F5F5"/>
<path d="M123.83 71.1379H129.23V63.3452H123.83V71.1379Z" fill="#E0E0E0"/>
<path d="M120.205 69.6118H118.76V70.6393H120.205V69.6118Z" fill="white"/>
<path d="M121.195 69.6118H120.471V70.6393H121.195V69.6118Z" fill="white"/>
<path d="M18.8333 11.5586C18.9173 10.9436 18.0525 10.4362 17.404 10.3842C17.0931 10.3591 16.7715 10.4057 16.4767 10.3035C15.8406 10.0811 15.5834 9.25631 14.9652 8.99272C14.5006 8.79548 13.9664 8.97121 13.5162 9.19893C13.0659 9.42665 12.6229 9.71175 12.119 9.73686C11.6813 9.76555 11.206 9.60238 10.8237 9.81755C10.5378 9.97713 10.3877 10.3071 10.1251 10.5007C9.85129 10.6711 9.5342 10.7583 9.21211 10.7517C8.89192 10.7426 8.57294 10.795 8.27232 10.906C7.98109 11.0386 7.73632 11.3471 7.80064 11.6626L18.8333 11.5586Z" fill="#EBEBEB"/>
<path d="M129.249 24.0511C129.332 23.4504 128.488 22.9573 127.854 22.9053C127.552 22.882 127.238 22.9268 126.95 22.8282C126.33 22.6095 126.082 21.8044 125.476 21.548C125.024 21.3579 124.502 21.5282 124.063 21.7488C123.623 21.9693 123.189 22.2508 122.699 22.2867C122.272 22.3154 121.806 22.1558 121.436 22.3656C121.158 22.5216 121.013 22.8426 120.756 23.0326C120.487 23.1977 120.177 23.2817 119.862 23.2747C119.55 23.2664 119.239 23.3175 118.946 23.4253C118.662 23.5544 118.427 23.8557 118.486 24.1623L129.249 24.0511Z" fill="#EBEBEB"/>
<path d="M37.8274 15.369C37.9811 14.2447 36.3981 13.3195 35.2136 13.2173C34.6454 13.1724 34.0576 13.2585 33.5216 13.072C32.3585 12.665 31.8939 11.157 30.7594 10.6765C29.9107 10.3178 28.9352 10.637 28.1133 11.053C27.2915 11.469 26.4785 11.9908 25.5602 12.05C24.7598 12.102 23.8932 11.8043 23.1929 12.1952C22.6729 12.4875 22.3996 13.0918 21.919 13.4504C21.4384 13.809 20.838 13.8718 20.2538 13.904C19.6696 13.9363 19.0674 13.9417 18.5368 14.1855C18.0062 14.4294 17.5684 14.9924 17.6774 15.568L37.8274 15.369Z" fill="#F5F5F5"/>
<path d="M130.745 83.105C130.745 83.1319 103.462 83.1516 69.8194 83.1516C36.1764 83.1516 8.89404 83.1319 8.89404 83.105C8.89404 83.0781 36.1711 83.0583 69.8283 83.0583C103.486 83.0583 130.745 83.0799 130.745 83.105Z" fill="#263238"/>
<path d="M57.6289 75.5974C57.8186 75.6419 57.9974 75.7244 58.1546 75.84C58.3118 75.9555 58.4441 76.1017 58.5436 76.2698C58.7417 76.6071 58.8597 76.9857 58.8885 77.3762C58.9671 78.1275 58.7098 78.9595 58.3953 79.6426C57.6628 79.2392 57.3233 78.3319 57.1679 77.8603C56.9356 77.1144 56.966 75.6243 57.6289 75.5974Z" fill="#1AC817"/>
<path d="M59.3746 80.6952C59.2869 80.4948 59.2535 80.2747 59.2776 80.0571C59.3018 79.8396 59.3827 79.6323 59.5122 79.4561C59.6451 79.2829 59.811 79.1378 60.0002 79.0295C60.1895 78.9211 60.3983 78.8516 60.6146 78.825C60.7125 78.8018 60.8144 78.8006 60.9129 78.8213C61.0114 78.8421 61.1041 78.8844 61.1845 78.9451C61.249 79.0138 61.2944 79.0984 61.3161 79.1903C61.3377 79.2822 61.3348 79.3782 61.3078 79.4687C61.2488 79.6485 61.1441 79.8098 61.0041 79.9367C60.5449 80.3886 60.0178 80.7436 59.3746 80.6952Z" fill="#1AC817"/>
<path d="M59.0797 83.114C59.0702 83.0631 59.066 83.0115 59.0671 82.9598C59.0671 82.8486 59.0582 82.7069 59.0529 82.5366C59.0225 82.068 59.0678 81.5975 59.1869 81.1434C59.3142 80.6877 59.561 80.2747 59.9015 79.9474C60.005 79.8505 60.1196 79.7662 60.2428 79.6963C60.276 79.6764 60.3106 79.6591 60.3464 79.6443C60.3696 79.6336 60.3821 79.6282 60.3839 79.63C60.2203 79.7297 60.0671 79.8456 59.9265 79.976C59.6022 80.3063 59.3662 80.7133 59.2405 81.1595C59.123 81.6085 59.0736 82.0728 59.0939 82.5366C59.0939 82.7159 59.0939 82.8593 59.0939 82.9598C59.0942 83.0115 59.0894 83.0631 59.0797 83.114Z" fill="#263238"/>
<path d="M57.7094 76.7378C57.7189 76.7578 57.7261 76.7789 57.7308 76.8006C57.7451 76.849 57.7612 76.9117 57.7826 76.9799C57.8273 77.143 57.8898 77.3779 57.9613 77.6702C58.1096 78.253 58.3026 79.0598 58.4973 79.9582C58.6921 80.8565 58.8457 81.6706 58.9511 82.2641C59.0029 82.56 59.044 82.802 59.069 82.9652C59.0816 83.0441 59.0905 83.1087 59.0976 83.1571C59.0992 83.1798 59.0992 83.2025 59.0976 83.2252C59.089 83.2039 59.083 83.1816 59.0798 83.1589C59.069 83.1104 59.0565 83.0477 59.0405 82.9688C59.0083 82.7984 58.9618 82.56 58.9065 82.2713C58.7921 81.6813 58.6295 80.8655 58.4384 79.9689C58.2472 79.0724 58.0578 78.2637 57.9202 77.6792C57.8523 77.3905 57.7969 77.1556 57.7576 76.9852L57.7148 76.8059C57.7104 76.7835 57.7086 76.7606 57.7094 76.7378Z" fill="#263238"/>
<path d="M58.4097 81.3747C58.238 80.9471 57.9672 80.5666 57.6198 80.2648C57.2725 79.963 56.8586 79.7485 56.4122 79.639C56.1853 79.5852 55.903 79.5799 55.7673 79.7717C55.6315 79.9636 55.7315 80.2289 55.8602 80.4244C56.1376 80.8271 56.5276 81.1383 56.981 81.3189C57.4344 81.4995 57.9309 81.5414 58.4079 81.4393" fill="#1AC817"/>
<path d="M56.6641 80.3132C56.7126 80.317 56.7605 80.326 56.807 80.3401C56.8626 80.3528 56.9175 80.3683 56.9714 80.3867C57.0357 80.4101 57.109 80.428 57.1858 80.4639C57.2712 80.4974 57.3548 80.5357 57.4359 80.5786C57.53 80.6259 57.6213 80.6786 57.7093 80.7364C57.9122 80.8694 58.0992 81.0252 58.2667 81.2008C58.4318 81.3789 58.5757 81.5757 58.6955 81.7872C58.7468 81.8795 58.7928 81.9746 58.8331 82.0723C58.8698 82.1566 58.902 82.2428 58.9296 82.3305C58.9526 82.4029 58.9716 82.4765 58.9868 82.551C59.0019 82.6063 59.0126 82.6626 59.0189 82.7196C59.0292 82.7673 59.0346 82.816 59.035 82.8648C59.0225 82.8648 58.9993 82.6586 58.8921 82.343C58.8634 82.257 58.83 82.1725 58.792 82.0902C58.7507 81.9947 58.7035 81.9019 58.6509 81.8123C58.5317 81.6056 58.3896 81.4131 58.2274 81.2385C58.0657 81.0666 57.886 80.9128 57.6914 80.7794C57.605 80.7209 57.5156 80.6671 57.4234 80.6181C57.3395 80.5696 57.2555 80.5338 57.1805 80.4997C56.8642 80.367 56.6605 80.324 56.6641 80.3132Z" fill="#263238"/>
<path d="M114.525 81.2205C114.593 80.9587 114.422 80.6952 114.229 80.5033C114.036 80.3114 113.805 80.1447 113.705 79.89C113.543 79.4812 113.761 78.9523 113.484 78.6116C113.321 78.4108 113.03 78.3426 112.885 78.1292C112.818 78.0106 112.774 77.8805 112.755 77.7455C112.6 77.0666 112.267 76.4418 111.79 75.9363C111.759 76.5414 111.889 77.1438 112.169 77.681C112.3 77.8872 112.396 78.1138 112.453 78.3516C112.514 78.7407 112.297 79.1405 112.392 79.5225C112.501 79.9582 112.989 80.2505 113.012 80.6987C113.032 81.0789 112.701 81.416 112.726 81.7925C112.746 81.9536 112.804 82.1077 112.894 82.2426C113.024 82.4936 113.222 82.7028 113.465 82.8465C113.708 82.9901 113.986 83.0623 114.268 83.0549L115.067 83.0836L114.525 81.2205Z" fill="#1AC817"/>
<g opacity="0.3">
<path d="M114.525 81.2205C114.593 80.9587 114.422 80.6952 114.229 80.5033C114.036 80.3114 113.805 80.1447 113.705 79.89C113.543 79.4812 113.761 78.9523 113.484 78.6116C113.321 78.4108 113.03 78.3426 112.885 78.1292C112.818 78.0106 112.774 77.8805 112.755 77.7455C112.6 77.0666 112.267 76.4418 111.79 75.9363C111.759 76.5414 111.889 77.1438 112.169 77.681C112.3 77.8872 112.396 78.1138 112.453 78.3516C112.514 78.7407 112.297 79.1405 112.392 79.5225C112.501 79.9582 112.989 80.2505 113.012 80.6987C113.032 81.0789 112.701 81.416 112.726 81.7925C112.746 81.9536 112.804 82.1077 112.894 82.2426C113.024 82.4936 113.222 82.7028 113.465 82.8465C113.708 82.9901 113.986 83.0623 114.268 83.0549L115.067 83.0836L114.525 81.2205Z" fill="black"/>
</g>
<path d="M115.227 83.1014C115.3 83.1144 115.375 83.1144 115.447 83.1014C115.536 83.0885 115.622 83.0669 115.706 83.0369C115.822 82.9953 115.93 82.9347 116.026 82.8576C116.085 82.8101 116.13 82.7484 116.158 82.6783C116.182 82.6009 116.195 82.5206 116.196 82.4398C116.197 82.3528 116.204 82.266 116.216 82.1798C116.23 82.0886 116.263 82.0014 116.312 81.9234C116.441 81.758 116.542 81.5727 116.612 81.3747C116.651 81.1418 116.644 80.9036 116.591 80.6736C116.533 80.425 116.54 80.1657 116.61 79.9205C116.696 79.6712 116.869 79.4435 116.957 79.162C117.045 78.8805 117.003 78.5703 117.023 78.2655C117.028 78.1119 117.064 77.9608 117.127 77.8208C117.191 77.6791 117.28 77.5464 117.35 77.3976C117.472 77.0848 117.541 76.754 117.556 76.4186C117.575 76.25 117.595 76.0797 117.613 75.9075C117.624 75.7339 117.654 75.562 117.702 75.3947C117.755 75.2258 117.819 75.0604 117.893 74.8998C117.93 74.8155 117.961 74.7286 117.986 74.6398C118 74.5466 118.006 74.4605 118.011 74.3655C118.02 74.1805 118.013 73.9951 117.99 73.8114C117.968 73.6321 117.934 73.442 117.915 73.2573V73.2251V73.1892L117.882 73.2053C117.713 73.29 117.566 73.4127 117.452 73.564C117.342 73.7131 117.253 73.8774 117.189 74.0517C117.075 74.3929 116.991 74.7441 116.941 75.1006C116.89 75.4405 116.778 75.7684 116.612 76.0689C116.525 76.2106 116.419 76.3415 116.326 76.4795C116.227 76.6153 116.159 76.7715 116.128 76.9368C116.082 77.2757 116.267 77.5733 116.228 77.8728C116.211 78.0204 116.161 78.1624 116.083 78.2888C116.01 78.4161 115.926 78.5344 115.844 78.6474C115.761 78.7634 115.69 78.8871 115.631 79.0168C115.574 79.1435 115.541 79.2796 115.533 79.4184C115.513 79.6874 115.551 79.9438 115.533 80.1859C115.511 80.416 115.444 80.6396 115.336 80.8439C115.24 81.0412 115.133 81.2187 115.043 81.3819C114.999 81.4652 114.958 81.5507 114.922 81.6383C114.89 81.7198 114.867 81.8046 114.852 81.8911C114.83 82.0427 114.83 82.1967 114.852 82.3483C114.874 82.5599 114.953 82.7614 115.081 82.9311C115.101 82.9556 115.123 82.9789 115.145 83.001C115.162 83.0177 115.18 83.0327 115.199 83.0458L115.244 83.0781C115.187 83.0321 115.136 82.9804 115.09 82.9239C114.966 82.7545 114.89 82.5542 114.872 82.3447C114.854 82.195 114.858 82.0434 114.883 81.8947C114.898 81.8101 114.922 81.7272 114.954 81.6472C114.99 81.5615 115.031 81.4777 115.076 81.3962C115.165 81.2169 115.274 81.0483 115.372 80.8493C115.483 80.6419 115.552 80.4147 115.576 80.1805C115.597 79.933 115.56 79.6748 115.576 79.4112C115.584 79.2774 115.617 79.1461 115.672 79.0239C115.731 78.8979 115.802 78.7779 115.883 78.6653C115.964 78.547 116.049 78.4286 116.124 78.2977C116.206 78.1666 116.258 78.0191 116.276 77.8656C116.316 77.5446 116.132 77.2452 116.178 76.9314C116.21 76.7731 116.275 76.6237 116.371 76.4939C116.46 76.3576 116.567 76.2285 116.657 76.0815C116.828 75.7766 116.941 75.443 116.993 75.0971C117.044 74.7438 117.127 74.3957 117.239 74.0571C117.303 73.8874 117.389 73.7274 117.497 73.5819C117.605 73.4354 117.745 73.3163 117.907 73.234L117.872 73.2125V73.2448C117.891 73.4331 117.925 73.616 117.947 73.7989C117.968 73.9773 117.975 74.1572 117.966 74.3368C117.964 74.4262 117.957 74.5155 117.943 74.604C117.92 74.6899 117.89 74.7738 117.854 74.855C117.779 75.0174 117.714 75.1845 117.661 75.3553C117.613 75.525 117.583 75.6993 117.572 75.8753C117.552 76.0546 117.532 76.2195 117.514 76.3881C117.501 76.7179 117.433 77.0431 117.314 77.351C117.248 77.4962 117.159 77.6307 117.091 77.7777C117.026 77.923 116.991 78.0795 116.986 78.2386C116.968 78.547 117.007 78.85 116.925 79.1226C116.843 79.3951 116.668 79.6228 116.58 79.881C116.508 80.1323 116.502 80.3978 116.562 80.6521C116.615 80.8777 116.624 81.1115 116.589 81.3406C116.52 81.5344 116.42 81.716 116.294 81.8785C116.244 81.9601 116.211 82.051 116.196 82.1457C116.185 82.2326 116.179 82.32 116.178 82.4075C116.178 82.4865 116.167 82.565 116.144 82.6406C116.117 82.706 116.075 82.7639 116.021 82.8092C115.927 82.8858 115.821 82.9464 115.708 82.9885C115.625 83.0196 115.54 83.0424 115.453 83.0566C115.399 83.0676 115.345 83.073 115.29 83.0727L115.227 83.1014Z" fill="#263238"/>
<path d="M117.741 73.668C117.741 73.6763 117.741 73.6847 117.741 73.6931L117.724 73.7648C117.708 73.8276 117.69 73.9226 117.659 74.0427C117.629 74.1629 117.556 74.2938 117.493 74.4605C117.42 74.6459 117.357 74.835 117.304 75.0271C117.243 75.2423 117.189 75.479 117.125 75.7318C117.077 76.0038 116.991 76.2676 116.87 76.5154C116.805 76.6445 116.73 76.7772 116.673 76.9206C116.615 77.0681 116.576 77.2223 116.557 77.3797C116.515 77.7054 116.455 78.0286 116.378 78.3479C116.219 79.0042 116.066 79.63 115.928 80.1984C115.79 80.7668 115.656 81.2743 115.549 81.7082C115.442 82.1421 115.358 82.481 115.299 82.7267C115.271 82.8432 115.249 82.9365 115.233 83.0028L115.217 83.0763C115.216 83.0847 115.216 83.0931 115.217 83.1014C115.217 83.1014 115.217 83.0925 115.226 83.0763L115.247 83.0064C115.265 82.9383 115.29 82.8468 115.322 82.7303C115.385 82.4864 115.476 82.1421 115.589 81.7172C115.701 81.2922 115.83 80.7758 115.976 80.211C116.123 79.6461 116.271 79.0168 116.432 78.3605C116.508 78.0393 116.568 77.7143 116.611 77.3868C116.629 77.2335 116.667 77.083 116.721 76.9386C116.778 76.7987 116.85 76.6678 116.916 76.5351C117.037 76.2841 117.122 76.0173 117.17 75.7426C117.225 75.488 117.277 75.2513 117.334 75.0379C117.391 74.8245 117.456 74.6344 117.513 74.4695C117.57 74.3045 117.641 74.17 117.67 74.0463C117.699 73.9226 117.713 73.8311 117.725 73.7666L117.741 73.6895C117.741 73.6769 117.741 73.668 117.741 73.668Z" fill="#263238"/>
<path d="M115.369 83.1033C115.89 82.7931 116.039 81.8481 115.822 81.2815C115.606 80.7149 115.224 80.1949 115.165 79.5888C115.12 79.1226 115.272 78.6456 115.165 78.1902C115.02 77.5769 114.423 77.1018 114.429 76.4706C114.429 76.112 114.634 75.7821 114.618 75.4288C114.599 74.9949 114.261 74.6506 114.061 74.2687C113.746 73.6823 113.727 72.992 113.618 72.3357C113.509 71.6795 113.26 70.9766 112.681 70.6538C112.597 71.2115 112.451 71.5934 112.503 72.3465C112.521 72.619 112.833 73.1372 112.876 73.7308C112.901 74.0894 112.919 74.448 112.941 74.7959C112.945 75.1431 113.002 75.4877 113.108 75.8179C113.203 76.0654 113.355 76.2913 113.425 76.5459C113.557 77.0283 113.384 77.55 113.491 78.0378C113.58 78.4502 113.866 78.8052 113.923 79.2248C114.005 79.8129 113.627 80.4244 113.82 80.9856C113.916 81.2653 114.145 81.4895 114.209 81.7764C114.261 82.0005 114.209 82.2354 114.25 82.4595C114.323 82.8182 115.011 83.1015 115.378 83.0799" fill="#1AC817"/>
<path d="M112.824 71.2078C112.824 71.2078 112.824 71.2185 112.824 71.2382L112.837 71.3297C112.848 71.4104 112.862 71.5287 112.889 71.6883C112.916 71.8479 112.996 72.0147 113.067 72.2262C113.139 72.4378 113.2 72.6745 113.259 72.9435C113.318 73.2124 113.368 73.5083 113.419 73.8275C113.461 74.1721 113.551 74.509 113.687 74.828C113.759 74.9966 113.841 75.1633 113.904 75.3408C113.963 75.5245 114 75.7148 114.013 75.9075C114.042 76.3158 114.093 76.7222 114.166 77.125C114.325 77.9498 114.477 78.7388 114.616 79.456C114.756 80.1732 114.893 80.8098 115.004 81.3513C115.115 81.8928 115.206 82.3232 115.27 82.628C115.301 82.775 115.326 82.8916 115.344 82.974L115.365 83.0637L115.374 83.0942C115.375 83.084 115.375 83.0738 115.374 83.0637L115.358 82.9722C115.342 82.8898 115.32 82.7714 115.294 82.6226C115.233 82.3178 115.147 81.882 115.044 81.3441C114.94 80.8062 114.799 80.1445 114.658 79.4273C114.516 78.7101 114.37 77.9265 114.211 77.0963C114.139 76.6946 114.088 76.2894 114.057 75.8824C114.044 75.686 114.006 75.492 113.945 75.305C113.88 75.1257 113.798 74.9553 113.725 74.7904C113.59 74.4745 113.499 74.1414 113.455 73.8006C113.402 73.4814 113.35 73.1838 113.287 72.9148C113.233 72.6725 113.167 72.4331 113.089 72.1975C113.023 71.9896 112.941 71.8174 112.91 71.6596C112.88 71.5018 112.864 71.3889 112.848 71.31C112.848 71.2723 112.835 71.2436 112.832 71.2203C112.829 71.216 112.827 71.2118 112.824 71.2078Z" fill="#263238"/>
<path d="M100.154 59.4397H20.813V67.3974H100.154V59.4397Z" fill="#0037C5"/>
<g opacity="0.4">
<path d="M100.154 59.4397H20.813V67.3974H100.154V59.4397Z" fill="black"/>
</g>
<path d="M82.9638 68.4016H59.5442V75.7712H82.9638V68.4016Z" fill="#455A64"/>
<path d="M43.1785 65.0684V74.8102H51.1756L54.3809 70.1482H112.771V65.0684H43.1785Z" fill="#263238"/>
<path d="M42.68 34.22C42.6712 34.0634 42.6015 33.9164 42.4859 33.8108C42.3703 33.7052 42.218 33.6493 42.0618 33.6552C38.9012 33.7861 23.8968 34.4764 20.8112 35.9647C18.4492 37.1051 15.8621 41.3619 14.0379 44.2291C12.7301 46.284 9.84107 50.8456 9.25683 53.1784C8.76192 55.1508 8.46355 59.2534 8.49749 61.2886L9.32293 72.0579H22.9213L24.2827 68.5004C24.7171 67.3672 25.4836 66.3928 26.4809 65.7055C27.4783 65.0182 28.6598 64.6505 29.8696 64.6506H43.3822V46.7789L42.68 34.22Z" fill="#0037C5"/>
<path d="M19.1996 37.157C17.3272 38.9501 15.4476 41.9983 14.038 44.2289C12.8266 46.1314 10.261 50.182 9.42301 52.6242C9.40693 52.669 9.39442 52.7121 9.38013 52.7569C9.79463 52.6421 10.4325 52.4072 10.6308 52.0128C10.9292 51.4157 11.3115 49.3697 16.039 41.6469C17.4755 39.2926 18.8763 37.9155 19.1996 37.157Z" fill="#455A64"/>
<path d="M35.694 36.3591C32.2171 36.5581 24.6792 37.0763 22.2708 37.8976C19.1334 38.9734 15.6119 47.3095 15.4457 47.6753L13.073 53.7718C13.0597 53.8117 13.056 53.8541 13.0623 53.8957C13.0685 53.9373 13.0845 53.9767 13.109 54.0109C13.1334 54.045 13.1655 54.0729 13.2028 54.0921C13.24 54.1113 13.2813 54.1214 13.3231 54.1215H19.4568C19.6891 54.1215 19.9196 54.0803 20.1375 53.9996L36.2693 47.964C36.6255 47.8306 36.9326 47.5912 37.1494 47.2778C37.3662 46.9643 37.4824 46.5919 37.4825 46.2104V38.0572C37.4826 37.8259 37.4357 37.597 37.3446 37.3845C37.2535 37.172 37.1201 36.9804 36.9527 36.8215C36.7853 36.6625 36.5873 36.5395 36.3709 36.46C36.1544 36.3805 35.9241 36.3462 35.694 36.3591Z" fill="#263238"/>
<path d="M13.7573 53.5227C13.7573 53.5227 16.03 48.407 16.7947 46.7305C17.9488 44.1986 20.6449 39.0201 22.4655 38.4625C24.1396 37.9586 28.9529 37.3454 35.728 36.9563H35.7923C36.0833 36.9572 36.362 37.0738 36.5676 37.2804C36.7732 37.4871 36.8888 37.767 36.8893 38.0591V46.3969C36.8886 46.6024 36.8258 46.8028 36.709 46.9716C36.5922 47.1404 36.427 47.2695 36.2354 47.3419L24.3165 48.8176C23.8388 48.8768 23.3795 49.0396 22.9707 49.2947C22.5619 49.5499 22.2134 49.8912 21.9492 50.2951L19.8838 53.4563C19.7626 53.5014 19.6343 53.5245 19.505 53.5245L13.7573 53.5227Z" fill="#455A64"/>
<path d="M23.8842 48.909L19.832 53.4384L22.0743 38.3997L22.6353 38.2061L21.5312 49.3465C21.5259 49.4025 21.5351 49.4588 21.5578 49.5102C21.5806 49.5615 21.616 49.6062 21.6609 49.6398C21.7057 49.6735 21.7584 49.695 21.8139 49.7024C21.8694 49.7097 21.9258 49.7027 21.9778 49.6819L23.8842 48.909Z" fill="#263238"/>
<path d="M8.23119 62.3338C8.21689 62.1384 8.283 61.9752 8.38305 61.9752L10.5556 61.7744C10.7343 61.7564 10.9005 62.0953 10.9219 62.4916L11.0202 64.1646C11.0363 64.4335 10.9559 64.6612 10.8415 64.681L8.62604 65.0647C8.52599 65.0826 8.42951 64.9338 8.41521 64.7366L8.23119 62.3338Z" fill="#EBEBEB"/>
<path d="M23.8843 70.1499H8.22949V76.449H23.8843V70.1499Z" fill="#263238"/>
<path d="M34.3342 83.0282C39.0612 82.846 42.746 78.8525 42.5644 74.1085C42.3828 69.3645 38.4036 65.6665 33.6766 65.8487C28.9497 66.031 25.2649 70.0245 25.4465 74.7685C25.6281 79.5125 29.6073 83.2105 34.3342 83.0282Z" fill="#263238"/>
<path d="M25.4475 74.2903C25.4485 74.298 25.4485 74.3059 25.4475 74.3136C25.4176 76.5914 26.2898 78.7881 27.8725 80.421C29.4553 82.0539 31.6191 82.9895 33.8888 83.0223C36.1584 83.055 38.3482 82.1823 39.9772 80.5958C41.6061 79.0093 42.5409 76.8388 42.5763 74.561C42.5763 74.561 42.5763 74.5467 42.5763 74.5395L25.4475 74.2903Z" fill="#263238"/>
<path d="M27.997 74.3494C27.9794 75.543 28.315 76.7151 28.9613 77.7174C29.6075 78.7197 30.5354 79.5071 31.6277 79.9801C32.7199 80.453 33.9273 80.5903 35.0972 80.3745C36.2672 80.1588 37.3471 79.5996 38.2004 78.7679C39.0537 77.9361 39.642 76.869 39.891 75.7016C40.1399 74.5343 40.0384 73.319 39.5991 72.2096C39.1598 71.1001 38.4026 70.1464 37.4232 69.4689C36.4437 68.7914 35.2861 68.4206 34.0967 68.4035C32.5022 68.3805 30.964 68.9939 29.8201 70.1089C28.6763 71.2239 28.0205 72.7492 27.997 74.3494Z" fill="#FAFAFA"/>
<path d="M34.0968 68.4035C32.5023 68.3805 30.9641 68.9939 29.8202 70.1089C28.6764 71.2239 28.0206 72.7492 27.9971 74.3494L40.0231 74.5287C40.0465 72.9277 39.4353 71.383 38.3239 70.2343C37.2125 69.0856 35.692 68.4271 34.0968 68.4035Z" fill="#E0E0E0"/>
<path d="M30.3483 74.3834C30.3378 75.1104 30.5423 75.8242 30.936 76.4345C31.3297 77.0448 31.8949 77.5242 32.5601 77.8122C33.2254 78.1001 33.9607 78.1835 34.6732 78.052C35.3857 77.9205 36.0433 77.5798 36.5629 77.0732C37.0825 76.5665 37.4407 75.9166 37.5922 75.2056C37.7437 74.4947 37.6818 73.7546 37.4142 73.0789C37.1465 72.4033 36.6853 71.8225 36.0887 71.41C35.4922 70.9974 34.7871 70.7717 34.0628 70.7614C33.0916 70.7475 32.1548 71.1212 31.4582 71.8005C30.7616 72.4797 30.3624 73.4088 30.3483 74.3834Z" fill="#263238"/>
<path d="M17.3968 41.8191H16.6982C15.9108 41.8191 15.2725 42.4597 15.2725 43.25V48.9395C15.2725 49.7297 15.9108 50.3704 16.6982 50.3704H17.3968C18.1842 50.3704 18.8226 49.7297 18.8226 48.9395V43.25C18.8226 42.4597 18.1842 41.8191 17.3968 41.8191Z" fill="#263238"/>
<path d="M13.8039 55.6565H13.6252V46.6139C13.6257 46.1827 13.7966 45.7693 14.1004 45.4644C14.4042 45.1595 14.8161 44.988 15.2458 44.9875H15.6746V45.1669H15.2458C14.8635 45.1673 14.497 45.3199 14.2267 45.5912C13.9564 45.8625 13.8044 46.2303 13.8039 46.6139V55.6565Z" fill="#263238"/>
<path d="M15.0204 55.6673L14.5237 47.2128C14.5167 47.0683 14.5389 46.9238 14.5888 46.788C14.6388 46.6523 14.7155 46.528 14.8144 46.4227C14.9134 46.3174 15.0324 46.2333 15.1645 46.1752C15.2966 46.1172 15.439 46.0865 15.5832 46.085V46.2643C15.463 46.2643 15.344 46.289 15.2336 46.3368C15.1232 46.3847 15.0237 46.4547 14.9412 46.5425C14.8587 46.6303 14.795 46.7341 14.7539 46.8475C14.7129 46.9609 14.6953 47.0816 14.7024 47.2021L15.1991 55.6583L15.0204 55.6673Z" fill="#263238"/>
<path d="M15.5832 54.8423H13.1748V57.6413H15.5832V54.8423Z" fill="#263238"/>
<path d="M14.6934 49.5293H13.7144V49.7086H14.6934V49.5293Z" fill="#263238"/>
<path d="M22.8693 36.6012L23.0819 36.5725L23.709 36.499L26.1389 36.2175L35.1973 35.1829C35.6797 35.1309 36.171 35.0663 36.6802 35.0215C36.9404 35.0016 37.202 35.0185 37.4574 35.0717C37.7172 35.1327 37.9677 35.2279 38.2025 35.355C38.6868 35.6255 39.0794 36.0351 39.3299 36.5313C39.4594 36.7849 39.5469 37.0581 39.5889 37.34C39.6114 37.4824 39.6239 37.6262 39.6264 37.7703V38.2025C39.6264 40.5173 39.6264 43.0026 39.6264 45.6366C39.6264 50.9047 39.6264 56.7646 39.6264 63.0296V63.0762H30.2161C29.6789 63.0585 29.1411 63.0843 28.6081 63.1534C27.5085 63.3122 26.471 63.7627 25.6029 64.4583C24.7348 65.154 24.0674 66.0697 23.6697 67.1107C23.5925 67.3018 23.5275 67.4977 23.475 67.697C23.4169 67.8943 23.371 68.0949 23.3374 68.2977L23.2909 68.6026L23.2695 68.755L23.2606 68.9074L23.2463 69.214V69.3682V69.3861C23.2856 69.3467 23.1909 69.4471 23.198 69.4364H11.2649V69.3861C11.2649 66.684 11.2649 64.0786 11.2649 61.5898C11.2649 60.3454 11.2649 59.1302 11.2649 57.9444V56.1908C11.2649 55.9021 11.2649 55.617 11.2649 55.3319C11.2707 55.0483 11.291 54.7652 11.3256 54.4837C11.4619 53.3989 11.8052 52.3505 12.3369 51.396C12.8288 50.4672 13.3053 49.5707 13.7662 48.7064L16.2997 43.9421L18.3562 40.0744C18.5063 39.7935 18.6504 39.5216 18.7885 39.2586C18.86 39.1295 18.9225 38.9986 18.9976 38.8767C19.0716 38.7575 19.1521 38.6426 19.2388 38.5324C19.5486 38.1446 19.9134 37.8045 20.3215 37.5229C20.8836 37.1399 21.5119 36.8657 22.1743 36.7142C22.4017 36.6595 22.6328 36.6217 22.8657 36.6012L22.6871 36.6281C22.5709 36.646 22.3994 36.6765 22.1743 36.7285C21.5158 36.8848 20.8919 37.162 20.334 37.5462C19.9294 37.8282 19.5682 38.1683 19.262 38.5557C19.1755 38.664 19.0961 38.7778 19.0244 38.8964C18.9511 39.0147 18.8886 39.1474 18.8171 39.2783L18.3865 40.096L16.348 43.9673C15.5833 45.4125 14.74 47.0065 13.8288 48.7351L12.3994 51.4247C11.8727 52.372 11.5335 53.4126 11.4007 54.4891C11.3666 54.7682 11.3469 55.0489 11.3417 55.3301C11.3417 55.6116 11.3417 55.9003 11.3417 56.1872V57.9408C11.3417 59.1255 11.3417 60.3406 11.3417 61.5862C11.3417 64.075 11.3417 66.6804 11.3417 69.3826L11.2971 69.3395H23.1837C23.1963 69.3306 23.098 69.4256 23.1391 69.3826V69.3628V69.2086L23.1552 68.8966V68.7424L23.1784 68.5882L23.2248 68.278C23.2588 68.0721 23.3053 67.8685 23.3642 67.6684C23.4176 67.4659 23.4839 67.2671 23.5625 67.0731C23.9665 66.0168 24.6439 65.0878 25.5248 64.3818C26.4058 63.6758 27.4584 63.2183 28.5741 63.0565C29.1073 62.9884 29.6449 62.9626 30.1821 62.9794H39.5496L39.5032 63.0242C39.5032 56.7664 39.5032 50.9065 39.5032 45.6312C39.5032 42.9972 39.5032 40.512 39.5032 38.1971C39.5148 37.9127 39.5028 37.6278 39.4674 37.3454C39.4268 37.0698 39.3417 36.8027 39.2155 36.5546C38.973 36.0696 38.5899 35.6695 38.1167 35.407C37.8886 35.2817 37.6446 35.1882 37.3913 35.1291C37.1419 35.0763 36.8863 35.0588 36.632 35.0771C36.1264 35.1201 35.6315 35.1847 35.1508 35.2367L26.0942 36.2426L23.6626 36.5098L23.0354 36.5761L22.8693 36.6012Z" fill="#263238"/>
<path d="M36.7751 56.4184C36.7751 56.4184 36.8251 56.4184 36.9145 56.3968C37.0458 56.3734 37.171 56.3234 37.2825 56.2498C37.4583 56.1342 37.5899 55.9623 37.6559 55.7621C37.6963 55.6372 37.7127 55.5058 37.7042 55.3748C37.7003 55.2295 37.663 55.0872 37.5952 54.9588C37.5174 54.8119 37.4018 54.6886 37.2604 54.6019C37.1189 54.5151 36.9569 54.4681 36.7912 54.4657H35.612H32.9105C32.6856 54.466 32.4686 54.5493 32.301 54.6997C32.1333 54.8502 32.0265 55.0573 32.0011 55.2815C31.973 55.4945 32.0124 55.7109 32.1137 55.9002C32.2141 56.0792 32.3713 56.2193 32.5603 56.2982C32.7472 56.3634 32.9458 56.3878 33.1428 56.3699H33.7145H34.7419L36.2302 56.3843H36.6357C36.6824 56.3833 36.7291 56.3869 36.7751 56.395C36.7288 56.4007 36.6823 56.4037 36.6357 56.404H36.2302L34.7419 56.4184H33.7145H33.1428C33.0427 56.4184 32.9463 56.4184 32.8408 56.4184C32.7336 56.4103 32.6282 56.3861 32.5282 56.3466C32.3215 56.2606 32.1493 56.1079 32.0386 55.9127C31.9277 55.7073 31.8839 55.4721 31.9136 55.2403C31.9412 54.9941 32.058 54.7667 32.2419 54.6014C32.4257 54.4361 32.6637 54.3444 32.9105 54.3438H35.612H36.7912C37.0489 54.3489 37.2945 54.4545 37.4759 54.6383C37.6574 54.822 37.7604 55.0695 37.7631 55.3282C37.7688 55.4652 37.7488 55.602 37.7042 55.7316C37.6307 55.9398 37.4889 56.1168 37.3022 56.2337C37.1856 56.3065 37.0544 56.3524 36.918 56.3682C36.8726 56.3907 36.8246 56.4075 36.7751 56.4184Z" fill="#263238"/>
<path d="M36.4479 54.1662C35.9388 54.2112 35.4276 54.2261 34.9167 54.2111C34.4053 54.2262 33.8935 54.2112 33.3838 54.1662C33.8934 54.1201 34.4053 54.1045 34.9167 54.1196C35.4276 54.1045 35.9389 54.1201 36.4479 54.1662Z" fill="white"/>
<path d="M24.5971 76.5012L23.1677 76.3972C23.5411 71.26 24.0879 68.1866 24.84 67.0014C26.2837 64.7242 27.7184 64.3118 29.3067 64.041C30.7861 63.7882 32.2779 63.8473 33.7216 63.9065L34.0789 63.9209C37.0591 64.0374 43.3017 63.9334 43.3696 63.9334L43.3928 65.3679C43.3303 65.3679 37.0483 65.4737 34.0289 65.3553L33.6715 65.341C32.3012 65.2872 30.8861 65.228 29.5533 65.4575C28.1329 65.6996 27.1877 65.9775 26.0478 67.7742C25.703 68.3104 25.0562 70.1734 24.5971 76.5012Z" fill="#263238"/>
<path d="M114.522 17.9817H44.1306V65.0181H114.522V17.9817Z" fill="#0037C5"/>
<path d="M113.679 64.0876C113.679 63.7846 113.664 46.5332 113.641 19.0451L113.679 19.0809L44.8919 19.0917L44.9384 19.0451C44.9384 35.0556 44.9384 50.2951 44.9384 64.0876L44.8955 64.0446L113.682 64.0876L44.8955 64.1306H44.8455V64.0876C44.8455 50.2951 44.8455 35.0556 44.8455 19.0451V19.0002H44.8973L113.684 19.0092H113.721V19.0469C113.693 46.5332 113.679 63.7864 113.679 64.0876Z" fill="#263238"/>
<path d="M34.1255 40.2554C34.1255 40.2554 34.104 40.2769 34.0594 40.311L33.8628 40.4526C33.6842 40.5763 33.4394 40.7485 33.1285 40.9619C32.505 41.385 31.6366 41.9624 30.6683 42.5846C29.6999 43.2068 28.8155 43.7573 28.1669 44.15C27.8453 44.3454 27.5827 44.5086 27.4004 44.609L27.1896 44.7273C27.1656 44.7429 27.1398 44.7556 27.1128 44.765C27.1128 44.765 27.1342 44.7435 27.1789 44.713L27.3808 44.5767L28.133 44.0944L30.6147 42.5057L33.0874 40.9063L33.8396 40.4239L34.0468 40.2948C34.0716 40.2789 34.0979 40.2656 34.1255 40.2554Z" fill="#FAFAFA"/>
<path d="M31.072 41.0659C31.072 41.0659 31.0506 41.0874 31.0059 41.1215L30.8094 41.2632C30.6307 41.3851 30.3859 41.559 30.0732 41.7706C29.4497 42.1956 28.5814 42.7712 27.6148 43.3844C26.6482 43.9976 25.762 44.5589 25.1135 44.9516C24.7919 45.147 24.5292 45.3102 24.347 45.4088L24.1362 45.5289C24.1125 45.5448 24.0866 45.5569 24.0593 45.5648C24.0794 45.545 24.1015 45.5276 24.1254 45.5128L24.3273 45.3783L25.0777 44.8942L27.5612 43.3073L30.0339 41.7078L30.7861 41.2237L30.9916 41.0964C31.0169 41.0827 31.044 41.0725 31.072 41.0659Z" fill="#FAFAFA"/>
<path d="M16.03 46.2858C16.0026 46.2368 15.9839 46.1834 15.9746 46.128C15.946 46.0258 15.9067 45.8752 15.8621 45.6887C15.7446 45.2013 15.6846 44.7018 15.6834 44.2004C15.6809 43.6939 15.7971 43.1939 16.0229 42.7408C16.0935 42.6053 16.1785 42.4778 16.2766 42.3607C16.3096 42.3159 16.3494 42.2766 16.3945 42.2441C16.2804 42.4141 16.1755 42.5901 16.08 42.7713C15.8764 43.2218 15.7722 43.7111 15.7745 44.2058C15.7799 44.7011 15.8332 45.1947 15.9335 45.6797C15.9782 45.8795 16.0104 46.0819 16.03 46.2858Z" fill="#FAFAFA"/>
<path d="M8.7546 58.9988C8.74814 58.935 8.74814 58.8707 8.7546 58.807C8.7546 58.6779 8.7546 58.4914 8.76532 58.269C8.77962 57.8082 8.81356 57.1717 8.86895 56.4759C8.92434 55.7802 8.99044 55.1419 9.04762 54.6828C9.0762 54.4533 9.10122 54.2686 9.12087 54.1449C9.12759 54.0785 9.14137 54.013 9.16196 53.9495C9.17094 54.0161 9.17094 54.0836 9.16196 54.1503L9.11551 54.6882C9.0762 55.1688 9.0226 55.791 8.96364 56.4813C8.90468 57.1717 8.86895 57.7921 8.835 58.2744C8.81892 58.4896 8.80463 58.6707 8.79391 58.8123C8.78847 58.8759 8.77527 58.9385 8.7546 58.9988Z" fill="#FAFAFA"/>
<path d="M28.3349 62.479C28.3349 62.4987 27.99 62.5471 27.4558 62.7211C27.1431 62.823 26.838 62.947 26.5428 63.0922C25.8195 63.4528 25.1651 63.9383 24.6097 64.5267C24.3828 64.7654 24.1733 65.0201 23.9825 65.2888C23.6592 65.7496 23.5073 66.067 23.4912 66.058C23.5178 65.9799 23.5513 65.9042 23.5913 65.8321C23.6312 65.7445 23.6766 65.6594 23.7271 65.5775C23.7842 65.4806 23.8468 65.3677 23.9289 65.2511C24.1139 64.9739 24.3206 64.7118 24.5471 64.4675C24.8279 64.169 25.1333 63.8949 25.4601 63.6481C25.79 63.4078 26.1403 63.1972 26.5071 63.0187C26.8067 62.8743 27.1174 62.7544 27.4362 62.6601C27.5702 62.6153 27.697 62.5902 27.806 62.5633C27.8997 62.5405 27.9945 62.5225 28.0901 62.5095C28.1705 62.4915 28.2525 62.4813 28.3349 62.479Z" fill="#FAFAFA"/>
<path d="M45.9298 51.6541C45.9276 51.6284 45.9276 51.6026 45.9298 51.577C45.9298 51.522 45.9298 51.4467 45.9298 51.351C45.9298 51.1466 45.9298 50.8544 45.9173 50.4814C45.9066 49.7211 45.8923 48.6291 45.8726 47.2825C45.8244 44.5767 45.7583 40.8489 45.685 36.7302C45.6118 32.6114 45.5493 28.8764 45.5242 26.176C45.5117 24.8258 45.5082 23.732 45.51 22.9771C45.51 22.6024 45.51 22.3101 45.51 22.1075V21.8815C45.51 21.8295 45.51 21.8044 45.51 21.8044C45.5124 21.8301 45.5124 21.8559 45.51 21.8815C45.51 21.9353 45.51 22.0106 45.51 22.1075C45.51 22.3101 45.51 22.6024 45.5225 22.9771C45.5332 23.7374 45.5475 24.8276 45.5671 26.1742C45.6154 28.88 45.6815 32.6078 45.7547 36.7284C45.828 40.8489 45.8923 44.5803 45.9155 47.2807C45.928 48.6327 45.9334 49.7247 45.9316 50.4796C45.9316 50.8544 45.9316 51.1466 45.9316 51.351C45.9316 51.4461 45.9316 51.5214 45.9316 51.577C45.9325 51.6027 45.9319 51.6284 45.9298 51.6541Z" fill="#FAFAFA"/>
<path d="M97.6235 83.0183C102.35 82.8286 106.029 78.8293 105.84 74.0856C105.651 69.3419 101.666 65.6502 96.9391 65.8399C92.2124 66.0296 88.5338 70.0289 88.7229 74.7726C88.9119 79.5163 92.8969 83.208 97.6235 83.0183Z" fill="#263238"/>
<path d="M88.7133 74.2903C88.7133 74.2903 88.7133 74.3064 88.7133 74.3136C88.6806 76.5929 89.5515 78.792 91.1343 80.4269C92.7172 82.0619 94.8823 82.9988 97.1535 83.0316C99.4247 83.0644 101.616 82.1904 103.245 80.6019C104.874 79.0133 105.808 76.8404 105.84 74.561V74.5395L88.7133 74.2903Z" fill="#263238"/>
<path d="M91.2628 74.3494C91.2456 75.5425 91.5814 76.714 92.2276 77.7157C92.8738 78.7174 93.8014 79.5043 94.8933 79.977C95.9851 80.4496 97.192 80.5866 98.3614 80.3709C99.5309 80.1551 100.61 79.5962 101.463 78.7647C102.316 77.9333 102.904 76.8668 103.153 75.6999C103.402 74.533 103.301 73.3183 102.862 72.2093C102.423 71.1002 101.666 70.1467 100.687 69.4693C99.7085 68.7919 98.5514 68.421 97.3625 68.4035C95.7681 68.3805 94.2298 68.9939 93.086 70.1089C91.9421 71.2239 91.2864 72.7492 91.2628 74.3494Z" fill="#FAFAFA"/>
<path d="M97.3626 68.4035C96.5731 68.3919 95.789 68.5364 95.0551 68.829C94.3213 69.1215 93.652 69.5563 93.0856 70.1084C92.5191 70.6606 92.0667 71.3193 91.7539 72.047C91.4412 72.7746 91.2744 73.557 91.2629 74.3494L103.287 74.5287C103.299 73.736 103.156 72.9487 102.864 72.2118C102.573 71.4749 102.14 70.8028 101.59 70.2339C101.039 69.6651 100.383 69.2107 99.6576 68.8966C98.9323 68.5825 98.1525 68.4149 97.3626 68.4035Z" fill="#E0E0E0"/>
<path d="M93.6212 74.3834C93.6107 75.1104 93.8152 75.8242 94.2089 76.4345C94.6026 77.0448 95.1679 77.5242 95.8331 77.8122C96.4983 78.1001 97.2337 78.1835 97.9462 78.052C98.6587 77.9205 99.3163 77.5798 99.8359 77.0732C100.355 76.5665 100.714 75.9166 100.865 75.2056C101.017 74.4947 100.955 73.7546 100.687 73.0789C100.419 72.4033 99.9582 71.8225 99.3617 71.41C98.7651 70.9974 98.0601 70.7717 97.3357 70.7614C96.3646 70.7475 95.4277 71.1212 94.7312 71.8005C94.0346 72.4797 93.6354 73.4088 93.6212 74.3834Z" fill="#263238"/>
<path d="M86.0172 76.7917C86.0172 76.7917 84.7129 64.5986 97.3018 64.5986C108.915 64.5986 108.658 75.0846 108.547 76.7074H106.726C106.726 76.7074 107.654 66.372 97.3018 66.372C86.9498 66.372 87.8503 76.9172 87.8503 76.9172C87.8503 76.9172 87.0856 76.8795 86.0172 76.7917Z" fill="#455A64"/>
<path d="M92.7602 65.8608C92.7291 65.8768 92.6961 65.8889 92.6619 65.8966C92.5958 65.9199 92.4976 65.9432 92.3761 65.9863C92.0268 66.0978 91.6848 66.2313 91.3523 66.3861C90.2517 66.8927 89.2768 67.6379 88.4976 68.5681C87.7184 69.4983 87.1545 70.5902 86.8463 71.7654C86.752 72.1192 86.6798 72.4785 86.6301 72.8413C86.6105 72.9704 86.6033 73.0708 86.5926 73.1389C86.5896 73.174 86.5836 73.2088 86.5748 73.2429C86.5705 73.2084 86.5705 73.1735 86.5748 73.1389C86.5748 73.069 86.5748 72.9596 86.5962 72.8377C86.6316 72.4688 86.6949 72.1031 86.7856 71.7439C87.0784 70.5508 87.6402 69.441 88.4276 68.5C89.2149 67.559 90.207 66.8119 91.3273 66.3162C91.6642 66.1653 92.0118 66.0394 92.3671 65.9396C92.4922 65.9038 92.5922 65.8841 92.6584 65.8679C92.6919 65.8617 92.7261 65.8593 92.7602 65.8608Z" fill="#FAFAFA"/>
<path d="M123.682 78.2689L125.204 80.5676L125.888 82.7337C125.9 82.7708 125.919 82.8053 125.944 82.8347C125.969 82.8642 126 82.8882 126.035 82.905C126.07 82.9218 126.108 82.9313 126.147 82.9326C126.185 82.934 126.224 82.9273 126.26 82.913C126.304 82.8982 126.343 82.8728 126.374 82.839C126.405 82.8051 126.427 82.764 126.439 82.7193C126.578 82.1527 127.08 80.0655 126.96 79.9024C126.841 79.7392 125.513 77.3723 125.513 77.3723L123.682 78.2689Z" fill="#FF7A00"/>
<g opacity="0.6">
<path d="M126.26 82.9112L126.853 79.7446L126.916 79.8433C126.97 79.9283 126.992 80.0301 126.978 80.1301C126.941 80.3973 126.819 81.1343 126.442 82.7122C126.431 82.7577 126.409 82.7998 126.378 82.8346C126.347 82.8694 126.308 82.8957 126.264 82.9112H126.26Z" fill="white"/>
</g>
<g opacity="0.6">
<path d="M125.901 79.2947C125.887 79.3339 125.888 79.3766 125.902 79.4155C125.917 79.4544 125.944 79.4871 125.98 79.5081C126.018 79.5249 126.062 79.5264 126.101 79.512C126.141 79.4977 126.173 79.4687 126.192 79.431C126.209 79.3893 126.209 79.3431 126.193 79.3013C126.177 79.2595 126.146 79.2252 126.106 79.205C126.064 79.1913 126.019 79.1948 125.979 79.2146C125.94 79.2344 125.91 79.2689 125.896 79.3108" fill="white"/>
</g>
<path d="M126.147 81.5556C126.046 81.5172 125.938 81.4995 125.829 81.5036C125.723 81.5236 125.621 81.5638 125.529 81.622C125.529 81.622 125.542 81.5807 125.592 81.5377C125.659 81.4842 125.739 81.4512 125.824 81.4427C125.909 81.4326 125.995 81.4482 126.071 81.4875C126.128 81.518 126.153 81.5502 126.147 81.5556Z" fill="#263238"/>
<path d="M126.18 81.9734C126.089 81.9769 125.999 81.9871 125.91 82.0038C125.826 82.0359 125.744 82.0743 125.665 82.1186C125.651 82.1096 125.731 81.9895 125.894 81.9393C125.941 81.9214 125.991 81.9152 126.041 81.9211C126.091 81.9271 126.138 81.945 126.18 81.9734Z" fill="#263238"/>
<path d="M126.205 80.9585C126.064 80.9543 125.924 80.9609 125.785 80.9783C125.65 81.0136 125.518 81.0598 125.39 81.1163C125.49 81.0062 125.626 80.9361 125.774 80.9191C125.918 80.8815 126.07 80.8955 126.205 80.9585Z" fill="#263238"/>
<path d="M125.799 80.2216C125.799 80.2395 125.638 80.2664 125.469 80.3668C125.299 80.4673 125.19 80.591 125.176 80.5802C125.23 80.4639 125.323 80.3701 125.438 80.3149C125.543 80.2414 125.672 80.2084 125.799 80.2216Z" fill="#263238"/>
<path d="M125.369 79.5348C125.244 79.566 125.123 79.6142 125.011 79.6782C124.913 79.7574 124.826 79.849 124.752 79.9508C124.752 79.9508 124.752 79.9042 124.786 79.8378C124.833 79.754 124.898 79.6822 124.977 79.628C125.056 79.5739 125.147 79.5389 125.242 79.5258C125.324 79.5187 125.369 79.5276 125.369 79.5348Z" fill="#263238"/>
<path d="M124.941 79.5457C124.917 79.5209 124.898 79.4917 124.884 79.4596C124.84 79.3739 124.814 79.2799 124.807 79.1835C124.797 79.1141 124.809 79.043 124.841 78.9809C124.854 78.9613 124.873 78.9462 124.895 78.9375C124.916 78.9289 124.94 78.9271 124.963 78.9325C125.006 78.9467 125.043 78.976 125.066 79.015C125.111 79.0968 125.125 79.1915 125.107 79.2829C125.089 79.3742 125.04 79.4564 124.968 79.5152C124.896 79.5717 124.809 79.6054 124.718 79.6121C124.626 79.6188 124.535 79.5982 124.455 79.5529C124.435 79.5419 124.418 79.5265 124.405 79.5079C124.391 79.4893 124.383 79.4679 124.379 79.4453C124.376 79.4218 124.381 79.3982 124.393 79.3778C124.405 79.3574 124.423 79.3415 124.445 79.3323C124.51 79.3084 124.58 79.3022 124.648 79.3144C124.743 79.3251 124.836 79.3524 124.922 79.3951C124.954 79.4087 124.983 79.4281 125.008 79.4525C124.893 79.404 124.773 79.372 124.65 79.3574C124.59 79.3492 124.529 79.3559 124.472 79.3772C124.459 79.3818 124.449 79.3903 124.443 79.4013C124.436 79.4123 124.433 79.4252 124.434 79.4381C124.438 79.4527 124.445 79.4662 124.455 79.4779C124.464 79.4896 124.476 79.4993 124.489 79.5063C124.559 79.5433 124.638 79.5594 124.717 79.5527C124.796 79.546 124.871 79.5168 124.934 79.4686C124.993 79.4175 125.034 79.3484 125.05 79.2721C125.066 79.1957 125.057 79.1161 125.024 79.0454C125.008 79.0174 124.984 78.9957 124.954 78.9845C124.941 78.9811 124.928 78.9817 124.916 78.9862C124.904 78.9907 124.893 78.9989 124.886 79.0096C124.856 79.0641 124.844 79.1272 124.854 79.1889C124.864 79.3118 124.893 79.4323 124.941 79.5457Z" fill="#263238"/>
<path d="M122.235 79.5833L122.056 81.891C122.056 81.891 124.338 82.6746 124.347 83.105L119.88 83.0942L120.005 79.4883L122.235 79.5833Z" fill="#FF7A00"/>
<g opacity="0.6">
<path d="M120.686 81.6418C120.642 81.6525 120.604 81.6793 120.579 81.7169C120.554 81.7544 120.544 81.8 120.552 81.8445C120.562 81.8882 120.588 81.9265 120.625 81.9517C120.662 81.977 120.707 81.9873 120.752 81.9807C120.798 81.9684 120.838 81.9395 120.864 81.8994C120.89 81.8594 120.9 81.811 120.893 81.7638C120.879 81.7184 120.847 81.6804 120.806 81.6582C120.764 81.636 120.715 81.6314 120.67 81.6454" fill="white"/>
</g>
<g opacity="0.6">
<path d="M119.885 83.0942L119.898 82.7356L124.216 82.897C124.262 82.9212 124.3 82.9563 124.329 82.9991C124.358 83.042 124.375 83.0913 124.381 83.1426L119.885 83.0942Z" fill="white"/>
</g>
<path d="M122.133 81.8713C122.133 81.8928 122.022 81.8982 121.911 81.9645C121.801 82.0308 121.733 82.1205 121.722 82.1115C121.711 82.1026 121.74 81.9753 121.874 81.8982C122.008 81.8211 122.138 81.8515 122.133 81.8713Z" fill="#263238"/>
<path d="M122.594 82.0847C122.594 82.1062 122.503 82.1385 122.424 82.2281C122.345 82.3178 122.322 82.4074 122.299 82.4074C122.276 82.4074 122.269 82.2819 122.369 82.1725C122.469 82.0632 122.594 82.0632 122.594 82.0847Z" fill="#263238"/>
<path d="M122.839 82.6549C122.819 82.6549 122.792 82.5473 122.853 82.429C122.914 82.3106 123.017 82.2676 123.032 82.2873C123.046 82.307 122.974 82.368 122.926 82.4666C122.878 82.5652 122.86 82.6549 122.839 82.6549Z" fill="#263238"/>
<path d="M122.115 81.3406C122.104 81.3603 122.006 81.3262 121.883 81.3298C121.759 81.3334 121.661 81.3675 121.65 81.3495C121.64 81.3316 121.734 81.2545 121.881 81.2527C122.027 81.2509 122.126 81.3244 122.115 81.3406Z" fill="#263238"/>
<g opacity="0.3">
<path d="M122.199 80.0406L122.169 80.4512L119.973 80.3436L119.985 79.9724L122.199 80.0406Z" fill="black"/>
</g>
<path d="M122.142 80.8742C122.068 80.8916 121.991 80.8885 121.918 80.8652C121.838 80.8468 121.76 80.8191 121.686 80.7828C121.643 80.7616 121.601 80.7371 121.561 80.7092C121.536 80.6946 121.514 80.6758 121.495 80.6537C121.482 80.6369 121.476 80.6164 121.476 80.5954C121.476 80.5744 121.482 80.5539 121.495 80.5371C121.507 80.5223 121.522 80.5104 121.539 80.5024C121.556 80.4943 121.574 80.4902 121.593 80.4905C121.621 80.4919 121.649 80.4967 121.675 80.5048C121.723 80.5189 121.769 80.5369 121.813 80.5586C121.887 80.5963 121.956 80.6453 122.015 80.7039C122.115 80.8043 122.147 80.8832 122.138 80.8832C122.129 80.8832 122.081 80.8204 121.979 80.7361C121.919 80.6883 121.853 80.6479 121.783 80.616C121.742 80.5968 121.7 80.5818 121.656 80.5712C121.609 80.5568 121.57 80.555 121.556 80.5712C121.541 80.5873 121.556 80.5819 121.556 80.5963C121.569 80.6126 121.584 80.6266 121.602 80.6375C121.64 80.6636 121.678 80.6876 121.718 80.7092C121.786 80.7467 121.857 80.7779 121.931 80.8025C122.003 80.8217 122.073 80.8457 122.142 80.8742Z" fill="#263238"/>
<path d="M122.111 80.9047C122.072 80.8391 122.054 80.7624 122.061 80.686C122.061 80.553 122.096 80.4224 122.163 80.3076C122.176 80.2776 122.196 80.2516 122.222 80.2323C122.248 80.213 122.279 80.2013 122.311 80.1982C122.331 80.2001 122.35 80.2073 122.366 80.2189C122.382 80.2306 122.395 80.2464 122.403 80.2646C122.412 80.292 122.419 80.3202 122.422 80.3489C122.43 80.4164 122.424 80.4848 122.405 80.5501C122.386 80.6154 122.354 80.6762 122.311 80.729C122.219 80.8402 122.133 80.8635 122.133 80.8563C122.133 80.8491 122.204 80.8061 122.276 80.6967C122.316 80.6335 122.343 80.5627 122.354 80.4887C122.361 80.4453 122.361 80.4012 122.354 80.3578C122.354 80.3094 122.335 80.2718 122.315 80.2753C122.295 80.2789 122.254 80.3076 122.235 80.3453C122.211 80.3834 122.191 80.4236 122.174 80.4654C122.146 80.5367 122.129 80.6116 122.122 80.6878C122.104 80.8187 122.124 80.9011 122.111 80.9047Z" fill="#263238"/>
<path d="M123.868 60.5999C123.868 60.5999 124.688 62.2872 124.902 63.4903C124.963 63.831 122.554 81.1272 122.554 81.1272L119.707 81.0196L121.041 64.9248L120.566 61.6972L123.868 60.5999Z" fill="#263238"/>
<path d="M116.95 61.6453C116.93 62.8135 116.99 63.9817 117.128 65.1418C117.339 66.8381 117.822 68.7692 117.979 69.8487C118.325 72.2371 119.008 72.6889 119.008 72.6889L124.472 79.7053L126.616 77.7706L121.792 70.0369C121.792 70.0369 120.509 61.4552 120.553 61.6865C120.598 61.9178 116.95 61.6453 116.95 61.6453Z" fill="#263238"/>
<path d="M119.122 72.7927C119.138 72.8185 119.155 72.843 119.174 72.8662L119.33 73.0671L119.903 73.8094C120.387 74.4424 121.047 75.3102 121.777 76.2695C122.508 77.2288 123.173 78.1003 123.666 78.7207C123.911 79.0309 124.112 79.2801 124.255 79.4505L124.42 79.6441C124.438 79.6679 124.458 79.6901 124.481 79.7105C124.466 79.6842 124.449 79.6596 124.429 79.637L124.273 79.4343L123.7 78.6938L121.826 76.2319C121.097 75.269 120.43 74.4011 119.937 73.7825C119.692 73.4705 119.49 73.2231 119.349 73.0527L119.183 72.8573C119.165 72.8337 119.145 72.8121 119.122 72.7927Z" fill="#FF7A00"/>
<path d="M118.513 62.9595C118.51 63.0558 118.484 63.1499 118.436 63.2338C118.245 63.6573 117.894 63.9874 117.461 64.1519C117.374 64.1914 117.279 64.2116 117.184 64.2111C117.471 64.0891 117.738 63.924 117.975 63.7215C118.193 63.4969 118.374 63.2399 118.513 62.9595Z" fill="#FF7A00"/>
<path d="M124.409 61.9806C124.278 62.0403 124.133 62.0609 123.991 62.0399C123.849 62.019 123.717 61.9572 123.609 61.8622C123.621 61.8389 123.787 61.916 124.005 61.9465C124.223 61.977 124.404 61.9555 124.409 61.9806Z" fill="#FF7A00"/>
<path d="M121.334 64.3652C121.343 64.403 121.35 64.4413 121.354 64.48C121.365 64.5625 121.377 64.6719 121.395 64.8099C121.427 65.1058 121.474 65.5272 121.533 66.04C121.643 67.0943 121.795 68.5503 121.97 70.2251V70.2053L122.762 71.4748L125.511 75.9163C125.856 76.4812 126.137 76.9402 126.335 77.2683L126.55 77.6341C126.577 77.676 126.6 77.7204 126.619 77.7668C126.588 77.7277 126.559 77.6863 126.533 77.6431L126.298 77.2845L125.449 75.9486C124.734 74.81 123.757 73.2482 122.676 71.5233L121.886 70.252V70.2412C121.726 68.5718 121.583 67.1087 121.481 66.0525L121.37 64.8189C121.359 64.6808 121.35 64.5714 121.345 64.4872C121.337 64.4471 121.333 64.4062 121.334 64.3652Z" fill="#FF7A00"/>
<path d="M120.504 49.2926L122.208 49.8413L122.337 53.4687C122.337 53.4687 123.259 57.7309 123.459 58.2688C123.693 58.9133 123.867 59.5785 123.979 60.2556C123.979 60.2556 123.65 62.6619 121.254 62.9452C118.858 63.2285 116.628 61.8478 116.628 61.8478C116.628 61.8478 115.83 58.2617 115.097 55.0448C114.4 51.984 114.967 50.1587 114.967 50.1587L117.591 49.2119L120.504 49.2926Z" fill="#FF7A00"/>
<path d="M122.147 46.9724C122.132 46.884 122.085 46.8044 122.014 46.7493C121.944 46.6942 121.856 46.6676 121.767 46.6747C121.806 46.6445 121.838 46.6048 121.859 46.5591C121.879 46.5134 121.888 46.4634 121.884 46.4134C121.88 46.3634 121.864 46.3152 121.837 46.2732C121.81 46.2311 121.773 46.1965 121.729 46.1726C121.813 46.0448 121.846 45.8904 121.822 45.7393C121.799 45.5882 121.721 45.4513 121.602 45.355L119.803 47.8456C119.941 47.9559 120.101 48.0369 120.271 48.0838C120.441 48.1306 120.62 48.1423 120.795 48.1181C121.146 48.0664 121.483 47.9444 121.786 47.7595C121.87 47.7235 121.939 47.6603 121.983 47.5802C122.017 47.4959 121.968 47.374 121.876 47.3722C121.962 47.3516 122.038 47.2992 122.089 47.2252C122.139 47.1512 122.16 47.061 122.147 46.9724Z" fill="#263238"/>
<path d="M117.679 45.6114C117.645 45.6033 117.61 45.6056 117.578 45.6181C117.546 45.6306 117.518 45.6526 117.498 45.6812C117.479 45.7099 117.469 45.7437 117.469 45.7784C117.469 45.813 117.48 45.8467 117.5 45.875C117.446 45.8678 117.392 45.8752 117.342 45.8965C117.292 45.9179 117.249 45.9523 117.217 45.9963C117.185 46.0402 117.166 46.0919 117.161 46.146C117.156 46.2001 117.166 46.2546 117.189 46.3036C117.062 46.2964 116.937 46.331 116.832 46.4022C116.779 46.4386 116.737 46.4895 116.712 46.5489C116.686 46.6083 116.678 46.6738 116.689 46.7375C116.704 46.7989 116.742 46.8521 116.795 46.8856C116.849 46.9191 116.913 46.9303 116.975 46.9168C116.943 46.9721 116.928 47.0352 116.931 47.0987C116.935 47.1623 116.956 47.2236 116.993 47.2754C117.012 47.2995 117.036 47.3191 117.064 47.3328C117.092 47.3465 117.122 47.354 117.153 47.3549C117.184 47.3557 117.215 47.3499 117.243 47.3377C117.272 47.3255 117.297 47.3074 117.318 47.2844C117.284 47.3309 117.266 47.3876 117.267 47.4454C117.269 47.5031 117.29 47.5587 117.327 47.6031C117.364 47.6476 117.414 47.6783 117.471 47.6904C117.527 47.7025 117.586 47.6953 117.638 47.6699C117.624 47.7275 117.628 47.7881 117.65 47.843C117.672 47.8979 117.711 47.9444 117.761 47.9758C117.812 48.0072 117.87 48.0219 117.929 48.0178C117.988 48.0138 118.044 47.9912 118.09 47.9532L117.679 45.6114Z" fill="#263238"/>
<path d="M117.789 45.1344L117.711 49.5436C117.705 49.8912 117.831 50.228 118.063 50.4859C118.295 50.7439 118.616 50.9038 118.962 50.9333C119.148 50.9497 119.335 50.9277 119.513 50.8686C119.69 50.8094 119.853 50.7144 119.993 50.5894C120.132 50.4643 120.244 50.3119 120.323 50.1416C120.401 49.9713 120.444 49.7867 120.448 49.5992C120.448 49.1796 120.462 48.8353 120.462 48.8353C120.462 48.8353 121.534 48.7636 121.64 47.7057C121.702 47.0924 121.718 45.6938 121.722 44.6198C121.723 44.27 121.594 43.9324 121.359 43.6741C121.124 43.4157 120.801 43.2553 120.453 43.2247L119.816 43.1692C119.553 43.161 119.291 43.2058 119.046 43.3008C118.801 43.3958 118.578 43.5391 118.389 43.7224C118.2 43.9056 118.05 44.1249 117.947 44.3674C117.844 44.61 117.79 44.8708 117.789 45.1344Z" fill="#FFBE9D"/>
<path d="M120.459 48.8353C119.97 48.7887 119.505 48.602 119.119 48.2974C119.119 48.2974 119.39 49.0989 120.453 49.0971L120.459 48.8353Z" fill="#EB996E"/>
<path d="M121.424 45.6974C121.404 45.7153 121.297 45.6203 121.134 45.6059C120.972 45.5916 120.847 45.6633 120.83 45.6418C120.814 45.6203 120.845 45.597 120.9 45.5647C120.974 45.5215 121.06 45.5027 121.145 45.5109C121.23 45.5186 121.31 45.5531 121.374 45.6095C121.42 45.6508 121.434 45.6884 121.424 45.6974Z" fill="#263238"/>
<path d="M119.707 45.7674C119.703 45.8069 119.685 45.8436 119.655 45.8697C119.626 45.8958 119.587 45.9093 119.548 45.9073C119.528 45.9073 119.509 45.9034 119.491 45.8959C119.474 45.8884 119.457 45.8774 119.444 45.8635C119.43 45.8496 119.42 45.8332 119.413 45.8151C119.406 45.7971 119.402 45.7778 119.403 45.7585C119.406 45.719 119.424 45.6823 119.454 45.6562C119.484 45.6301 119.522 45.6166 119.562 45.6186C119.581 45.6186 119.6 45.6225 119.618 45.63C119.636 45.6375 119.652 45.6485 119.666 45.6624C119.679 45.6763 119.69 45.6927 119.697 45.7107C119.704 45.7288 119.707 45.7481 119.707 45.7674Z" fill="#263238"/>
<path d="M121.279 45.9107C121.276 45.9502 121.257 45.9868 121.228 46.0129C121.198 46.039 121.159 46.0525 121.12 46.0505C121.101 46.0501 121.082 46.0458 121.064 46.038C121.046 46.0302 121.03 46.0189 121.017 46.0049C121.004 45.991 120.994 45.9745 120.987 45.9565C120.98 45.9384 120.976 45.9192 120.977 45.8999C120.98 45.8603 120.998 45.8233 121.028 45.7971C121.057 45.7709 121.096 45.7576 121.136 45.7601C121.155 45.76 121.174 45.764 121.192 45.7716C121.21 45.7793 121.226 45.7905 121.24 45.8046C121.253 45.8187 121.263 45.8353 121.27 45.8536C121.277 45.8718 121.28 45.8912 121.279 45.9107Z" fill="#263238"/>
<path d="M119.844 45.5575C119.824 45.5754 119.717 45.4804 119.555 45.4661C119.392 45.4517 119.265 45.5234 119.249 45.5019C119.233 45.4804 119.263 45.4571 119.319 45.4248C119.393 45.382 119.478 45.3631 119.563 45.3708C119.648 45.3785 119.729 45.4124 119.794 45.4679C119.841 45.5109 119.855 45.5485 119.844 45.5575Z" fill="#263238"/>
<path d="M120.326 46.8182C120.416 46.7986 120.508 46.7902 120.6 46.7931C120.643 46.7931 120.682 46.7931 120.691 46.7608C120.699 46.7183 120.693 46.6744 120.675 46.6353C120.644 46.5295 120.612 46.4219 120.58 46.3071C120.49 46.0287 120.422 45.7432 120.378 45.4536C120.49 45.724 120.58 46.0028 120.648 46.2874C120.678 46.404 120.709 46.5133 120.737 46.6173C120.756 46.6707 120.756 46.729 120.737 46.7823C120.73 46.7964 120.72 46.8087 120.707 46.8184C120.694 46.828 120.68 46.8346 120.664 46.8379C120.64 46.8404 120.616 46.8404 120.593 46.8379C120.503 46.8425 120.414 46.8358 120.326 46.8182Z" fill="#263238"/>
<path d="M119.839 46.888C119.866 46.888 119.851 47.0673 119.991 47.2054C120.13 47.3434 120.319 47.3416 120.319 47.365C120.319 47.3883 120.273 47.3972 120.194 47.3919C120.091 47.3837 119.993 47.3392 119.919 47.2663C119.848 47.1971 119.806 47.1025 119.803 47.0028C119.803 46.9274 119.828 46.8862 119.839 46.888Z" fill="#263238"/>
<path d="M119.933 45.0304C119.912 45.0735 119.755 45.0304 119.56 45.0448C119.365 45.0591 119.203 45.0896 119.187 45.0448C119.17 45 119.208 44.9856 119.274 44.948C119.361 44.902 119.458 44.8774 119.556 44.8762C119.655 44.8734 119.753 44.8937 119.842 44.9354C119.908 44.9731 119.941 45.0107 119.933 45.0304Z" fill="#263238"/>
<path d="M121.443 45.2277C121.411 45.2635 121.302 45.2151 121.168 45.2008C121.034 45.1864 120.918 45.2008 120.895 45.1631C120.871 45.1255 120.905 45.1075 120.959 45.0771C121.029 45.041 121.109 45.0267 121.187 45.0359C121.266 45.0452 121.34 45.0776 121.4 45.1291C121.445 45.1793 121.457 45.2115 121.443 45.2277Z" fill="#263238"/>
<path d="M118.075 45.9611C118.058 45.9521 117.361 45.6814 117.327 46.4094C117.293 47.1374 118.022 47.028 118.025 47.0065C118.029 46.985 118.075 45.9611 118.075 45.9611Z" fill="#FFBE9D"/>
<path d="M117.82 46.7177C117.82 46.7177 117.805 46.7266 117.784 46.7356C117.753 46.7472 117.72 46.7472 117.689 46.7356C117.644 46.7032 117.609 46.6594 117.586 46.6087C117.564 46.558 117.555 46.5022 117.561 46.4469C117.563 46.3847 117.578 46.3236 117.605 46.2676C117.614 46.2456 117.628 46.2259 117.646 46.2101C117.663 46.1942 117.684 46.1826 117.707 46.1762C117.722 46.1731 117.737 46.1754 117.75 46.1826C117.763 46.1898 117.773 46.2015 117.779 46.2156C117.779 46.2371 117.779 46.2515 117.779 46.2515C117.779 46.2515 117.795 46.2407 117.791 46.2102C117.788 46.192 117.778 46.1755 117.764 46.1636C117.746 46.1472 117.721 46.1388 117.696 46.1403C117.666 46.1448 117.638 46.1568 117.614 46.1753C117.59 46.1938 117.571 46.2182 117.559 46.2461C117.524 46.3074 117.505 46.3764 117.503 46.4469C117.496 46.5114 117.508 46.5766 117.538 46.6343C117.567 46.6921 117.613 46.7398 117.67 46.7715C117.689 46.7778 117.709 46.78 117.729 46.7778C117.749 46.7757 117.768 46.7692 117.786 46.7589C117.816 46.7356 117.822 46.7195 117.82 46.7177Z" fill="#EB996E"/>
<path d="M117.675 45.8963C117.744 45.8977 117.812 45.9179 117.87 45.9549C117.929 45.9919 117.976 46.0441 118.007 46.1061C118.045 46.2137 118.045 46.3321 118.082 46.4396C118.12 46.5472 118.218 46.6512 118.331 46.6333C118.369 46.6253 118.405 46.6071 118.434 46.5806C118.463 46.5541 118.485 46.5203 118.497 46.4827C118.519 46.4065 118.527 46.3267 118.518 46.2478C118.506 45.9053 118.465 45.5628 118.481 45.2221C118.485 44.8769 118.589 44.5403 118.781 44.2539C118.88 44.1122 119.015 44 119.173 43.9293C119.33 43.8586 119.503 43.8319 119.674 43.8522C119.898 43.8899 120.093 44.0315 120.312 44.0781C120.444 44.1073 120.58 44.1063 120.711 44.0752C120.841 44.0442 120.964 43.9839 121.068 43.8988C121.095 43.8773 121.215 43.8128 121.215 43.8128C121.218 43.7318 121.198 43.6516 121.157 43.5814C120.752 43.1314 119.964 42.9449 119.371 43.0435C119.067 43.0904 118.777 43.2031 118.522 43.3737C118.266 43.5443 118.05 43.7688 117.89 44.0315C117.589 44.5605 117.597 45.3315 117.686 45.8999" fill="#263238"/>
<path d="M121.851 44.4387C121.787 44.541 121.697 44.6246 121.591 44.6812C121.484 44.7379 121.365 44.7655 121.245 44.7615C121.004 44.7504 120.768 44.6938 120.548 44.5947C120.2 44.4745 119.841 44.3887 119.476 44.3383C119.44 44.3383 119.397 44.3383 119.381 44.3006C119.365 44.263 119.405 44.2128 119.444 44.1859C119.782 43.9671 120.555 43.8828 120.957 43.9008C121.159 43.905 121.356 43.961 121.53 44.0633C121.704 44.1656 121.848 44.3109 121.951 44.4853" fill="#263238"/>
<path d="M121.745 44.462C121.536 44.1973 121.232 44.0249 120.898 43.9814C120.257 43.9274 119.614 44.0518 119.039 44.3409C118.464 44.6301 117.98 45.0728 117.639 45.6203C117.575 45.3113 117.542 44.9964 117.543 44.6807C117.561 44.4638 117.804 43.1907 119.151 42.9038C119.156 42.9002 121.207 42.3102 121.745 44.462Z" fill="#FF7A00"/>
<path d="M117.781 45.3459C118.256 44.7539 118.854 44.273 119.533 43.9365C120.33 43.5718 121.171 43.312 122.035 43.1637C122.256 43.1112 122.487 43.1069 122.71 43.1511C122.821 43.1756 122.923 43.2309 123.004 43.3108C123.085 43.3908 123.143 43.492 123.169 43.603C123.214 43.8827 122.69 44.2646 122.454 44.4099C122.217 44.5398 121.973 44.6565 121.724 44.7595C121.724 44.7595 121.776 44.2521 120.972 44.0746C119.873 43.8325 117.781 45.3459 117.781 45.3459Z" fill="#FF7A00"/>
<path d="M122.851 43.1872C122.775 43.171 122.698 43.1591 122.621 43.1513C122.407 43.1433 122.193 43.1577 121.983 43.1944C121.285 43.3123 120.603 43.5066 119.948 43.7735C119.288 44.0282 118.682 44.4054 118.161 44.8852C118.006 45.0316 117.869 45.1966 117.754 45.3766C117.675 45.5057 117.645 45.5846 117.638 45.581C117.63 45.5774 117.638 45.5595 117.652 45.5218C117.671 45.4656 117.695 45.4111 117.723 45.3586C117.828 45.1669 117.961 44.9917 118.116 44.8386C118.631 44.3358 119.243 43.944 119.914 43.6875C120.575 43.4166 121.267 43.2287 121.974 43.128C122.189 43.0976 122.408 43.0934 122.624 43.1155C122.686 43.1201 122.746 43.1347 122.803 43.1585C122.835 43.1746 122.853 43.1836 122.851 43.1872Z" fill="#263238"/>
<path d="M120.242 43.4685C120.505 43.3565 120.784 43.2881 121.068 43.2659C121.006 43.2074 120.937 43.1568 120.862 43.1152C120.641 43.1327 120.424 43.1854 120.219 43.2712L120.242 43.4685Z" fill="#FAFAFA"/>
<path d="M121.867 44.8205C121.9 44.7741 121.92 44.7196 121.925 44.6627C121.931 44.6057 121.921 44.5485 121.896 44.4967C121.872 44.445 121.835 44.4007 121.788 44.3684C121.741 44.3361 121.686 44.317 121.629 44.313C121.667 44.298 121.701 44.2753 121.729 44.2463C121.757 44.2174 121.779 44.1829 121.794 44.1451C121.808 44.1072 121.815 44.0667 121.813 44.0262C121.811 43.9856 121.801 43.946 121.783 43.9096C121.741 43.8391 121.676 43.7847 121.6 43.7548C121.524 43.725 121.44 43.7214 121.361 43.7446C121.283 43.7705 121.213 43.8145 121.155 43.8731C121.098 43.9318 121.055 44.0033 121.031 44.0817C120.997 44.0322 120.952 43.992 120.899 43.9651C120.846 43.9381 120.786 43.9253 120.727 43.9278C120.667 43.9303 120.61 43.9481 120.559 43.9795C120.508 44.0108 120.466 44.0547 120.437 44.1068C120.421 44.062 120.389 44.0248 120.347 44.0029C120.305 43.9809 120.256 43.9758 120.21 43.9885C120.12 44.0185 120.037 44.0681 119.967 44.1337C119.898 44.2001 119.808 44.2412 119.712 44.2503L119.649 44.2772C119.701 44.3597 119.78 44.4206 119.873 44.4483C119.966 44.476 120.065 44.4688 120.153 44.4278C120.152 44.4889 120.172 44.5486 120.208 44.5979C120.244 44.6472 120.295 44.6834 120.353 44.701C120.411 44.7186 120.474 44.7167 120.531 44.6956C120.588 44.6744 120.637 44.6352 120.67 44.5838C120.681 44.629 120.703 44.6708 120.734 44.7052C120.765 44.7397 120.805 44.7657 120.849 44.781C120.892 44.7964 120.939 44.8004 120.985 44.7929C121.031 44.7854 121.074 44.7665 121.111 44.738C121.131 44.7904 121.163 44.8374 121.204 44.8751C121.246 44.9129 121.295 44.9403 121.349 44.9553C121.403 44.9703 121.46 44.9724 121.514 44.9615C121.569 44.9505 121.621 44.9268 121.665 44.8922C121.71 44.9649 121.74 45.0464 121.752 45.1314C121.763 45.2165 121.757 45.303 121.733 45.3853C121.792 45.3722 121.846 45.3427 121.889 45.3002C121.932 45.2577 121.962 45.2039 121.976 45.145C121.99 45.0861 121.987 45.0244 121.968 44.967C121.948 44.9096 121.913 44.8589 121.867 44.8205Z" fill="#263238"/>
<path d="M118.845 44.6414C118.596 44.7522 118.357 44.8848 118.131 45.0376C117.904 45.1934 117.722 45.4069 117.604 45.6562L117.961 45.9987C118.059 46.031 118.14 46.0651 118.215 45.9987C118.254 45.965 118.283 45.922 118.301 45.8738C118.32 45.8256 118.325 45.7736 118.318 45.7226C118.366 45.7328 118.415 45.7297 118.461 45.7136C118.507 45.6976 118.547 45.6693 118.578 45.6317C118.609 45.5941 118.629 45.5488 118.636 45.5006C118.642 45.4524 118.636 45.4033 118.617 45.3586C118.652 45.3502 118.685 45.3325 118.711 45.3073C118.738 45.282 118.757 45.2503 118.767 45.2151C118.776 45.18 118.776 45.1431 118.767 45.1079C118.758 45.0727 118.74 45.0405 118.715 45.0143C118.755 45.0119 118.794 44.9978 118.827 44.9736C118.859 44.9493 118.884 44.9161 118.898 44.878C118.911 44.8399 118.914 44.7985 118.905 44.759C118.895 44.7195 118.875 44.6836 118.845 44.6557V44.6414Z" fill="#263238"/>
<path d="M122.208 49.8413C122.208 49.8413 123.264 50.4779 123.582 51.0445C123.9 51.6111 125.59 55.746 125.52 56.4238C125.451 57.1015 123.864 57.5193 123.864 57.5193L122.208 55.3676L122.966 54.914L122.208 53.449V49.8413Z" fill="#FF7A00"/>
<path d="M123.868 57.5138C123.868 57.5138 120.03 58.2849 118.636 56.6173L119.04 55.2097C119.04 55.2097 121.576 55.8122 122.369 55.554L123.868 57.5138Z" fill="#FFBE9D"/>
<path d="M124.264 54.0928C124.279 54.1215 123.814 54.3169 123.33 54.6881C122.846 55.0593 122.54 55.4609 122.515 55.4412C122.559 55.3407 122.619 55.2486 122.694 55.1686C122.862 54.9631 123.054 54.7772 123.264 54.6146C123.475 54.4532 123.703 54.3155 123.944 54.2039C124.044 54.1491 124.152 54.1115 124.264 54.0928Z" fill="#263238"/>
<path d="M123.033 54.862C122.896 54.6448 122.781 54.4148 122.688 54.1752C122.566 53.9499 122.461 53.7155 122.374 53.4741C122.543 53.6709 122.677 53.8945 122.772 54.1358C122.893 54.3644 122.981 54.6088 123.033 54.862Z" fill="#263238"/>
<path d="M122.336 53.1209C122.326 52.9185 122.295 52.7178 122.244 52.522C122.211 52.3213 122.159 52.1243 122.088 51.9338C122.131 52.3369 122.214 52.7345 122.336 53.1209Z" fill="#263238"/>
<path d="M115.447 50.3791C115.52 50.4562 116.575 51.1573 116.927 52.3515C117.278 53.5457 117.666 54.7919 117.666 54.7919L119.04 54.9712L118.265 58.1522C117.74 58.071 117.239 57.8775 116.795 57.5848C116.352 57.2921 115.976 56.9071 115.694 56.4559C115.08 55.3836 114.584 54.248 114.214 53.0688C114.214 53.0688 114.33 49.2064 115.447 50.3791Z" fill="#FF7A00"/>
<path d="M118.568 54.9086C118.568 54.9086 117.986 53.5996 117.907 53.5817C117.829 53.5638 116.705 53.1675 116.705 53.1675C116.671 53.2594 116.671 53.3607 116.705 53.4526L116.299 53.5046C116.299 53.5046 116.36 53.7538 116.498 53.7879L116.351 53.9188C116.425 54.0159 116.519 54.0955 116.626 54.1519C116.668 54.1724 116.713 54.1831 116.759 54.1831C116.806 54.1831 116.851 54.1724 116.892 54.1519C116.892 54.1519 116.842 54.2451 117.071 54.3922C117.3 54.5392 117.698 54.7508 117.698 54.7508L118.568 54.9086Z" fill="#FFBE9D"/>
<path d="M117.7 54.7578C117.7 54.7578 117.302 54.539 117.073 54.3992C116.875 54.2737 116.88 54.1876 116.894 54.1625C116.853 54.1811 116.809 54.1907 116.764 54.1907C116.719 54.1907 116.675 54.1811 116.634 54.1625C116.526 54.1049 116.431 54.0248 116.357 53.9276L116.491 53.7859C116.357 53.7465 116.298 53.5116 116.296 53.5008L116.7 53.4488C116.667 53.3572 116.667 53.2572 116.7 53.1655C116.71 53.1655 117.827 53.5636 117.904 53.5797C117.981 53.5959 118.542 54.8546 118.567 54.9084L117.7 54.7578ZM116.707 53.4506L116.301 53.5026C116.301 53.5313 116.371 53.7501 116.498 53.7824L116.35 53.9132C116.422 54.0094 116.514 54.0879 116.621 54.1428C116.662 54.1629 116.707 54.1734 116.753 54.1734C116.799 54.1734 116.844 54.1629 116.886 54.1428V54.1535C116.886 54.1535 116.839 54.2468 117.064 54.3902C117.289 54.5337 117.677 54.7488 117.691 54.7488L118.554 54.9012C118.351 54.4476 117.956 53.5941 117.897 53.5815C117.838 53.569 116.757 53.1888 116.696 53.1673C116.664 53.2598 116.668 53.3609 116.707 53.4506Z" fill="#EB996E"/>
<path d="M116.741 53.4561C116.978 53.5717 117.224 53.6682 117.477 53.7447C117.58 53.7824 117.682 53.8093 117.763 53.8487C117.835 53.8829 117.894 53.9395 117.931 54.0101C117.999 54.1321 118.024 54.2199 118.034 54.2163C118.03 54.1366 118.008 54.0588 117.97 53.9886C117.932 53.9076 117.87 53.841 117.791 53.7985C117.696 53.7555 117.598 53.7184 117.498 53.6874C117.252 53.592 116.998 53.5147 116.741 53.4561Z" fill="#EB996E"/>
<path d="M116.478 53.7861C116.541 53.8236 116.61 53.8485 116.682 53.8597C116.81 53.8955 116.993 53.9242 117.186 53.9762C117.35 54.0172 117.505 54.0903 117.641 54.1914C117.745 54.2721 117.789 54.342 117.798 54.3366C117.773 54.2658 117.729 54.2036 117.67 54.1573C117.535 54.041 117.374 53.9581 117.202 53.9152C117.003 53.8614 116.819 53.8399 116.691 53.8166C116.621 53.7986 116.55 53.7884 116.478 53.7861Z" fill="#EB996E"/>
<path d="M117.509 54.385C117.443 54.2953 117.347 54.2319 117.239 54.2057C117.137 54.1596 117.023 54.1489 116.914 54.1753C116.914 54.195 117.057 54.2039 117.22 54.2631C117.382 54.3223 117.498 54.3994 117.509 54.385Z" fill="#EB996E"/>
<path d="M118.922 55.3103L122.386 53.5566L123.021 54.853C123.021 54.853 119.828 58.0286 118.333 57.9874" fill="#FFBE9D"/>
<path d="M116.818 51.6343C116.823 51.7219 116.838 51.8086 116.864 51.8925C116.902 52.0485 116.955 52.2637 117.02 52.5003C117.084 52.737 117.145 52.9522 117.198 53.1064C117.218 53.1911 117.248 53.273 117.288 53.3503C117.281 53.2634 117.266 53.1774 117.241 53.0939C117.204 52.9379 117.15 52.7227 117.086 52.4842C117.021 52.2457 116.961 52.0341 116.907 51.8817C116.887 51.7961 116.857 51.713 116.818 51.6343Z" fill="#263238"/>
<path d="M116.968 55.9503C116.978 55.9503 117.009 55.7907 117.089 55.5415C117.135 55.3967 117.205 55.2608 117.296 55.1398C117.406 54.9961 117.564 54.8973 117.741 54.8619C117.926 54.8533 118.111 54.8745 118.29 54.9247L118.744 55.0161C118.8 55.0237 118.856 55.0382 118.91 55.0591C118.948 55.076 118.978 55.1068 118.994 55.1452C119.001 55.1616 119.004 55.1793 119.004 55.1972C119.004 55.2151 119.001 55.2328 118.994 55.2492C118.994 55.2492 119.042 55.2205 119.022 55.138C119.015 55.1145 119.004 55.0927 118.988 55.0739C118.972 55.0551 118.953 55.0397 118.931 55.0287C118.874 55.0022 118.814 54.9835 118.753 54.9731L118.3 54.8691C118.116 54.8138 117.923 54.7907 117.731 54.8009C117.536 54.8393 117.363 54.9501 117.246 55.1111C117.153 55.2386 117.084 55.382 117.043 55.5343C117.013 55.6357 116.99 55.7386 116.973 55.8427C116.966 55.8781 116.964 55.9144 116.968 55.9503Z" fill="#263238"/>
<path d="M116.49 55.2509C116.585 55.0829 116.712 54.9354 116.864 54.817C117.032 54.7165 117.212 54.6381 117.4 54.5839C117.34 54.5743 117.279 54.5792 117.221 54.5982C117.082 54.6274 116.95 54.6847 116.834 54.7667C116.716 54.849 116.618 54.9577 116.549 55.0841C116.516 55.1336 116.495 55.1911 116.49 55.2509Z" fill="#263238"/>
<path d="M114.214 53.0688C114.214 53.0688 114.214 53.0922 114.232 53.137C114.25 53.1818 114.27 53.25 114.297 53.3271C114.355 53.5064 114.436 53.7359 114.536 54.0246C114.636 54.3133 114.758 54.6719 114.929 55.0484C115.101 55.425 115.302 55.8302 115.547 56.2408C115.776 56.6297 116.067 56.9776 116.41 57.2701C116.69 57.5093 117.003 57.7056 117.339 57.8528C117.567 57.9513 117.808 58.0183 118.054 58.0519C118.12 58.0618 118.187 58.0684 118.254 58.0716C118.3 58.0716 118.324 58.0716 118.324 58.0716C118.324 58.0716 118.229 58.0608 118.057 58.0303C117.817 57.987 117.583 57.9142 117.361 57.8134C116.626 57.4727 116.013 56.9138 115.604 56.2121C115.361 55.8051 115.165 55.3945 114.984 55.0269C114.804 54.6593 114.688 54.3097 114.579 54.012C114.47 53.7144 114.386 53.4831 114.322 53.3199L114.247 53.1406C114.238 53.1156 114.228 53.0916 114.214 53.0688Z" fill="#263238"/>
<path d="M115.208 50.4546C115.208 50.4725 115.472 50.5693 115.774 50.7504C116.076 50.9316 116.292 51.1198 116.31 51.1091C116.018 50.7864 115.636 50.5596 115.213 50.4582L115.208 50.4546Z" fill="#263238"/>
<path d="M117.836 58.9036C117.893 58.9385 117.953 58.9685 118.015 58.9932C118.074 59.0219 118.145 59.0542 118.229 59.0865C118.313 59.1187 118.408 59.1618 118.518 59.1958C118.771 59.2861 119.029 59.3616 119.29 59.4218C119.611 59.4929 119.937 59.5444 120.264 59.576C120.592 59.6031 120.921 59.6091 121.25 59.5939C121.518 59.5813 121.786 59.5532 122.051 59.5096C122.163 59.4935 122.265 59.4702 122.353 59.4523C122.44 59.4343 122.519 59.4146 122.58 59.3985C122.645 59.3839 122.708 59.3648 122.771 59.3411C122.704 59.3478 122.639 59.3592 122.574 59.3751C122.513 59.3877 122.437 59.4038 122.347 59.4182C122.258 59.4325 122.156 59.454 122.044 59.4666C121.779 59.5047 121.513 59.5286 121.247 59.5383C120.921 59.5491 120.594 59.5407 120.269 59.5132C119.945 59.4829 119.622 59.4338 119.303 59.3662C119.043 59.3091 118.786 59.2385 118.533 59.1546C118.422 59.1223 118.327 59.0847 118.242 59.0542C118.156 59.0237 118.084 58.995 118.025 58.9717C117.964 58.9447 117.901 58.9219 117.836 58.9036Z" fill="#263238"/>
<path d="M120.65 60.7093C120.89 60.6782 121.126 60.618 121.352 60.5299C121.584 60.4631 121.808 60.368 122.017 60.2466C122.017 60.2305 121.709 60.3453 121.332 60.4708C120.955 60.5963 120.646 60.6931 120.65 60.7093Z" fill="#263238"/>
<g opacity="0.3">
<path d="M123.294 57.6089C122.503 57.7659 121.689 57.7781 120.893 57.6447C120.604 57.5569 120.301 57.5204 120 57.5372C119.76 57.5955 119.529 57.6835 119.312 57.7989C118.901 57.9686 118.454 58.0333 118.012 57.9873C117.57 57.9413 117.146 57.786 116.778 57.5354C116.908 57.7832 117.094 57.9963 117.322 58.157C117.55 58.3176 117.814 58.4211 118.09 58.4588C118.642 58.5291 119.204 58.479 119.735 58.3118C120.052 58.2081 120.379 58.142 120.711 58.1145C121.132 58.1038 121.545 58.2418 121.961 58.249C122.45 58.2632 122.929 58.1178 123.328 57.8348L123.294 57.6089Z" fill="black"/>
</g>
<g opacity="0.3">
<path d="M121.922 60.3704C121.744 60.6697 121.499 60.9229 121.206 61.1098C120.913 61.2967 120.581 61.4119 120.235 61.4462C120.086 61.465 119.935 61.4528 119.79 61.4104C119.718 61.3891 119.651 61.3531 119.593 61.3047C119.536 61.2562 119.488 61.1964 119.455 61.1288C119.615 61.0257 119.792 60.9522 119.978 60.9119L121.902 60.3829" fill="black"/>
</g>
<path d="M122.969 54.905C122.922 54.9629 122.87 55.0163 122.814 55.0646C122.71 55.165 122.56 55.3085 122.383 55.4914C122.206 55.6743 121.995 55.9002 121.738 56.1243C121.481 56.3485 121.188 56.5798 120.879 56.8201C120.588 57.0485 120.283 57.2581 119.966 57.4476C119.706 57.6032 119.43 57.7312 119.144 57.8296C118.951 57.8954 118.752 57.944 118.551 57.9748C118.478 57.9877 118.403 57.9919 118.329 57.9874C118.598 57.9305 118.863 57.8574 119.122 57.7686C119.401 57.6622 119.669 57.5302 119.923 57.3741C120.232 57.1821 120.53 56.9725 120.816 56.7465C121.125 56.5063 121.42 56.2785 121.676 56.0598C121.931 55.841 122.145 55.6241 122.331 55.4448C122.517 55.2654 122.674 55.1292 122.785 55.0377C122.841 54.986 122.903 54.9415 122.969 54.905Z" fill="#EB996E"/>
<g clip-path="url(#clip0_2349_4506)">
</g>
<defs>
<clipPath id="clip0_2349_4506">
<rect width="25.6361" height="17.6729" fill="white" transform="matrix(0.982 -0.188883 0.187579 0.982249 65.2134 35.856)"/>
</clipPath>
</defs>
</svg>
